%TF.GenerationSoftware,KiCad,Pcbnew,10.0.4*%
%TF.CreationDate,2026-07-16T14:59:28-06:00*%
%TF.ProjectId,esi-c3-hardware,6573692d-6333-42d6-9861-726477617265,7.0*%
%TF.SameCoordinates,PX42c1d80PY876bf80*%
%TF.FileFunction,Soldermask,Bot*%
%TF.FilePolarity,Negative*%
%FSLAX46Y46*%
G04 Gerber Fmt 4.6, Leading zero omitted, Abs format (unit mm)*
G04 Created by KiCad (PCBNEW 10.0.4) date 2026-07-16 14:59:28*
%MOMM*%
%LPD*%
G01*
G04 APERTURE LIST*
G04 Aperture macros list*
%AMFreePoly0*
4,1,5,0.635000,-1.778000,-0.457200,-1.778000,-0.457200,2.540000,0.635000,2.540000,0.635000,-1.778000,0.635000,-1.778000,$1*%
%AMFreePoly1*
4,1,5,0.457200,-1.778000,-0.635000,-1.778000,-0.635000,2.540000,0.457200,2.540000,0.457200,-1.778000,0.457200,-1.778000,$1*%
G04 Aperture macros list end*
%ADD10C,0.262132*%
%ADD11C,0.000000*%
%ADD12R,1.700000X1.700000*%
%ADD13C,1.700000*%
%ADD14FreePoly0,180.000000*%
%ADD15FreePoly1,180.000000*%
%ADD16R,1.000000X1.000000*%
%ADD17C,1.000000*%
%ADD18C,0.457200*%
%ADD19C,1.100000*%
%ADD20O,1.092200X2.057400*%
%ADD21C,3.000000*%
G04 APERTURE END LIST*
D10*
X68581066Y67450000D02*
G75*
G02*
X68318934Y67450000I-131066J0D01*
G01*
X68318934Y67450000D02*
G75*
G02*
X68581066Y67450000I131066J0D01*
G01*
D11*
%TO.C,PCB1*%
G36*
X6050000Y9850000D02*
G01*
X3796723Y9850000D01*
X3657537Y9868324D01*
X3524784Y9923312D01*
X3410787Y10010787D01*
X3321265Y10127452D01*
X3250000Y10393417D01*
X3250000Y90120711D01*
X6050000Y92920711D01*
X6050000Y9850000D01*
G37*
G36*
X103150000Y90121846D02*
G01*
X103150000Y10396723D01*
X103131676Y10257537D01*
X103076688Y10124784D01*
X102989213Y10010787D01*
X102875216Y9923312D01*
X102742463Y9868324D01*
X102603277Y9850000D01*
X100350000Y9850000D01*
X100350000Y92714438D01*
X103150000Y90121846D01*
G37*
G36*
X87650000Y1796723D02*
G01*
X87631676Y1657537D01*
X87576688Y1524784D01*
X87489213Y1410787D01*
X87375216Y1323312D01*
X87242463Y1268324D01*
X87103277Y1250000D01*
X19296723Y1250000D01*
X19157537Y1268324D01*
X19024784Y1323312D01*
X18910787Y1410787D01*
X18821265Y1527452D01*
X18750000Y1793417D01*
X18750000Y3950000D01*
X87650000Y3950000D01*
X87650000Y1796723D01*
G37*
%TD*%
D12*
%TO.C,J6*%
X9500000Y58900000D03*
D13*
X9500000Y61440000D03*
%TD*%
D14*
%TO.C,J3*%
X79168000Y90122000D03*
D15*
X83232000Y90122000D03*
%TD*%
D16*
%TO.C,J7*%
X13100000Y58295000D03*
D17*
X13100000Y59565000D03*
X13100000Y60835000D03*
X13100000Y62105000D03*
%TD*%
D18*
%TO.C,U6*%
X34680000Y75960000D03*
X34680000Y76800000D03*
X34680000Y77640000D03*
X33720000Y75960000D03*
X33720000Y76800000D03*
X33720000Y77640000D03*
%TD*%
D19*
%TO.C,TP81*%
X16500000Y60250000D03*
%TD*%
%TO.C,TP18*%
X56050000Y62050000D03*
%TD*%
%TO.C,TP150*%
X11600000Y79575000D03*
%TD*%
%TO.C,TP83*%
X44200000Y24750000D03*
%TD*%
D20*
%TO.C,J1*%
X65265000Y90311600D03*
X65265000Y88076400D03*
X63995000Y90311600D03*
X63995000Y88076400D03*
X62725000Y90311600D03*
X62725000Y88076400D03*
X61455000Y90311600D03*
X61455000Y88076400D03*
X60185000Y90311600D03*
X60185000Y88076400D03*
X58915000Y90311600D03*
X58915000Y88076400D03*
X57645000Y90311600D03*
X57645000Y88076400D03*
X56375000Y90311600D03*
X56375000Y88076400D03*
X55105000Y90311600D03*
X55105000Y88076400D03*
X53835000Y90311600D03*
X53835000Y88076400D03*
X52565000Y90311600D03*
X52565000Y88076400D03*
X51295000Y90311600D03*
X51295000Y88076400D03*
X50025000Y90311600D03*
X50025000Y88076400D03*
X48755000Y90311600D03*
X48755000Y88076400D03*
X47485000Y90311600D03*
X47485000Y88076400D03*
X46215000Y90311600D03*
X46215000Y88076400D03*
X44945000Y90311600D03*
X44945000Y88076400D03*
X43675000Y90311600D03*
X43675000Y88076400D03*
X42405000Y90311600D03*
X42405000Y88076400D03*
X41135000Y90311600D03*
X41135000Y88076400D03*
%TD*%
D19*
%TO.C,TP85*%
X40600000Y48400000D03*
%TD*%
%TO.C,TP151*%
X92600000Y17400000D03*
%TD*%
D18*
%TO.C,U41*%
X72499118Y78977738D03*
X72499118Y80077738D03*
%TD*%
D19*
%TO.C,TP8*%
X16987500Y90575000D03*
%TD*%
%TO.C,TP135*%
X37500000Y26350000D03*
%TD*%
D18*
%TO.C,U29*%
X98050000Y87250000D03*
X96950000Y87250000D03*
%TD*%
D19*
%TO.C,TP9*%
X8950000Y89800000D03*
%TD*%
%TO.C,TP84*%
X39800000Y26000000D03*
%TD*%
%TO.C,TP78*%
X36550000Y19470000D03*
%TD*%
%TO.C,TP6*%
X10462500Y75037500D03*
%TD*%
%TO.C,TP82*%
X40600000Y49800000D03*
%TD*%
D14*
%TO.C,J4*%
X85168000Y90122000D03*
D15*
X89232000Y90122000D03*
%TD*%
D19*
%TO.C,TP163*%
X34400000Y93600000D03*
%TD*%
%TO.C,TP109*%
X19400000Y92100000D03*
%TD*%
%TO.C,TP7*%
X17387500Y84475000D03*
%TD*%
%TO.C,TP12*%
X39700000Y85900000D03*
%TD*%
%TO.C,TP110*%
X35500000Y68800000D03*
%TD*%
%TO.C,TP80*%
X15400000Y43830000D03*
%TD*%
D18*
%TO.C,U36*%
X47745000Y64605000D03*
X46905000Y64605000D03*
X46065000Y64605000D03*
X47745000Y63645000D03*
X46905000Y63645000D03*
X46065000Y63645000D03*
%TD*%
D19*
%TO.C,TP13*%
X46800000Y84700000D03*
%TD*%
D21*
%TO.C,PCB1*%
X8600000Y6800000D03*
D17*
X79610000Y87700000D03*
X82790000Y87700000D03*
X85610000Y87700000D03*
X88790000Y87700000D03*
D21*
X97800000Y6800000D03*
%TD*%
D19*
%TO.C,TP2*%
X61150000Y43447500D03*
%TD*%
D18*
%TO.C,U21*%
X81950000Y55700000D03*
X83800000Y55700000D03*
X85500000Y55700000D03*
X82800000Y56400000D03*
X84700000Y56400000D03*
X81950000Y57200000D03*
X83800000Y57200000D03*
X85500000Y57200000D03*
X82800000Y58000000D03*
X84700000Y58000000D03*
X81950000Y58700000D03*
X83800000Y58700000D03*
X85500000Y58700000D03*
%TD*%
D19*
%TO.C,TP17*%
X44200000Y69000000D03*
%TD*%
D17*
%TO.C,TP170*%
X23200000Y37100000D03*
%TD*%
%TO.C,TP91*%
X18700000Y54300000D03*
%TD*%
%TO.C,TP124*%
X24500000Y37100000D03*
%TD*%
%TO.C,TP33*%
X18900000Y56040000D03*
%TD*%
%TO.C,TP77*%
X27600000Y41000000D03*
%TD*%
%TO.C,TP143*%
X65300000Y86650000D03*
%TD*%
%TO.C,TP121*%
X37800000Y50500000D03*
%TD*%
%TO.C,TP98*%
X37200000Y43500000D03*
%TD*%
%TO.C,TP142*%
X65300000Y92000000D03*
%TD*%
%TO.C,TP69*%
X26400000Y53000000D03*
%TD*%
%TO.C,TP125*%
X20000000Y50500000D03*
%TD*%
%TO.C,TP30*%
X60200000Y86650000D03*
%TD*%
%TO.C,TP131*%
X23200000Y43400000D03*
%TD*%
%TO.C,TP118*%
X36500000Y53000000D03*
%TD*%
%TO.C,TP29*%
X60150000Y92000000D03*
%TD*%
%TO.C,TP128*%
X32100000Y37200000D03*
%TD*%
%TO.C,TP134*%
X34000000Y53000000D03*
%TD*%
%TO.C,TP123*%
X18700000Y50500000D03*
%TD*%
%TO.C,TP153*%
X52550000Y86400000D03*
%TD*%
%TO.C,TP46*%
X27600000Y39700000D03*
%TD*%
%TO.C,TP144*%
X64000000Y92000000D03*
%TD*%
%TO.C,TP76*%
X26300000Y41600000D03*
%TD*%
%TO.C,TP132*%
X23200000Y52400000D03*
%TD*%
%TO.C,TP120*%
X36600000Y51800000D03*
%TD*%
%TO.C,TP119*%
X35300000Y53000000D03*
%TD*%
%TO.C,TP20*%
X22600000Y49200000D03*
%TD*%
%TO.C,TP89*%
X26300000Y40300000D03*
%TD*%
%TO.C,TP65*%
X21200000Y41600000D03*
%TD*%
%TO.C,TP35*%
X24770000Y56430000D03*
%TD*%
D19*
%TO.C,TP59*%
X29600000Y61600000D03*
%TD*%
D17*
%TO.C,TP137*%
X35900000Y44800000D03*
%TD*%
%TO.C,TP38*%
X32700000Y39700000D03*
%TD*%
%TO.C,TP114*%
X36500000Y50500000D03*
%TD*%
%TO.C,TP133*%
X38375000Y32850000D03*
%TD*%
%TO.C,TP67*%
X29000000Y54300000D03*
%TD*%
%TO.C,TP19*%
X22600000Y50500000D03*
%TD*%
%TO.C,TP68*%
X26400000Y37800000D03*
%TD*%
%TO.C,TP34*%
X24690000Y58230000D03*
%TD*%
%TO.C,TP113*%
X35250000Y50450000D03*
%TD*%
%TO.C,TP66*%
X19800000Y41100000D03*
%TD*%
%TO.C,TP139*%
X37800000Y46700000D03*
%TD*%
%TO.C,TP127*%
X34600000Y43500000D03*
%TD*%
%TO.C,TP116*%
X35300000Y51800000D03*
%TD*%
%TO.C,TP94*%
X20000000Y53000000D03*
%TD*%
%TO.C,TP130*%
X23800000Y41600000D03*
%TD*%
%TO.C,TP21*%
X34000000Y50500000D03*
%TD*%
%TO.C,TP100*%
X37200000Y42300000D03*
%TD*%
%TO.C,TP41*%
X29970000Y58540000D03*
%TD*%
%TO.C,TP27*%
X20300000Y57150000D03*
%TD*%
%TO.C,TP117*%
X37800000Y52400000D03*
%TD*%
%TO.C,TP145*%
X64000000Y86650000D03*
%TD*%
%TO.C,TP48*%
X26400000Y39050000D03*
%TD*%
%TO.C,TP71*%
X34600000Y44750000D03*
%TD*%
%TO.C,TP152*%
X52600000Y92100000D03*
%TD*%
%TO.C,TP36*%
X31350000Y58150000D03*
%TD*%
%TO.C,TP90*%
X36500000Y49200000D03*
%TD*%
%TO.C,TP146*%
X62700000Y92000000D03*
%TD*%
%TO.C,TP42*%
X26410000Y36540000D03*
%TD*%
%TO.C,TP22*%
X35200000Y49200000D03*
%TD*%
%TO.C,TP93*%
X18700000Y53000000D03*
%TD*%
%TO.C,TP70*%
X34600000Y42200000D03*
%TD*%
%TO.C,TP97*%
X35900000Y43500000D03*
%TD*%
%TO.C,TP129*%
X30200000Y41600000D03*
%TD*%
%TO.C,TP47*%
X22500000Y40300000D03*
%TD*%
%TO.C,TP72*%
X35900000Y42200000D03*
%TD*%
%TO.C,TP147*%
X62750000Y86650000D03*
%TD*%
%TO.C,TP126*%
X25000000Y39100000D03*
%TD*%
%TO.C,TP136*%
X34000000Y51800000D03*
%TD*%
%TO.C,TP92*%
X20000000Y54300000D03*
%TD*%
%TO.C,TP39*%
X34200000Y40000000D03*
%TD*%
%TO.C,TP64*%
X22500000Y41600000D03*
%TD*%
%TO.C,TP99*%
X38400000Y43500000D03*
%TD*%
%TO.C,TP162*%
X25000000Y40300000D03*
%TD*%
%TO.C,TP138*%
X34600000Y46000000D03*
%TD*%
M02*
