%TF.GenerationSoftware,KiCad,Pcbnew,10.0.4*%
%TF.CreationDate,2026-07-16T14:59:36-06:00*%
%TF.ProjectId,esi-c3-hardware,6573692d-6333-42d6-9861-726477617265,7.0*%
%TF.SameCoordinates,PX42c1d80PY876bf80*%
%TF.FileFunction,Plated,1,4,PTH,Drill*%
%TF.FilePolarity,Positive*%
%FSLAX46Y46*%
G04 Gerber Fmt 4.6, Leading zero omitted, Abs format (unit mm)*
G04 Created by KiCad (PCBNEW 10.0.4) date 2026-07-16 14:59:36*
%MOMM*%
%LPD*%
G01*
G04 APERTURE LIST*
%TA.AperFunction,ViaDrill*%
%ADD10C,0.254000*%
%TD*%
%TA.AperFunction,ComponentDrill*%
%ADD11C,0.254000*%
%TD*%
%TA.AperFunction,ComponentDrill*%
%ADD12C,0.635000*%
%TD*%
%TA.AperFunction,ComponentDrill*%
%ADD13C,0.650000*%
%TD*%
%TA.AperFunction,ComponentDrill*%
%ADD14C,0.750000*%
%TD*%
%TA.AperFunction,ComponentDrill*%
%ADD15C,1.000000*%
%TD*%
G04 APERTURE END LIST*
D10*
X4800000Y87300000D03*
X4800000Y82300000D03*
X4800000Y77300000D03*
X4800000Y72300000D03*
X4800000Y67300000D03*
X4800000Y62290000D03*
X4800000Y57300000D03*
X4800000Y52300000D03*
X4800000Y47300000D03*
X4800000Y42300000D03*
X4800000Y37300000D03*
X4800000Y32300000D03*
X4800000Y27300000D03*
X4800000Y22300000D03*
X4800000Y17300000D03*
X4800000Y12300000D03*
X6500000Y75050000D03*
X7550000Y76300000D03*
X8500000Y70700000D03*
X8700000Y50037500D03*
X8700000Y42600000D03*
X8700000Y35100000D03*
X8787500Y85675000D03*
X8787500Y85100000D03*
X8800000Y81800000D03*
X8850000Y76150000D03*
X9150000Y69100000D03*
X9150000Y67850000D03*
X9150000Y66550000D03*
X9150000Y65250000D03*
X9300000Y94300000D03*
X9600000Y91875000D03*
X9700000Y55200000D03*
X9700000Y47700000D03*
X9700000Y40100000D03*
X9787500Y90575000D03*
X10300000Y92600000D03*
X11100000Y88700000D03*
X11100000Y88000000D03*
X11587500Y90975000D03*
X11587500Y82875000D03*
X11787500Y88675000D03*
X12187500Y85375000D03*
X12200000Y56300000D03*
X12200000Y54800000D03*
X12200000Y53300000D03*
X12300000Y88250000D03*
X12300000Y5300000D03*
X12500000Y73000000D03*
X14000000Y69900000D03*
X14450000Y57350000D03*
X14900000Y76600000D03*
X15200000Y83500000D03*
X15200000Y71300000D03*
X15200000Y70700000D03*
X15400000Y40300000D03*
X15400000Y38300000D03*
X15500000Y52000000D03*
X15500000Y49200000D03*
X15600000Y69250000D03*
X15700000Y48470000D03*
X15950000Y8000000D03*
X15950000Y4950000D03*
X16200000Y50500000D03*
X16230000Y62510000D03*
X16400000Y32800000D03*
X16470000Y48640000D03*
X16600000Y81400000D03*
X16800000Y95000000D03*
X16900000Y51000000D03*
X17050000Y62470000D03*
X17100000Y39400000D03*
X17100000Y28000000D03*
X17140000Y48650000D03*
X17250000Y67750000D03*
X17400000Y50500000D03*
X17640000Y44160000D03*
X17700000Y11450000D03*
X17860000Y51700000D03*
X17900000Y81400000D03*
X17900000Y17700000D03*
X17900000Y16200000D03*
X17900000Y14700000D03*
X17900000Y13200000D03*
X17950000Y65750000D03*
X17950000Y21000000D03*
X17950000Y19500000D03*
X17987500Y89975000D03*
X18050000Y83450000D03*
X18150000Y48670000D03*
X18250000Y86650000D03*
X18380000Y43300000D03*
X18400000Y21850000D03*
X18400000Y18650000D03*
X18450000Y10500000D03*
X18470000Y51700000D03*
X18700000Y54300000D03*
X18700000Y53000000D03*
X18700000Y50500000D03*
X18850000Y65750000D03*
X18900000Y56040000D03*
X18950000Y62000000D03*
X19080000Y62840000D03*
X19100000Y64250000D03*
X19400000Y85950000D03*
X19700000Y76600000D03*
X19700000Y73750000D03*
X19720000Y64250000D03*
X19740000Y62840000D03*
X19800000Y41100000D03*
X20000000Y54300000D03*
X20000000Y53000000D03*
X20000000Y50500000D03*
X20000000Y44108000D03*
X20300000Y3300000D03*
X20310000Y57160000D03*
X20450000Y83050000D03*
X20650000Y68550000D03*
X20850000Y17700000D03*
X20850000Y16200000D03*
X20850000Y14700000D03*
X20850000Y13200000D03*
X20850000Y11450000D03*
X21050000Y85950000D03*
X21200000Y41600000D03*
X21250000Y83050000D03*
X21300000Y54300000D03*
X21300000Y50500000D03*
X21431250Y31700000D03*
X21500000Y81400000D03*
X21500000Y67800000D03*
X21550000Y11100000D03*
X21550000Y4950000D03*
X21750000Y73600000D03*
X21750000Y71150000D03*
X21800000Y95000000D03*
X21910000Y56180000D03*
X22000000Y21600000D03*
X22350000Y68650000D03*
X22350000Y67000000D03*
X22350000Y65750000D03*
X22500000Y41600000D03*
X22500000Y40300000D03*
X22600000Y93800000D03*
X22600000Y93100000D03*
X22600000Y54285000D03*
X22600000Y50500000D03*
X22600000Y49200000D03*
X22700000Y21600000D03*
X22800000Y81400000D03*
X23000000Y68650000D03*
X23110000Y28700000D03*
X23185000Y43400000D03*
X23200000Y52400000D03*
X23200000Y37100000D03*
X23200000Y19050000D03*
X23450000Y21600000D03*
X23450000Y20450000D03*
X23500000Y72650000D03*
X23500000Y19550000D03*
X23500000Y18550000D03*
X23500000Y14650000D03*
X23500000Y14050000D03*
X23500000Y13450000D03*
X23600000Y82950000D03*
X23700000Y91500000D03*
X23800000Y41585000D03*
X23820000Y55490000D03*
X23850000Y51100000D03*
X23850000Y49850000D03*
X23850000Y48600000D03*
X23850000Y47300000D03*
X23850000Y46000000D03*
X23900000Y54285000D03*
X24300000Y2300000D03*
X24350000Y32900000D03*
X24450000Y9600000D03*
X24450000Y4950000D03*
X24500000Y76600000D03*
X24500000Y73750000D03*
X24500000Y37100000D03*
X24650000Y14550000D03*
X25000000Y40300000D03*
X25000000Y39100000D03*
X25000000Y29150000D03*
X25100000Y60900000D03*
X25100000Y54300000D03*
X25100000Y48600000D03*
X25100000Y47300000D03*
X25100000Y46000000D03*
X25100000Y43500000D03*
X25100000Y42300000D03*
X25200000Y91200000D03*
X25500000Y26600000D03*
X25537500Y64637500D03*
X25650000Y19550000D03*
X25650000Y14550000D03*
X25700000Y18350000D03*
X25750000Y49850000D03*
X25800000Y44800000D03*
X25950000Y16550000D03*
X26000000Y85700000D03*
X26150000Y20050000D03*
X26200000Y93800000D03*
X26200000Y93100000D03*
X26300000Y55860000D03*
X26300000Y41600000D03*
X26300000Y40315000D03*
X26350000Y50500000D03*
X26350000Y49850000D03*
X26350000Y49200000D03*
X26360000Y54280000D03*
X26400000Y53000000D03*
X26400000Y44800000D03*
X26400000Y39050000D03*
X26400000Y37800000D03*
X26400000Y36550000D03*
X26625000Y18325000D03*
X26650000Y88500000D03*
X26650000Y23800000D03*
X26650000Y22150000D03*
X26650000Y16550000D03*
X26650000Y14550000D03*
X26653087Y17554137D03*
X26695000Y19005000D03*
X26700000Y9525000D03*
X26700000Y4912500D03*
X26800000Y95000000D03*
X27000000Y49850000D03*
X27000000Y44800000D03*
X27200000Y93500000D03*
X27200000Y71000000D03*
X27250000Y74200000D03*
X27325000Y19125000D03*
X27350000Y28912500D03*
X27350000Y20050000D03*
X27375000Y66475000D03*
X27375000Y17575000D03*
X27400000Y85700000D03*
X27400000Y72600000D03*
X27550000Y51100000D03*
X27590000Y40990000D03*
X27600000Y39700000D03*
X27630000Y54280000D03*
X27650000Y47300000D03*
X27650000Y43500000D03*
X27650000Y42300000D03*
X27681250Y38408150D03*
X27700000Y12900000D03*
X27850000Y88500000D03*
X27900000Y29400000D03*
X27900000Y16550000D03*
X28125000Y18325000D03*
X28150000Y17550000D03*
X28250000Y75950000D03*
X28250000Y69250000D03*
X28300000Y2300000D03*
X28500000Y84600000D03*
X28500000Y83400000D03*
X28600000Y29600000D03*
X28610000Y60390000D03*
X28700000Y9525000D03*
X28700000Y4912500D03*
X28775000Y56825000D03*
X28800000Y55600000D03*
X28900000Y85700000D03*
X28900000Y52500000D03*
X28900000Y49800000D03*
X28900000Y48550000D03*
X28900000Y47300000D03*
X28900000Y46000000D03*
X28900000Y44700000D03*
X28900000Y42300000D03*
X28900000Y27600000D03*
X28900000Y27000000D03*
X28900000Y26300000D03*
X29000000Y68600000D03*
X29000000Y54300000D03*
X29050000Y72600000D03*
X29100000Y19950000D03*
X29100000Y16650000D03*
X29200000Y84000000D03*
X29200000Y78950000D03*
X29200000Y76600000D03*
X29200000Y74200000D03*
X29200000Y71000000D03*
X29450000Y31800000D03*
X29725000Y84625000D03*
X30000000Y22900000D03*
X30200000Y51100000D03*
X30200000Y47900000D03*
X30216250Y41585000D03*
X30240000Y52450000D03*
X30550000Y85550000D03*
X30600000Y39650000D03*
X30600000Y38400000D03*
X30600000Y37075000D03*
X30700000Y9525000D03*
X30700000Y4912500D03*
X30800000Y91700000D03*
X30800000Y88800000D03*
X30900000Y63300000D03*
X31200000Y87575000D03*
X31200000Y39650000D03*
X31200000Y38400000D03*
X31200000Y37075000D03*
X31400000Y42300000D03*
X31450000Y52400000D03*
X31800000Y95000000D03*
X31800000Y87575000D03*
X31823000Y61700000D03*
X32000000Y81700000D03*
X32075000Y44800000D03*
X32075000Y43525000D03*
X32100000Y37200000D03*
X32200000Y70300000D03*
X32200000Y69300000D03*
X32200000Y68300000D03*
X32250000Y64250000D03*
X32300000Y93100000D03*
X32300000Y88400000D03*
X32300000Y2300000D03*
X32410000Y61220400D03*
X32410000Y60560000D03*
X32630000Y52460000D03*
X32650000Y85000000D03*
X32700000Y49200000D03*
X32700000Y9525000D03*
X32700000Y4912500D03*
X32800000Y78650000D03*
X32800000Y78000000D03*
X32800000Y75500000D03*
X32800000Y74200000D03*
X32800000Y51100000D03*
X32800000Y46000000D03*
X32900000Y70600000D03*
X32900000Y69800000D03*
X32900000Y68800000D03*
X33000000Y44700000D03*
X33100000Y43500000D03*
X33300000Y93600000D03*
X33345000Y39667500D03*
X33400000Y37200000D03*
X33470000Y19750000D03*
X33490000Y58940000D03*
X33497842Y58282158D03*
X33500000Y85600000D03*
X33500000Y74200000D03*
X33500000Y36200000D03*
X33500000Y35600000D03*
X33530000Y8740000D03*
X33550000Y34400000D03*
X33600000Y70300000D03*
X33600000Y69300000D03*
X33600000Y68300000D03*
X33632000Y54903400D03*
X33657400Y64850000D03*
X33700000Y17800000D03*
X33800000Y81700000D03*
X33900000Y79300000D03*
X33900000Y54300000D03*
X33960000Y16230000D03*
X33990000Y13370000D03*
X34000000Y53000000D03*
X34000000Y51800000D03*
X34000000Y50500000D03*
X34000000Y49200000D03*
X34000000Y47900000D03*
X34009400Y40300000D03*
X34050000Y32100000D03*
X34089200Y65550000D03*
X34100000Y34750000D03*
X34100000Y24600000D03*
X34300000Y70600000D03*
X34300000Y69800000D03*
X34300000Y68800000D03*
X34350000Y23420000D03*
X34370000Y12442500D03*
X34450000Y80150000D03*
X34450000Y30600000D03*
X34475212Y58619528D03*
X34500000Y27400000D03*
X34580000Y7400000D03*
X34600000Y44737500D03*
X34600000Y42200000D03*
X34600000Y38400000D03*
X34600000Y37200000D03*
X34615625Y43484375D03*
X34618750Y46018750D03*
X34630000Y60740000D03*
X34700000Y88100000D03*
X34700000Y87500000D03*
X34800000Y29000000D03*
X34937842Y59082158D03*
X35100000Y33150000D03*
X35200000Y54300000D03*
X35200000Y49200000D03*
X35250000Y50450000D03*
X35250000Y46675000D03*
X35300000Y53000000D03*
X35300000Y51800000D03*
X35500000Y32400000D03*
X35500000Y25600000D03*
X35650000Y33700000D03*
X35710000Y8780000D03*
X35885000Y43502500D03*
X35885000Y42215000D03*
X35885000Y34350000D03*
X35900000Y44800000D03*
X36080000Y21730000D03*
X36170000Y22670000D03*
X36500000Y53000000D03*
X36500000Y49200000D03*
X36500000Y47900000D03*
X36500000Y46700000D03*
X36525000Y50475000D03*
X36600000Y51800000D03*
X36890000Y59330000D03*
X36900000Y88700000D03*
X37009296Y67100704D03*
X37044000Y68830000D03*
X37150000Y39750000D03*
X37155000Y42255000D03*
X37170000Y9130000D03*
X37200000Y43500000D03*
X37300000Y2300000D03*
X37400000Y34800000D03*
X37416796Y67508204D03*
X37500000Y30300000D03*
X37500000Y24900000D03*
X37560000Y59335000D03*
X37700000Y92300000D03*
X37700000Y37800000D03*
X37750000Y39050000D03*
X37795000Y49200000D03*
X37800000Y52400000D03*
X37800000Y50500000D03*
X37800000Y47900000D03*
X37800000Y46700000D03*
X38040000Y14910000D03*
X38040000Y14260000D03*
X38350000Y92300000D03*
X38375000Y33600000D03*
X38400000Y88000000D03*
X38400000Y43500000D03*
X38400000Y35800000D03*
X38655600Y76690000D03*
X38850000Y69850000D03*
X38850000Y40950000D03*
X38900000Y27100000D03*
X39000000Y37800000D03*
X39037500Y13760000D03*
X39040000Y13160000D03*
X39050000Y50900000D03*
X39075000Y76269316D03*
X39100000Y73600000D03*
X39100000Y39000000D03*
X39200000Y91200000D03*
X39200000Y49200000D03*
X39200000Y47900000D03*
X39275000Y34775000D03*
X39400000Y88694400D03*
X39400000Y88030000D03*
X39500000Y31600000D03*
X39500000Y29450000D03*
X39550200Y91682600D03*
X39620000Y61710000D03*
X39700000Y20225000D03*
X39725000Y13725000D03*
X39950000Y47250000D03*
X40050000Y13080000D03*
X40159800Y88228200D03*
X40159800Y87644000D03*
X40300000Y65100000D03*
X40650000Y76450000D03*
X40650000Y75800000D03*
X41000000Y85780600D03*
X41000000Y39150000D03*
X41040000Y13800000D03*
X41040000Y13240000D03*
X41125000Y70900000D03*
X41125000Y70300000D03*
X41270000Y16550000D03*
X41300000Y94100000D03*
X41300000Y30900000D03*
X41350000Y73100000D03*
X41400000Y77300000D03*
X41400000Y76600000D03*
X41419400Y86200000D03*
X41650000Y57650000D03*
X41700000Y22700000D03*
X41770000Y9130000D03*
X41800000Y95000000D03*
X41900000Y93500000D03*
X41900000Y34100000D03*
X42000000Y73100000D03*
X42040000Y14210000D03*
X42050000Y94100000D03*
X42200000Y67500000D03*
X42250000Y49100000D03*
X42300000Y72050000D03*
X42300000Y71450000D03*
X42300000Y2300000D03*
X42350000Y18850000D03*
X42400000Y78900000D03*
X42500000Y93500000D03*
X42600000Y85900000D03*
X42600000Y14210000D03*
X42780000Y57760000D03*
X42900000Y61700000D03*
X42950000Y46800000D03*
X43200000Y78100000D03*
X43200000Y77500000D03*
X43200000Y76900000D03*
X43200000Y73700000D03*
X43300000Y56800000D03*
X43300000Y54800000D03*
X43400000Y41000000D03*
X43800000Y78100000D03*
X43800000Y77500000D03*
X43800000Y76900000D03*
X43800000Y54300000D03*
X43800000Y31800000D03*
X44275000Y18850000D03*
X44400000Y78100000D03*
X44400000Y77500000D03*
X44400000Y55600000D03*
X44900000Y79700000D03*
X44900000Y36000000D03*
X45040000Y15750000D03*
X45250000Y59100000D03*
X45300000Y22075000D03*
X45400000Y24700000D03*
X45600000Y62700000D03*
X45600000Y53800000D03*
X45700000Y44900000D03*
X45765000Y77435000D03*
X45850000Y36500000D03*
X45950000Y23850000D03*
X46000000Y82400000D03*
X46300000Y58200000D03*
X46300000Y57500000D03*
X46500000Y40950000D03*
X46800000Y95000000D03*
X46800000Y79750000D03*
X46900000Y91450000D03*
X46900000Y86950000D03*
X46900000Y26800000D03*
X47200000Y68300000D03*
X47300000Y2300000D03*
X47450000Y59150000D03*
X47950000Y77200000D03*
X47950000Y21400000D03*
X48100000Y91425000D03*
X48110000Y89200000D03*
X48110000Y87000000D03*
X48200000Y62700000D03*
X48300000Y80150000D03*
X48500000Y58100000D03*
X48670000Y9130000D03*
X48950000Y15750000D03*
X48990000Y67670000D03*
X49030000Y10830000D03*
X49100000Y63850000D03*
X49150000Y62700000D03*
X49400000Y62000000D03*
X49600000Y75950000D03*
X49825000Y15750000D03*
X49950000Y86150000D03*
X49950000Y85550000D03*
X49950000Y84750000D03*
X49950000Y84050000D03*
X49950000Y77900000D03*
X49950000Y63300000D03*
X50000000Y12000000D03*
X50100000Y72450000D03*
X50300000Y59000000D03*
X50300000Y57100000D03*
X50550000Y86150000D03*
X50550000Y85550000D03*
X50550000Y84750000D03*
X50550000Y84050000D03*
X50650000Y56050000D03*
X50700000Y15750000D03*
X51200000Y9300000D03*
X51350000Y71150000D03*
X51350000Y62000000D03*
X51650000Y55100000D03*
X51800000Y95000000D03*
X52000000Y26100000D03*
X52300000Y2300000D03*
X52500000Y7600000D03*
X52550000Y72350000D03*
X52700000Y62000000D03*
X52707500Y56542500D03*
X52707500Y52857500D03*
X52900000Y75725000D03*
X52900000Y73000000D03*
X52900000Y63800000D03*
X52975000Y85050000D03*
X53000000Y64700000D03*
X53500000Y62850000D03*
X53500000Y50400000D03*
X53550000Y79850000D03*
X53550000Y76100000D03*
X53600000Y59000000D03*
X53600000Y57100000D03*
X53750000Y55100000D03*
X53870000Y33250000D03*
X54000000Y82375000D03*
X54050000Y63800000D03*
X54225000Y75775000D03*
X54225000Y73000000D03*
X54250000Y62000000D03*
X54450000Y86700000D03*
X54450000Y83400000D03*
X54500000Y9200000D03*
X54700000Y33130000D03*
X54700000Y32490000D03*
X54950000Y65750000D03*
X55000000Y17000000D03*
X55000000Y12000000D03*
X55000000Y7000000D03*
X55200000Y31980000D03*
X55200000Y31400000D03*
X55200000Y25200000D03*
X55200000Y23100000D03*
X55350000Y79300000D03*
X55350000Y76625000D03*
X55400000Y58100000D03*
X55490000Y40700000D03*
X55500000Y47500000D03*
X55500000Y46500000D03*
X55500000Y45900000D03*
X55950000Y54455000D03*
X56050000Y60600000D03*
X56500000Y55100000D03*
X56800000Y95000000D03*
X56850000Y63000000D03*
X56950000Y83650000D03*
X57000000Y23000000D03*
X57000000Y20900000D03*
X57050000Y78600000D03*
X57050000Y69950000D03*
X57050000Y54150000D03*
X57300000Y2300000D03*
X57400000Y26200000D03*
X57500000Y32550000D03*
X57500000Y31350000D03*
X57650000Y46550000D03*
X57700000Y33150000D03*
X57700000Y31950000D03*
X57700000Y22500000D03*
X57900000Y39300000D03*
X58000000Y26950000D03*
X58100000Y32550000D03*
X58150000Y31350000D03*
X58300000Y54150000D03*
X58400000Y33150000D03*
X58400000Y31950000D03*
X58450000Y79000000D03*
X58450000Y72950000D03*
X58450000Y66950000D03*
X58450000Y60950000D03*
X58600000Y44450000D03*
X58650000Y85950000D03*
X59189118Y82058488D03*
X59239118Y75958488D03*
X59239118Y69958488D03*
X59239118Y63958488D03*
X59239118Y57858488D03*
X59739118Y71833488D03*
X59839118Y77858488D03*
X59839118Y69658488D03*
X59839118Y65608488D03*
X59864118Y73508488D03*
X60000000Y17000000D03*
X60000000Y12000000D03*
X60000000Y7000000D03*
X60050000Y52300000D03*
X60300000Y40300000D03*
X60344118Y75108488D03*
X60400000Y26500000D03*
X60400000Y25900000D03*
X60400000Y23000000D03*
X60500000Y36700000D03*
X60539118Y79308488D03*
X60839118Y60658488D03*
X60900000Y41050000D03*
X61100000Y52100000D03*
X61100000Y49550000D03*
X61189118Y83758488D03*
X61189118Y56208488D03*
X61314118Y75108488D03*
X61500000Y85950000D03*
X61800000Y95000000D03*
X61839118Y77908488D03*
X61839118Y69658488D03*
X61839118Y65608488D03*
X62089118Y57858488D03*
X62139118Y62558488D03*
X62239118Y73508488D03*
X62239118Y71608488D03*
X62244118Y75108488D03*
X62250000Y44247500D03*
X62250000Y43447500D03*
X62250000Y42647500D03*
X62250000Y41847500D03*
X62289118Y75958488D03*
X62300000Y2300000D03*
X62339118Y74258488D03*
X62389118Y66358488D03*
X62429118Y68108488D03*
X62600000Y25200000D03*
X62600000Y23100000D03*
X62650000Y44647500D03*
X62650000Y43847500D03*
X62650000Y43047500D03*
X62650000Y42247500D03*
X62650000Y41447500D03*
X62689118Y69978488D03*
X62850000Y51250000D03*
X62850000Y48650000D03*
X62889118Y71608488D03*
X62939118Y75058488D03*
X62939118Y73458488D03*
X62989118Y80308488D03*
X62989118Y78208488D03*
X63350000Y53100000D03*
X63389118Y60658488D03*
X63400000Y54500000D03*
X63450000Y51800000D03*
X63589118Y75058488D03*
X63589118Y73458488D03*
X63589118Y71608488D03*
X63614118Y56383488D03*
X63700000Y22500000D03*
X63775000Y49275000D03*
X63900000Y26300000D03*
X64189118Y80258488D03*
X64189118Y78258488D03*
X64239118Y71179238D03*
X64250000Y33200000D03*
X64250000Y31200000D03*
X64295000Y48745000D03*
X64329118Y66658488D03*
X64339118Y68148488D03*
X64500000Y69100000D03*
X64589118Y60708488D03*
X64600000Y84550000D03*
X64639118Y65358488D03*
X64875000Y57750000D03*
X65000000Y40200000D03*
X65000000Y39600000D03*
X65000000Y37547500D03*
X65000000Y36700000D03*
X65000000Y7000000D03*
X65050000Y32200000D03*
X65189118Y75808488D03*
X65350000Y43447500D03*
X65389118Y74258488D03*
X65400000Y46700000D03*
X65425000Y50650000D03*
X65439118Y72608488D03*
X65500000Y51725000D03*
X65539118Y76908488D03*
X65550000Y35800000D03*
X65550000Y33800000D03*
X65600000Y54500000D03*
X65600000Y53050000D03*
X65600000Y13700000D03*
X65700000Y19900000D03*
X65700000Y10100000D03*
X65739118Y80158488D03*
X65739118Y78258488D03*
X65850000Y51100000D03*
X65850000Y46200000D03*
X65939118Y65358488D03*
X65939118Y62558488D03*
X65950000Y43447500D03*
X66000000Y89200000D03*
X66089118Y56258488D03*
X66124118Y69100000D03*
X66250000Y31700000D03*
X66300000Y34800000D03*
X66400000Y71300000D03*
X66650000Y28530000D03*
X66689118Y82008488D03*
X66700000Y31250000D03*
X66750000Y38747500D03*
X66800000Y95000000D03*
X66850000Y45450000D03*
X66850000Y41747500D03*
X66874118Y68529238D03*
X66975000Y57750000D03*
X67289118Y80258488D03*
X67289118Y78258488D03*
X67300000Y2300000D03*
X67350000Y87950000D03*
X67500000Y27950000D03*
X67589118Y83758488D03*
X67589118Y56208488D03*
X67590000Y85380000D03*
X67689118Y71229238D03*
X67689118Y69229238D03*
X67740000Y20160000D03*
X67750000Y43447500D03*
X67850000Y51900000D03*
X67850000Y45450000D03*
X67940000Y10070000D03*
X68200000Y88050000D03*
X68220000Y94480000D03*
X68350000Y52250000D03*
X68400000Y44725000D03*
X68450000Y53800000D03*
X68489118Y80308488D03*
X68489118Y78208488D03*
X68739118Y72329238D03*
X68739118Y68179238D03*
X68850000Y45450000D03*
X68950000Y51900000D03*
X69439118Y82287959D03*
X69459118Y81587959D03*
X69670000Y54500000D03*
X69680000Y56270000D03*
X69850000Y51800000D03*
X69850000Y30700000D03*
X70000000Y17000000D03*
X70139118Y72579238D03*
X70139118Y67879238D03*
X70150000Y12950000D03*
X70189118Y81587959D03*
X70189118Y78058488D03*
X70300000Y46650000D03*
X70450000Y53050000D03*
X70650000Y84550000D03*
X70789118Y57808488D03*
X70995000Y39200000D03*
X71000000Y49150000D03*
X71025000Y41800000D03*
X71025000Y40675000D03*
X71050000Y50200000D03*
X71050000Y47650000D03*
X71270000Y52570000D03*
X71360000Y48650000D03*
X71379506Y35475000D03*
X71400000Y49650000D03*
X71539118Y72279238D03*
X71539118Y68179238D03*
X71750000Y5000000D03*
X71860000Y95030000D03*
X71889118Y82308488D03*
X71989118Y56258488D03*
X71990000Y54500000D03*
X72000000Y49200000D03*
X72000000Y46700000D03*
X72139118Y59158488D03*
X72300000Y2300000D03*
X72489118Y80858488D03*
X72489118Y78208488D03*
X72589118Y71229238D03*
X72589118Y69229238D03*
X72650000Y51400000D03*
X72650000Y49400000D03*
X72700000Y32200000D03*
X72750000Y36150000D03*
X72789118Y60458488D03*
X72800000Y67300000D03*
X72829506Y35475000D03*
X72889118Y64379238D03*
X72889118Y62529238D03*
X72900000Y65850000D03*
X73110000Y53660000D03*
X73225000Y44675000D03*
X73250000Y89770000D03*
X73289118Y57458488D03*
X73500000Y42750000D03*
X73500000Y40487500D03*
X73500000Y38250000D03*
X73660000Y51760000D03*
X73939118Y83758488D03*
X73939118Y56208488D03*
X73950000Y35475000D03*
X73960000Y85310000D03*
X73989118Y70858488D03*
X74189118Y80400000D03*
X74425000Y33036265D03*
X74450000Y58575000D03*
X74475000Y47525000D03*
X74475000Y46075000D03*
X74475000Y45000000D03*
X74544400Y36186265D03*
X74839118Y69579238D03*
X74889118Y64379238D03*
X74889118Y62529238D03*
X74900000Y65825000D03*
X74900000Y60475000D03*
X74950000Y67250000D03*
X74975000Y68250000D03*
X74975000Y35586265D03*
X75100000Y27250000D03*
X75100000Y8100000D03*
X75225000Y44725000D03*
X75250000Y53700000D03*
X75250000Y51750000D03*
X75275000Y34586265D03*
X75625000Y47525000D03*
X75705000Y42750000D03*
X75705000Y40487500D03*
X75705000Y38250000D03*
X75839118Y80350000D03*
X75839118Y78158488D03*
X75889118Y75958488D03*
X75939118Y82058488D03*
X75939118Y69958488D03*
X75939118Y63958488D03*
X75939118Y57858488D03*
X75975000Y36186265D03*
X75975000Y33486265D03*
X76150000Y10500000D03*
X76500000Y94980000D03*
X76790000Y14360000D03*
X76850000Y73050000D03*
X76975000Y44725000D03*
X77025000Y36125000D03*
X77300000Y30700000D03*
X77300000Y2300000D03*
X77350000Y53700000D03*
X77350000Y51750000D03*
X77475000Y47750000D03*
X77475000Y46300000D03*
X77475000Y45200000D03*
X77600000Y82000000D03*
X77775000Y35750000D03*
X77775000Y34650000D03*
X77825000Y33200000D03*
X78000000Y42750000D03*
X78000000Y40487500D03*
X78000000Y38250000D03*
X78100000Y91200000D03*
X78200000Y61400000D03*
X78400000Y10500000D03*
X78400000Y5000000D03*
X78402508Y50067492D03*
X78402508Y48950000D03*
X78550000Y81600000D03*
X78575000Y47325000D03*
X78700000Y77750000D03*
X78700000Y70700000D03*
X78750000Y79000000D03*
X78875000Y33575000D03*
X78975000Y37025000D03*
X79050000Y86800000D03*
X79100000Y91500000D03*
X79100000Y89500000D03*
X79350000Y63000000D03*
X79350000Y50900000D03*
X79400000Y85450000D03*
X79500000Y53500000D03*
X79541158Y75527032D03*
X79775000Y47825000D03*
X79800000Y70600000D03*
X79900000Y10250000D03*
X79950000Y80200000D03*
X79975000Y38725000D03*
X80025000Y42675000D03*
X80050000Y9100000D03*
X80075000Y40275000D03*
X80100000Y10850000D03*
X80200000Y85300000D03*
X80250000Y83100000D03*
X80250000Y9650000D03*
X80400000Y67700000D03*
X80450000Y64950000D03*
X80550000Y49700000D03*
X80550000Y10250000D03*
X80575000Y44875000D03*
X80650000Y78800000D03*
X80650000Y76613516D03*
X80650000Y9100000D03*
X80675000Y43025000D03*
X80700000Y10850000D03*
X80750000Y52250000D03*
X80800000Y81100000D03*
X80900000Y9650000D03*
X81050000Y35700000D03*
X81100000Y57800000D03*
X81100000Y57200000D03*
X81100000Y56600000D03*
X81150000Y45625000D03*
X81350000Y74150000D03*
X81525000Y43925000D03*
X81550000Y68600000D03*
X81575000Y48186265D03*
X81575000Y46250000D03*
X81650000Y66150000D03*
X81800000Y77500000D03*
X81875000Y40125000D03*
X82000000Y34000000D03*
X82200000Y85300000D03*
X82200000Y50750000D03*
X82250000Y75000000D03*
X82250000Y73000000D03*
X82300000Y71000000D03*
X82300000Y2300000D03*
X82370000Y20200000D03*
X82800000Y67300000D03*
X82800000Y66700000D03*
X82998437Y83815214D03*
X82998437Y82215214D03*
X83000000Y85400000D03*
X83100000Y59500000D03*
X83100000Y54900000D03*
X83200000Y49750000D03*
X83300000Y91500000D03*
X83300000Y89500000D03*
X83300000Y86800000D03*
X83475000Y48200000D03*
X83475000Y45186265D03*
X83475000Y40936265D03*
X83500000Y67300000D03*
X83500000Y66700000D03*
X83500000Y46650000D03*
X83525000Y43925000D03*
X83550000Y42325000D03*
X83600000Y66100000D03*
X83600000Y65100000D03*
X83700000Y59500000D03*
X83700000Y54900000D03*
X83950000Y65600000D03*
X84050000Y25550000D03*
X84050000Y24300000D03*
X84050000Y22800000D03*
X84100000Y71000000D03*
X84200000Y75000000D03*
X84200000Y73400000D03*
X84200000Y67300000D03*
X84200000Y66700000D03*
X84230000Y80630000D03*
X84230000Y79020000D03*
X84230000Y77680000D03*
X84230000Y76340000D03*
X84300000Y59500000D03*
X84300000Y54900000D03*
X84375000Y82050000D03*
X84850000Y15000000D03*
X85050000Y91500000D03*
X85050000Y89500000D03*
X85050000Y86800000D03*
X85100000Y19200000D03*
X85180000Y83150000D03*
X85400000Y85450000D03*
X85850000Y15800000D03*
X85950000Y67430000D03*
X86030000Y60840000D03*
X86050000Y61800000D03*
X86100000Y30660000D03*
X86100000Y28650000D03*
X86110000Y47163750D03*
X86110000Y45556250D03*
X86120000Y52310000D03*
X86125000Y77650000D03*
X86125000Y51275000D03*
X86125000Y43925000D03*
X86150000Y64875000D03*
X86150000Y48775000D03*
X86170000Y81450000D03*
X86170000Y79840000D03*
X86170000Y76351667D03*
X86170000Y75010000D03*
X86175000Y66275000D03*
X86175000Y54225000D03*
X86200000Y85100000D03*
X86200000Y73400000D03*
X86200000Y71400000D03*
X86200000Y69475000D03*
X86200000Y59800000D03*
X86200000Y50100000D03*
X86200000Y42600000D03*
X86250000Y83750000D03*
X86250000Y39550000D03*
X86260000Y41472500D03*
X86275000Y37600000D03*
X86300000Y3300000D03*
X86400000Y19900000D03*
X86545000Y26512500D03*
X86545000Y24250000D03*
X86545000Y22012500D03*
X86550000Y19200000D03*
X86850000Y15000000D03*
X87100000Y19950000D03*
X87420000Y11800000D03*
X87440000Y8610000D03*
X87460000Y34400000D03*
X87500000Y36000000D03*
X87500000Y10100000D03*
X87575000Y30950000D03*
X87575000Y29550000D03*
X87600000Y28400000D03*
X87700000Y77300000D03*
X87950000Y80700000D03*
X88150000Y83750000D03*
X88150000Y40275000D03*
X88150000Y38325000D03*
X88150000Y15000000D03*
X88175000Y41475000D03*
X88200000Y85100000D03*
X88200000Y81800000D03*
X88200000Y71400000D03*
X88200000Y69475000D03*
X88200000Y59800000D03*
X88200000Y50100000D03*
X88200000Y42600000D03*
X88225000Y47850000D03*
X88280000Y51950000D03*
X88300000Y76550000D03*
X88300000Y54225000D03*
X88340000Y45530000D03*
X88350000Y28400000D03*
X88430000Y64580000D03*
X88450000Y67470000D03*
X88450000Y62325000D03*
X88490000Y61070000D03*
X88510000Y70320000D03*
X88650000Y58406250D03*
X88680000Y55890000D03*
X88750000Y46425000D03*
X88750000Y26512500D03*
X88750000Y24250000D03*
X88750000Y22012500D03*
X88775000Y49275000D03*
X88800000Y52700000D03*
X88800000Y37500000D03*
X89000000Y85450000D03*
X89000000Y71850000D03*
X89000000Y57800000D03*
X89000000Y57200000D03*
X89000000Y56600000D03*
X89100000Y81550000D03*
X89150000Y15800000D03*
X89200000Y65500000D03*
X89200000Y35000000D03*
X89300000Y91500000D03*
X89300000Y89500000D03*
X89300000Y86800000D03*
X89300000Y5300000D03*
X89400000Y41650000D03*
X89550000Y44450000D03*
X90000000Y70050000D03*
X90050000Y41650000D03*
X90100000Y46300000D03*
X90100000Y28400000D03*
X90100000Y19800000D03*
X90150000Y36930000D03*
X90175000Y40875000D03*
X90200000Y73100000D03*
X90250000Y83800000D03*
X90250000Y81800000D03*
X90300000Y91250000D03*
X90350000Y11600000D03*
X90400000Y88050000D03*
X90400000Y74200000D03*
X90600000Y70800000D03*
X90600000Y31300000D03*
X90600000Y29900000D03*
X90600000Y28800000D03*
X90700000Y16500000D03*
X90700000Y15900000D03*
X90700000Y15300000D03*
X90700000Y14700000D03*
X90700000Y14100000D03*
X90700000Y13500000D03*
X90750000Y64650000D03*
X90750000Y61300000D03*
X91000000Y76100000D03*
X91045000Y26512500D03*
X91045000Y24250000D03*
X91045000Y22012500D03*
X91050000Y42850000D03*
X91100000Y80700000D03*
X91150000Y84250000D03*
X91200000Y79200000D03*
X91200000Y16200000D03*
X91200000Y15600000D03*
X91200000Y15000000D03*
X91200000Y14400000D03*
X91200000Y13800000D03*
X91200000Y13200000D03*
X91200000Y8610000D03*
X91210000Y16810000D03*
X91250000Y34950000D03*
X91250000Y33525000D03*
X91250000Y32375000D03*
X91355000Y39027500D03*
X91400000Y89200000D03*
X91450000Y66150000D03*
X91725000Y36930000D03*
X91750000Y57750000D03*
X91750000Y56150000D03*
X91775000Y30000000D03*
X91900000Y51800000D03*
X91900000Y18950000D03*
X91930000Y82050000D03*
X92000000Y69125000D03*
X92075000Y90375000D03*
X92130000Y39177500D03*
X92230000Y20740000D03*
X92325000Y43550000D03*
X92400000Y86650000D03*
X92600000Y35000000D03*
X92735000Y40877500D03*
X92750000Y53800000D03*
X92950000Y45750000D03*
X92950000Y30375000D03*
X93050000Y23950000D03*
X93050000Y22450000D03*
X93075000Y83075000D03*
X93100000Y42050000D03*
X93175000Y70025000D03*
X93175000Y68200000D03*
X93200000Y63162500D03*
X93440000Y26430000D03*
X93600000Y9250000D03*
X93625000Y36925000D03*
X93625000Y11100000D03*
X93650000Y91000000D03*
X93650000Y89000000D03*
X93650000Y84350000D03*
X93800000Y28550000D03*
X93825000Y71875000D03*
X93850000Y43550000D03*
X93900000Y20050000D03*
X94000000Y26430000D03*
X94025000Y15000000D03*
X94100000Y40700000D03*
X94275000Y50175000D03*
X94300000Y48575000D03*
X94300000Y5300000D03*
X94350000Y88050000D03*
X94350000Y70900000D03*
X94465313Y34980000D03*
X94500000Y59250000D03*
X94600000Y15000000D03*
X94700000Y26300000D03*
X94850000Y83750000D03*
X94850000Y81050000D03*
X94900000Y79700000D03*
X94900000Y77300000D03*
X94900000Y60300000D03*
X94900000Y28550000D03*
X94925118Y52525118D03*
X94950000Y68150000D03*
X95050000Y24050000D03*
X95100000Y88900000D03*
X95200000Y41850000D03*
X95200000Y40700000D03*
X95300000Y61300000D03*
X95450000Y26750000D03*
X95500000Y16700000D03*
X95500000Y13300000D03*
X95525000Y45800000D03*
X95600000Y83750000D03*
X95600000Y54750000D03*
X95600000Y52600000D03*
X95750000Y76050000D03*
X95775000Y71650000D03*
X95775000Y36925000D03*
X95800000Y78900000D03*
X95900000Y61300000D03*
X95950000Y39050000D03*
X95950000Y10450000D03*
X95960000Y37650000D03*
X96050000Y43550000D03*
X96075000Y42900000D03*
X96100000Y31125000D03*
X96100000Y9600000D03*
X96175000Y33150000D03*
X96200000Y87250000D03*
X96200000Y53500000D03*
X96225000Y34170000D03*
X96260000Y29386250D03*
X96260000Y27778750D03*
X96300000Y94300000D03*
X96300000Y40700000D03*
X96325000Y35025000D03*
X96375000Y37225000D03*
X96400000Y90925000D03*
X96400000Y15000000D03*
X96450000Y89000000D03*
X96450000Y63800000D03*
X96525000Y46400000D03*
X96573553Y23800000D03*
X96650000Y70900000D03*
X96650000Y69050000D03*
X96650000Y37850000D03*
X96700000Y81950000D03*
X96800000Y80425000D03*
X96800000Y74350000D03*
X96850000Y83400000D03*
X97060000Y72890000D03*
X97300000Y52950000D03*
X97325000Y50100000D03*
X97400000Y40700000D03*
X97620000Y37850000D03*
X97787500Y77482500D03*
X97925000Y90125000D03*
X97960000Y71990000D03*
X98100000Y25850000D03*
X98110000Y35010000D03*
X98200000Y24350000D03*
X98225000Y34170000D03*
X98230000Y29393750D03*
X98230000Y27786250D03*
X98240000Y37010000D03*
X98275000Y33175000D03*
X98300000Y30900000D03*
X98310000Y38489351D03*
X98320000Y48492500D03*
X98320000Y47037500D03*
X98320000Y45580000D03*
X98320000Y44125000D03*
X98320000Y42670000D03*
X98320000Y41230000D03*
X98320000Y39960000D03*
X98325000Y49925000D03*
X98350000Y64625000D03*
X98370000Y70759350D03*
X98370000Y68786752D03*
X98370000Y67325453D03*
X98370000Y65864154D03*
X98370000Y62941556D03*
X98370000Y61480257D03*
X98370000Y60018957D03*
X98370000Y58557658D03*
X98370000Y57096359D03*
X98380000Y55730000D03*
X98380000Y54268700D03*
X98380000Y52807401D03*
X98380000Y51346102D03*
X98675000Y89075000D03*
X98710000Y85460000D03*
X98780000Y83640000D03*
X98800000Y80425000D03*
X98800000Y74350000D03*
X98875000Y82125000D03*
X98900000Y87250000D03*
X99300000Y92300000D03*
X99300000Y9300000D03*
X99310000Y73320000D03*
X99600000Y35480000D03*
X99750000Y78900000D03*
X99750000Y76100000D03*
X100250000Y44125000D03*
X100260000Y70951179D03*
X100260000Y68978581D03*
X100260000Y67517282D03*
X100260000Y66055982D03*
X100260000Y64594683D03*
X100260000Y63133384D03*
X100260000Y61672085D03*
X100260000Y60210786D03*
X100260000Y58749487D03*
X100260000Y57288188D03*
X100260000Y55826889D03*
X100260000Y54365589D03*
X100260000Y52904290D03*
X100260000Y51442991D03*
X100260000Y49981692D03*
X100260000Y48520393D03*
X100260000Y47059094D03*
X100260000Y45597795D03*
X100260000Y42675196D03*
X100260000Y41213897D03*
X100260000Y39752598D03*
X100260000Y38291299D03*
X100260000Y36830000D03*
X101600000Y87300000D03*
X101600000Y82000000D03*
X101600000Y77000000D03*
X101600000Y71050000D03*
X101600000Y67000000D03*
X101600000Y62000000D03*
X101600000Y57000000D03*
X101600000Y52000000D03*
X101600000Y47000000D03*
X101600000Y42000000D03*
X101600000Y37000000D03*
X101600000Y32000000D03*
X101600000Y27000000D03*
X101600000Y22000000D03*
X101600000Y17000000D03*
X101600000Y12000000D03*
D11*
%TO.C,U6*%
X33720000Y77640000D03*
X33720000Y76800000D03*
X33720000Y75960000D03*
X34680000Y77640000D03*
X34680000Y76800000D03*
X34680000Y75960000D03*
%TO.C,U34*%
X41650000Y83700000D03*
X41650000Y82400000D03*
X41650000Y81100000D03*
X42950000Y83700000D03*
X42950000Y82400000D03*
X42950000Y81100000D03*
%TO.C,U35*%
X45365000Y74112500D03*
X45365000Y72812500D03*
%TO.C,U36*%
X46065000Y64605000D03*
X46065000Y63645000D03*
%TO.C,U35*%
X46665000Y74112500D03*
X46665000Y72812500D03*
%TO.C,U36*%
X46905000Y64605000D03*
X46905000Y63645000D03*
X47745000Y64605000D03*
X47745000Y63645000D03*
%TO.C,U35*%
X47965000Y74112500D03*
X47965000Y72812500D03*
%TO.C,U17*%
X66850000Y49650000D03*
X66850000Y48650000D03*
X66850000Y47650000D03*
X67850000Y49650000D03*
X67850000Y48650000D03*
X67850000Y47650000D03*
X68850000Y49650000D03*
X68850000Y48650000D03*
X68850000Y47650000D03*
%TO.C,U41*%
X72499118Y80077738D03*
X72499118Y78977738D03*
%TO.C,U21*%
X81950000Y58700000D03*
X81950000Y57200000D03*
X81950000Y55700000D03*
X82800000Y58000000D03*
X82800000Y56400000D03*
X83800000Y58700000D03*
X83800000Y57200000D03*
X83800000Y55700000D03*
X84700000Y58000000D03*
X84700000Y56400000D03*
X85500000Y58700000D03*
X85500000Y57200000D03*
X85500000Y55700000D03*
%TO.C,U29*%
X96950000Y87250000D03*
X98050000Y87250000D03*
D12*
%TO.C,J1*%
X41135000Y89829000D03*
X41135000Y88559000D03*
X42405000Y89829000D03*
X42405000Y88559000D03*
X43675000Y89829000D03*
X43675000Y88559000D03*
X44945000Y89829000D03*
X44945000Y88559000D03*
X46215000Y89829000D03*
X46215000Y88559000D03*
X47485000Y89829000D03*
X47485000Y88559000D03*
X48755000Y89829000D03*
X48755000Y88559000D03*
X50025000Y89829000D03*
X50025000Y88559000D03*
X51295000Y89829000D03*
X51295000Y88559000D03*
X52565000Y89829000D03*
X52565000Y88559000D03*
X53835000Y89829000D03*
X53835000Y88559000D03*
X55105000Y89829000D03*
X55105000Y88559000D03*
X56375000Y89829000D03*
X56375000Y88559000D03*
X57645000Y89829000D03*
X57645000Y88559000D03*
X58915000Y89829000D03*
X58915000Y88559000D03*
X60185000Y89829000D03*
X60185000Y88559000D03*
X61455000Y89829000D03*
X61455000Y88559000D03*
X62725000Y89829000D03*
X62725000Y88559000D03*
X63995000Y89829000D03*
X63995000Y88559000D03*
X65265000Y89829000D03*
X65265000Y88559000D03*
D13*
%TO.C,J7*%
X13100000Y62105000D03*
X13100000Y60835000D03*
X13100000Y59565000D03*
X13100000Y58295000D03*
D14*
%TO.C,TP9*%
X8950000Y89800000D03*
%TO.C,TP6*%
X10462500Y75037500D03*
%TO.C,TP150*%
X11600000Y79575000D03*
%TO.C,TP80*%
X15400000Y43830000D03*
%TO.C,TP81*%
X16500000Y60250000D03*
%TO.C,TP8*%
X16987500Y90575000D03*
%TO.C,TP7*%
X17387500Y84475000D03*
%TO.C,TP109*%
X19400000Y92100000D03*
%TO.C,TP59*%
X29600000Y61600000D03*
%TO.C,TP163*%
X34400000Y93600000D03*
%TO.C,TP110*%
X35500000Y68800000D03*
%TO.C,TP78*%
X36550000Y19470000D03*
%TO.C,TP135*%
X37500000Y26350000D03*
%TO.C,TP12*%
X39700000Y85900000D03*
%TO.C,TP84*%
X39800000Y26000000D03*
%TO.C,TP82*%
X40600000Y49800000D03*
%TO.C,TP85*%
X40600000Y48400000D03*
%TO.C,TP17*%
X44200000Y69000000D03*
%TO.C,TP83*%
X44200000Y24750000D03*
%TO.C,TP13*%
X46800000Y84700000D03*
%TO.C,TP18*%
X56050000Y62050000D03*
%TO.C,TP2*%
X61150000Y43447500D03*
%TO.C,TP151*%
X92600000Y17400000D03*
D15*
%TO.C,J6*%
X9500000Y61440000D03*
X9500000Y58900000D03*
M02*
