%TF.GenerationSoftware,KiCad,Pcbnew,10.0.4*%
%TF.CreationDate,2026-07-16T14:59:28-06:00*%
%TF.ProjectId,esi-c3-hardware,6573692d-6333-42d6-9861-726477617265,7.0*%
%TF.SameCoordinates,PX42c1d80PY876bf80*%
%TF.FileFunction,Legend,Bot*%
%TF.FilePolarity,Positive*%
%FSLAX46Y46*%
G04 Gerber Fmt 4.6, Leading zero omitted, Abs format (unit mm)*
G04 Created by KiCad (PCBNEW 10.0.4) date 2026-07-16 14:59:28*
%MOMM*%
%LPD*%
G01*
G04 APERTURE LIST*
%ADD10C,0.127000*%
%ADD11C,0.200000*%
%ADD12C,0.300000*%
%ADD13C,0.125000*%
G04 APERTURE END LIST*
D10*
X80600000Y59900000D02*
X80600000Y54400000D01*
X80600000Y54400000D02*
X100100000Y54400000D01*
X100100000Y59900000D02*
X80600000Y59900000D01*
D11*
X21030326Y34639392D02*
X21030326Y33782249D01*
X21030326Y33782249D02*
X21077945Y33687011D01*
X21077945Y33687011D02*
X21173183Y33639392D01*
X21173183Y33639392D02*
X21220802Y33639392D01*
X21030326Y34972725D02*
X21077945Y34925106D01*
X21077945Y34925106D02*
X21030326Y34877487D01*
X21030326Y34877487D02*
X20982707Y34925106D01*
X20982707Y34925106D02*
X21030326Y34972725D01*
X21030326Y34972725D02*
X21030326Y34877487D01*
X20696993Y34639392D02*
X20316041Y34639392D01*
X20554136Y34972725D02*
X20554136Y34115583D01*
X20554136Y34115583D02*
X20506517Y34020344D01*
X20506517Y34020344D02*
X20411279Y33972725D01*
X20411279Y33972725D02*
X20316041Y33972725D01*
X19316040Y34639392D02*
X19125564Y33972725D01*
X19125564Y33972725D02*
X18935088Y34448916D01*
X18935088Y34448916D02*
X18744612Y33972725D01*
X18744612Y33972725D02*
X18554136Y34639392D01*
X17744612Y33972725D02*
X17744612Y34496535D01*
X17744612Y34496535D02*
X17792231Y34591773D01*
X17792231Y34591773D02*
X17887469Y34639392D01*
X17887469Y34639392D02*
X18077945Y34639392D01*
X18077945Y34639392D02*
X18173183Y34591773D01*
X17744612Y34020344D02*
X17839850Y33972725D01*
X17839850Y33972725D02*
X18077945Y33972725D01*
X18077945Y33972725D02*
X18173183Y34020344D01*
X18173183Y34020344D02*
X18220802Y34115583D01*
X18220802Y34115583D02*
X18220802Y34210821D01*
X18220802Y34210821D02*
X18173183Y34306059D01*
X18173183Y34306059D02*
X18077945Y34353678D01*
X18077945Y34353678D02*
X17839850Y34353678D01*
X17839850Y34353678D02*
X17744612Y34401297D01*
X17316040Y34020344D02*
X17220802Y33972725D01*
X17220802Y33972725D02*
X17030326Y33972725D01*
X17030326Y33972725D02*
X16935088Y34020344D01*
X16935088Y34020344D02*
X16887469Y34115583D01*
X16887469Y34115583D02*
X16887469Y34163202D01*
X16887469Y34163202D02*
X16935088Y34258440D01*
X16935088Y34258440D02*
X17030326Y34306059D01*
X17030326Y34306059D02*
X17173183Y34306059D01*
X17173183Y34306059D02*
X17268421Y34353678D01*
X17268421Y34353678D02*
X17316040Y34448916D01*
X17316040Y34448916D02*
X17316040Y34496535D01*
X17316040Y34496535D02*
X17268421Y34591773D01*
X17268421Y34591773D02*
X17173183Y34639392D01*
X17173183Y34639392D02*
X17030326Y34639392D01*
X17030326Y34639392D02*
X16935088Y34591773D01*
X15696992Y33972725D02*
X15696992Y34972725D01*
X15268421Y33972725D02*
X15268421Y34496535D01*
X15268421Y34496535D02*
X15316040Y34591773D01*
X15316040Y34591773D02*
X15411278Y34639392D01*
X15411278Y34639392D02*
X15554135Y34639392D01*
X15554135Y34639392D02*
X15649373Y34591773D01*
X15649373Y34591773D02*
X15696992Y34544154D01*
X14411278Y34020344D02*
X14506516Y33972725D01*
X14506516Y33972725D02*
X14696992Y33972725D01*
X14696992Y33972725D02*
X14792230Y34020344D01*
X14792230Y34020344D02*
X14839849Y34115583D01*
X14839849Y34115583D02*
X14839849Y34496535D01*
X14839849Y34496535D02*
X14792230Y34591773D01*
X14792230Y34591773D02*
X14696992Y34639392D01*
X14696992Y34639392D02*
X14506516Y34639392D01*
X14506516Y34639392D02*
X14411278Y34591773D01*
X14411278Y34591773D02*
X14363659Y34496535D01*
X14363659Y34496535D02*
X14363659Y34401297D01*
X14363659Y34401297D02*
X14839849Y34306059D01*
X13935087Y33972725D02*
X13935087Y34639392D01*
X13935087Y34448916D02*
X13887468Y34544154D01*
X13887468Y34544154D02*
X13839849Y34591773D01*
X13839849Y34591773D02*
X13744611Y34639392D01*
X13744611Y34639392D02*
X13649373Y34639392D01*
X12935087Y34020344D02*
X13030325Y33972725D01*
X13030325Y33972725D02*
X13220801Y33972725D01*
X13220801Y33972725D02*
X13316039Y34020344D01*
X13316039Y34020344D02*
X13363658Y34115583D01*
X13363658Y34115583D02*
X13363658Y34496535D01*
X13363658Y34496535D02*
X13316039Y34591773D01*
X13316039Y34591773D02*
X13220801Y34639392D01*
X13220801Y34639392D02*
X13030325Y34639392D01*
X13030325Y34639392D02*
X12935087Y34591773D01*
X12935087Y34591773D02*
X12887468Y34496535D01*
X12887468Y34496535D02*
X12887468Y34401297D01*
X12887468Y34401297D02*
X13363658Y34306059D01*
X11696991Y34067964D02*
X11649372Y34020344D01*
X11649372Y34020344D02*
X11696991Y33972725D01*
X11696991Y33972725D02*
X11744610Y34020344D01*
X11744610Y34020344D02*
X11696991Y34067964D01*
X11696991Y34067964D02*
X11696991Y33972725D01*
X11696991Y34591773D02*
X11649372Y34544154D01*
X11649372Y34544154D02*
X11696991Y34496535D01*
X11696991Y34496535D02*
X11744610Y34544154D01*
X11744610Y34544154D02*
X11696991Y34591773D01*
X11696991Y34591773D02*
X11696991Y34496535D01*
X11220801Y33972725D02*
X11220801Y34972725D01*
X11220801Y34972725D02*
X10839849Y34972725D01*
X10839849Y34972725D02*
X10744611Y34925106D01*
X10744611Y34925106D02*
X10696992Y34877487D01*
X10696992Y34877487D02*
X10649373Y34782249D01*
X10649373Y34782249D02*
X10649373Y34639392D01*
X10649373Y34639392D02*
X10696992Y34544154D01*
X10696992Y34544154D02*
X10744611Y34496535D01*
X10744611Y34496535D02*
X10839849Y34448916D01*
X10839849Y34448916D02*
X11220801Y34448916D01*
X28068422Y31199448D02*
X28830326Y30913734D01*
X28830326Y30913734D02*
X28068422Y30628020D01*
X27306517Y30151829D02*
X27354136Y30199448D01*
X27354136Y30199448D02*
X27449374Y30342305D01*
X27449374Y30342305D02*
X27496993Y30437543D01*
X27496993Y30437543D02*
X27544612Y30580400D01*
X27544612Y30580400D02*
X27592231Y30818496D01*
X27592231Y30818496D02*
X27592231Y31008972D01*
X27592231Y31008972D02*
X27544612Y31247067D01*
X27544612Y31247067D02*
X27496993Y31389924D01*
X27496993Y31389924D02*
X27449374Y31485162D01*
X27449374Y31485162D02*
X27354136Y31628020D01*
X27354136Y31628020D02*
X27306517Y31675639D01*
X26925564Y30913734D02*
X26163660Y30913734D01*
X26163660Y30913734D02*
X26354136Y31104210D01*
X25449374Y30151829D02*
X25639850Y30294686D01*
X25639850Y30294686D02*
X25830326Y30151829D01*
X24354136Y30913734D02*
X25116040Y30913734D01*
X25116040Y30913734D02*
X24925564Y31104210D01*
X23687469Y31532781D02*
X23544612Y31247067D01*
X23973183Y31532781D02*
X23830326Y31247067D01*
X23211278Y30151829D02*
X23163659Y30199448D01*
X23163659Y30199448D02*
X23068421Y30342305D01*
X23068421Y30342305D02*
X23020802Y30437543D01*
X23020802Y30437543D02*
X22973183Y30580400D01*
X22973183Y30580400D02*
X22925564Y30818496D01*
X22925564Y30818496D02*
X22925564Y31008972D01*
X22925564Y31008972D02*
X22973183Y31247067D01*
X22973183Y31247067D02*
X23020802Y31389924D01*
X23020802Y31389924D02*
X23068421Y31485162D01*
X23068421Y31485162D02*
X23163659Y31628020D01*
X23163659Y31628020D02*
X23211278Y31675639D01*
X22449373Y31199448D02*
X21687469Y30913734D01*
X21687469Y30913734D02*
X22449373Y30628020D01*
X20592230Y31199448D02*
X20211278Y31199448D01*
X20449373Y31532781D02*
X20449373Y30675639D01*
X20449373Y30675639D02*
X20401754Y30580400D01*
X20401754Y30580400D02*
X20306516Y30532781D01*
X20306516Y30532781D02*
X20211278Y30532781D01*
X19877944Y30532781D02*
X19877944Y31532781D01*
X19449373Y30532781D02*
X19449373Y31056591D01*
X19449373Y31056591D02*
X19496992Y31151829D01*
X19496992Y31151829D02*
X19592230Y31199448D01*
X19592230Y31199448D02*
X19735087Y31199448D01*
X19735087Y31199448D02*
X19830325Y31151829D01*
X19830325Y31151829D02*
X19877944Y31104210D01*
X18973182Y30532781D02*
X18973182Y31199448D01*
X18973182Y31532781D02*
X19020801Y31485162D01*
X19020801Y31485162D02*
X18973182Y31437543D01*
X18973182Y31437543D02*
X18925563Y31485162D01*
X18925563Y31485162D02*
X18973182Y31532781D01*
X18973182Y31532781D02*
X18973182Y31437543D01*
X18496992Y31199448D02*
X18496992Y30532781D01*
X18496992Y31104210D02*
X18449373Y31151829D01*
X18449373Y31151829D02*
X18354135Y31199448D01*
X18354135Y31199448D02*
X18211278Y31199448D01*
X18211278Y31199448D02*
X18116040Y31151829D01*
X18116040Y31151829D02*
X18068421Y31056591D01*
X18068421Y31056591D02*
X18068421Y30532781D01*
X17592230Y30532781D02*
X17592230Y31532781D01*
X17496992Y30913734D02*
X17211278Y30532781D01*
X17211278Y31199448D02*
X17592230Y30818496D01*
X16782706Y30532781D02*
X16782706Y31199448D01*
X16782706Y31532781D02*
X16830325Y31485162D01*
X16830325Y31485162D02*
X16782706Y31437543D01*
X16782706Y31437543D02*
X16735087Y31485162D01*
X16735087Y31485162D02*
X16782706Y31532781D01*
X16782706Y31532781D02*
X16782706Y31437543D01*
X16306516Y31199448D02*
X16306516Y30532781D01*
X16306516Y31104210D02*
X16258897Y31151829D01*
X16258897Y31151829D02*
X16163659Y31199448D01*
X16163659Y31199448D02*
X16020802Y31199448D01*
X16020802Y31199448D02*
X15925564Y31151829D01*
X15925564Y31151829D02*
X15877945Y31056591D01*
X15877945Y31056591D02*
X15877945Y30532781D01*
X14973183Y31199448D02*
X14973183Y30389924D01*
X14973183Y30389924D02*
X15020802Y30294686D01*
X15020802Y30294686D02*
X15068421Y30247067D01*
X15068421Y30247067D02*
X15163659Y30199448D01*
X15163659Y30199448D02*
X15306516Y30199448D01*
X15306516Y30199448D02*
X15401754Y30247067D01*
X14973183Y30580400D02*
X15068421Y30532781D01*
X15068421Y30532781D02*
X15258897Y30532781D01*
X15258897Y30532781D02*
X15354135Y30580400D01*
X15354135Y30580400D02*
X15401754Y30628020D01*
X15401754Y30628020D02*
X15449373Y30723258D01*
X15449373Y30723258D02*
X15449373Y31008972D01*
X15449373Y31008972D02*
X15401754Y31104210D01*
X15401754Y31104210D02*
X15354135Y31151829D01*
X15354135Y31151829D02*
X15258897Y31199448D01*
X15258897Y31199448D02*
X15068421Y31199448D01*
X15068421Y31199448D02*
X14973183Y31151829D01*
X13735087Y30532781D02*
X13735087Y31532781D01*
X13306516Y30532781D02*
X13306516Y31056591D01*
X13306516Y31056591D02*
X13354135Y31151829D01*
X13354135Y31151829D02*
X13449373Y31199448D01*
X13449373Y31199448D02*
X13592230Y31199448D01*
X13592230Y31199448D02*
X13687468Y31151829D01*
X13687468Y31151829D02*
X13735087Y31104210D01*
X12401754Y30532781D02*
X12401754Y31056591D01*
X12401754Y31056591D02*
X12449373Y31151829D01*
X12449373Y31151829D02*
X12544611Y31199448D01*
X12544611Y31199448D02*
X12735087Y31199448D01*
X12735087Y31199448D02*
X12830325Y31151829D01*
X12401754Y30580400D02*
X12496992Y30532781D01*
X12496992Y30532781D02*
X12735087Y30532781D01*
X12735087Y30532781D02*
X12830325Y30580400D01*
X12830325Y30580400D02*
X12877944Y30675639D01*
X12877944Y30675639D02*
X12877944Y30770877D01*
X12877944Y30770877D02*
X12830325Y30866115D01*
X12830325Y30866115D02*
X12735087Y30913734D01*
X12735087Y30913734D02*
X12496992Y30913734D01*
X12496992Y30913734D02*
X12401754Y30961353D01*
X11925563Y30532781D02*
X11925563Y31199448D01*
X11925563Y31008972D02*
X11877944Y31104210D01*
X11877944Y31104210D02*
X11830325Y31151829D01*
X11830325Y31151829D02*
X11735087Y31199448D01*
X11735087Y31199448D02*
X11639849Y31199448D01*
X10877944Y30532781D02*
X10877944Y31532781D01*
X10877944Y30580400D02*
X10973182Y30532781D01*
X10973182Y30532781D02*
X11163658Y30532781D01*
X11163658Y30532781D02*
X11258896Y30580400D01*
X11258896Y30580400D02*
X11306515Y30628020D01*
X11306515Y30628020D02*
X11354134Y30723258D01*
X11354134Y30723258D02*
X11354134Y31008972D01*
X11354134Y31008972D02*
X11306515Y31104210D01*
X11306515Y31104210D02*
X11258896Y31151829D01*
X11258896Y31151829D02*
X11163658Y31199448D01*
X11163658Y31199448D02*
X10973182Y31199448D01*
X10973182Y31199448D02*
X10877944Y31151829D01*
X10401753Y30628020D02*
X10354134Y30580400D01*
X10354134Y30580400D02*
X10401753Y30532781D01*
X10401753Y30532781D02*
X10449372Y30580400D01*
X10449372Y30580400D02*
X10401753Y30628020D01*
X10401753Y30628020D02*
X10401753Y30532781D01*
X9925563Y30628020D02*
X9877944Y30580400D01*
X9877944Y30580400D02*
X9925563Y30532781D01*
X9925563Y30532781D02*
X9973182Y30580400D01*
X9973182Y30580400D02*
X9925563Y30628020D01*
X9925563Y30628020D02*
X9925563Y30532781D01*
X9449373Y30628020D02*
X9401754Y30580400D01*
X9401754Y30580400D02*
X9449373Y30532781D01*
X9449373Y30532781D02*
X9496992Y30580400D01*
X9496992Y30580400D02*
X9449373Y30628020D01*
X9449373Y30628020D02*
X9449373Y30532781D01*
D12*
X16864286Y26401693D02*
X15578571Y24473122D01*
X14935714Y24187407D02*
X15007143Y24258836D01*
X15007143Y24258836D02*
X15150000Y24473122D01*
X15150000Y24473122D02*
X15221429Y24615979D01*
X15221429Y24615979D02*
X15292857Y24830264D01*
X15292857Y24830264D02*
X15364286Y25187407D01*
X15364286Y25187407D02*
X15364286Y25473122D01*
X15364286Y25473122D02*
X15292857Y25830264D01*
X15292857Y25830264D02*
X15221429Y26044550D01*
X15221429Y26044550D02*
X15150000Y26187407D01*
X15150000Y26187407D02*
X15007143Y26401693D01*
X15007143Y26401693D02*
X14935714Y26473122D01*
X14578571Y26115979D02*
X14292857Y26330264D01*
X14292857Y26330264D02*
X14007143Y26115979D01*
X13578571Y25258836D02*
X13578571Y25044550D01*
X13578571Y25044550D02*
X13507143Y24901693D01*
X13507143Y24901693D02*
X13435714Y24830264D01*
X13435714Y24830264D02*
X13292857Y24758836D01*
X13292857Y24758836D02*
X13078571Y24758836D01*
X13078571Y24758836D02*
X12935714Y24830264D01*
X12935714Y24830264D02*
X12864286Y24901693D01*
X12864286Y24901693D02*
X12792857Y25044550D01*
X12792857Y25044550D02*
X12792857Y25258836D01*
X12364285Y26115979D02*
X12078571Y26330264D01*
X12078571Y26330264D02*
X11792857Y26115979D01*
X11435714Y24187407D02*
X11364285Y24258836D01*
X11364285Y24258836D02*
X11221428Y24473122D01*
X11221428Y24473122D02*
X11150000Y24615979D01*
X11150000Y24615979D02*
X11078571Y24830264D01*
X11078571Y24830264D02*
X11007142Y25187407D01*
X11007142Y25187407D02*
X11007142Y25473122D01*
X11007142Y25473122D02*
X11078571Y25830264D01*
X11078571Y25830264D02*
X11150000Y26044550D01*
X11150000Y26044550D02*
X11221428Y26187407D01*
X11221428Y26187407D02*
X11364285Y26401693D01*
X11364285Y26401693D02*
X11435714Y26473122D01*
X9221428Y26330264D02*
X10507142Y24401693D01*
X16149999Y20000432D02*
X15935714Y19929004D01*
X15935714Y19929004D02*
X15578571Y19929004D01*
X15578571Y19929004D02*
X15435714Y20000432D01*
X15435714Y20000432D02*
X15364285Y20071861D01*
X15364285Y20071861D02*
X15292856Y20214718D01*
X15292856Y20214718D02*
X15292856Y20357575D01*
X15292856Y20357575D02*
X15364285Y20500432D01*
X15364285Y20500432D02*
X15435714Y20571861D01*
X15435714Y20571861D02*
X15578571Y20643290D01*
X15578571Y20643290D02*
X15864285Y20714718D01*
X15864285Y20714718D02*
X16007142Y20786147D01*
X16007142Y20786147D02*
X16078571Y20857575D01*
X16078571Y20857575D02*
X16149999Y21000432D01*
X16149999Y21000432D02*
X16149999Y21143290D01*
X16149999Y21143290D02*
X16078571Y21286147D01*
X16078571Y21286147D02*
X16007142Y21357575D01*
X16007142Y21357575D02*
X15864285Y21429004D01*
X15864285Y21429004D02*
X15507142Y21429004D01*
X15507142Y21429004D02*
X15292856Y21357575D01*
X14650000Y19929004D02*
X14650000Y21429004D01*
X14650000Y21429004D02*
X14078571Y21429004D01*
X14078571Y21429004D02*
X13935714Y21357575D01*
X13935714Y21357575D02*
X13864285Y21286147D01*
X13864285Y21286147D02*
X13792857Y21143290D01*
X13792857Y21143290D02*
X13792857Y20929004D01*
X13792857Y20929004D02*
X13864285Y20786147D01*
X13864285Y20786147D02*
X13935714Y20714718D01*
X13935714Y20714718D02*
X14078571Y20643290D01*
X14078571Y20643290D02*
X14650000Y20643290D01*
X13221428Y20357575D02*
X12507143Y20357575D01*
X13364285Y19929004D02*
X12864285Y21429004D01*
X12864285Y21429004D02*
X12364285Y19929004D01*
X11007143Y20071861D02*
X11078571Y20000432D01*
X11078571Y20000432D02*
X11292857Y19929004D01*
X11292857Y19929004D02*
X11435714Y19929004D01*
X11435714Y19929004D02*
X11650000Y20000432D01*
X11650000Y20000432D02*
X11792857Y20143290D01*
X11792857Y20143290D02*
X11864286Y20286147D01*
X11864286Y20286147D02*
X11935714Y20571861D01*
X11935714Y20571861D02*
X11935714Y20786147D01*
X11935714Y20786147D02*
X11864286Y21071861D01*
X11864286Y21071861D02*
X11792857Y21214718D01*
X11792857Y21214718D02*
X11650000Y21357575D01*
X11650000Y21357575D02*
X11435714Y21429004D01*
X11435714Y21429004D02*
X11292857Y21429004D01*
X11292857Y21429004D02*
X11078571Y21357575D01*
X11078571Y21357575D02*
X11007143Y21286147D01*
X10364286Y20714718D02*
X9864286Y20714718D01*
X9650000Y19929004D02*
X10364286Y19929004D01*
X10364286Y19929004D02*
X10364286Y21429004D01*
X10364286Y21429004D02*
X9650000Y21429004D01*
X13792856Y19014088D02*
X13507142Y19014088D01*
X13507142Y19014088D02*
X13364285Y18942659D01*
X13364285Y18942659D02*
X13221428Y18799802D01*
X13221428Y18799802D02*
X13149999Y18514088D01*
X13149999Y18514088D02*
X13149999Y18014088D01*
X13149999Y18014088D02*
X13221428Y17728374D01*
X13221428Y17728374D02*
X13364285Y17585516D01*
X13364285Y17585516D02*
X13507142Y17514088D01*
X13507142Y17514088D02*
X13792856Y17514088D01*
X13792856Y17514088D02*
X13935714Y17585516D01*
X13935714Y17585516D02*
X14078571Y17728374D01*
X14078571Y17728374D02*
X14149999Y18014088D01*
X14149999Y18014088D02*
X14149999Y18514088D01*
X14149999Y18514088D02*
X14078571Y18799802D01*
X14078571Y18799802D02*
X13935714Y18942659D01*
X13935714Y18942659D02*
X13792856Y19014088D01*
X11649999Y17514088D02*
X12149999Y18228374D01*
X12507142Y17514088D02*
X12507142Y19014088D01*
X12507142Y19014088D02*
X11935713Y19014088D01*
X11935713Y19014088D02*
X11792856Y18942659D01*
X11792856Y18942659D02*
X11721427Y18871231D01*
X11721427Y18871231D02*
X11649999Y18728374D01*
X11649999Y18728374D02*
X11649999Y18514088D01*
X11649999Y18514088D02*
X11721427Y18371231D01*
X11721427Y18371231D02*
X11792856Y18299802D01*
X11792856Y18299802D02*
X11935713Y18228374D01*
X11935713Y18228374D02*
X12507142Y18228374D01*
X15221428Y15884886D02*
X15007142Y15813458D01*
X15007142Y15813458D02*
X14935713Y15742029D01*
X14935713Y15742029D02*
X14864285Y15599172D01*
X14864285Y15599172D02*
X14864285Y15384886D01*
X14864285Y15384886D02*
X14935713Y15242029D01*
X14935713Y15242029D02*
X15007142Y15170600D01*
X15007142Y15170600D02*
X15149999Y15099172D01*
X15149999Y15099172D02*
X15721428Y15099172D01*
X15721428Y15099172D02*
X15721428Y16599172D01*
X15721428Y16599172D02*
X15221428Y16599172D01*
X15221428Y16599172D02*
X15078571Y16527743D01*
X15078571Y16527743D02*
X15007142Y16456315D01*
X15007142Y16456315D02*
X14935713Y16313458D01*
X14935713Y16313458D02*
X14935713Y16170600D01*
X14935713Y16170600D02*
X15007142Y16027743D01*
X15007142Y16027743D02*
X15078571Y15956315D01*
X15078571Y15956315D02*
X15221428Y15884886D01*
X15221428Y15884886D02*
X15721428Y15884886D01*
X14221428Y16599172D02*
X14221428Y15384886D01*
X14221428Y15384886D02*
X14149999Y15242029D01*
X14149999Y15242029D02*
X14078571Y15170600D01*
X14078571Y15170600D02*
X13935713Y15099172D01*
X13935713Y15099172D02*
X13649999Y15099172D01*
X13649999Y15099172D02*
X13507142Y15170600D01*
X13507142Y15170600D02*
X13435713Y15242029D01*
X13435713Y15242029D02*
X13364285Y15384886D01*
X13364285Y15384886D02*
X13364285Y16599172D01*
X12721427Y15170600D02*
X12507142Y15099172D01*
X12507142Y15099172D02*
X12149999Y15099172D01*
X12149999Y15099172D02*
X12007142Y15170600D01*
X12007142Y15170600D02*
X11935713Y15242029D01*
X11935713Y15242029D02*
X11864284Y15384886D01*
X11864284Y15384886D02*
X11864284Y15527743D01*
X11864284Y15527743D02*
X11935713Y15670600D01*
X11935713Y15670600D02*
X12007142Y15742029D01*
X12007142Y15742029D02*
X12149999Y15813458D01*
X12149999Y15813458D02*
X12435713Y15884886D01*
X12435713Y15884886D02*
X12578570Y15956315D01*
X12578570Y15956315D02*
X12649999Y16027743D01*
X12649999Y16027743D02*
X12721427Y16170600D01*
X12721427Y16170600D02*
X12721427Y16313458D01*
X12721427Y16313458D02*
X12649999Y16456315D01*
X12649999Y16456315D02*
X12578570Y16527743D01*
X12578570Y16527743D02*
X12435713Y16599172D01*
X12435713Y16599172D02*
X12078570Y16599172D01*
X12078570Y16599172D02*
X11864284Y16527743D01*
X11435713Y16599172D02*
X10578571Y16599172D01*
X11007142Y15099172D02*
X11007142Y16599172D01*
X10078571Y15242029D02*
X10007142Y15170600D01*
X10007142Y15170600D02*
X10078571Y15099172D01*
X10078571Y15099172D02*
X10149999Y15170600D01*
X10149999Y15170600D02*
X10078571Y15242029D01*
X10078571Y15242029D02*
X10078571Y15099172D01*
X10078571Y15670600D02*
X10149999Y16527743D01*
X10149999Y16527743D02*
X10078571Y16599172D01*
X10078571Y16599172D02*
X10007142Y16527743D01*
X10007142Y16527743D02*
X10078571Y15670600D01*
X10078571Y15670600D02*
X10078571Y16599172D01*
D13*
X22407141Y37275191D02*
X22121427Y37275191D01*
X22264284Y36775191D02*
X22264284Y37275191D01*
X21954761Y36775191D02*
X21954761Y37275191D01*
X21954761Y37275191D02*
X21764285Y37275191D01*
X21764285Y37275191D02*
X21716666Y37251381D01*
X21716666Y37251381D02*
X21692856Y37227572D01*
X21692856Y37227572D02*
X21669047Y37179953D01*
X21669047Y37179953D02*
X21669047Y37108524D01*
X21669047Y37108524D02*
X21692856Y37060905D01*
X21692856Y37060905D02*
X21716666Y37037096D01*
X21716666Y37037096D02*
X21764285Y37013286D01*
X21764285Y37013286D02*
X21954761Y37013286D01*
X21192856Y36775191D02*
X21478570Y36775191D01*
X21335713Y36775191D02*
X21335713Y37275191D01*
X21335713Y37275191D02*
X21383332Y37203762D01*
X21383332Y37203762D02*
X21430951Y37156143D01*
X21430951Y37156143D02*
X21478570Y37132334D01*
X21026190Y37275191D02*
X20692857Y37275191D01*
X20692857Y37275191D02*
X20907142Y36775191D01*
X20407143Y37275191D02*
X20359524Y37275191D01*
X20359524Y37275191D02*
X20311905Y37251381D01*
X20311905Y37251381D02*
X20288095Y37227572D01*
X20288095Y37227572D02*
X20264286Y37179953D01*
X20264286Y37179953D02*
X20240476Y37084715D01*
X20240476Y37084715D02*
X20240476Y36965667D01*
X20240476Y36965667D02*
X20264286Y36870429D01*
X20264286Y36870429D02*
X20288095Y36822810D01*
X20288095Y36822810D02*
X20311905Y36799000D01*
X20311905Y36799000D02*
X20359524Y36775191D01*
X20359524Y36775191D02*
X20407143Y36775191D01*
X20407143Y36775191D02*
X20454762Y36799000D01*
X20454762Y36799000D02*
X20478571Y36822810D01*
X20478571Y36822810D02*
X20502381Y36870429D01*
X20502381Y36870429D02*
X20526190Y36965667D01*
X20526190Y36965667D02*
X20526190Y37084715D01*
X20526190Y37084715D02*
X20502381Y37179953D01*
X20502381Y37179953D02*
X20478571Y37227572D01*
X20478571Y37227572D02*
X20454762Y37251381D01*
X20454762Y37251381D02*
X20407143Y37275191D01*
X17844046Y54675191D02*
X17558332Y54675191D01*
X17701189Y54175191D02*
X17701189Y54675191D01*
X17391666Y54175191D02*
X17391666Y54675191D01*
X17391666Y54675191D02*
X17201190Y54675191D01*
X17201190Y54675191D02*
X17153571Y54651381D01*
X17153571Y54651381D02*
X17129761Y54627572D01*
X17129761Y54627572D02*
X17105952Y54579953D01*
X17105952Y54579953D02*
X17105952Y54508524D01*
X17105952Y54508524D02*
X17129761Y54460905D01*
X17129761Y54460905D02*
X17153571Y54437096D01*
X17153571Y54437096D02*
X17201190Y54413286D01*
X17201190Y54413286D02*
X17391666Y54413286D01*
X16867856Y54175191D02*
X16772618Y54175191D01*
X16772618Y54175191D02*
X16724999Y54199000D01*
X16724999Y54199000D02*
X16701190Y54222810D01*
X16701190Y54222810D02*
X16653571Y54294239D01*
X16653571Y54294239D02*
X16629761Y54389477D01*
X16629761Y54389477D02*
X16629761Y54579953D01*
X16629761Y54579953D02*
X16653571Y54627572D01*
X16653571Y54627572D02*
X16677380Y54651381D01*
X16677380Y54651381D02*
X16724999Y54675191D01*
X16724999Y54675191D02*
X16820237Y54675191D01*
X16820237Y54675191D02*
X16867856Y54651381D01*
X16867856Y54651381D02*
X16891666Y54627572D01*
X16891666Y54627572D02*
X16915475Y54579953D01*
X16915475Y54579953D02*
X16915475Y54460905D01*
X16915475Y54460905D02*
X16891666Y54413286D01*
X16891666Y54413286D02*
X16867856Y54389477D01*
X16867856Y54389477D02*
X16820237Y54365667D01*
X16820237Y54365667D02*
X16724999Y54365667D01*
X16724999Y54365667D02*
X16677380Y54389477D01*
X16677380Y54389477D02*
X16653571Y54413286D01*
X16653571Y54413286D02*
X16629761Y54460905D01*
X16153571Y54175191D02*
X16439285Y54175191D01*
X16296428Y54175191D02*
X16296428Y54675191D01*
X16296428Y54675191D02*
X16344047Y54603762D01*
X16344047Y54603762D02*
X16391666Y54556143D01*
X16391666Y54556143D02*
X16439285Y54532334D01*
X25607141Y36275191D02*
X25321427Y36275191D01*
X25464284Y35775191D02*
X25464284Y36275191D01*
X25154761Y35775191D02*
X25154761Y36275191D01*
X25154761Y36275191D02*
X24964285Y36275191D01*
X24964285Y36275191D02*
X24916666Y36251381D01*
X24916666Y36251381D02*
X24892856Y36227572D01*
X24892856Y36227572D02*
X24869047Y36179953D01*
X24869047Y36179953D02*
X24869047Y36108524D01*
X24869047Y36108524D02*
X24892856Y36060905D01*
X24892856Y36060905D02*
X24916666Y36037096D01*
X24916666Y36037096D02*
X24964285Y36013286D01*
X24964285Y36013286D02*
X25154761Y36013286D01*
X24392856Y35775191D02*
X24678570Y35775191D01*
X24535713Y35775191D02*
X24535713Y36275191D01*
X24535713Y36275191D02*
X24583332Y36203762D01*
X24583332Y36203762D02*
X24630951Y36156143D01*
X24630951Y36156143D02*
X24678570Y36132334D01*
X24202380Y36227572D02*
X24178571Y36251381D01*
X24178571Y36251381D02*
X24130952Y36275191D01*
X24130952Y36275191D02*
X24011904Y36275191D01*
X24011904Y36275191D02*
X23964285Y36251381D01*
X23964285Y36251381D02*
X23940476Y36227572D01*
X23940476Y36227572D02*
X23916666Y36179953D01*
X23916666Y36179953D02*
X23916666Y36132334D01*
X23916666Y36132334D02*
X23940476Y36060905D01*
X23940476Y36060905D02*
X24226190Y35775191D01*
X24226190Y35775191D02*
X23916666Y35775191D01*
X23488095Y36108524D02*
X23488095Y35775191D01*
X23607143Y36299000D02*
X23726190Y35941858D01*
X23726190Y35941858D02*
X23416667Y35941858D01*
X18699809Y58569047D02*
X18699809Y58283333D01*
X19199809Y58426190D02*
X18699809Y58426190D01*
X19199809Y58116667D02*
X18699809Y58116667D01*
X18699809Y58116667D02*
X18699809Y57926191D01*
X18699809Y57926191D02*
X18723619Y57878572D01*
X18723619Y57878572D02*
X18747428Y57854762D01*
X18747428Y57854762D02*
X18795047Y57830953D01*
X18795047Y57830953D02*
X18866476Y57830953D01*
X18866476Y57830953D02*
X18914095Y57854762D01*
X18914095Y57854762D02*
X18937904Y57878572D01*
X18937904Y57878572D02*
X18961714Y57926191D01*
X18961714Y57926191D02*
X18961714Y58116667D01*
X18699809Y57664286D02*
X18699809Y57354762D01*
X18699809Y57354762D02*
X18890285Y57521429D01*
X18890285Y57521429D02*
X18890285Y57450000D01*
X18890285Y57450000D02*
X18914095Y57402381D01*
X18914095Y57402381D02*
X18937904Y57378572D01*
X18937904Y57378572D02*
X18985523Y57354762D01*
X18985523Y57354762D02*
X19104571Y57354762D01*
X19104571Y57354762D02*
X19152190Y57378572D01*
X19152190Y57378572D02*
X19176000Y57402381D01*
X19176000Y57402381D02*
X19199809Y57450000D01*
X19199809Y57450000D02*
X19199809Y57592857D01*
X19199809Y57592857D02*
X19176000Y57640476D01*
X19176000Y57640476D02*
X19152190Y57664286D01*
X18699809Y57188096D02*
X18699809Y56878572D01*
X18699809Y56878572D02*
X18890285Y57045239D01*
X18890285Y57045239D02*
X18890285Y56973810D01*
X18890285Y56973810D02*
X18914095Y56926191D01*
X18914095Y56926191D02*
X18937904Y56902382D01*
X18937904Y56902382D02*
X18985523Y56878572D01*
X18985523Y56878572D02*
X19104571Y56878572D01*
X19104571Y56878572D02*
X19152190Y56902382D01*
X19152190Y56902382D02*
X19176000Y56926191D01*
X19176000Y56926191D02*
X19199809Y56973810D01*
X19199809Y56973810D02*
X19199809Y57116667D01*
X19199809Y57116667D02*
X19176000Y57164286D01*
X19176000Y57164286D02*
X19152190Y57188096D01*
X27474809Y43469047D02*
X27474809Y43183333D01*
X27974809Y43326190D02*
X27474809Y43326190D01*
X27974809Y43016667D02*
X27474809Y43016667D01*
X27474809Y43016667D02*
X27474809Y42826191D01*
X27474809Y42826191D02*
X27498619Y42778572D01*
X27498619Y42778572D02*
X27522428Y42754762D01*
X27522428Y42754762D02*
X27570047Y42730953D01*
X27570047Y42730953D02*
X27641476Y42730953D01*
X27641476Y42730953D02*
X27689095Y42754762D01*
X27689095Y42754762D02*
X27712904Y42778572D01*
X27712904Y42778572D02*
X27736714Y42826191D01*
X27736714Y42826191D02*
X27736714Y43016667D01*
X27474809Y42564286D02*
X27474809Y42230953D01*
X27474809Y42230953D02*
X27974809Y42445238D01*
X27474809Y42088096D02*
X27474809Y41754763D01*
X27474809Y41754763D02*
X27974809Y41969048D01*
X65675190Y83542859D02*
X65675190Y83828573D01*
X65175190Y83685716D02*
X65675190Y83685716D01*
X65175190Y83995239D02*
X65675190Y83995239D01*
X65675190Y83995239D02*
X65675190Y84185715D01*
X65675190Y84185715D02*
X65651380Y84233334D01*
X65651380Y84233334D02*
X65627571Y84257144D01*
X65627571Y84257144D02*
X65579952Y84280953D01*
X65579952Y84280953D02*
X65508523Y84280953D01*
X65508523Y84280953D02*
X65460904Y84257144D01*
X65460904Y84257144D02*
X65437095Y84233334D01*
X65437095Y84233334D02*
X65413285Y84185715D01*
X65413285Y84185715D02*
X65413285Y83995239D01*
X65175190Y84757144D02*
X65175190Y84471430D01*
X65175190Y84614287D02*
X65675190Y84614287D01*
X65675190Y84614287D02*
X65603761Y84566668D01*
X65603761Y84566668D02*
X65556142Y84519049D01*
X65556142Y84519049D02*
X65532333Y84471430D01*
X65508523Y85185715D02*
X65175190Y85185715D01*
X65699000Y85066667D02*
X65341857Y84947620D01*
X65341857Y84947620D02*
X65341857Y85257143D01*
X65675190Y85400000D02*
X65675190Y85709524D01*
X65675190Y85709524D02*
X65484714Y85542857D01*
X65484714Y85542857D02*
X65484714Y85614286D01*
X65484714Y85614286D02*
X65460904Y85661905D01*
X65460904Y85661905D02*
X65437095Y85685714D01*
X65437095Y85685714D02*
X65389476Y85709524D01*
X65389476Y85709524D02*
X65270428Y85709524D01*
X65270428Y85709524D02*
X65222809Y85685714D01*
X65222809Y85685714D02*
X65199000Y85661905D01*
X65199000Y85661905D02*
X65175190Y85614286D01*
X65175190Y85614286D02*
X65175190Y85471429D01*
X65175190Y85471429D02*
X65199000Y85423810D01*
X65199000Y85423810D02*
X65222809Y85400000D01*
X40757141Y50925191D02*
X40471427Y50925191D01*
X40614284Y50425191D02*
X40614284Y50925191D01*
X40304761Y50425191D02*
X40304761Y50925191D01*
X40304761Y50925191D02*
X40114285Y50925191D01*
X40114285Y50925191D02*
X40066666Y50901381D01*
X40066666Y50901381D02*
X40042856Y50877572D01*
X40042856Y50877572D02*
X40019047Y50829953D01*
X40019047Y50829953D02*
X40019047Y50758524D01*
X40019047Y50758524D02*
X40042856Y50710905D01*
X40042856Y50710905D02*
X40066666Y50687096D01*
X40066666Y50687096D02*
X40114285Y50663286D01*
X40114285Y50663286D02*
X40304761Y50663286D01*
X39542856Y50425191D02*
X39828570Y50425191D01*
X39685713Y50425191D02*
X39685713Y50925191D01*
X39685713Y50925191D02*
X39733332Y50853762D01*
X39733332Y50853762D02*
X39780951Y50806143D01*
X39780951Y50806143D02*
X39828570Y50782334D01*
X39352380Y50877572D02*
X39328571Y50901381D01*
X39328571Y50901381D02*
X39280952Y50925191D01*
X39280952Y50925191D02*
X39161904Y50925191D01*
X39161904Y50925191D02*
X39114285Y50901381D01*
X39114285Y50901381D02*
X39090476Y50877572D01*
X39090476Y50877572D02*
X39066666Y50829953D01*
X39066666Y50829953D02*
X39066666Y50782334D01*
X39066666Y50782334D02*
X39090476Y50710905D01*
X39090476Y50710905D02*
X39376190Y50425191D01*
X39376190Y50425191D02*
X39066666Y50425191D01*
X38590476Y50425191D02*
X38876190Y50425191D01*
X38733333Y50425191D02*
X38733333Y50925191D01*
X38733333Y50925191D02*
X38780952Y50853762D01*
X38780952Y50853762D02*
X38828571Y50806143D01*
X38828571Y50806143D02*
X38876190Y50782334D01*
X37524809Y45869047D02*
X37524809Y45583333D01*
X38024809Y45726190D02*
X37524809Y45726190D01*
X38024809Y45416667D02*
X37524809Y45416667D01*
X37524809Y45416667D02*
X37524809Y45226191D01*
X37524809Y45226191D02*
X37548619Y45178572D01*
X37548619Y45178572D02*
X37572428Y45154762D01*
X37572428Y45154762D02*
X37620047Y45130953D01*
X37620047Y45130953D02*
X37691476Y45130953D01*
X37691476Y45130953D02*
X37739095Y45154762D01*
X37739095Y45154762D02*
X37762904Y45178572D01*
X37762904Y45178572D02*
X37786714Y45226191D01*
X37786714Y45226191D02*
X37786714Y45416667D01*
X38024809Y44892857D02*
X38024809Y44797619D01*
X38024809Y44797619D02*
X38001000Y44750000D01*
X38001000Y44750000D02*
X37977190Y44726191D01*
X37977190Y44726191D02*
X37905761Y44678572D01*
X37905761Y44678572D02*
X37810523Y44654762D01*
X37810523Y44654762D02*
X37620047Y44654762D01*
X37620047Y44654762D02*
X37572428Y44678572D01*
X37572428Y44678572D02*
X37548619Y44702381D01*
X37548619Y44702381D02*
X37524809Y44750000D01*
X37524809Y44750000D02*
X37524809Y44845238D01*
X37524809Y44845238D02*
X37548619Y44892857D01*
X37548619Y44892857D02*
X37572428Y44916667D01*
X37572428Y44916667D02*
X37620047Y44940476D01*
X37620047Y44940476D02*
X37739095Y44940476D01*
X37739095Y44940476D02*
X37786714Y44916667D01*
X37786714Y44916667D02*
X37810523Y44892857D01*
X37810523Y44892857D02*
X37834333Y44845238D01*
X37834333Y44845238D02*
X37834333Y44750000D01*
X37834333Y44750000D02*
X37810523Y44702381D01*
X37810523Y44702381D02*
X37786714Y44678572D01*
X37786714Y44678572D02*
X37739095Y44654762D01*
X37739095Y44369048D02*
X37715285Y44416667D01*
X37715285Y44416667D02*
X37691476Y44440477D01*
X37691476Y44440477D02*
X37643857Y44464286D01*
X37643857Y44464286D02*
X37620047Y44464286D01*
X37620047Y44464286D02*
X37572428Y44440477D01*
X37572428Y44440477D02*
X37548619Y44416667D01*
X37548619Y44416667D02*
X37524809Y44369048D01*
X37524809Y44369048D02*
X37524809Y44273810D01*
X37524809Y44273810D02*
X37548619Y44226191D01*
X37548619Y44226191D02*
X37572428Y44202382D01*
X37572428Y44202382D02*
X37620047Y44178572D01*
X37620047Y44178572D02*
X37643857Y44178572D01*
X37643857Y44178572D02*
X37691476Y44202382D01*
X37691476Y44202382D02*
X37715285Y44226191D01*
X37715285Y44226191D02*
X37739095Y44273810D01*
X37739095Y44273810D02*
X37739095Y44369048D01*
X37739095Y44369048D02*
X37762904Y44416667D01*
X37762904Y44416667D02*
X37786714Y44440477D01*
X37786714Y44440477D02*
X37834333Y44464286D01*
X37834333Y44464286D02*
X37929571Y44464286D01*
X37929571Y44464286D02*
X37977190Y44440477D01*
X37977190Y44440477D02*
X38001000Y44416667D01*
X38001000Y44416667D02*
X38024809Y44369048D01*
X38024809Y44369048D02*
X38024809Y44273810D01*
X38024809Y44273810D02*
X38001000Y44226191D01*
X38001000Y44226191D02*
X37977190Y44202382D01*
X37977190Y44202382D02*
X37929571Y44178572D01*
X37929571Y44178572D02*
X37834333Y44178572D01*
X37834333Y44178572D02*
X37786714Y44202382D01*
X37786714Y44202382D02*
X37762904Y44226191D01*
X37762904Y44226191D02*
X37739095Y44273810D01*
X65550190Y92842859D02*
X65550190Y93128573D01*
X65050190Y92985716D02*
X65550190Y92985716D01*
X65050190Y93295239D02*
X65550190Y93295239D01*
X65550190Y93295239D02*
X65550190Y93485715D01*
X65550190Y93485715D02*
X65526380Y93533334D01*
X65526380Y93533334D02*
X65502571Y93557144D01*
X65502571Y93557144D02*
X65454952Y93580953D01*
X65454952Y93580953D02*
X65383523Y93580953D01*
X65383523Y93580953D02*
X65335904Y93557144D01*
X65335904Y93557144D02*
X65312095Y93533334D01*
X65312095Y93533334D02*
X65288285Y93485715D01*
X65288285Y93485715D02*
X65288285Y93295239D01*
X65050190Y94057144D02*
X65050190Y93771430D01*
X65050190Y93914287D02*
X65550190Y93914287D01*
X65550190Y93914287D02*
X65478761Y93866668D01*
X65478761Y93866668D02*
X65431142Y93819049D01*
X65431142Y93819049D02*
X65407333Y93771430D01*
X65383523Y94485715D02*
X65050190Y94485715D01*
X65574000Y94366667D02*
X65216857Y94247620D01*
X65216857Y94247620D02*
X65216857Y94557143D01*
X65502571Y94723810D02*
X65526380Y94747619D01*
X65526380Y94747619D02*
X65550190Y94795238D01*
X65550190Y94795238D02*
X65550190Y94914286D01*
X65550190Y94914286D02*
X65526380Y94961905D01*
X65526380Y94961905D02*
X65502571Y94985714D01*
X65502571Y94985714D02*
X65454952Y95009524D01*
X65454952Y95009524D02*
X65407333Y95009524D01*
X65407333Y95009524D02*
X65335904Y94985714D01*
X65335904Y94985714D02*
X65050190Y94700000D01*
X65050190Y94700000D02*
X65050190Y95009524D01*
X28869046Y53225191D02*
X28583332Y53225191D01*
X28726189Y52725191D02*
X28726189Y53225191D01*
X28416666Y52725191D02*
X28416666Y53225191D01*
X28416666Y53225191D02*
X28226190Y53225191D01*
X28226190Y53225191D02*
X28178571Y53201381D01*
X28178571Y53201381D02*
X28154761Y53177572D01*
X28154761Y53177572D02*
X28130952Y53129953D01*
X28130952Y53129953D02*
X28130952Y53058524D01*
X28130952Y53058524D02*
X28154761Y53010905D01*
X28154761Y53010905D02*
X28178571Y52987096D01*
X28178571Y52987096D02*
X28226190Y52963286D01*
X28226190Y52963286D02*
X28416666Y52963286D01*
X27702380Y53225191D02*
X27797618Y53225191D01*
X27797618Y53225191D02*
X27845237Y53201381D01*
X27845237Y53201381D02*
X27869047Y53177572D01*
X27869047Y53177572D02*
X27916666Y53106143D01*
X27916666Y53106143D02*
X27940475Y53010905D01*
X27940475Y53010905D02*
X27940475Y52820429D01*
X27940475Y52820429D02*
X27916666Y52772810D01*
X27916666Y52772810D02*
X27892856Y52749000D01*
X27892856Y52749000D02*
X27845237Y52725191D01*
X27845237Y52725191D02*
X27749999Y52725191D01*
X27749999Y52725191D02*
X27702380Y52749000D01*
X27702380Y52749000D02*
X27678571Y52772810D01*
X27678571Y52772810D02*
X27654761Y52820429D01*
X27654761Y52820429D02*
X27654761Y52939477D01*
X27654761Y52939477D02*
X27678571Y52987096D01*
X27678571Y52987096D02*
X27702380Y53010905D01*
X27702380Y53010905D02*
X27749999Y53034715D01*
X27749999Y53034715D02*
X27845237Y53034715D01*
X27845237Y53034715D02*
X27892856Y53010905D01*
X27892856Y53010905D02*
X27916666Y52987096D01*
X27916666Y52987096D02*
X27940475Y52939477D01*
X27416666Y52725191D02*
X27321428Y52725191D01*
X27321428Y52725191D02*
X27273809Y52749000D01*
X27273809Y52749000D02*
X27250000Y52772810D01*
X27250000Y52772810D02*
X27202381Y52844239D01*
X27202381Y52844239D02*
X27178571Y52939477D01*
X27178571Y52939477D02*
X27178571Y53129953D01*
X27178571Y53129953D02*
X27202381Y53177572D01*
X27202381Y53177572D02*
X27226190Y53201381D01*
X27226190Y53201381D02*
X27273809Y53225191D01*
X27273809Y53225191D02*
X27369047Y53225191D01*
X27369047Y53225191D02*
X27416666Y53201381D01*
X27416666Y53201381D02*
X27440476Y53177572D01*
X27440476Y53177572D02*
X27464285Y53129953D01*
X27464285Y53129953D02*
X27464285Y53010905D01*
X27464285Y53010905D02*
X27440476Y52963286D01*
X27440476Y52963286D02*
X27416666Y52939477D01*
X27416666Y52939477D02*
X27369047Y52915667D01*
X27369047Y52915667D02*
X27273809Y52915667D01*
X27273809Y52915667D02*
X27226190Y52939477D01*
X27226190Y52939477D02*
X27202381Y52963286D01*
X27202381Y52963286D02*
X27178571Y53010905D01*
X19724809Y49657142D02*
X19724809Y49371428D01*
X20224809Y49514285D02*
X19724809Y49514285D01*
X20224809Y49204762D02*
X19724809Y49204762D01*
X19724809Y49204762D02*
X19724809Y49014286D01*
X19724809Y49014286D02*
X19748619Y48966667D01*
X19748619Y48966667D02*
X19772428Y48942857D01*
X19772428Y48942857D02*
X19820047Y48919048D01*
X19820047Y48919048D02*
X19891476Y48919048D01*
X19891476Y48919048D02*
X19939095Y48942857D01*
X19939095Y48942857D02*
X19962904Y48966667D01*
X19962904Y48966667D02*
X19986714Y49014286D01*
X19986714Y49014286D02*
X19986714Y49204762D01*
X20224809Y48442857D02*
X20224809Y48728571D01*
X20224809Y48585714D02*
X19724809Y48585714D01*
X19724809Y48585714D02*
X19796238Y48633333D01*
X19796238Y48633333D02*
X19843857Y48680952D01*
X19843857Y48680952D02*
X19867666Y48728571D01*
X19772428Y48252381D02*
X19748619Y48228572D01*
X19748619Y48228572D02*
X19724809Y48180953D01*
X19724809Y48180953D02*
X19724809Y48061905D01*
X19724809Y48061905D02*
X19748619Y48014286D01*
X19748619Y48014286D02*
X19772428Y47990477D01*
X19772428Y47990477D02*
X19820047Y47966667D01*
X19820047Y47966667D02*
X19867666Y47966667D01*
X19867666Y47966667D02*
X19939095Y47990477D01*
X19939095Y47990477D02*
X20224809Y48276191D01*
X20224809Y48276191D02*
X20224809Y47966667D01*
X19724809Y47514287D02*
X19724809Y47752382D01*
X19724809Y47752382D02*
X19962904Y47776191D01*
X19962904Y47776191D02*
X19939095Y47752382D01*
X19939095Y47752382D02*
X19915285Y47704763D01*
X19915285Y47704763D02*
X19915285Y47585715D01*
X19915285Y47585715D02*
X19939095Y47538096D01*
X19939095Y47538096D02*
X19962904Y47514287D01*
X19962904Y47514287D02*
X20010523Y47490477D01*
X20010523Y47490477D02*
X20129571Y47490477D01*
X20129571Y47490477D02*
X20177190Y47514287D01*
X20177190Y47514287D02*
X20201000Y47538096D01*
X20201000Y47538096D02*
X20224809Y47585715D01*
X20224809Y47585715D02*
X20224809Y47704763D01*
X20224809Y47704763D02*
X20201000Y47752382D01*
X20201000Y47752382D02*
X20177190Y47776191D01*
X59944809Y85844047D02*
X59944809Y85558333D01*
X60444809Y85701190D02*
X59944809Y85701190D01*
X60444809Y85391667D02*
X59944809Y85391667D01*
X59944809Y85391667D02*
X59944809Y85201191D01*
X59944809Y85201191D02*
X59968619Y85153572D01*
X59968619Y85153572D02*
X59992428Y85129762D01*
X59992428Y85129762D02*
X60040047Y85105953D01*
X60040047Y85105953D02*
X60111476Y85105953D01*
X60111476Y85105953D02*
X60159095Y85129762D01*
X60159095Y85129762D02*
X60182904Y85153572D01*
X60182904Y85153572D02*
X60206714Y85201191D01*
X60206714Y85201191D02*
X60206714Y85391667D01*
X59944809Y84939286D02*
X59944809Y84629762D01*
X59944809Y84629762D02*
X60135285Y84796429D01*
X60135285Y84796429D02*
X60135285Y84725000D01*
X60135285Y84725000D02*
X60159095Y84677381D01*
X60159095Y84677381D02*
X60182904Y84653572D01*
X60182904Y84653572D02*
X60230523Y84629762D01*
X60230523Y84629762D02*
X60349571Y84629762D01*
X60349571Y84629762D02*
X60397190Y84653572D01*
X60397190Y84653572D02*
X60421000Y84677381D01*
X60421000Y84677381D02*
X60444809Y84725000D01*
X60444809Y84725000D02*
X60444809Y84867857D01*
X60444809Y84867857D02*
X60421000Y84915476D01*
X60421000Y84915476D02*
X60397190Y84939286D01*
X59944809Y84320239D02*
X59944809Y84272620D01*
X59944809Y84272620D02*
X59968619Y84225001D01*
X59968619Y84225001D02*
X59992428Y84201191D01*
X59992428Y84201191D02*
X60040047Y84177382D01*
X60040047Y84177382D02*
X60135285Y84153572D01*
X60135285Y84153572D02*
X60254333Y84153572D01*
X60254333Y84153572D02*
X60349571Y84177382D01*
X60349571Y84177382D02*
X60397190Y84201191D01*
X60397190Y84201191D02*
X60421000Y84225001D01*
X60421000Y84225001D02*
X60444809Y84272620D01*
X60444809Y84272620D02*
X60444809Y84320239D01*
X60444809Y84320239D02*
X60421000Y84367858D01*
X60421000Y84367858D02*
X60397190Y84391667D01*
X60397190Y84391667D02*
X60349571Y84415477D01*
X60349571Y84415477D02*
X60254333Y84439286D01*
X60254333Y84439286D02*
X60135285Y84439286D01*
X60135285Y84439286D02*
X60040047Y84415477D01*
X60040047Y84415477D02*
X59992428Y84391667D01*
X59992428Y84391667D02*
X59968619Y84367858D01*
X59968619Y84367858D02*
X59944809Y84320239D01*
X24207141Y44875191D02*
X23921427Y44875191D01*
X24064284Y44375191D02*
X24064284Y44875191D01*
X23754761Y44375191D02*
X23754761Y44875191D01*
X23754761Y44875191D02*
X23564285Y44875191D01*
X23564285Y44875191D02*
X23516666Y44851381D01*
X23516666Y44851381D02*
X23492856Y44827572D01*
X23492856Y44827572D02*
X23469047Y44779953D01*
X23469047Y44779953D02*
X23469047Y44708524D01*
X23469047Y44708524D02*
X23492856Y44660905D01*
X23492856Y44660905D02*
X23516666Y44637096D01*
X23516666Y44637096D02*
X23564285Y44613286D01*
X23564285Y44613286D02*
X23754761Y44613286D01*
X22992856Y44375191D02*
X23278570Y44375191D01*
X23135713Y44375191D02*
X23135713Y44875191D01*
X23135713Y44875191D02*
X23183332Y44803762D01*
X23183332Y44803762D02*
X23230951Y44756143D01*
X23230951Y44756143D02*
X23278570Y44732334D01*
X22826190Y44875191D02*
X22516666Y44875191D01*
X22516666Y44875191D02*
X22683333Y44684715D01*
X22683333Y44684715D02*
X22611904Y44684715D01*
X22611904Y44684715D02*
X22564285Y44660905D01*
X22564285Y44660905D02*
X22540476Y44637096D01*
X22540476Y44637096D02*
X22516666Y44589477D01*
X22516666Y44589477D02*
X22516666Y44470429D01*
X22516666Y44470429D02*
X22540476Y44422810D01*
X22540476Y44422810D02*
X22564285Y44399000D01*
X22564285Y44399000D02*
X22611904Y44375191D01*
X22611904Y44375191D02*
X22754761Y44375191D01*
X22754761Y44375191D02*
X22802380Y44399000D01*
X22802380Y44399000D02*
X22826190Y44422810D01*
X22040476Y44375191D02*
X22326190Y44375191D01*
X22183333Y44375191D02*
X22183333Y44875191D01*
X22183333Y44875191D02*
X22230952Y44803762D01*
X22230952Y44803762D02*
X22278571Y44756143D01*
X22278571Y44756143D02*
X22326190Y44732334D01*
X36124809Y56207142D02*
X36124809Y55921428D01*
X36624809Y56064285D02*
X36124809Y56064285D01*
X36624809Y55754762D02*
X36124809Y55754762D01*
X36124809Y55754762D02*
X36124809Y55564286D01*
X36124809Y55564286D02*
X36148619Y55516667D01*
X36148619Y55516667D02*
X36172428Y55492857D01*
X36172428Y55492857D02*
X36220047Y55469048D01*
X36220047Y55469048D02*
X36291476Y55469048D01*
X36291476Y55469048D02*
X36339095Y55492857D01*
X36339095Y55492857D02*
X36362904Y55516667D01*
X36362904Y55516667D02*
X36386714Y55564286D01*
X36386714Y55564286D02*
X36386714Y55754762D01*
X36624809Y54992857D02*
X36624809Y55278571D01*
X36624809Y55135714D02*
X36124809Y55135714D01*
X36124809Y55135714D02*
X36196238Y55183333D01*
X36196238Y55183333D02*
X36243857Y55230952D01*
X36243857Y55230952D02*
X36267666Y55278571D01*
X36624809Y54516667D02*
X36624809Y54802381D01*
X36624809Y54659524D02*
X36124809Y54659524D01*
X36124809Y54659524D02*
X36196238Y54707143D01*
X36196238Y54707143D02*
X36243857Y54754762D01*
X36243857Y54754762D02*
X36267666Y54802381D01*
X36339095Y54230953D02*
X36315285Y54278572D01*
X36315285Y54278572D02*
X36291476Y54302382D01*
X36291476Y54302382D02*
X36243857Y54326191D01*
X36243857Y54326191D02*
X36220047Y54326191D01*
X36220047Y54326191D02*
X36172428Y54302382D01*
X36172428Y54302382D02*
X36148619Y54278572D01*
X36148619Y54278572D02*
X36124809Y54230953D01*
X36124809Y54230953D02*
X36124809Y54135715D01*
X36124809Y54135715D02*
X36148619Y54088096D01*
X36148619Y54088096D02*
X36172428Y54064287D01*
X36172428Y54064287D02*
X36220047Y54040477D01*
X36220047Y54040477D02*
X36243857Y54040477D01*
X36243857Y54040477D02*
X36291476Y54064287D01*
X36291476Y54064287D02*
X36315285Y54088096D01*
X36315285Y54088096D02*
X36339095Y54135715D01*
X36339095Y54135715D02*
X36339095Y54230953D01*
X36339095Y54230953D02*
X36362904Y54278572D01*
X36362904Y54278572D02*
X36386714Y54302382D01*
X36386714Y54302382D02*
X36434333Y54326191D01*
X36434333Y54326191D02*
X36529571Y54326191D01*
X36529571Y54326191D02*
X36577190Y54302382D01*
X36577190Y54302382D02*
X36601000Y54278572D01*
X36601000Y54278572D02*
X36624809Y54230953D01*
X36624809Y54230953D02*
X36624809Y54135715D01*
X36624809Y54135715D02*
X36601000Y54088096D01*
X36601000Y54088096D02*
X36577190Y54064287D01*
X36577190Y54064287D02*
X36529571Y54040477D01*
X36529571Y54040477D02*
X36434333Y54040477D01*
X36434333Y54040477D02*
X36386714Y54064287D01*
X36386714Y54064287D02*
X36362904Y54088096D01*
X36362904Y54088096D02*
X36339095Y54135715D01*
X59949809Y94544047D02*
X59949809Y94258333D01*
X60449809Y94401190D02*
X59949809Y94401190D01*
X60449809Y94091667D02*
X59949809Y94091667D01*
X59949809Y94091667D02*
X59949809Y93901191D01*
X59949809Y93901191D02*
X59973619Y93853572D01*
X59973619Y93853572D02*
X59997428Y93829762D01*
X59997428Y93829762D02*
X60045047Y93805953D01*
X60045047Y93805953D02*
X60116476Y93805953D01*
X60116476Y93805953D02*
X60164095Y93829762D01*
X60164095Y93829762D02*
X60187904Y93853572D01*
X60187904Y93853572D02*
X60211714Y93901191D01*
X60211714Y93901191D02*
X60211714Y94091667D01*
X59997428Y93615476D02*
X59973619Y93591667D01*
X59973619Y93591667D02*
X59949809Y93544048D01*
X59949809Y93544048D02*
X59949809Y93425000D01*
X59949809Y93425000D02*
X59973619Y93377381D01*
X59973619Y93377381D02*
X59997428Y93353572D01*
X59997428Y93353572D02*
X60045047Y93329762D01*
X60045047Y93329762D02*
X60092666Y93329762D01*
X60092666Y93329762D02*
X60164095Y93353572D01*
X60164095Y93353572D02*
X60449809Y93639286D01*
X60449809Y93639286D02*
X60449809Y93329762D01*
X60449809Y93091667D02*
X60449809Y92996429D01*
X60449809Y92996429D02*
X60426000Y92948810D01*
X60426000Y92948810D02*
X60402190Y92925001D01*
X60402190Y92925001D02*
X60330761Y92877382D01*
X60330761Y92877382D02*
X60235523Y92853572D01*
X60235523Y92853572D02*
X60045047Y92853572D01*
X60045047Y92853572D02*
X59997428Y92877382D01*
X59997428Y92877382D02*
X59973619Y92901191D01*
X59973619Y92901191D02*
X59949809Y92948810D01*
X59949809Y92948810D02*
X59949809Y93044048D01*
X59949809Y93044048D02*
X59973619Y93091667D01*
X59973619Y93091667D02*
X59997428Y93115477D01*
X59997428Y93115477D02*
X60045047Y93139286D01*
X60045047Y93139286D02*
X60164095Y93139286D01*
X60164095Y93139286D02*
X60211714Y93115477D01*
X60211714Y93115477D02*
X60235523Y93091667D01*
X60235523Y93091667D02*
X60259333Y93044048D01*
X60259333Y93044048D02*
X60259333Y92948810D01*
X60259333Y92948810D02*
X60235523Y92901191D01*
X60235523Y92901191D02*
X60211714Y92877382D01*
X60211714Y92877382D02*
X60164095Y92853572D01*
X31774809Y36357142D02*
X31774809Y36071428D01*
X32274809Y36214285D02*
X31774809Y36214285D01*
X32274809Y35904762D02*
X31774809Y35904762D01*
X31774809Y35904762D02*
X31774809Y35714286D01*
X31774809Y35714286D02*
X31798619Y35666667D01*
X31798619Y35666667D02*
X31822428Y35642857D01*
X31822428Y35642857D02*
X31870047Y35619048D01*
X31870047Y35619048D02*
X31941476Y35619048D01*
X31941476Y35619048D02*
X31989095Y35642857D01*
X31989095Y35642857D02*
X32012904Y35666667D01*
X32012904Y35666667D02*
X32036714Y35714286D01*
X32036714Y35714286D02*
X32036714Y35904762D01*
X32274809Y35142857D02*
X32274809Y35428571D01*
X32274809Y35285714D02*
X31774809Y35285714D01*
X31774809Y35285714D02*
X31846238Y35333333D01*
X31846238Y35333333D02*
X31893857Y35380952D01*
X31893857Y35380952D02*
X31917666Y35428571D01*
X31822428Y34952381D02*
X31798619Y34928572D01*
X31798619Y34928572D02*
X31774809Y34880953D01*
X31774809Y34880953D02*
X31774809Y34761905D01*
X31774809Y34761905D02*
X31798619Y34714286D01*
X31798619Y34714286D02*
X31822428Y34690477D01*
X31822428Y34690477D02*
X31870047Y34666667D01*
X31870047Y34666667D02*
X31917666Y34666667D01*
X31917666Y34666667D02*
X31989095Y34690477D01*
X31989095Y34690477D02*
X32274809Y34976191D01*
X32274809Y34976191D02*
X32274809Y34666667D01*
X31989095Y34380953D02*
X31965285Y34428572D01*
X31965285Y34428572D02*
X31941476Y34452382D01*
X31941476Y34452382D02*
X31893857Y34476191D01*
X31893857Y34476191D02*
X31870047Y34476191D01*
X31870047Y34476191D02*
X31822428Y34452382D01*
X31822428Y34452382D02*
X31798619Y34428572D01*
X31798619Y34428572D02*
X31774809Y34380953D01*
X31774809Y34380953D02*
X31774809Y34285715D01*
X31774809Y34285715D02*
X31798619Y34238096D01*
X31798619Y34238096D02*
X31822428Y34214287D01*
X31822428Y34214287D02*
X31870047Y34190477D01*
X31870047Y34190477D02*
X31893857Y34190477D01*
X31893857Y34190477D02*
X31941476Y34214287D01*
X31941476Y34214287D02*
X31965285Y34238096D01*
X31965285Y34238096D02*
X31989095Y34285715D01*
X31989095Y34285715D02*
X31989095Y34380953D01*
X31989095Y34380953D02*
X32012904Y34428572D01*
X32012904Y34428572D02*
X32036714Y34452382D01*
X32036714Y34452382D02*
X32084333Y34476191D01*
X32084333Y34476191D02*
X32179571Y34476191D01*
X32179571Y34476191D02*
X32227190Y34452382D01*
X32227190Y34452382D02*
X32251000Y34428572D01*
X32251000Y34428572D02*
X32274809Y34380953D01*
X32274809Y34380953D02*
X32274809Y34285715D01*
X32274809Y34285715D02*
X32251000Y34238096D01*
X32251000Y34238096D02*
X32227190Y34214287D01*
X32227190Y34214287D02*
X32179571Y34190477D01*
X32179571Y34190477D02*
X32084333Y34190477D01*
X32084333Y34190477D02*
X32036714Y34214287D01*
X32036714Y34214287D02*
X32012904Y34238096D01*
X32012904Y34238096D02*
X31989095Y34285715D01*
X33724809Y56207142D02*
X33724809Y55921428D01*
X34224809Y56064285D02*
X33724809Y56064285D01*
X34224809Y55754762D02*
X33724809Y55754762D01*
X33724809Y55754762D02*
X33724809Y55564286D01*
X33724809Y55564286D02*
X33748619Y55516667D01*
X33748619Y55516667D02*
X33772428Y55492857D01*
X33772428Y55492857D02*
X33820047Y55469048D01*
X33820047Y55469048D02*
X33891476Y55469048D01*
X33891476Y55469048D02*
X33939095Y55492857D01*
X33939095Y55492857D02*
X33962904Y55516667D01*
X33962904Y55516667D02*
X33986714Y55564286D01*
X33986714Y55564286D02*
X33986714Y55754762D01*
X34224809Y54992857D02*
X34224809Y55278571D01*
X34224809Y55135714D02*
X33724809Y55135714D01*
X33724809Y55135714D02*
X33796238Y55183333D01*
X33796238Y55183333D02*
X33843857Y55230952D01*
X33843857Y55230952D02*
X33867666Y55278571D01*
X33724809Y54826191D02*
X33724809Y54516667D01*
X33724809Y54516667D02*
X33915285Y54683334D01*
X33915285Y54683334D02*
X33915285Y54611905D01*
X33915285Y54611905D02*
X33939095Y54564286D01*
X33939095Y54564286D02*
X33962904Y54540477D01*
X33962904Y54540477D02*
X34010523Y54516667D01*
X34010523Y54516667D02*
X34129571Y54516667D01*
X34129571Y54516667D02*
X34177190Y54540477D01*
X34177190Y54540477D02*
X34201000Y54564286D01*
X34201000Y54564286D02*
X34224809Y54611905D01*
X34224809Y54611905D02*
X34224809Y54754762D01*
X34224809Y54754762D02*
X34201000Y54802381D01*
X34201000Y54802381D02*
X34177190Y54826191D01*
X33891476Y54088096D02*
X34224809Y54088096D01*
X33701000Y54207144D02*
X34058142Y54326191D01*
X34058142Y54326191D02*
X34058142Y54016668D01*
X18374809Y49657142D02*
X18374809Y49371428D01*
X18874809Y49514285D02*
X18374809Y49514285D01*
X18874809Y49204762D02*
X18374809Y49204762D01*
X18374809Y49204762D02*
X18374809Y49014286D01*
X18374809Y49014286D02*
X18398619Y48966667D01*
X18398619Y48966667D02*
X18422428Y48942857D01*
X18422428Y48942857D02*
X18470047Y48919048D01*
X18470047Y48919048D02*
X18541476Y48919048D01*
X18541476Y48919048D02*
X18589095Y48942857D01*
X18589095Y48942857D02*
X18612904Y48966667D01*
X18612904Y48966667D02*
X18636714Y49014286D01*
X18636714Y49014286D02*
X18636714Y49204762D01*
X18874809Y48442857D02*
X18874809Y48728571D01*
X18874809Y48585714D02*
X18374809Y48585714D01*
X18374809Y48585714D02*
X18446238Y48633333D01*
X18446238Y48633333D02*
X18493857Y48680952D01*
X18493857Y48680952D02*
X18517666Y48728571D01*
X18422428Y48252381D02*
X18398619Y48228572D01*
X18398619Y48228572D02*
X18374809Y48180953D01*
X18374809Y48180953D02*
X18374809Y48061905D01*
X18374809Y48061905D02*
X18398619Y48014286D01*
X18398619Y48014286D02*
X18422428Y47990477D01*
X18422428Y47990477D02*
X18470047Y47966667D01*
X18470047Y47966667D02*
X18517666Y47966667D01*
X18517666Y47966667D02*
X18589095Y47990477D01*
X18589095Y47990477D02*
X18874809Y48276191D01*
X18874809Y48276191D02*
X18874809Y47966667D01*
X18374809Y47800001D02*
X18374809Y47490477D01*
X18374809Y47490477D02*
X18565285Y47657144D01*
X18565285Y47657144D02*
X18565285Y47585715D01*
X18565285Y47585715D02*
X18589095Y47538096D01*
X18589095Y47538096D02*
X18612904Y47514287D01*
X18612904Y47514287D02*
X18660523Y47490477D01*
X18660523Y47490477D02*
X18779571Y47490477D01*
X18779571Y47490477D02*
X18827190Y47514287D01*
X18827190Y47514287D02*
X18851000Y47538096D01*
X18851000Y47538096D02*
X18874809Y47585715D01*
X18874809Y47585715D02*
X18874809Y47728572D01*
X18874809Y47728572D02*
X18851000Y47776191D01*
X18851000Y47776191D02*
X18827190Y47800001D01*
X52725190Y83442859D02*
X52725190Y83728573D01*
X52225190Y83585716D02*
X52725190Y83585716D01*
X52225190Y83895239D02*
X52725190Y83895239D01*
X52725190Y83895239D02*
X52725190Y84085715D01*
X52725190Y84085715D02*
X52701380Y84133334D01*
X52701380Y84133334D02*
X52677571Y84157144D01*
X52677571Y84157144D02*
X52629952Y84180953D01*
X52629952Y84180953D02*
X52558523Y84180953D01*
X52558523Y84180953D02*
X52510904Y84157144D01*
X52510904Y84157144D02*
X52487095Y84133334D01*
X52487095Y84133334D02*
X52463285Y84085715D01*
X52463285Y84085715D02*
X52463285Y83895239D01*
X52225190Y84657144D02*
X52225190Y84371430D01*
X52225190Y84514287D02*
X52725190Y84514287D01*
X52725190Y84514287D02*
X52653761Y84466668D01*
X52653761Y84466668D02*
X52606142Y84419049D01*
X52606142Y84419049D02*
X52582333Y84371430D01*
X52725190Y85109524D02*
X52725190Y84871429D01*
X52725190Y84871429D02*
X52487095Y84847620D01*
X52487095Y84847620D02*
X52510904Y84871429D01*
X52510904Y84871429D02*
X52534714Y84919048D01*
X52534714Y84919048D02*
X52534714Y85038096D01*
X52534714Y85038096D02*
X52510904Y85085715D01*
X52510904Y85085715D02*
X52487095Y85109524D01*
X52487095Y85109524D02*
X52439476Y85133334D01*
X52439476Y85133334D02*
X52320428Y85133334D01*
X52320428Y85133334D02*
X52272809Y85109524D01*
X52272809Y85109524D02*
X52249000Y85085715D01*
X52249000Y85085715D02*
X52225190Y85038096D01*
X52225190Y85038096D02*
X52225190Y84919048D01*
X52225190Y84919048D02*
X52249000Y84871429D01*
X52249000Y84871429D02*
X52272809Y84847620D01*
X52725190Y85300000D02*
X52725190Y85609524D01*
X52725190Y85609524D02*
X52534714Y85442857D01*
X52534714Y85442857D02*
X52534714Y85514286D01*
X52534714Y85514286D02*
X52510904Y85561905D01*
X52510904Y85561905D02*
X52487095Y85585714D01*
X52487095Y85585714D02*
X52439476Y85609524D01*
X52439476Y85609524D02*
X52320428Y85609524D01*
X52320428Y85609524D02*
X52272809Y85585714D01*
X52272809Y85585714D02*
X52249000Y85561905D01*
X52249000Y85561905D02*
X52225190Y85514286D01*
X52225190Y85514286D02*
X52225190Y85371429D01*
X52225190Y85371429D02*
X52249000Y85323810D01*
X52249000Y85323810D02*
X52272809Y85300000D01*
X30069046Y39975191D02*
X29783332Y39975191D01*
X29926189Y39475191D02*
X29926189Y39975191D01*
X29616666Y39475191D02*
X29616666Y39975191D01*
X29616666Y39975191D02*
X29426190Y39975191D01*
X29426190Y39975191D02*
X29378571Y39951381D01*
X29378571Y39951381D02*
X29354761Y39927572D01*
X29354761Y39927572D02*
X29330952Y39879953D01*
X29330952Y39879953D02*
X29330952Y39808524D01*
X29330952Y39808524D02*
X29354761Y39760905D01*
X29354761Y39760905D02*
X29378571Y39737096D01*
X29378571Y39737096D02*
X29426190Y39713286D01*
X29426190Y39713286D02*
X29616666Y39713286D01*
X28902380Y39808524D02*
X28902380Y39475191D01*
X29021428Y39999000D02*
X29140475Y39641858D01*
X29140475Y39641858D02*
X28830952Y39641858D01*
X28426190Y39975191D02*
X28521428Y39975191D01*
X28521428Y39975191D02*
X28569047Y39951381D01*
X28569047Y39951381D02*
X28592857Y39927572D01*
X28592857Y39927572D02*
X28640476Y39856143D01*
X28640476Y39856143D02*
X28664285Y39760905D01*
X28664285Y39760905D02*
X28664285Y39570429D01*
X28664285Y39570429D02*
X28640476Y39522810D01*
X28640476Y39522810D02*
X28616666Y39499000D01*
X28616666Y39499000D02*
X28569047Y39475191D01*
X28569047Y39475191D02*
X28473809Y39475191D01*
X28473809Y39475191D02*
X28426190Y39499000D01*
X28426190Y39499000D02*
X28402381Y39522810D01*
X28402381Y39522810D02*
X28378571Y39570429D01*
X28378571Y39570429D02*
X28378571Y39689477D01*
X28378571Y39689477D02*
X28402381Y39737096D01*
X28402381Y39737096D02*
X28426190Y39760905D01*
X28426190Y39760905D02*
X28473809Y39784715D01*
X28473809Y39784715D02*
X28569047Y39784715D01*
X28569047Y39784715D02*
X28616666Y39760905D01*
X28616666Y39760905D02*
X28640476Y39737096D01*
X28640476Y39737096D02*
X28664285Y39689477D01*
X64225190Y92867859D02*
X64225190Y93153573D01*
X63725190Y93010716D02*
X64225190Y93010716D01*
X63725190Y93320239D02*
X64225190Y93320239D01*
X64225190Y93320239D02*
X64225190Y93510715D01*
X64225190Y93510715D02*
X64201380Y93558334D01*
X64201380Y93558334D02*
X64177571Y93582144D01*
X64177571Y93582144D02*
X64129952Y93605953D01*
X64129952Y93605953D02*
X64058523Y93605953D01*
X64058523Y93605953D02*
X64010904Y93582144D01*
X64010904Y93582144D02*
X63987095Y93558334D01*
X63987095Y93558334D02*
X63963285Y93510715D01*
X63963285Y93510715D02*
X63963285Y93320239D01*
X63725190Y94082144D02*
X63725190Y93796430D01*
X63725190Y93939287D02*
X64225190Y93939287D01*
X64225190Y93939287D02*
X64153761Y93891668D01*
X64153761Y93891668D02*
X64106142Y93844049D01*
X64106142Y93844049D02*
X64082333Y93796430D01*
X64058523Y94510715D02*
X63725190Y94510715D01*
X64249000Y94391667D02*
X63891857Y94272620D01*
X63891857Y94272620D02*
X63891857Y94582143D01*
X64058523Y94986905D02*
X63725190Y94986905D01*
X64249000Y94867857D02*
X63891857Y94748810D01*
X63891857Y94748810D02*
X63891857Y95058333D01*
X27169046Y43675191D02*
X26883332Y43675191D01*
X27026189Y43175191D02*
X27026189Y43675191D01*
X26716666Y43175191D02*
X26716666Y43675191D01*
X26716666Y43675191D02*
X26526190Y43675191D01*
X26526190Y43675191D02*
X26478571Y43651381D01*
X26478571Y43651381D02*
X26454761Y43627572D01*
X26454761Y43627572D02*
X26430952Y43579953D01*
X26430952Y43579953D02*
X26430952Y43508524D01*
X26430952Y43508524D02*
X26454761Y43460905D01*
X26454761Y43460905D02*
X26478571Y43437096D01*
X26478571Y43437096D02*
X26526190Y43413286D01*
X26526190Y43413286D02*
X26716666Y43413286D01*
X26264285Y43675191D02*
X25930952Y43675191D01*
X25930952Y43675191D02*
X26145237Y43175191D01*
X25526190Y43675191D02*
X25621428Y43675191D01*
X25621428Y43675191D02*
X25669047Y43651381D01*
X25669047Y43651381D02*
X25692857Y43627572D01*
X25692857Y43627572D02*
X25740476Y43556143D01*
X25740476Y43556143D02*
X25764285Y43460905D01*
X25764285Y43460905D02*
X25764285Y43270429D01*
X25764285Y43270429D02*
X25740476Y43222810D01*
X25740476Y43222810D02*
X25716666Y43199000D01*
X25716666Y43199000D02*
X25669047Y43175191D01*
X25669047Y43175191D02*
X25573809Y43175191D01*
X25573809Y43175191D02*
X25526190Y43199000D01*
X25526190Y43199000D02*
X25502381Y43222810D01*
X25502381Y43222810D02*
X25478571Y43270429D01*
X25478571Y43270429D02*
X25478571Y43389477D01*
X25478571Y43389477D02*
X25502381Y43437096D01*
X25502381Y43437096D02*
X25526190Y43460905D01*
X25526190Y43460905D02*
X25573809Y43484715D01*
X25573809Y43484715D02*
X25669047Y43484715D01*
X25669047Y43484715D02*
X25716666Y43460905D01*
X25716666Y43460905D02*
X25740476Y43437096D01*
X25740476Y43437096D02*
X25764285Y43389477D01*
X26232141Y52150191D02*
X25946427Y52150191D01*
X26089284Y51650191D02*
X26089284Y52150191D01*
X25779761Y51650191D02*
X25779761Y52150191D01*
X25779761Y52150191D02*
X25589285Y52150191D01*
X25589285Y52150191D02*
X25541666Y52126381D01*
X25541666Y52126381D02*
X25517856Y52102572D01*
X25517856Y52102572D02*
X25494047Y52054953D01*
X25494047Y52054953D02*
X25494047Y51983524D01*
X25494047Y51983524D02*
X25517856Y51935905D01*
X25517856Y51935905D02*
X25541666Y51912096D01*
X25541666Y51912096D02*
X25589285Y51888286D01*
X25589285Y51888286D02*
X25779761Y51888286D01*
X25017856Y51650191D02*
X25303570Y51650191D01*
X25160713Y51650191D02*
X25160713Y52150191D01*
X25160713Y52150191D02*
X25208332Y52078762D01*
X25208332Y52078762D02*
X25255951Y52031143D01*
X25255951Y52031143D02*
X25303570Y52007334D01*
X24851190Y52150191D02*
X24541666Y52150191D01*
X24541666Y52150191D02*
X24708333Y51959715D01*
X24708333Y51959715D02*
X24636904Y51959715D01*
X24636904Y51959715D02*
X24589285Y51935905D01*
X24589285Y51935905D02*
X24565476Y51912096D01*
X24565476Y51912096D02*
X24541666Y51864477D01*
X24541666Y51864477D02*
X24541666Y51745429D01*
X24541666Y51745429D02*
X24565476Y51697810D01*
X24565476Y51697810D02*
X24589285Y51674000D01*
X24589285Y51674000D02*
X24636904Y51650191D01*
X24636904Y51650191D02*
X24779761Y51650191D01*
X24779761Y51650191D02*
X24827380Y51674000D01*
X24827380Y51674000D02*
X24851190Y51697810D01*
X24351190Y52102572D02*
X24327381Y52126381D01*
X24327381Y52126381D02*
X24279762Y52150191D01*
X24279762Y52150191D02*
X24160714Y52150191D01*
X24160714Y52150191D02*
X24113095Y52126381D01*
X24113095Y52126381D02*
X24089286Y52102572D01*
X24089286Y52102572D02*
X24065476Y52054953D01*
X24065476Y52054953D02*
X24065476Y52007334D01*
X24065476Y52007334D02*
X24089286Y51935905D01*
X24089286Y51935905D02*
X24375000Y51650191D01*
X24375000Y51650191D02*
X24065476Y51650191D01*
X32474809Y53757142D02*
X32474809Y53471428D01*
X32974809Y53614285D02*
X32474809Y53614285D01*
X32974809Y53304762D02*
X32474809Y53304762D01*
X32474809Y53304762D02*
X32474809Y53114286D01*
X32474809Y53114286D02*
X32498619Y53066667D01*
X32498619Y53066667D02*
X32522428Y53042857D01*
X32522428Y53042857D02*
X32570047Y53019048D01*
X32570047Y53019048D02*
X32641476Y53019048D01*
X32641476Y53019048D02*
X32689095Y53042857D01*
X32689095Y53042857D02*
X32712904Y53066667D01*
X32712904Y53066667D02*
X32736714Y53114286D01*
X32736714Y53114286D02*
X32736714Y53304762D01*
X32974809Y52542857D02*
X32974809Y52828571D01*
X32974809Y52685714D02*
X32474809Y52685714D01*
X32474809Y52685714D02*
X32546238Y52733333D01*
X32546238Y52733333D02*
X32593857Y52780952D01*
X32593857Y52780952D02*
X32617666Y52828571D01*
X32522428Y52352381D02*
X32498619Y52328572D01*
X32498619Y52328572D02*
X32474809Y52280953D01*
X32474809Y52280953D02*
X32474809Y52161905D01*
X32474809Y52161905D02*
X32498619Y52114286D01*
X32498619Y52114286D02*
X32522428Y52090477D01*
X32522428Y52090477D02*
X32570047Y52066667D01*
X32570047Y52066667D02*
X32617666Y52066667D01*
X32617666Y52066667D02*
X32689095Y52090477D01*
X32689095Y52090477D02*
X32974809Y52376191D01*
X32974809Y52376191D02*
X32974809Y52066667D01*
X32474809Y51757144D02*
X32474809Y51709525D01*
X32474809Y51709525D02*
X32498619Y51661906D01*
X32498619Y51661906D02*
X32522428Y51638096D01*
X32522428Y51638096D02*
X32570047Y51614287D01*
X32570047Y51614287D02*
X32665285Y51590477D01*
X32665285Y51590477D02*
X32784333Y51590477D01*
X32784333Y51590477D02*
X32879571Y51614287D01*
X32879571Y51614287D02*
X32927190Y51638096D01*
X32927190Y51638096D02*
X32951000Y51661906D01*
X32951000Y51661906D02*
X32974809Y51709525D01*
X32974809Y51709525D02*
X32974809Y51757144D01*
X32974809Y51757144D02*
X32951000Y51804763D01*
X32951000Y51804763D02*
X32927190Y51828572D01*
X32927190Y51828572D02*
X32879571Y51852382D01*
X32879571Y51852382D02*
X32784333Y51876191D01*
X32784333Y51876191D02*
X32665285Y51876191D01*
X32665285Y51876191D02*
X32570047Y51852382D01*
X32570047Y51852382D02*
X32522428Y51828572D01*
X32522428Y51828572D02*
X32498619Y51804763D01*
X32498619Y51804763D02*
X32474809Y51757144D01*
X34924809Y56207142D02*
X34924809Y55921428D01*
X35424809Y56064285D02*
X34924809Y56064285D01*
X35424809Y55754762D02*
X34924809Y55754762D01*
X34924809Y55754762D02*
X34924809Y55564286D01*
X34924809Y55564286D02*
X34948619Y55516667D01*
X34948619Y55516667D02*
X34972428Y55492857D01*
X34972428Y55492857D02*
X35020047Y55469048D01*
X35020047Y55469048D02*
X35091476Y55469048D01*
X35091476Y55469048D02*
X35139095Y55492857D01*
X35139095Y55492857D02*
X35162904Y55516667D01*
X35162904Y55516667D02*
X35186714Y55564286D01*
X35186714Y55564286D02*
X35186714Y55754762D01*
X35424809Y54992857D02*
X35424809Y55278571D01*
X35424809Y55135714D02*
X34924809Y55135714D01*
X34924809Y55135714D02*
X34996238Y55183333D01*
X34996238Y55183333D02*
X35043857Y55230952D01*
X35043857Y55230952D02*
X35067666Y55278571D01*
X35424809Y54516667D02*
X35424809Y54802381D01*
X35424809Y54659524D02*
X34924809Y54659524D01*
X34924809Y54659524D02*
X34996238Y54707143D01*
X34996238Y54707143D02*
X35043857Y54754762D01*
X35043857Y54754762D02*
X35067666Y54802381D01*
X35424809Y54278572D02*
X35424809Y54183334D01*
X35424809Y54183334D02*
X35401000Y54135715D01*
X35401000Y54135715D02*
X35377190Y54111906D01*
X35377190Y54111906D02*
X35305761Y54064287D01*
X35305761Y54064287D02*
X35210523Y54040477D01*
X35210523Y54040477D02*
X35020047Y54040477D01*
X35020047Y54040477D02*
X34972428Y54064287D01*
X34972428Y54064287D02*
X34948619Y54088096D01*
X34948619Y54088096D02*
X34924809Y54135715D01*
X34924809Y54135715D02*
X34924809Y54230953D01*
X34924809Y54230953D02*
X34948619Y54278572D01*
X34948619Y54278572D02*
X34972428Y54302382D01*
X34972428Y54302382D02*
X35020047Y54326191D01*
X35020047Y54326191D02*
X35139095Y54326191D01*
X35139095Y54326191D02*
X35186714Y54302382D01*
X35186714Y54302382D02*
X35210523Y54278572D01*
X35210523Y54278572D02*
X35234333Y54230953D01*
X35234333Y54230953D02*
X35234333Y54135715D01*
X35234333Y54135715D02*
X35210523Y54088096D01*
X35210523Y54088096D02*
X35186714Y54064287D01*
X35186714Y54064287D02*
X35139095Y54040477D01*
X25069046Y49425191D02*
X24783332Y49425191D01*
X24926189Y48925191D02*
X24926189Y49425191D01*
X24616666Y48925191D02*
X24616666Y49425191D01*
X24616666Y49425191D02*
X24426190Y49425191D01*
X24426190Y49425191D02*
X24378571Y49401381D01*
X24378571Y49401381D02*
X24354761Y49377572D01*
X24354761Y49377572D02*
X24330952Y49329953D01*
X24330952Y49329953D02*
X24330952Y49258524D01*
X24330952Y49258524D02*
X24354761Y49210905D01*
X24354761Y49210905D02*
X24378571Y49187096D01*
X24378571Y49187096D02*
X24426190Y49163286D01*
X24426190Y49163286D02*
X24616666Y49163286D01*
X24140475Y49377572D02*
X24116666Y49401381D01*
X24116666Y49401381D02*
X24069047Y49425191D01*
X24069047Y49425191D02*
X23949999Y49425191D01*
X23949999Y49425191D02*
X23902380Y49401381D01*
X23902380Y49401381D02*
X23878571Y49377572D01*
X23878571Y49377572D02*
X23854761Y49329953D01*
X23854761Y49329953D02*
X23854761Y49282334D01*
X23854761Y49282334D02*
X23878571Y49210905D01*
X23878571Y49210905D02*
X24164285Y48925191D01*
X24164285Y48925191D02*
X23854761Y48925191D01*
X23545238Y49425191D02*
X23497619Y49425191D01*
X23497619Y49425191D02*
X23450000Y49401381D01*
X23450000Y49401381D02*
X23426190Y49377572D01*
X23426190Y49377572D02*
X23402381Y49329953D01*
X23402381Y49329953D02*
X23378571Y49234715D01*
X23378571Y49234715D02*
X23378571Y49115667D01*
X23378571Y49115667D02*
X23402381Y49020429D01*
X23402381Y49020429D02*
X23426190Y48972810D01*
X23426190Y48972810D02*
X23450000Y48949000D01*
X23450000Y48949000D02*
X23497619Y48925191D01*
X23497619Y48925191D02*
X23545238Y48925191D01*
X23545238Y48925191D02*
X23592857Y48949000D01*
X23592857Y48949000D02*
X23616666Y48972810D01*
X23616666Y48972810D02*
X23640476Y49020429D01*
X23640476Y49020429D02*
X23664285Y49115667D01*
X23664285Y49115667D02*
X23664285Y49234715D01*
X23664285Y49234715D02*
X23640476Y49329953D01*
X23640476Y49329953D02*
X23616666Y49377572D01*
X23616666Y49377572D02*
X23592857Y49401381D01*
X23592857Y49401381D02*
X23545238Y49425191D01*
X27169046Y42975191D02*
X26883332Y42975191D01*
X27026189Y42475191D02*
X27026189Y42975191D01*
X26716666Y42475191D02*
X26716666Y42975191D01*
X26716666Y42975191D02*
X26526190Y42975191D01*
X26526190Y42975191D02*
X26478571Y42951381D01*
X26478571Y42951381D02*
X26454761Y42927572D01*
X26454761Y42927572D02*
X26430952Y42879953D01*
X26430952Y42879953D02*
X26430952Y42808524D01*
X26430952Y42808524D02*
X26454761Y42760905D01*
X26454761Y42760905D02*
X26478571Y42737096D01*
X26478571Y42737096D02*
X26526190Y42713286D01*
X26526190Y42713286D02*
X26716666Y42713286D01*
X26145237Y42760905D02*
X26192856Y42784715D01*
X26192856Y42784715D02*
X26216666Y42808524D01*
X26216666Y42808524D02*
X26240475Y42856143D01*
X26240475Y42856143D02*
X26240475Y42879953D01*
X26240475Y42879953D02*
X26216666Y42927572D01*
X26216666Y42927572D02*
X26192856Y42951381D01*
X26192856Y42951381D02*
X26145237Y42975191D01*
X26145237Y42975191D02*
X26049999Y42975191D01*
X26049999Y42975191D02*
X26002380Y42951381D01*
X26002380Y42951381D02*
X25978571Y42927572D01*
X25978571Y42927572D02*
X25954761Y42879953D01*
X25954761Y42879953D02*
X25954761Y42856143D01*
X25954761Y42856143D02*
X25978571Y42808524D01*
X25978571Y42808524D02*
X26002380Y42784715D01*
X26002380Y42784715D02*
X26049999Y42760905D01*
X26049999Y42760905D02*
X26145237Y42760905D01*
X26145237Y42760905D02*
X26192856Y42737096D01*
X26192856Y42737096D02*
X26216666Y42713286D01*
X26216666Y42713286D02*
X26240475Y42665667D01*
X26240475Y42665667D02*
X26240475Y42570429D01*
X26240475Y42570429D02*
X26216666Y42522810D01*
X26216666Y42522810D02*
X26192856Y42499000D01*
X26192856Y42499000D02*
X26145237Y42475191D01*
X26145237Y42475191D02*
X26049999Y42475191D01*
X26049999Y42475191D02*
X26002380Y42499000D01*
X26002380Y42499000D02*
X25978571Y42522810D01*
X25978571Y42522810D02*
X25954761Y42570429D01*
X25954761Y42570429D02*
X25954761Y42665667D01*
X25954761Y42665667D02*
X25978571Y42713286D01*
X25978571Y42713286D02*
X26002380Y42737096D01*
X26002380Y42737096D02*
X26049999Y42760905D01*
X25716666Y42475191D02*
X25621428Y42475191D01*
X25621428Y42475191D02*
X25573809Y42499000D01*
X25573809Y42499000D02*
X25550000Y42522810D01*
X25550000Y42522810D02*
X25502381Y42594239D01*
X25502381Y42594239D02*
X25478571Y42689477D01*
X25478571Y42689477D02*
X25478571Y42879953D01*
X25478571Y42879953D02*
X25502381Y42927572D01*
X25502381Y42927572D02*
X25526190Y42951381D01*
X25526190Y42951381D02*
X25573809Y42975191D01*
X25573809Y42975191D02*
X25669047Y42975191D01*
X25669047Y42975191D02*
X25716666Y42951381D01*
X25716666Y42951381D02*
X25740476Y42927572D01*
X25740476Y42927572D02*
X25764285Y42879953D01*
X25764285Y42879953D02*
X25764285Y42760905D01*
X25764285Y42760905D02*
X25740476Y42713286D01*
X25740476Y42713286D02*
X25716666Y42689477D01*
X25716666Y42689477D02*
X25669047Y42665667D01*
X25669047Y42665667D02*
X25573809Y42665667D01*
X25573809Y42665667D02*
X25526190Y42689477D01*
X25526190Y42689477D02*
X25502381Y42713286D01*
X25502381Y42713286D02*
X25478571Y42760905D01*
X20924809Y44119047D02*
X20924809Y43833333D01*
X21424809Y43976190D02*
X20924809Y43976190D01*
X21424809Y43666667D02*
X20924809Y43666667D01*
X20924809Y43666667D02*
X20924809Y43476191D01*
X20924809Y43476191D02*
X20948619Y43428572D01*
X20948619Y43428572D02*
X20972428Y43404762D01*
X20972428Y43404762D02*
X21020047Y43380953D01*
X21020047Y43380953D02*
X21091476Y43380953D01*
X21091476Y43380953D02*
X21139095Y43404762D01*
X21139095Y43404762D02*
X21162904Y43428572D01*
X21162904Y43428572D02*
X21186714Y43476191D01*
X21186714Y43476191D02*
X21186714Y43666667D01*
X20924809Y42952381D02*
X20924809Y43047619D01*
X20924809Y43047619D02*
X20948619Y43095238D01*
X20948619Y43095238D02*
X20972428Y43119048D01*
X20972428Y43119048D02*
X21043857Y43166667D01*
X21043857Y43166667D02*
X21139095Y43190476D01*
X21139095Y43190476D02*
X21329571Y43190476D01*
X21329571Y43190476D02*
X21377190Y43166667D01*
X21377190Y43166667D02*
X21401000Y43142857D01*
X21401000Y43142857D02*
X21424809Y43095238D01*
X21424809Y43095238D02*
X21424809Y43000000D01*
X21424809Y43000000D02*
X21401000Y42952381D01*
X21401000Y42952381D02*
X21377190Y42928572D01*
X21377190Y42928572D02*
X21329571Y42904762D01*
X21329571Y42904762D02*
X21210523Y42904762D01*
X21210523Y42904762D02*
X21162904Y42928572D01*
X21162904Y42928572D02*
X21139095Y42952381D01*
X21139095Y42952381D02*
X21115285Y43000000D01*
X21115285Y43000000D02*
X21115285Y43095238D01*
X21115285Y43095238D02*
X21139095Y43142857D01*
X21139095Y43142857D02*
X21162904Y43166667D01*
X21162904Y43166667D02*
X21210523Y43190476D01*
X20924809Y42452382D02*
X20924809Y42690477D01*
X20924809Y42690477D02*
X21162904Y42714286D01*
X21162904Y42714286D02*
X21139095Y42690477D01*
X21139095Y42690477D02*
X21115285Y42642858D01*
X21115285Y42642858D02*
X21115285Y42523810D01*
X21115285Y42523810D02*
X21139095Y42476191D01*
X21139095Y42476191D02*
X21162904Y42452382D01*
X21162904Y42452382D02*
X21210523Y42428572D01*
X21210523Y42428572D02*
X21329571Y42428572D01*
X21329571Y42428572D02*
X21377190Y42452382D01*
X21377190Y42452382D02*
X21401000Y42476191D01*
X21401000Y42476191D02*
X21424809Y42523810D01*
X21424809Y42523810D02*
X21424809Y42642858D01*
X21424809Y42642858D02*
X21401000Y42690477D01*
X21401000Y42690477D02*
X21377190Y42714286D01*
X25844046Y55525191D02*
X25558332Y55525191D01*
X25701189Y55025191D02*
X25701189Y55525191D01*
X25391666Y55025191D02*
X25391666Y55525191D01*
X25391666Y55525191D02*
X25201190Y55525191D01*
X25201190Y55525191D02*
X25153571Y55501381D01*
X25153571Y55501381D02*
X25129761Y55477572D01*
X25129761Y55477572D02*
X25105952Y55429953D01*
X25105952Y55429953D02*
X25105952Y55358524D01*
X25105952Y55358524D02*
X25129761Y55310905D01*
X25129761Y55310905D02*
X25153571Y55287096D01*
X25153571Y55287096D02*
X25201190Y55263286D01*
X25201190Y55263286D02*
X25391666Y55263286D01*
X24939285Y55525191D02*
X24629761Y55525191D01*
X24629761Y55525191D02*
X24796428Y55334715D01*
X24796428Y55334715D02*
X24724999Y55334715D01*
X24724999Y55334715D02*
X24677380Y55310905D01*
X24677380Y55310905D02*
X24653571Y55287096D01*
X24653571Y55287096D02*
X24629761Y55239477D01*
X24629761Y55239477D02*
X24629761Y55120429D01*
X24629761Y55120429D02*
X24653571Y55072810D01*
X24653571Y55072810D02*
X24677380Y55049000D01*
X24677380Y55049000D02*
X24724999Y55025191D01*
X24724999Y55025191D02*
X24867856Y55025191D01*
X24867856Y55025191D02*
X24915475Y55049000D01*
X24915475Y55049000D02*
X24939285Y55072810D01*
X24177381Y55525191D02*
X24415476Y55525191D01*
X24415476Y55525191D02*
X24439285Y55287096D01*
X24439285Y55287096D02*
X24415476Y55310905D01*
X24415476Y55310905D02*
X24367857Y55334715D01*
X24367857Y55334715D02*
X24248809Y55334715D01*
X24248809Y55334715D02*
X24201190Y55310905D01*
X24201190Y55310905D02*
X24177381Y55287096D01*
X24177381Y55287096D02*
X24153571Y55239477D01*
X24153571Y55239477D02*
X24153571Y55120429D01*
X24153571Y55120429D02*
X24177381Y55072810D01*
X24177381Y55072810D02*
X24201190Y55049000D01*
X24201190Y55049000D02*
X24248809Y55025191D01*
X24248809Y55025191D02*
X24367857Y55025191D01*
X24367857Y55025191D02*
X24415476Y55049000D01*
X24415476Y55049000D02*
X24439285Y55072810D01*
X30344046Y63050191D02*
X30058332Y63050191D01*
X30201189Y62550191D02*
X30201189Y63050191D01*
X29891666Y62550191D02*
X29891666Y63050191D01*
X29891666Y63050191D02*
X29701190Y63050191D01*
X29701190Y63050191D02*
X29653571Y63026381D01*
X29653571Y63026381D02*
X29629761Y63002572D01*
X29629761Y63002572D02*
X29605952Y62954953D01*
X29605952Y62954953D02*
X29605952Y62883524D01*
X29605952Y62883524D02*
X29629761Y62835905D01*
X29629761Y62835905D02*
X29653571Y62812096D01*
X29653571Y62812096D02*
X29701190Y62788286D01*
X29701190Y62788286D02*
X29891666Y62788286D01*
X29153571Y63050191D02*
X29391666Y63050191D01*
X29391666Y63050191D02*
X29415475Y62812096D01*
X29415475Y62812096D02*
X29391666Y62835905D01*
X29391666Y62835905D02*
X29344047Y62859715D01*
X29344047Y62859715D02*
X29224999Y62859715D01*
X29224999Y62859715D02*
X29177380Y62835905D01*
X29177380Y62835905D02*
X29153571Y62812096D01*
X29153571Y62812096D02*
X29129761Y62764477D01*
X29129761Y62764477D02*
X29129761Y62645429D01*
X29129761Y62645429D02*
X29153571Y62597810D01*
X29153571Y62597810D02*
X29177380Y62574000D01*
X29177380Y62574000D02*
X29224999Y62550191D01*
X29224999Y62550191D02*
X29344047Y62550191D01*
X29344047Y62550191D02*
X29391666Y62574000D01*
X29391666Y62574000D02*
X29415475Y62597810D01*
X28891666Y62550191D02*
X28796428Y62550191D01*
X28796428Y62550191D02*
X28748809Y62574000D01*
X28748809Y62574000D02*
X28725000Y62597810D01*
X28725000Y62597810D02*
X28677381Y62669239D01*
X28677381Y62669239D02*
X28653571Y62764477D01*
X28653571Y62764477D02*
X28653571Y62954953D01*
X28653571Y62954953D02*
X28677381Y63002572D01*
X28677381Y63002572D02*
X28701190Y63026381D01*
X28701190Y63026381D02*
X28748809Y63050191D01*
X28748809Y63050191D02*
X28844047Y63050191D01*
X28844047Y63050191D02*
X28891666Y63026381D01*
X28891666Y63026381D02*
X28915476Y63002572D01*
X28915476Y63002572D02*
X28939285Y62954953D01*
X28939285Y62954953D02*
X28939285Y62835905D01*
X28939285Y62835905D02*
X28915476Y62788286D01*
X28915476Y62788286D02*
X28891666Y62764477D01*
X28891666Y62764477D02*
X28844047Y62740667D01*
X28844047Y62740667D02*
X28748809Y62740667D01*
X28748809Y62740667D02*
X28701190Y62764477D01*
X28701190Y62764477D02*
X28677381Y62788286D01*
X28677381Y62788286D02*
X28653571Y62835905D01*
X35624809Y47707142D02*
X35624809Y47421428D01*
X36124809Y47564285D02*
X35624809Y47564285D01*
X36124809Y47254762D02*
X35624809Y47254762D01*
X35624809Y47254762D02*
X35624809Y47064286D01*
X35624809Y47064286D02*
X35648619Y47016667D01*
X35648619Y47016667D02*
X35672428Y46992857D01*
X35672428Y46992857D02*
X35720047Y46969048D01*
X35720047Y46969048D02*
X35791476Y46969048D01*
X35791476Y46969048D02*
X35839095Y46992857D01*
X35839095Y46992857D02*
X35862904Y47016667D01*
X35862904Y47016667D02*
X35886714Y47064286D01*
X35886714Y47064286D02*
X35886714Y47254762D01*
X36124809Y46492857D02*
X36124809Y46778571D01*
X36124809Y46635714D02*
X35624809Y46635714D01*
X35624809Y46635714D02*
X35696238Y46683333D01*
X35696238Y46683333D02*
X35743857Y46730952D01*
X35743857Y46730952D02*
X35767666Y46778571D01*
X35624809Y46326191D02*
X35624809Y46016667D01*
X35624809Y46016667D02*
X35815285Y46183334D01*
X35815285Y46183334D02*
X35815285Y46111905D01*
X35815285Y46111905D02*
X35839095Y46064286D01*
X35839095Y46064286D02*
X35862904Y46040477D01*
X35862904Y46040477D02*
X35910523Y46016667D01*
X35910523Y46016667D02*
X36029571Y46016667D01*
X36029571Y46016667D02*
X36077190Y46040477D01*
X36077190Y46040477D02*
X36101000Y46064286D01*
X36101000Y46064286D02*
X36124809Y46111905D01*
X36124809Y46111905D02*
X36124809Y46254762D01*
X36124809Y46254762D02*
X36101000Y46302381D01*
X36101000Y46302381D02*
X36077190Y46326191D01*
X35624809Y45850001D02*
X35624809Y45516668D01*
X35624809Y45516668D02*
X36124809Y45730953D01*
X33619046Y38875191D02*
X33333332Y38875191D01*
X33476189Y38375191D02*
X33476189Y38875191D01*
X33166666Y38375191D02*
X33166666Y38875191D01*
X33166666Y38875191D02*
X32976190Y38875191D01*
X32976190Y38875191D02*
X32928571Y38851381D01*
X32928571Y38851381D02*
X32904761Y38827572D01*
X32904761Y38827572D02*
X32880952Y38779953D01*
X32880952Y38779953D02*
X32880952Y38708524D01*
X32880952Y38708524D02*
X32904761Y38660905D01*
X32904761Y38660905D02*
X32928571Y38637096D01*
X32928571Y38637096D02*
X32976190Y38613286D01*
X32976190Y38613286D02*
X33166666Y38613286D01*
X32714285Y38875191D02*
X32404761Y38875191D01*
X32404761Y38875191D02*
X32571428Y38684715D01*
X32571428Y38684715D02*
X32499999Y38684715D01*
X32499999Y38684715D02*
X32452380Y38660905D01*
X32452380Y38660905D02*
X32428571Y38637096D01*
X32428571Y38637096D02*
X32404761Y38589477D01*
X32404761Y38589477D02*
X32404761Y38470429D01*
X32404761Y38470429D02*
X32428571Y38422810D01*
X32428571Y38422810D02*
X32452380Y38399000D01*
X32452380Y38399000D02*
X32499999Y38375191D01*
X32499999Y38375191D02*
X32642856Y38375191D01*
X32642856Y38375191D02*
X32690475Y38399000D01*
X32690475Y38399000D02*
X32714285Y38422810D01*
X32119047Y38660905D02*
X32166666Y38684715D01*
X32166666Y38684715D02*
X32190476Y38708524D01*
X32190476Y38708524D02*
X32214285Y38756143D01*
X32214285Y38756143D02*
X32214285Y38779953D01*
X32214285Y38779953D02*
X32190476Y38827572D01*
X32190476Y38827572D02*
X32166666Y38851381D01*
X32166666Y38851381D02*
X32119047Y38875191D01*
X32119047Y38875191D02*
X32023809Y38875191D01*
X32023809Y38875191D02*
X31976190Y38851381D01*
X31976190Y38851381D02*
X31952381Y38827572D01*
X31952381Y38827572D02*
X31928571Y38779953D01*
X31928571Y38779953D02*
X31928571Y38756143D01*
X31928571Y38756143D02*
X31952381Y38708524D01*
X31952381Y38708524D02*
X31976190Y38684715D01*
X31976190Y38684715D02*
X32023809Y38660905D01*
X32023809Y38660905D02*
X32119047Y38660905D01*
X32119047Y38660905D02*
X32166666Y38637096D01*
X32166666Y38637096D02*
X32190476Y38613286D01*
X32190476Y38613286D02*
X32214285Y38565667D01*
X32214285Y38565667D02*
X32214285Y38470429D01*
X32214285Y38470429D02*
X32190476Y38422810D01*
X32190476Y38422810D02*
X32166666Y38399000D01*
X32166666Y38399000D02*
X32119047Y38375191D01*
X32119047Y38375191D02*
X32023809Y38375191D01*
X32023809Y38375191D02*
X31976190Y38399000D01*
X31976190Y38399000D02*
X31952381Y38422810D01*
X31952381Y38422810D02*
X31928571Y38470429D01*
X31928571Y38470429D02*
X31928571Y38565667D01*
X31928571Y38565667D02*
X31952381Y38613286D01*
X31952381Y38613286D02*
X31976190Y38637096D01*
X31976190Y38637096D02*
X32023809Y38660905D01*
X32524809Y50807142D02*
X32524809Y50521428D01*
X33024809Y50664285D02*
X32524809Y50664285D01*
X33024809Y50354762D02*
X32524809Y50354762D01*
X32524809Y50354762D02*
X32524809Y50164286D01*
X32524809Y50164286D02*
X32548619Y50116667D01*
X32548619Y50116667D02*
X32572428Y50092857D01*
X32572428Y50092857D02*
X32620047Y50069048D01*
X32620047Y50069048D02*
X32691476Y50069048D01*
X32691476Y50069048D02*
X32739095Y50092857D01*
X32739095Y50092857D02*
X32762904Y50116667D01*
X32762904Y50116667D02*
X32786714Y50164286D01*
X32786714Y50164286D02*
X32786714Y50354762D01*
X33024809Y49592857D02*
X33024809Y49878571D01*
X33024809Y49735714D02*
X32524809Y49735714D01*
X32524809Y49735714D02*
X32596238Y49783333D01*
X32596238Y49783333D02*
X32643857Y49830952D01*
X32643857Y49830952D02*
X32667666Y49878571D01*
X33024809Y49116667D02*
X33024809Y49402381D01*
X33024809Y49259524D02*
X32524809Y49259524D01*
X32524809Y49259524D02*
X32596238Y49307143D01*
X32596238Y49307143D02*
X32643857Y49354762D01*
X32643857Y49354762D02*
X32667666Y49402381D01*
X32691476Y48688096D02*
X33024809Y48688096D01*
X32501000Y48807144D02*
X32858142Y48926191D01*
X32858142Y48926191D02*
X32858142Y48616668D01*
X39532141Y31975191D02*
X39246427Y31975191D01*
X39389284Y31475191D02*
X39389284Y31975191D01*
X39079761Y31475191D02*
X39079761Y31975191D01*
X39079761Y31975191D02*
X38889285Y31975191D01*
X38889285Y31975191D02*
X38841666Y31951381D01*
X38841666Y31951381D02*
X38817856Y31927572D01*
X38817856Y31927572D02*
X38794047Y31879953D01*
X38794047Y31879953D02*
X38794047Y31808524D01*
X38794047Y31808524D02*
X38817856Y31760905D01*
X38817856Y31760905D02*
X38841666Y31737096D01*
X38841666Y31737096D02*
X38889285Y31713286D01*
X38889285Y31713286D02*
X39079761Y31713286D01*
X38317856Y31475191D02*
X38603570Y31475191D01*
X38460713Y31475191D02*
X38460713Y31975191D01*
X38460713Y31975191D02*
X38508332Y31903762D01*
X38508332Y31903762D02*
X38555951Y31856143D01*
X38555951Y31856143D02*
X38603570Y31832334D01*
X38151190Y31975191D02*
X37841666Y31975191D01*
X37841666Y31975191D02*
X38008333Y31784715D01*
X38008333Y31784715D02*
X37936904Y31784715D01*
X37936904Y31784715D02*
X37889285Y31760905D01*
X37889285Y31760905D02*
X37865476Y31737096D01*
X37865476Y31737096D02*
X37841666Y31689477D01*
X37841666Y31689477D02*
X37841666Y31570429D01*
X37841666Y31570429D02*
X37865476Y31522810D01*
X37865476Y31522810D02*
X37889285Y31499000D01*
X37889285Y31499000D02*
X37936904Y31475191D01*
X37936904Y31475191D02*
X38079761Y31475191D01*
X38079761Y31475191D02*
X38127380Y31499000D01*
X38127380Y31499000D02*
X38151190Y31522810D01*
X37675000Y31975191D02*
X37365476Y31975191D01*
X37365476Y31975191D02*
X37532143Y31784715D01*
X37532143Y31784715D02*
X37460714Y31784715D01*
X37460714Y31784715D02*
X37413095Y31760905D01*
X37413095Y31760905D02*
X37389286Y31737096D01*
X37389286Y31737096D02*
X37365476Y31689477D01*
X37365476Y31689477D02*
X37365476Y31570429D01*
X37365476Y31570429D02*
X37389286Y31522810D01*
X37389286Y31522810D02*
X37413095Y31499000D01*
X37413095Y31499000D02*
X37460714Y31475191D01*
X37460714Y31475191D02*
X37603571Y31475191D01*
X37603571Y31475191D02*
X37651190Y31499000D01*
X37651190Y31499000D02*
X37675000Y31522810D01*
X31169046Y55325191D02*
X30883332Y55325191D01*
X31026189Y54825191D02*
X31026189Y55325191D01*
X30716666Y54825191D02*
X30716666Y55325191D01*
X30716666Y55325191D02*
X30526190Y55325191D01*
X30526190Y55325191D02*
X30478571Y55301381D01*
X30478571Y55301381D02*
X30454761Y55277572D01*
X30454761Y55277572D02*
X30430952Y55229953D01*
X30430952Y55229953D02*
X30430952Y55158524D01*
X30430952Y55158524D02*
X30454761Y55110905D01*
X30454761Y55110905D02*
X30478571Y55087096D01*
X30478571Y55087096D02*
X30526190Y55063286D01*
X30526190Y55063286D02*
X30716666Y55063286D01*
X30002380Y55325191D02*
X30097618Y55325191D01*
X30097618Y55325191D02*
X30145237Y55301381D01*
X30145237Y55301381D02*
X30169047Y55277572D01*
X30169047Y55277572D02*
X30216666Y55206143D01*
X30216666Y55206143D02*
X30240475Y55110905D01*
X30240475Y55110905D02*
X30240475Y54920429D01*
X30240475Y54920429D02*
X30216666Y54872810D01*
X30216666Y54872810D02*
X30192856Y54849000D01*
X30192856Y54849000D02*
X30145237Y54825191D01*
X30145237Y54825191D02*
X30049999Y54825191D01*
X30049999Y54825191D02*
X30002380Y54849000D01*
X30002380Y54849000D02*
X29978571Y54872810D01*
X29978571Y54872810D02*
X29954761Y54920429D01*
X29954761Y54920429D02*
X29954761Y55039477D01*
X29954761Y55039477D02*
X29978571Y55087096D01*
X29978571Y55087096D02*
X30002380Y55110905D01*
X30002380Y55110905D02*
X30049999Y55134715D01*
X30049999Y55134715D02*
X30145237Y55134715D01*
X30145237Y55134715D02*
X30192856Y55110905D01*
X30192856Y55110905D02*
X30216666Y55087096D01*
X30216666Y55087096D02*
X30240475Y55039477D01*
X29788095Y55325191D02*
X29454762Y55325191D01*
X29454762Y55325191D02*
X29669047Y54825191D01*
X25169046Y50675191D02*
X24883332Y50675191D01*
X25026189Y50175191D02*
X25026189Y50675191D01*
X24716666Y50175191D02*
X24716666Y50675191D01*
X24716666Y50675191D02*
X24526190Y50675191D01*
X24526190Y50675191D02*
X24478571Y50651381D01*
X24478571Y50651381D02*
X24454761Y50627572D01*
X24454761Y50627572D02*
X24430952Y50579953D01*
X24430952Y50579953D02*
X24430952Y50508524D01*
X24430952Y50508524D02*
X24454761Y50460905D01*
X24454761Y50460905D02*
X24478571Y50437096D01*
X24478571Y50437096D02*
X24526190Y50413286D01*
X24526190Y50413286D02*
X24716666Y50413286D01*
X23954761Y50175191D02*
X24240475Y50175191D01*
X24097618Y50175191D02*
X24097618Y50675191D01*
X24097618Y50675191D02*
X24145237Y50603762D01*
X24145237Y50603762D02*
X24192856Y50556143D01*
X24192856Y50556143D02*
X24240475Y50532334D01*
X23716666Y50175191D02*
X23621428Y50175191D01*
X23621428Y50175191D02*
X23573809Y50199000D01*
X23573809Y50199000D02*
X23550000Y50222810D01*
X23550000Y50222810D02*
X23502381Y50294239D01*
X23502381Y50294239D02*
X23478571Y50389477D01*
X23478571Y50389477D02*
X23478571Y50579953D01*
X23478571Y50579953D02*
X23502381Y50627572D01*
X23502381Y50627572D02*
X23526190Y50651381D01*
X23526190Y50651381D02*
X23573809Y50675191D01*
X23573809Y50675191D02*
X23669047Y50675191D01*
X23669047Y50675191D02*
X23716666Y50651381D01*
X23716666Y50651381D02*
X23740476Y50627572D01*
X23740476Y50627572D02*
X23764285Y50579953D01*
X23764285Y50579953D02*
X23764285Y50460905D01*
X23764285Y50460905D02*
X23740476Y50413286D01*
X23740476Y50413286D02*
X23716666Y50389477D01*
X23716666Y50389477D02*
X23669047Y50365667D01*
X23669047Y50365667D02*
X23573809Y50365667D01*
X23573809Y50365667D02*
X23526190Y50389477D01*
X23526190Y50389477D02*
X23502381Y50413286D01*
X23502381Y50413286D02*
X23478571Y50460905D01*
X28919046Y37775191D02*
X28633332Y37775191D01*
X28776189Y37275191D02*
X28776189Y37775191D01*
X28466666Y37275191D02*
X28466666Y37775191D01*
X28466666Y37775191D02*
X28276190Y37775191D01*
X28276190Y37775191D02*
X28228571Y37751381D01*
X28228571Y37751381D02*
X28204761Y37727572D01*
X28204761Y37727572D02*
X28180952Y37679953D01*
X28180952Y37679953D02*
X28180952Y37608524D01*
X28180952Y37608524D02*
X28204761Y37560905D01*
X28204761Y37560905D02*
X28228571Y37537096D01*
X28228571Y37537096D02*
X28276190Y37513286D01*
X28276190Y37513286D02*
X28466666Y37513286D01*
X27752380Y37775191D02*
X27847618Y37775191D01*
X27847618Y37775191D02*
X27895237Y37751381D01*
X27895237Y37751381D02*
X27919047Y37727572D01*
X27919047Y37727572D02*
X27966666Y37656143D01*
X27966666Y37656143D02*
X27990475Y37560905D01*
X27990475Y37560905D02*
X27990475Y37370429D01*
X27990475Y37370429D02*
X27966666Y37322810D01*
X27966666Y37322810D02*
X27942856Y37299000D01*
X27942856Y37299000D02*
X27895237Y37275191D01*
X27895237Y37275191D02*
X27799999Y37275191D01*
X27799999Y37275191D02*
X27752380Y37299000D01*
X27752380Y37299000D02*
X27728571Y37322810D01*
X27728571Y37322810D02*
X27704761Y37370429D01*
X27704761Y37370429D02*
X27704761Y37489477D01*
X27704761Y37489477D02*
X27728571Y37537096D01*
X27728571Y37537096D02*
X27752380Y37560905D01*
X27752380Y37560905D02*
X27799999Y37584715D01*
X27799999Y37584715D02*
X27895237Y37584715D01*
X27895237Y37584715D02*
X27942856Y37560905D01*
X27942856Y37560905D02*
X27966666Y37537096D01*
X27966666Y37537096D02*
X27990475Y37489477D01*
X27419047Y37560905D02*
X27466666Y37584715D01*
X27466666Y37584715D02*
X27490476Y37608524D01*
X27490476Y37608524D02*
X27514285Y37656143D01*
X27514285Y37656143D02*
X27514285Y37679953D01*
X27514285Y37679953D02*
X27490476Y37727572D01*
X27490476Y37727572D02*
X27466666Y37751381D01*
X27466666Y37751381D02*
X27419047Y37775191D01*
X27419047Y37775191D02*
X27323809Y37775191D01*
X27323809Y37775191D02*
X27276190Y37751381D01*
X27276190Y37751381D02*
X27252381Y37727572D01*
X27252381Y37727572D02*
X27228571Y37679953D01*
X27228571Y37679953D02*
X27228571Y37656143D01*
X27228571Y37656143D02*
X27252381Y37608524D01*
X27252381Y37608524D02*
X27276190Y37584715D01*
X27276190Y37584715D02*
X27323809Y37560905D01*
X27323809Y37560905D02*
X27419047Y37560905D01*
X27419047Y37560905D02*
X27466666Y37537096D01*
X27466666Y37537096D02*
X27490476Y37513286D01*
X27490476Y37513286D02*
X27514285Y37465667D01*
X27514285Y37465667D02*
X27514285Y37370429D01*
X27514285Y37370429D02*
X27490476Y37322810D01*
X27490476Y37322810D02*
X27466666Y37299000D01*
X27466666Y37299000D02*
X27419047Y37275191D01*
X27419047Y37275191D02*
X27323809Y37275191D01*
X27323809Y37275191D02*
X27276190Y37299000D01*
X27276190Y37299000D02*
X27252381Y37322810D01*
X27252381Y37322810D02*
X27228571Y37370429D01*
X27228571Y37370429D02*
X27228571Y37465667D01*
X27228571Y37465667D02*
X27252381Y37513286D01*
X27252381Y37513286D02*
X27276190Y37537096D01*
X27276190Y37537096D02*
X27323809Y37560905D01*
X25619046Y59675191D02*
X25333332Y59675191D01*
X25476189Y59175191D02*
X25476189Y59675191D01*
X25166666Y59175191D02*
X25166666Y59675191D01*
X25166666Y59675191D02*
X24976190Y59675191D01*
X24976190Y59675191D02*
X24928571Y59651381D01*
X24928571Y59651381D02*
X24904761Y59627572D01*
X24904761Y59627572D02*
X24880952Y59579953D01*
X24880952Y59579953D02*
X24880952Y59508524D01*
X24880952Y59508524D02*
X24904761Y59460905D01*
X24904761Y59460905D02*
X24928571Y59437096D01*
X24928571Y59437096D02*
X24976190Y59413286D01*
X24976190Y59413286D02*
X25166666Y59413286D01*
X24714285Y59675191D02*
X24404761Y59675191D01*
X24404761Y59675191D02*
X24571428Y59484715D01*
X24571428Y59484715D02*
X24499999Y59484715D01*
X24499999Y59484715D02*
X24452380Y59460905D01*
X24452380Y59460905D02*
X24428571Y59437096D01*
X24428571Y59437096D02*
X24404761Y59389477D01*
X24404761Y59389477D02*
X24404761Y59270429D01*
X24404761Y59270429D02*
X24428571Y59222810D01*
X24428571Y59222810D02*
X24452380Y59199000D01*
X24452380Y59199000D02*
X24499999Y59175191D01*
X24499999Y59175191D02*
X24642856Y59175191D01*
X24642856Y59175191D02*
X24690475Y59199000D01*
X24690475Y59199000D02*
X24714285Y59222810D01*
X23976190Y59508524D02*
X23976190Y59175191D01*
X24095238Y59699000D02*
X24214285Y59341858D01*
X24214285Y59341858D02*
X23904762Y59341858D01*
X31724809Y50857142D02*
X31724809Y50571428D01*
X32224809Y50714285D02*
X31724809Y50714285D01*
X32224809Y50404762D02*
X31724809Y50404762D01*
X31724809Y50404762D02*
X31724809Y50214286D01*
X31724809Y50214286D02*
X31748619Y50166667D01*
X31748619Y50166667D02*
X31772428Y50142857D01*
X31772428Y50142857D02*
X31820047Y50119048D01*
X31820047Y50119048D02*
X31891476Y50119048D01*
X31891476Y50119048D02*
X31939095Y50142857D01*
X31939095Y50142857D02*
X31962904Y50166667D01*
X31962904Y50166667D02*
X31986714Y50214286D01*
X31986714Y50214286D02*
X31986714Y50404762D01*
X32224809Y49642857D02*
X32224809Y49928571D01*
X32224809Y49785714D02*
X31724809Y49785714D01*
X31724809Y49785714D02*
X31796238Y49833333D01*
X31796238Y49833333D02*
X31843857Y49880952D01*
X31843857Y49880952D02*
X31867666Y49928571D01*
X32224809Y49166667D02*
X32224809Y49452381D01*
X32224809Y49309524D02*
X31724809Y49309524D01*
X31724809Y49309524D02*
X31796238Y49357143D01*
X31796238Y49357143D02*
X31843857Y49404762D01*
X31843857Y49404762D02*
X31867666Y49452381D01*
X31724809Y49000001D02*
X31724809Y48690477D01*
X31724809Y48690477D02*
X31915285Y48857144D01*
X31915285Y48857144D02*
X31915285Y48785715D01*
X31915285Y48785715D02*
X31939095Y48738096D01*
X31939095Y48738096D02*
X31962904Y48714287D01*
X31962904Y48714287D02*
X32010523Y48690477D01*
X32010523Y48690477D02*
X32129571Y48690477D01*
X32129571Y48690477D02*
X32177190Y48714287D01*
X32177190Y48714287D02*
X32201000Y48738096D01*
X32201000Y48738096D02*
X32224809Y48785715D01*
X32224809Y48785715D02*
X32224809Y48928572D01*
X32224809Y48928572D02*
X32201000Y48976191D01*
X32201000Y48976191D02*
X32177190Y49000001D01*
X19524809Y43719047D02*
X19524809Y43433333D01*
X20024809Y43576190D02*
X19524809Y43576190D01*
X20024809Y43266667D02*
X19524809Y43266667D01*
X19524809Y43266667D02*
X19524809Y43076191D01*
X19524809Y43076191D02*
X19548619Y43028572D01*
X19548619Y43028572D02*
X19572428Y43004762D01*
X19572428Y43004762D02*
X19620047Y42980953D01*
X19620047Y42980953D02*
X19691476Y42980953D01*
X19691476Y42980953D02*
X19739095Y43004762D01*
X19739095Y43004762D02*
X19762904Y43028572D01*
X19762904Y43028572D02*
X19786714Y43076191D01*
X19786714Y43076191D02*
X19786714Y43266667D01*
X19524809Y42552381D02*
X19524809Y42647619D01*
X19524809Y42647619D02*
X19548619Y42695238D01*
X19548619Y42695238D02*
X19572428Y42719048D01*
X19572428Y42719048D02*
X19643857Y42766667D01*
X19643857Y42766667D02*
X19739095Y42790476D01*
X19739095Y42790476D02*
X19929571Y42790476D01*
X19929571Y42790476D02*
X19977190Y42766667D01*
X19977190Y42766667D02*
X20001000Y42742857D01*
X20001000Y42742857D02*
X20024809Y42695238D01*
X20024809Y42695238D02*
X20024809Y42600000D01*
X20024809Y42600000D02*
X20001000Y42552381D01*
X20001000Y42552381D02*
X19977190Y42528572D01*
X19977190Y42528572D02*
X19929571Y42504762D01*
X19929571Y42504762D02*
X19810523Y42504762D01*
X19810523Y42504762D02*
X19762904Y42528572D01*
X19762904Y42528572D02*
X19739095Y42552381D01*
X19739095Y42552381D02*
X19715285Y42600000D01*
X19715285Y42600000D02*
X19715285Y42695238D01*
X19715285Y42695238D02*
X19739095Y42742857D01*
X19739095Y42742857D02*
X19762904Y42766667D01*
X19762904Y42766667D02*
X19810523Y42790476D01*
X19524809Y42076191D02*
X19524809Y42171429D01*
X19524809Y42171429D02*
X19548619Y42219048D01*
X19548619Y42219048D02*
X19572428Y42242858D01*
X19572428Y42242858D02*
X19643857Y42290477D01*
X19643857Y42290477D02*
X19739095Y42314286D01*
X19739095Y42314286D02*
X19929571Y42314286D01*
X19929571Y42314286D02*
X19977190Y42290477D01*
X19977190Y42290477D02*
X20001000Y42266667D01*
X20001000Y42266667D02*
X20024809Y42219048D01*
X20024809Y42219048D02*
X20024809Y42123810D01*
X20024809Y42123810D02*
X20001000Y42076191D01*
X20001000Y42076191D02*
X19977190Y42052382D01*
X19977190Y42052382D02*
X19929571Y42028572D01*
X19929571Y42028572D02*
X19810523Y42028572D01*
X19810523Y42028572D02*
X19762904Y42052382D01*
X19762904Y42052382D02*
X19739095Y42076191D01*
X19739095Y42076191D02*
X19715285Y42123810D01*
X19715285Y42123810D02*
X19715285Y42219048D01*
X19715285Y42219048D02*
X19739095Y42266667D01*
X19739095Y42266667D02*
X19762904Y42290477D01*
X19762904Y42290477D02*
X19810523Y42314286D01*
X40807141Y47075191D02*
X40521427Y47075191D01*
X40664284Y46575191D02*
X40664284Y47075191D01*
X40354761Y46575191D02*
X40354761Y47075191D01*
X40354761Y47075191D02*
X40164285Y47075191D01*
X40164285Y47075191D02*
X40116666Y47051381D01*
X40116666Y47051381D02*
X40092856Y47027572D01*
X40092856Y47027572D02*
X40069047Y46979953D01*
X40069047Y46979953D02*
X40069047Y46908524D01*
X40069047Y46908524D02*
X40092856Y46860905D01*
X40092856Y46860905D02*
X40116666Y46837096D01*
X40116666Y46837096D02*
X40164285Y46813286D01*
X40164285Y46813286D02*
X40354761Y46813286D01*
X39592856Y46575191D02*
X39878570Y46575191D01*
X39735713Y46575191D02*
X39735713Y47075191D01*
X39735713Y47075191D02*
X39783332Y47003762D01*
X39783332Y47003762D02*
X39830951Y46956143D01*
X39830951Y46956143D02*
X39878570Y46932334D01*
X39426190Y47075191D02*
X39116666Y47075191D01*
X39116666Y47075191D02*
X39283333Y46884715D01*
X39283333Y46884715D02*
X39211904Y46884715D01*
X39211904Y46884715D02*
X39164285Y46860905D01*
X39164285Y46860905D02*
X39140476Y46837096D01*
X39140476Y46837096D02*
X39116666Y46789477D01*
X39116666Y46789477D02*
X39116666Y46670429D01*
X39116666Y46670429D02*
X39140476Y46622810D01*
X39140476Y46622810D02*
X39164285Y46599000D01*
X39164285Y46599000D02*
X39211904Y46575191D01*
X39211904Y46575191D02*
X39354761Y46575191D01*
X39354761Y46575191D02*
X39402380Y46599000D01*
X39402380Y46599000D02*
X39426190Y46622810D01*
X38878571Y46575191D02*
X38783333Y46575191D01*
X38783333Y46575191D02*
X38735714Y46599000D01*
X38735714Y46599000D02*
X38711905Y46622810D01*
X38711905Y46622810D02*
X38664286Y46694239D01*
X38664286Y46694239D02*
X38640476Y46789477D01*
X38640476Y46789477D02*
X38640476Y46979953D01*
X38640476Y46979953D02*
X38664286Y47027572D01*
X38664286Y47027572D02*
X38688095Y47051381D01*
X38688095Y47051381D02*
X38735714Y47075191D01*
X38735714Y47075191D02*
X38830952Y47075191D01*
X38830952Y47075191D02*
X38878571Y47051381D01*
X38878571Y47051381D02*
X38902381Y47027572D01*
X38902381Y47027572D02*
X38926190Y46979953D01*
X38926190Y46979953D02*
X38926190Y46860905D01*
X38926190Y46860905D02*
X38902381Y46813286D01*
X38902381Y46813286D02*
X38878571Y46789477D01*
X38878571Y46789477D02*
X38830952Y46765667D01*
X38830952Y46765667D02*
X38735714Y46765667D01*
X38735714Y46765667D02*
X38688095Y46789477D01*
X38688095Y46789477D02*
X38664286Y46813286D01*
X38664286Y46813286D02*
X38640476Y46860905D01*
X33757141Y43725191D02*
X33471427Y43725191D01*
X33614284Y43225191D02*
X33614284Y43725191D01*
X33304761Y43225191D02*
X33304761Y43725191D01*
X33304761Y43725191D02*
X33114285Y43725191D01*
X33114285Y43725191D02*
X33066666Y43701381D01*
X33066666Y43701381D02*
X33042856Y43677572D01*
X33042856Y43677572D02*
X33019047Y43629953D01*
X33019047Y43629953D02*
X33019047Y43558524D01*
X33019047Y43558524D02*
X33042856Y43510905D01*
X33042856Y43510905D02*
X33066666Y43487096D01*
X33066666Y43487096D02*
X33114285Y43463286D01*
X33114285Y43463286D02*
X33304761Y43463286D01*
X32542856Y43225191D02*
X32828570Y43225191D01*
X32685713Y43225191D02*
X32685713Y43725191D01*
X32685713Y43725191D02*
X32733332Y43653762D01*
X32733332Y43653762D02*
X32780951Y43606143D01*
X32780951Y43606143D02*
X32828570Y43582334D01*
X32352380Y43677572D02*
X32328571Y43701381D01*
X32328571Y43701381D02*
X32280952Y43725191D01*
X32280952Y43725191D02*
X32161904Y43725191D01*
X32161904Y43725191D02*
X32114285Y43701381D01*
X32114285Y43701381D02*
X32090476Y43677572D01*
X32090476Y43677572D02*
X32066666Y43629953D01*
X32066666Y43629953D02*
X32066666Y43582334D01*
X32066666Y43582334D02*
X32090476Y43510905D01*
X32090476Y43510905D02*
X32376190Y43225191D01*
X32376190Y43225191D02*
X32066666Y43225191D01*
X31900000Y43725191D02*
X31566667Y43725191D01*
X31566667Y43725191D02*
X31780952Y43225191D01*
X31724809Y53757142D02*
X31724809Y53471428D01*
X32224809Y53614285D02*
X31724809Y53614285D01*
X32224809Y53304762D02*
X31724809Y53304762D01*
X31724809Y53304762D02*
X31724809Y53114286D01*
X31724809Y53114286D02*
X31748619Y53066667D01*
X31748619Y53066667D02*
X31772428Y53042857D01*
X31772428Y53042857D02*
X31820047Y53019048D01*
X31820047Y53019048D02*
X31891476Y53019048D01*
X31891476Y53019048D02*
X31939095Y53042857D01*
X31939095Y53042857D02*
X31962904Y53066667D01*
X31962904Y53066667D02*
X31986714Y53114286D01*
X31986714Y53114286D02*
X31986714Y53304762D01*
X32224809Y52542857D02*
X32224809Y52828571D01*
X32224809Y52685714D02*
X31724809Y52685714D01*
X31724809Y52685714D02*
X31796238Y52733333D01*
X31796238Y52733333D02*
X31843857Y52780952D01*
X31843857Y52780952D02*
X31867666Y52828571D01*
X32224809Y52066667D02*
X32224809Y52352381D01*
X32224809Y52209524D02*
X31724809Y52209524D01*
X31724809Y52209524D02*
X31796238Y52257143D01*
X31796238Y52257143D02*
X31843857Y52304762D01*
X31843857Y52304762D02*
X31867666Y52352381D01*
X31724809Y51638096D02*
X31724809Y51733334D01*
X31724809Y51733334D02*
X31748619Y51780953D01*
X31748619Y51780953D02*
X31772428Y51804763D01*
X31772428Y51804763D02*
X31843857Y51852382D01*
X31843857Y51852382D02*
X31939095Y51876191D01*
X31939095Y51876191D02*
X32129571Y51876191D01*
X32129571Y51876191D02*
X32177190Y51852382D01*
X32177190Y51852382D02*
X32201000Y51828572D01*
X32201000Y51828572D02*
X32224809Y51780953D01*
X32224809Y51780953D02*
X32224809Y51685715D01*
X32224809Y51685715D02*
X32201000Y51638096D01*
X32201000Y51638096D02*
X32177190Y51614287D01*
X32177190Y51614287D02*
X32129571Y51590477D01*
X32129571Y51590477D02*
X32010523Y51590477D01*
X32010523Y51590477D02*
X31962904Y51614287D01*
X31962904Y51614287D02*
X31939095Y51638096D01*
X31939095Y51638096D02*
X31915285Y51685715D01*
X31915285Y51685715D02*
X31915285Y51780953D01*
X31915285Y51780953D02*
X31939095Y51828572D01*
X31939095Y51828572D02*
X31962904Y51852382D01*
X31962904Y51852382D02*
X32010523Y51876191D01*
X21344046Y52200191D02*
X21058332Y52200191D01*
X21201189Y51700191D02*
X21201189Y52200191D01*
X20891666Y51700191D02*
X20891666Y52200191D01*
X20891666Y52200191D02*
X20701190Y52200191D01*
X20701190Y52200191D02*
X20653571Y52176381D01*
X20653571Y52176381D02*
X20629761Y52152572D01*
X20629761Y52152572D02*
X20605952Y52104953D01*
X20605952Y52104953D02*
X20605952Y52033524D01*
X20605952Y52033524D02*
X20629761Y51985905D01*
X20629761Y51985905D02*
X20653571Y51962096D01*
X20653571Y51962096D02*
X20701190Y51938286D01*
X20701190Y51938286D02*
X20891666Y51938286D01*
X20367856Y51700191D02*
X20272618Y51700191D01*
X20272618Y51700191D02*
X20224999Y51724000D01*
X20224999Y51724000D02*
X20201190Y51747810D01*
X20201190Y51747810D02*
X20153571Y51819239D01*
X20153571Y51819239D02*
X20129761Y51914477D01*
X20129761Y51914477D02*
X20129761Y52104953D01*
X20129761Y52104953D02*
X20153571Y52152572D01*
X20153571Y52152572D02*
X20177380Y52176381D01*
X20177380Y52176381D02*
X20224999Y52200191D01*
X20224999Y52200191D02*
X20320237Y52200191D01*
X20320237Y52200191D02*
X20367856Y52176381D01*
X20367856Y52176381D02*
X20391666Y52152572D01*
X20391666Y52152572D02*
X20415475Y52104953D01*
X20415475Y52104953D02*
X20415475Y51985905D01*
X20415475Y51985905D02*
X20391666Y51938286D01*
X20391666Y51938286D02*
X20367856Y51914477D01*
X20367856Y51914477D02*
X20320237Y51890667D01*
X20320237Y51890667D02*
X20224999Y51890667D01*
X20224999Y51890667D02*
X20177380Y51914477D01*
X20177380Y51914477D02*
X20153571Y51938286D01*
X20153571Y51938286D02*
X20129761Y51985905D01*
X19701190Y52033524D02*
X19701190Y51700191D01*
X19820238Y52224000D02*
X19939285Y51866858D01*
X19939285Y51866858D02*
X19629762Y51866858D01*
X23524809Y40907142D02*
X23524809Y40621428D01*
X24024809Y40764285D02*
X23524809Y40764285D01*
X24024809Y40454762D02*
X23524809Y40454762D01*
X23524809Y40454762D02*
X23524809Y40264286D01*
X23524809Y40264286D02*
X23548619Y40216667D01*
X23548619Y40216667D02*
X23572428Y40192857D01*
X23572428Y40192857D02*
X23620047Y40169048D01*
X23620047Y40169048D02*
X23691476Y40169048D01*
X23691476Y40169048D02*
X23739095Y40192857D01*
X23739095Y40192857D02*
X23762904Y40216667D01*
X23762904Y40216667D02*
X23786714Y40264286D01*
X23786714Y40264286D02*
X23786714Y40454762D01*
X24024809Y39692857D02*
X24024809Y39978571D01*
X24024809Y39835714D02*
X23524809Y39835714D01*
X23524809Y39835714D02*
X23596238Y39883333D01*
X23596238Y39883333D02*
X23643857Y39930952D01*
X23643857Y39930952D02*
X23667666Y39978571D01*
X23524809Y39526191D02*
X23524809Y39216667D01*
X23524809Y39216667D02*
X23715285Y39383334D01*
X23715285Y39383334D02*
X23715285Y39311905D01*
X23715285Y39311905D02*
X23739095Y39264286D01*
X23739095Y39264286D02*
X23762904Y39240477D01*
X23762904Y39240477D02*
X23810523Y39216667D01*
X23810523Y39216667D02*
X23929571Y39216667D01*
X23929571Y39216667D02*
X23977190Y39240477D01*
X23977190Y39240477D02*
X24001000Y39264286D01*
X24001000Y39264286D02*
X24024809Y39311905D01*
X24024809Y39311905D02*
X24024809Y39454762D01*
X24024809Y39454762D02*
X24001000Y39502381D01*
X24001000Y39502381D02*
X23977190Y39526191D01*
X23524809Y38907144D02*
X23524809Y38859525D01*
X23524809Y38859525D02*
X23548619Y38811906D01*
X23548619Y38811906D02*
X23572428Y38788096D01*
X23572428Y38788096D02*
X23620047Y38764287D01*
X23620047Y38764287D02*
X23715285Y38740477D01*
X23715285Y38740477D02*
X23834333Y38740477D01*
X23834333Y38740477D02*
X23929571Y38764287D01*
X23929571Y38764287D02*
X23977190Y38788096D01*
X23977190Y38788096D02*
X24001000Y38811906D01*
X24001000Y38811906D02*
X24024809Y38859525D01*
X24024809Y38859525D02*
X24024809Y38907144D01*
X24024809Y38907144D02*
X24001000Y38954763D01*
X24001000Y38954763D02*
X23977190Y38978572D01*
X23977190Y38978572D02*
X23929571Y39002382D01*
X23929571Y39002382D02*
X23834333Y39026191D01*
X23834333Y39026191D02*
X23715285Y39026191D01*
X23715285Y39026191D02*
X23620047Y39002382D01*
X23620047Y39002382D02*
X23572428Y38978572D01*
X23572428Y38978572D02*
X23548619Y38954763D01*
X23548619Y38954763D02*
X23524809Y38907144D01*
X30974809Y50869047D02*
X30974809Y50583333D01*
X31474809Y50726190D02*
X30974809Y50726190D01*
X31474809Y50416667D02*
X30974809Y50416667D01*
X30974809Y50416667D02*
X30974809Y50226191D01*
X30974809Y50226191D02*
X30998619Y50178572D01*
X30998619Y50178572D02*
X31022428Y50154762D01*
X31022428Y50154762D02*
X31070047Y50130953D01*
X31070047Y50130953D02*
X31141476Y50130953D01*
X31141476Y50130953D02*
X31189095Y50154762D01*
X31189095Y50154762D02*
X31212904Y50178572D01*
X31212904Y50178572D02*
X31236714Y50226191D01*
X31236714Y50226191D02*
X31236714Y50416667D01*
X31022428Y49940476D02*
X30998619Y49916667D01*
X30998619Y49916667D02*
X30974809Y49869048D01*
X30974809Y49869048D02*
X30974809Y49750000D01*
X30974809Y49750000D02*
X30998619Y49702381D01*
X30998619Y49702381D02*
X31022428Y49678572D01*
X31022428Y49678572D02*
X31070047Y49654762D01*
X31070047Y49654762D02*
X31117666Y49654762D01*
X31117666Y49654762D02*
X31189095Y49678572D01*
X31189095Y49678572D02*
X31474809Y49964286D01*
X31474809Y49964286D02*
X31474809Y49654762D01*
X31474809Y49178572D02*
X31474809Y49464286D01*
X31474809Y49321429D02*
X30974809Y49321429D01*
X30974809Y49321429D02*
X31046238Y49369048D01*
X31046238Y49369048D02*
X31093857Y49416667D01*
X31093857Y49416667D02*
X31117666Y49464286D01*
X40257141Y42425191D02*
X39971427Y42425191D01*
X40114284Y41925191D02*
X40114284Y42425191D01*
X39804761Y41925191D02*
X39804761Y42425191D01*
X39804761Y42425191D02*
X39614285Y42425191D01*
X39614285Y42425191D02*
X39566666Y42401381D01*
X39566666Y42401381D02*
X39542856Y42377572D01*
X39542856Y42377572D02*
X39519047Y42329953D01*
X39519047Y42329953D02*
X39519047Y42258524D01*
X39519047Y42258524D02*
X39542856Y42210905D01*
X39542856Y42210905D02*
X39566666Y42187096D01*
X39566666Y42187096D02*
X39614285Y42163286D01*
X39614285Y42163286D02*
X39804761Y42163286D01*
X39042856Y41925191D02*
X39328570Y41925191D01*
X39185713Y41925191D02*
X39185713Y42425191D01*
X39185713Y42425191D02*
X39233332Y42353762D01*
X39233332Y42353762D02*
X39280951Y42306143D01*
X39280951Y42306143D02*
X39328570Y42282334D01*
X38733333Y42425191D02*
X38685714Y42425191D01*
X38685714Y42425191D02*
X38638095Y42401381D01*
X38638095Y42401381D02*
X38614285Y42377572D01*
X38614285Y42377572D02*
X38590476Y42329953D01*
X38590476Y42329953D02*
X38566666Y42234715D01*
X38566666Y42234715D02*
X38566666Y42115667D01*
X38566666Y42115667D02*
X38590476Y42020429D01*
X38590476Y42020429D02*
X38614285Y41972810D01*
X38614285Y41972810D02*
X38638095Y41949000D01*
X38638095Y41949000D02*
X38685714Y41925191D01*
X38685714Y41925191D02*
X38733333Y41925191D01*
X38733333Y41925191D02*
X38780952Y41949000D01*
X38780952Y41949000D02*
X38804761Y41972810D01*
X38804761Y41972810D02*
X38828571Y42020429D01*
X38828571Y42020429D02*
X38852380Y42115667D01*
X38852380Y42115667D02*
X38852380Y42234715D01*
X38852380Y42234715D02*
X38828571Y42329953D01*
X38828571Y42329953D02*
X38804761Y42377572D01*
X38804761Y42377572D02*
X38780952Y42401381D01*
X38780952Y42401381D02*
X38733333Y42425191D01*
X38257143Y42425191D02*
X38209524Y42425191D01*
X38209524Y42425191D02*
X38161905Y42401381D01*
X38161905Y42401381D02*
X38138095Y42377572D01*
X38138095Y42377572D02*
X38114286Y42329953D01*
X38114286Y42329953D02*
X38090476Y42234715D01*
X38090476Y42234715D02*
X38090476Y42115667D01*
X38090476Y42115667D02*
X38114286Y42020429D01*
X38114286Y42020429D02*
X38138095Y41972810D01*
X38138095Y41972810D02*
X38161905Y41949000D01*
X38161905Y41949000D02*
X38209524Y41925191D01*
X38209524Y41925191D02*
X38257143Y41925191D01*
X38257143Y41925191D02*
X38304762Y41949000D01*
X38304762Y41949000D02*
X38328571Y41972810D01*
X38328571Y41972810D02*
X38352381Y42020429D01*
X38352381Y42020429D02*
X38376190Y42115667D01*
X38376190Y42115667D02*
X38376190Y42234715D01*
X38376190Y42234715D02*
X38352381Y42329953D01*
X38352381Y42329953D02*
X38328571Y42377572D01*
X38328571Y42377572D02*
X38304762Y42401381D01*
X38304762Y42401381D02*
X38257143Y42425191D01*
X30694046Y59875191D02*
X30408332Y59875191D01*
X30551189Y59375191D02*
X30551189Y59875191D01*
X30241666Y59375191D02*
X30241666Y59875191D01*
X30241666Y59875191D02*
X30051190Y59875191D01*
X30051190Y59875191D02*
X30003571Y59851381D01*
X30003571Y59851381D02*
X29979761Y59827572D01*
X29979761Y59827572D02*
X29955952Y59779953D01*
X29955952Y59779953D02*
X29955952Y59708524D01*
X29955952Y59708524D02*
X29979761Y59660905D01*
X29979761Y59660905D02*
X30003571Y59637096D01*
X30003571Y59637096D02*
X30051190Y59613286D01*
X30051190Y59613286D02*
X30241666Y59613286D01*
X29527380Y59708524D02*
X29527380Y59375191D01*
X29646428Y59899000D02*
X29765475Y59541858D01*
X29765475Y59541858D02*
X29455952Y59541858D01*
X29003571Y59375191D02*
X29289285Y59375191D01*
X29146428Y59375191D02*
X29146428Y59875191D01*
X29146428Y59875191D02*
X29194047Y59803762D01*
X29194047Y59803762D02*
X29241666Y59756143D01*
X29241666Y59756143D02*
X29289285Y59732334D01*
X20199809Y59744047D02*
X20199809Y59458333D01*
X20699809Y59601190D02*
X20199809Y59601190D01*
X20699809Y59291667D02*
X20199809Y59291667D01*
X20199809Y59291667D02*
X20199809Y59101191D01*
X20199809Y59101191D02*
X20223619Y59053572D01*
X20223619Y59053572D02*
X20247428Y59029762D01*
X20247428Y59029762D02*
X20295047Y59005953D01*
X20295047Y59005953D02*
X20366476Y59005953D01*
X20366476Y59005953D02*
X20414095Y59029762D01*
X20414095Y59029762D02*
X20437904Y59053572D01*
X20437904Y59053572D02*
X20461714Y59101191D01*
X20461714Y59101191D02*
X20461714Y59291667D01*
X20247428Y58815476D02*
X20223619Y58791667D01*
X20223619Y58791667D02*
X20199809Y58744048D01*
X20199809Y58744048D02*
X20199809Y58625000D01*
X20199809Y58625000D02*
X20223619Y58577381D01*
X20223619Y58577381D02*
X20247428Y58553572D01*
X20247428Y58553572D02*
X20295047Y58529762D01*
X20295047Y58529762D02*
X20342666Y58529762D01*
X20342666Y58529762D02*
X20414095Y58553572D01*
X20414095Y58553572D02*
X20699809Y58839286D01*
X20699809Y58839286D02*
X20699809Y58529762D01*
X20199809Y58363096D02*
X20199809Y58029763D01*
X20199809Y58029763D02*
X20699809Y58244048D01*
X40557141Y53075191D02*
X40271427Y53075191D01*
X40414284Y52575191D02*
X40414284Y53075191D01*
X40104761Y52575191D02*
X40104761Y53075191D01*
X40104761Y53075191D02*
X39914285Y53075191D01*
X39914285Y53075191D02*
X39866666Y53051381D01*
X39866666Y53051381D02*
X39842856Y53027572D01*
X39842856Y53027572D02*
X39819047Y52979953D01*
X39819047Y52979953D02*
X39819047Y52908524D01*
X39819047Y52908524D02*
X39842856Y52860905D01*
X39842856Y52860905D02*
X39866666Y52837096D01*
X39866666Y52837096D02*
X39914285Y52813286D01*
X39914285Y52813286D02*
X40104761Y52813286D01*
X39342856Y52575191D02*
X39628570Y52575191D01*
X39485713Y52575191D02*
X39485713Y53075191D01*
X39485713Y53075191D02*
X39533332Y53003762D01*
X39533332Y53003762D02*
X39580951Y52956143D01*
X39580951Y52956143D02*
X39628570Y52932334D01*
X38866666Y52575191D02*
X39152380Y52575191D01*
X39009523Y52575191D02*
X39009523Y53075191D01*
X39009523Y53075191D02*
X39057142Y53003762D01*
X39057142Y53003762D02*
X39104761Y52956143D01*
X39104761Y52956143D02*
X39152380Y52932334D01*
X38700000Y53075191D02*
X38366667Y53075191D01*
X38366667Y53075191D02*
X38580952Y52575191D01*
X64325190Y83592859D02*
X64325190Y83878573D01*
X63825190Y83735716D02*
X64325190Y83735716D01*
X63825190Y84045239D02*
X64325190Y84045239D01*
X64325190Y84045239D02*
X64325190Y84235715D01*
X64325190Y84235715D02*
X64301380Y84283334D01*
X64301380Y84283334D02*
X64277571Y84307144D01*
X64277571Y84307144D02*
X64229952Y84330953D01*
X64229952Y84330953D02*
X64158523Y84330953D01*
X64158523Y84330953D02*
X64110904Y84307144D01*
X64110904Y84307144D02*
X64087095Y84283334D01*
X64087095Y84283334D02*
X64063285Y84235715D01*
X64063285Y84235715D02*
X64063285Y84045239D01*
X63825190Y84807144D02*
X63825190Y84521430D01*
X63825190Y84664287D02*
X64325190Y84664287D01*
X64325190Y84664287D02*
X64253761Y84616668D01*
X64253761Y84616668D02*
X64206142Y84569049D01*
X64206142Y84569049D02*
X64182333Y84521430D01*
X64158523Y85235715D02*
X63825190Y85235715D01*
X64349000Y85116667D02*
X63991857Y84997620D01*
X63991857Y84997620D02*
X63991857Y85307143D01*
X64325190Y85735714D02*
X64325190Y85497619D01*
X64325190Y85497619D02*
X64087095Y85473810D01*
X64087095Y85473810D02*
X64110904Y85497619D01*
X64110904Y85497619D02*
X64134714Y85545238D01*
X64134714Y85545238D02*
X64134714Y85664286D01*
X64134714Y85664286D02*
X64110904Y85711905D01*
X64110904Y85711905D02*
X64087095Y85735714D01*
X64087095Y85735714D02*
X64039476Y85759524D01*
X64039476Y85759524D02*
X63920428Y85759524D01*
X63920428Y85759524D02*
X63872809Y85735714D01*
X63872809Y85735714D02*
X63849000Y85711905D01*
X63849000Y85711905D02*
X63825190Y85664286D01*
X63825190Y85664286D02*
X63825190Y85545238D01*
X63825190Y85545238D02*
X63849000Y85497619D01*
X63849000Y85497619D02*
X63872809Y85473810D01*
X28969046Y38775191D02*
X28683332Y38775191D01*
X28826189Y38275191D02*
X28826189Y38775191D01*
X28516666Y38275191D02*
X28516666Y38775191D01*
X28516666Y38775191D02*
X28326190Y38775191D01*
X28326190Y38775191D02*
X28278571Y38751381D01*
X28278571Y38751381D02*
X28254761Y38727572D01*
X28254761Y38727572D02*
X28230952Y38679953D01*
X28230952Y38679953D02*
X28230952Y38608524D01*
X28230952Y38608524D02*
X28254761Y38560905D01*
X28254761Y38560905D02*
X28278571Y38537096D01*
X28278571Y38537096D02*
X28326190Y38513286D01*
X28326190Y38513286D02*
X28516666Y38513286D01*
X27802380Y38608524D02*
X27802380Y38275191D01*
X27921428Y38799000D02*
X28040475Y38441858D01*
X28040475Y38441858D02*
X27730952Y38441858D01*
X27469047Y38560905D02*
X27516666Y38584715D01*
X27516666Y38584715D02*
X27540476Y38608524D01*
X27540476Y38608524D02*
X27564285Y38656143D01*
X27564285Y38656143D02*
X27564285Y38679953D01*
X27564285Y38679953D02*
X27540476Y38727572D01*
X27540476Y38727572D02*
X27516666Y38751381D01*
X27516666Y38751381D02*
X27469047Y38775191D01*
X27469047Y38775191D02*
X27373809Y38775191D01*
X27373809Y38775191D02*
X27326190Y38751381D01*
X27326190Y38751381D02*
X27302381Y38727572D01*
X27302381Y38727572D02*
X27278571Y38679953D01*
X27278571Y38679953D02*
X27278571Y38656143D01*
X27278571Y38656143D02*
X27302381Y38608524D01*
X27302381Y38608524D02*
X27326190Y38584715D01*
X27326190Y38584715D02*
X27373809Y38560905D01*
X27373809Y38560905D02*
X27469047Y38560905D01*
X27469047Y38560905D02*
X27516666Y38537096D01*
X27516666Y38537096D02*
X27540476Y38513286D01*
X27540476Y38513286D02*
X27564285Y38465667D01*
X27564285Y38465667D02*
X27564285Y38370429D01*
X27564285Y38370429D02*
X27540476Y38322810D01*
X27540476Y38322810D02*
X27516666Y38299000D01*
X27516666Y38299000D02*
X27469047Y38275191D01*
X27469047Y38275191D02*
X27373809Y38275191D01*
X27373809Y38275191D02*
X27326190Y38299000D01*
X27326190Y38299000D02*
X27302381Y38322810D01*
X27302381Y38322810D02*
X27278571Y38370429D01*
X27278571Y38370429D02*
X27278571Y38465667D01*
X27278571Y38465667D02*
X27302381Y38513286D01*
X27302381Y38513286D02*
X27326190Y38537096D01*
X27326190Y38537096D02*
X27373809Y38560905D01*
X33769046Y44875191D02*
X33483332Y44875191D01*
X33626189Y44375191D02*
X33626189Y44875191D01*
X33316666Y44375191D02*
X33316666Y44875191D01*
X33316666Y44875191D02*
X33126190Y44875191D01*
X33126190Y44875191D02*
X33078571Y44851381D01*
X33078571Y44851381D02*
X33054761Y44827572D01*
X33054761Y44827572D02*
X33030952Y44779953D01*
X33030952Y44779953D02*
X33030952Y44708524D01*
X33030952Y44708524D02*
X33054761Y44660905D01*
X33054761Y44660905D02*
X33078571Y44637096D01*
X33078571Y44637096D02*
X33126190Y44613286D01*
X33126190Y44613286D02*
X33316666Y44613286D01*
X32864285Y44875191D02*
X32530952Y44875191D01*
X32530952Y44875191D02*
X32745237Y44375191D01*
X32078571Y44375191D02*
X32364285Y44375191D01*
X32221428Y44375191D02*
X32221428Y44875191D01*
X32221428Y44875191D02*
X32269047Y44803762D01*
X32269047Y44803762D02*
X32316666Y44756143D01*
X32316666Y44756143D02*
X32364285Y44732334D01*
X52875190Y92842859D02*
X52875190Y93128573D01*
X52375190Y92985716D02*
X52875190Y92985716D01*
X52375190Y93295239D02*
X52875190Y93295239D01*
X52875190Y93295239D02*
X52875190Y93485715D01*
X52875190Y93485715D02*
X52851380Y93533334D01*
X52851380Y93533334D02*
X52827571Y93557144D01*
X52827571Y93557144D02*
X52779952Y93580953D01*
X52779952Y93580953D02*
X52708523Y93580953D01*
X52708523Y93580953D02*
X52660904Y93557144D01*
X52660904Y93557144D02*
X52637095Y93533334D01*
X52637095Y93533334D02*
X52613285Y93485715D01*
X52613285Y93485715D02*
X52613285Y93295239D01*
X52375190Y94057144D02*
X52375190Y93771430D01*
X52375190Y93914287D02*
X52875190Y93914287D01*
X52875190Y93914287D02*
X52803761Y93866668D01*
X52803761Y93866668D02*
X52756142Y93819049D01*
X52756142Y93819049D02*
X52732333Y93771430D01*
X52875190Y94509524D02*
X52875190Y94271429D01*
X52875190Y94271429D02*
X52637095Y94247620D01*
X52637095Y94247620D02*
X52660904Y94271429D01*
X52660904Y94271429D02*
X52684714Y94319048D01*
X52684714Y94319048D02*
X52684714Y94438096D01*
X52684714Y94438096D02*
X52660904Y94485715D01*
X52660904Y94485715D02*
X52637095Y94509524D01*
X52637095Y94509524D02*
X52589476Y94533334D01*
X52589476Y94533334D02*
X52470428Y94533334D01*
X52470428Y94533334D02*
X52422809Y94509524D01*
X52422809Y94509524D02*
X52399000Y94485715D01*
X52399000Y94485715D02*
X52375190Y94438096D01*
X52375190Y94438096D02*
X52375190Y94319048D01*
X52375190Y94319048D02*
X52399000Y94271429D01*
X52399000Y94271429D02*
X52422809Y94247620D01*
X52827571Y94723810D02*
X52851380Y94747619D01*
X52851380Y94747619D02*
X52875190Y94795238D01*
X52875190Y94795238D02*
X52875190Y94914286D01*
X52875190Y94914286D02*
X52851380Y94961905D01*
X52851380Y94961905D02*
X52827571Y94985714D01*
X52827571Y94985714D02*
X52779952Y95009524D01*
X52779952Y95009524D02*
X52732333Y95009524D01*
X52732333Y95009524D02*
X52660904Y94985714D01*
X52660904Y94985714D02*
X52375190Y94700000D01*
X52375190Y94700000D02*
X52375190Y95009524D01*
X31299809Y60669047D02*
X31299809Y60383333D01*
X31799809Y60526190D02*
X31299809Y60526190D01*
X31799809Y60216667D02*
X31299809Y60216667D01*
X31299809Y60216667D02*
X31299809Y60026191D01*
X31299809Y60026191D02*
X31323619Y59978572D01*
X31323619Y59978572D02*
X31347428Y59954762D01*
X31347428Y59954762D02*
X31395047Y59930953D01*
X31395047Y59930953D02*
X31466476Y59930953D01*
X31466476Y59930953D02*
X31514095Y59954762D01*
X31514095Y59954762D02*
X31537904Y59978572D01*
X31537904Y59978572D02*
X31561714Y60026191D01*
X31561714Y60026191D02*
X31561714Y60216667D01*
X31299809Y59764286D02*
X31299809Y59454762D01*
X31299809Y59454762D02*
X31490285Y59621429D01*
X31490285Y59621429D02*
X31490285Y59550000D01*
X31490285Y59550000D02*
X31514095Y59502381D01*
X31514095Y59502381D02*
X31537904Y59478572D01*
X31537904Y59478572D02*
X31585523Y59454762D01*
X31585523Y59454762D02*
X31704571Y59454762D01*
X31704571Y59454762D02*
X31752190Y59478572D01*
X31752190Y59478572D02*
X31776000Y59502381D01*
X31776000Y59502381D02*
X31799809Y59550000D01*
X31799809Y59550000D02*
X31799809Y59692857D01*
X31799809Y59692857D02*
X31776000Y59740476D01*
X31776000Y59740476D02*
X31752190Y59764286D01*
X31299809Y59026191D02*
X31299809Y59121429D01*
X31299809Y59121429D02*
X31323619Y59169048D01*
X31323619Y59169048D02*
X31347428Y59192858D01*
X31347428Y59192858D02*
X31418857Y59240477D01*
X31418857Y59240477D02*
X31514095Y59264286D01*
X31514095Y59264286D02*
X31704571Y59264286D01*
X31704571Y59264286D02*
X31752190Y59240477D01*
X31752190Y59240477D02*
X31776000Y59216667D01*
X31776000Y59216667D02*
X31799809Y59169048D01*
X31799809Y59169048D02*
X31799809Y59073810D01*
X31799809Y59073810D02*
X31776000Y59026191D01*
X31776000Y59026191D02*
X31752190Y59002382D01*
X31752190Y59002382D02*
X31704571Y58978572D01*
X31704571Y58978572D02*
X31585523Y58978572D01*
X31585523Y58978572D02*
X31537904Y59002382D01*
X31537904Y59002382D02*
X31514095Y59026191D01*
X31514095Y59026191D02*
X31490285Y59073810D01*
X31490285Y59073810D02*
X31490285Y59169048D01*
X31490285Y59169048D02*
X31514095Y59216667D01*
X31514095Y59216667D02*
X31537904Y59240477D01*
X31537904Y59240477D02*
X31585523Y59264286D01*
X38869046Y48875191D02*
X38583332Y48875191D01*
X38726189Y48375191D02*
X38726189Y48875191D01*
X38416666Y48375191D02*
X38416666Y48875191D01*
X38416666Y48875191D02*
X38226190Y48875191D01*
X38226190Y48875191D02*
X38178571Y48851381D01*
X38178571Y48851381D02*
X38154761Y48827572D01*
X38154761Y48827572D02*
X38130952Y48779953D01*
X38130952Y48779953D02*
X38130952Y48708524D01*
X38130952Y48708524D02*
X38154761Y48660905D01*
X38154761Y48660905D02*
X38178571Y48637096D01*
X38178571Y48637096D02*
X38226190Y48613286D01*
X38226190Y48613286D02*
X38416666Y48613286D01*
X37892856Y48375191D02*
X37797618Y48375191D01*
X37797618Y48375191D02*
X37749999Y48399000D01*
X37749999Y48399000D02*
X37726190Y48422810D01*
X37726190Y48422810D02*
X37678571Y48494239D01*
X37678571Y48494239D02*
X37654761Y48589477D01*
X37654761Y48589477D02*
X37654761Y48779953D01*
X37654761Y48779953D02*
X37678571Y48827572D01*
X37678571Y48827572D02*
X37702380Y48851381D01*
X37702380Y48851381D02*
X37749999Y48875191D01*
X37749999Y48875191D02*
X37845237Y48875191D01*
X37845237Y48875191D02*
X37892856Y48851381D01*
X37892856Y48851381D02*
X37916666Y48827572D01*
X37916666Y48827572D02*
X37940475Y48779953D01*
X37940475Y48779953D02*
X37940475Y48660905D01*
X37940475Y48660905D02*
X37916666Y48613286D01*
X37916666Y48613286D02*
X37892856Y48589477D01*
X37892856Y48589477D02*
X37845237Y48565667D01*
X37845237Y48565667D02*
X37749999Y48565667D01*
X37749999Y48565667D02*
X37702380Y48589477D01*
X37702380Y48589477D02*
X37678571Y48613286D01*
X37678571Y48613286D02*
X37654761Y48660905D01*
X37345238Y48875191D02*
X37297619Y48875191D01*
X37297619Y48875191D02*
X37250000Y48851381D01*
X37250000Y48851381D02*
X37226190Y48827572D01*
X37226190Y48827572D02*
X37202381Y48779953D01*
X37202381Y48779953D02*
X37178571Y48684715D01*
X37178571Y48684715D02*
X37178571Y48565667D01*
X37178571Y48565667D02*
X37202381Y48470429D01*
X37202381Y48470429D02*
X37226190Y48422810D01*
X37226190Y48422810D02*
X37250000Y48399000D01*
X37250000Y48399000D02*
X37297619Y48375191D01*
X37297619Y48375191D02*
X37345238Y48375191D01*
X37345238Y48375191D02*
X37392857Y48399000D01*
X37392857Y48399000D02*
X37416666Y48422810D01*
X37416666Y48422810D02*
X37440476Y48470429D01*
X37440476Y48470429D02*
X37464285Y48565667D01*
X37464285Y48565667D02*
X37464285Y48684715D01*
X37464285Y48684715D02*
X37440476Y48779953D01*
X37440476Y48779953D02*
X37416666Y48827572D01*
X37416666Y48827572D02*
X37392857Y48851381D01*
X37392857Y48851381D02*
X37345238Y48875191D01*
X62950190Y92742859D02*
X62950190Y93028573D01*
X62450190Y92885716D02*
X62950190Y92885716D01*
X62450190Y93195239D02*
X62950190Y93195239D01*
X62950190Y93195239D02*
X62950190Y93385715D01*
X62950190Y93385715D02*
X62926380Y93433334D01*
X62926380Y93433334D02*
X62902571Y93457144D01*
X62902571Y93457144D02*
X62854952Y93480953D01*
X62854952Y93480953D02*
X62783523Y93480953D01*
X62783523Y93480953D02*
X62735904Y93457144D01*
X62735904Y93457144D02*
X62712095Y93433334D01*
X62712095Y93433334D02*
X62688285Y93385715D01*
X62688285Y93385715D02*
X62688285Y93195239D01*
X62450190Y93957144D02*
X62450190Y93671430D01*
X62450190Y93814287D02*
X62950190Y93814287D01*
X62950190Y93814287D02*
X62878761Y93766668D01*
X62878761Y93766668D02*
X62831142Y93719049D01*
X62831142Y93719049D02*
X62807333Y93671430D01*
X62783523Y94385715D02*
X62450190Y94385715D01*
X62974000Y94266667D02*
X62616857Y94147620D01*
X62616857Y94147620D02*
X62616857Y94457143D01*
X62950190Y94861905D02*
X62950190Y94766667D01*
X62950190Y94766667D02*
X62926380Y94719048D01*
X62926380Y94719048D02*
X62902571Y94695238D01*
X62902571Y94695238D02*
X62831142Y94647619D01*
X62831142Y94647619D02*
X62735904Y94623810D01*
X62735904Y94623810D02*
X62545428Y94623810D01*
X62545428Y94623810D02*
X62497809Y94647619D01*
X62497809Y94647619D02*
X62474000Y94671429D01*
X62474000Y94671429D02*
X62450190Y94719048D01*
X62450190Y94719048D02*
X62450190Y94814286D01*
X62450190Y94814286D02*
X62474000Y94861905D01*
X62474000Y94861905D02*
X62497809Y94885714D01*
X62497809Y94885714D02*
X62545428Y94909524D01*
X62545428Y94909524D02*
X62664476Y94909524D01*
X62664476Y94909524D02*
X62712095Y94885714D01*
X62712095Y94885714D02*
X62735904Y94861905D01*
X62735904Y94861905D02*
X62759714Y94814286D01*
X62759714Y94814286D02*
X62759714Y94719048D01*
X62759714Y94719048D02*
X62735904Y94671429D01*
X62735904Y94671429D02*
X62712095Y94647619D01*
X62712095Y94647619D02*
X62664476Y94623810D01*
X27319046Y35525191D02*
X27033332Y35525191D01*
X27176189Y35025191D02*
X27176189Y35525191D01*
X26866666Y35025191D02*
X26866666Y35525191D01*
X26866666Y35525191D02*
X26676190Y35525191D01*
X26676190Y35525191D02*
X26628571Y35501381D01*
X26628571Y35501381D02*
X26604761Y35477572D01*
X26604761Y35477572D02*
X26580952Y35429953D01*
X26580952Y35429953D02*
X26580952Y35358524D01*
X26580952Y35358524D02*
X26604761Y35310905D01*
X26604761Y35310905D02*
X26628571Y35287096D01*
X26628571Y35287096D02*
X26676190Y35263286D01*
X26676190Y35263286D02*
X26866666Y35263286D01*
X26152380Y35358524D02*
X26152380Y35025191D01*
X26271428Y35549000D02*
X26390475Y35191858D01*
X26390475Y35191858D02*
X26080952Y35191858D01*
X25914285Y35477572D02*
X25890476Y35501381D01*
X25890476Y35501381D02*
X25842857Y35525191D01*
X25842857Y35525191D02*
X25723809Y35525191D01*
X25723809Y35525191D02*
X25676190Y35501381D01*
X25676190Y35501381D02*
X25652381Y35477572D01*
X25652381Y35477572D02*
X25628571Y35429953D01*
X25628571Y35429953D02*
X25628571Y35382334D01*
X25628571Y35382334D02*
X25652381Y35310905D01*
X25652381Y35310905D02*
X25938095Y35025191D01*
X25938095Y35025191D02*
X25628571Y35025191D01*
X35969046Y48275191D02*
X35683332Y48275191D01*
X35826189Y47775191D02*
X35826189Y48275191D01*
X35516666Y47775191D02*
X35516666Y48275191D01*
X35516666Y48275191D02*
X35326190Y48275191D01*
X35326190Y48275191D02*
X35278571Y48251381D01*
X35278571Y48251381D02*
X35254761Y48227572D01*
X35254761Y48227572D02*
X35230952Y48179953D01*
X35230952Y48179953D02*
X35230952Y48108524D01*
X35230952Y48108524D02*
X35254761Y48060905D01*
X35254761Y48060905D02*
X35278571Y48037096D01*
X35278571Y48037096D02*
X35326190Y48013286D01*
X35326190Y48013286D02*
X35516666Y48013286D01*
X35040475Y48227572D02*
X35016666Y48251381D01*
X35016666Y48251381D02*
X34969047Y48275191D01*
X34969047Y48275191D02*
X34849999Y48275191D01*
X34849999Y48275191D02*
X34802380Y48251381D01*
X34802380Y48251381D02*
X34778571Y48227572D01*
X34778571Y48227572D02*
X34754761Y48179953D01*
X34754761Y48179953D02*
X34754761Y48132334D01*
X34754761Y48132334D02*
X34778571Y48060905D01*
X34778571Y48060905D02*
X35064285Y47775191D01*
X35064285Y47775191D02*
X34754761Y47775191D01*
X34564285Y48227572D02*
X34540476Y48251381D01*
X34540476Y48251381D02*
X34492857Y48275191D01*
X34492857Y48275191D02*
X34373809Y48275191D01*
X34373809Y48275191D02*
X34326190Y48251381D01*
X34326190Y48251381D02*
X34302381Y48227572D01*
X34302381Y48227572D02*
X34278571Y48179953D01*
X34278571Y48179953D02*
X34278571Y48132334D01*
X34278571Y48132334D02*
X34302381Y48060905D01*
X34302381Y48060905D02*
X34588095Y47775191D01*
X34588095Y47775191D02*
X34278571Y47775191D01*
X17919046Y53225191D02*
X17633332Y53225191D01*
X17776189Y52725191D02*
X17776189Y53225191D01*
X17466666Y52725191D02*
X17466666Y53225191D01*
X17466666Y53225191D02*
X17276190Y53225191D01*
X17276190Y53225191D02*
X17228571Y53201381D01*
X17228571Y53201381D02*
X17204761Y53177572D01*
X17204761Y53177572D02*
X17180952Y53129953D01*
X17180952Y53129953D02*
X17180952Y53058524D01*
X17180952Y53058524D02*
X17204761Y53010905D01*
X17204761Y53010905D02*
X17228571Y52987096D01*
X17228571Y52987096D02*
X17276190Y52963286D01*
X17276190Y52963286D02*
X17466666Y52963286D01*
X16942856Y52725191D02*
X16847618Y52725191D01*
X16847618Y52725191D02*
X16799999Y52749000D01*
X16799999Y52749000D02*
X16776190Y52772810D01*
X16776190Y52772810D02*
X16728571Y52844239D01*
X16728571Y52844239D02*
X16704761Y52939477D01*
X16704761Y52939477D02*
X16704761Y53129953D01*
X16704761Y53129953D02*
X16728571Y53177572D01*
X16728571Y53177572D02*
X16752380Y53201381D01*
X16752380Y53201381D02*
X16799999Y53225191D01*
X16799999Y53225191D02*
X16895237Y53225191D01*
X16895237Y53225191D02*
X16942856Y53201381D01*
X16942856Y53201381D02*
X16966666Y53177572D01*
X16966666Y53177572D02*
X16990475Y53129953D01*
X16990475Y53129953D02*
X16990475Y53010905D01*
X16990475Y53010905D02*
X16966666Y52963286D01*
X16966666Y52963286D02*
X16942856Y52939477D01*
X16942856Y52939477D02*
X16895237Y52915667D01*
X16895237Y52915667D02*
X16799999Y52915667D01*
X16799999Y52915667D02*
X16752380Y52939477D01*
X16752380Y52939477D02*
X16728571Y52963286D01*
X16728571Y52963286D02*
X16704761Y53010905D01*
X16538095Y53225191D02*
X16228571Y53225191D01*
X16228571Y53225191D02*
X16395238Y53034715D01*
X16395238Y53034715D02*
X16323809Y53034715D01*
X16323809Y53034715D02*
X16276190Y53010905D01*
X16276190Y53010905D02*
X16252381Y52987096D01*
X16252381Y52987096D02*
X16228571Y52939477D01*
X16228571Y52939477D02*
X16228571Y52820429D01*
X16228571Y52820429D02*
X16252381Y52772810D01*
X16252381Y52772810D02*
X16276190Y52749000D01*
X16276190Y52749000D02*
X16323809Y52725191D01*
X16323809Y52725191D02*
X16466666Y52725191D01*
X16466666Y52725191D02*
X16514285Y52749000D01*
X16514285Y52749000D02*
X16538095Y52772810D01*
X33769046Y42375191D02*
X33483332Y42375191D01*
X33626189Y41875191D02*
X33626189Y42375191D01*
X33316666Y41875191D02*
X33316666Y42375191D01*
X33316666Y42375191D02*
X33126190Y42375191D01*
X33126190Y42375191D02*
X33078571Y42351381D01*
X33078571Y42351381D02*
X33054761Y42327572D01*
X33054761Y42327572D02*
X33030952Y42279953D01*
X33030952Y42279953D02*
X33030952Y42208524D01*
X33030952Y42208524D02*
X33054761Y42160905D01*
X33054761Y42160905D02*
X33078571Y42137096D01*
X33078571Y42137096D02*
X33126190Y42113286D01*
X33126190Y42113286D02*
X33316666Y42113286D01*
X32864285Y42375191D02*
X32530952Y42375191D01*
X32530952Y42375191D02*
X32745237Y41875191D01*
X32245238Y42375191D02*
X32197619Y42375191D01*
X32197619Y42375191D02*
X32150000Y42351381D01*
X32150000Y42351381D02*
X32126190Y42327572D01*
X32126190Y42327572D02*
X32102381Y42279953D01*
X32102381Y42279953D02*
X32078571Y42184715D01*
X32078571Y42184715D02*
X32078571Y42065667D01*
X32078571Y42065667D02*
X32102381Y41970429D01*
X32102381Y41970429D02*
X32126190Y41922810D01*
X32126190Y41922810D02*
X32150000Y41899000D01*
X32150000Y41899000D02*
X32197619Y41875191D01*
X32197619Y41875191D02*
X32245238Y41875191D01*
X32245238Y41875191D02*
X32292857Y41899000D01*
X32292857Y41899000D02*
X32316666Y41922810D01*
X32316666Y41922810D02*
X32340476Y41970429D01*
X32340476Y41970429D02*
X32364285Y42065667D01*
X32364285Y42065667D02*
X32364285Y42184715D01*
X32364285Y42184715D02*
X32340476Y42279953D01*
X32340476Y42279953D02*
X32316666Y42327572D01*
X32316666Y42327572D02*
X32292857Y42351381D01*
X32292857Y42351381D02*
X32245238Y42375191D01*
X36774809Y45919047D02*
X36774809Y45633333D01*
X37274809Y45776190D02*
X36774809Y45776190D01*
X37274809Y45466667D02*
X36774809Y45466667D01*
X36774809Y45466667D02*
X36774809Y45276191D01*
X36774809Y45276191D02*
X36798619Y45228572D01*
X36798619Y45228572D02*
X36822428Y45204762D01*
X36822428Y45204762D02*
X36870047Y45180953D01*
X36870047Y45180953D02*
X36941476Y45180953D01*
X36941476Y45180953D02*
X36989095Y45204762D01*
X36989095Y45204762D02*
X37012904Y45228572D01*
X37012904Y45228572D02*
X37036714Y45276191D01*
X37036714Y45276191D02*
X37036714Y45466667D01*
X37274809Y44942857D02*
X37274809Y44847619D01*
X37274809Y44847619D02*
X37251000Y44800000D01*
X37251000Y44800000D02*
X37227190Y44776191D01*
X37227190Y44776191D02*
X37155761Y44728572D01*
X37155761Y44728572D02*
X37060523Y44704762D01*
X37060523Y44704762D02*
X36870047Y44704762D01*
X36870047Y44704762D02*
X36822428Y44728572D01*
X36822428Y44728572D02*
X36798619Y44752381D01*
X36798619Y44752381D02*
X36774809Y44800000D01*
X36774809Y44800000D02*
X36774809Y44895238D01*
X36774809Y44895238D02*
X36798619Y44942857D01*
X36798619Y44942857D02*
X36822428Y44966667D01*
X36822428Y44966667D02*
X36870047Y44990476D01*
X36870047Y44990476D02*
X36989095Y44990476D01*
X36989095Y44990476D02*
X37036714Y44966667D01*
X37036714Y44966667D02*
X37060523Y44942857D01*
X37060523Y44942857D02*
X37084333Y44895238D01*
X37084333Y44895238D02*
X37084333Y44800000D01*
X37084333Y44800000D02*
X37060523Y44752381D01*
X37060523Y44752381D02*
X37036714Y44728572D01*
X37036714Y44728572D02*
X36989095Y44704762D01*
X36774809Y44538096D02*
X36774809Y44204763D01*
X36774809Y44204763D02*
X37274809Y44419048D01*
X29974809Y44607142D02*
X29974809Y44321428D01*
X30474809Y44464285D02*
X29974809Y44464285D01*
X30474809Y44154762D02*
X29974809Y44154762D01*
X29974809Y44154762D02*
X29974809Y43964286D01*
X29974809Y43964286D02*
X29998619Y43916667D01*
X29998619Y43916667D02*
X30022428Y43892857D01*
X30022428Y43892857D02*
X30070047Y43869048D01*
X30070047Y43869048D02*
X30141476Y43869048D01*
X30141476Y43869048D02*
X30189095Y43892857D01*
X30189095Y43892857D02*
X30212904Y43916667D01*
X30212904Y43916667D02*
X30236714Y43964286D01*
X30236714Y43964286D02*
X30236714Y44154762D01*
X30474809Y43392857D02*
X30474809Y43678571D01*
X30474809Y43535714D02*
X29974809Y43535714D01*
X29974809Y43535714D02*
X30046238Y43583333D01*
X30046238Y43583333D02*
X30093857Y43630952D01*
X30093857Y43630952D02*
X30117666Y43678571D01*
X30022428Y43202381D02*
X29998619Y43178572D01*
X29998619Y43178572D02*
X29974809Y43130953D01*
X29974809Y43130953D02*
X29974809Y43011905D01*
X29974809Y43011905D02*
X29998619Y42964286D01*
X29998619Y42964286D02*
X30022428Y42940477D01*
X30022428Y42940477D02*
X30070047Y42916667D01*
X30070047Y42916667D02*
X30117666Y42916667D01*
X30117666Y42916667D02*
X30189095Y42940477D01*
X30189095Y42940477D02*
X30474809Y43226191D01*
X30474809Y43226191D02*
X30474809Y42916667D01*
X30474809Y42678572D02*
X30474809Y42583334D01*
X30474809Y42583334D02*
X30451000Y42535715D01*
X30451000Y42535715D02*
X30427190Y42511906D01*
X30427190Y42511906D02*
X30355761Y42464287D01*
X30355761Y42464287D02*
X30260523Y42440477D01*
X30260523Y42440477D02*
X30070047Y42440477D01*
X30070047Y42440477D02*
X30022428Y42464287D01*
X30022428Y42464287D02*
X29998619Y42488096D01*
X29998619Y42488096D02*
X29974809Y42535715D01*
X29974809Y42535715D02*
X29974809Y42630953D01*
X29974809Y42630953D02*
X29998619Y42678572D01*
X29998619Y42678572D02*
X30022428Y42702382D01*
X30022428Y42702382D02*
X30070047Y42726191D01*
X30070047Y42726191D02*
X30189095Y42726191D01*
X30189095Y42726191D02*
X30236714Y42702382D01*
X30236714Y42702382D02*
X30260523Y42678572D01*
X30260523Y42678572D02*
X30284333Y42630953D01*
X30284333Y42630953D02*
X30284333Y42535715D01*
X30284333Y42535715D02*
X30260523Y42488096D01*
X30260523Y42488096D02*
X30236714Y42464287D01*
X30236714Y42464287D02*
X30189095Y42440477D01*
X21669046Y39975191D02*
X21383332Y39975191D01*
X21526189Y39475191D02*
X21526189Y39975191D01*
X21216666Y39475191D02*
X21216666Y39975191D01*
X21216666Y39975191D02*
X21026190Y39975191D01*
X21026190Y39975191D02*
X20978571Y39951381D01*
X20978571Y39951381D02*
X20954761Y39927572D01*
X20954761Y39927572D02*
X20930952Y39879953D01*
X20930952Y39879953D02*
X20930952Y39808524D01*
X20930952Y39808524D02*
X20954761Y39760905D01*
X20954761Y39760905D02*
X20978571Y39737096D01*
X20978571Y39737096D02*
X21026190Y39713286D01*
X21026190Y39713286D02*
X21216666Y39713286D01*
X20502380Y39808524D02*
X20502380Y39475191D01*
X20621428Y39999000D02*
X20740475Y39641858D01*
X20740475Y39641858D02*
X20430952Y39641858D01*
X20288095Y39975191D02*
X19954762Y39975191D01*
X19954762Y39975191D02*
X20169047Y39475191D01*
X36669046Y41325191D02*
X36383332Y41325191D01*
X36526189Y40825191D02*
X36526189Y41325191D01*
X36216666Y40825191D02*
X36216666Y41325191D01*
X36216666Y41325191D02*
X36026190Y41325191D01*
X36026190Y41325191D02*
X35978571Y41301381D01*
X35978571Y41301381D02*
X35954761Y41277572D01*
X35954761Y41277572D02*
X35930952Y41229953D01*
X35930952Y41229953D02*
X35930952Y41158524D01*
X35930952Y41158524D02*
X35954761Y41110905D01*
X35954761Y41110905D02*
X35978571Y41087096D01*
X35978571Y41087096D02*
X36026190Y41063286D01*
X36026190Y41063286D02*
X36216666Y41063286D01*
X35764285Y41325191D02*
X35430952Y41325191D01*
X35430952Y41325191D02*
X35645237Y40825191D01*
X35264285Y41277572D02*
X35240476Y41301381D01*
X35240476Y41301381D02*
X35192857Y41325191D01*
X35192857Y41325191D02*
X35073809Y41325191D01*
X35073809Y41325191D02*
X35026190Y41301381D01*
X35026190Y41301381D02*
X35002381Y41277572D01*
X35002381Y41277572D02*
X34978571Y41229953D01*
X34978571Y41229953D02*
X34978571Y41182334D01*
X34978571Y41182334D02*
X35002381Y41110905D01*
X35002381Y41110905D02*
X35288095Y40825191D01*
X35288095Y40825191D02*
X34978571Y40825191D01*
X62925190Y83567859D02*
X62925190Y83853573D01*
X62425190Y83710716D02*
X62925190Y83710716D01*
X62425190Y84020239D02*
X62925190Y84020239D01*
X62925190Y84020239D02*
X62925190Y84210715D01*
X62925190Y84210715D02*
X62901380Y84258334D01*
X62901380Y84258334D02*
X62877571Y84282144D01*
X62877571Y84282144D02*
X62829952Y84305953D01*
X62829952Y84305953D02*
X62758523Y84305953D01*
X62758523Y84305953D02*
X62710904Y84282144D01*
X62710904Y84282144D02*
X62687095Y84258334D01*
X62687095Y84258334D02*
X62663285Y84210715D01*
X62663285Y84210715D02*
X62663285Y84020239D01*
X62425190Y84782144D02*
X62425190Y84496430D01*
X62425190Y84639287D02*
X62925190Y84639287D01*
X62925190Y84639287D02*
X62853761Y84591668D01*
X62853761Y84591668D02*
X62806142Y84544049D01*
X62806142Y84544049D02*
X62782333Y84496430D01*
X62758523Y85210715D02*
X62425190Y85210715D01*
X62949000Y85091667D02*
X62591857Y84972620D01*
X62591857Y84972620D02*
X62591857Y85282143D01*
X62925190Y85425000D02*
X62925190Y85758333D01*
X62925190Y85758333D02*
X62425190Y85544048D01*
X25607141Y38375191D02*
X25321427Y38375191D01*
X25464284Y37875191D02*
X25464284Y38375191D01*
X25154761Y37875191D02*
X25154761Y38375191D01*
X25154761Y38375191D02*
X24964285Y38375191D01*
X24964285Y38375191D02*
X24916666Y38351381D01*
X24916666Y38351381D02*
X24892856Y38327572D01*
X24892856Y38327572D02*
X24869047Y38279953D01*
X24869047Y38279953D02*
X24869047Y38208524D01*
X24869047Y38208524D02*
X24892856Y38160905D01*
X24892856Y38160905D02*
X24916666Y38137096D01*
X24916666Y38137096D02*
X24964285Y38113286D01*
X24964285Y38113286D02*
X25154761Y38113286D01*
X24392856Y37875191D02*
X24678570Y37875191D01*
X24535713Y37875191D02*
X24535713Y38375191D01*
X24535713Y38375191D02*
X24583332Y38303762D01*
X24583332Y38303762D02*
X24630951Y38256143D01*
X24630951Y38256143D02*
X24678570Y38232334D01*
X24202380Y38327572D02*
X24178571Y38351381D01*
X24178571Y38351381D02*
X24130952Y38375191D01*
X24130952Y38375191D02*
X24011904Y38375191D01*
X24011904Y38375191D02*
X23964285Y38351381D01*
X23964285Y38351381D02*
X23940476Y38327572D01*
X23940476Y38327572D02*
X23916666Y38279953D01*
X23916666Y38279953D02*
X23916666Y38232334D01*
X23916666Y38232334D02*
X23940476Y38160905D01*
X23940476Y38160905D02*
X24226190Y37875191D01*
X24226190Y37875191D02*
X23916666Y37875191D01*
X23488095Y38375191D02*
X23583333Y38375191D01*
X23583333Y38375191D02*
X23630952Y38351381D01*
X23630952Y38351381D02*
X23654762Y38327572D01*
X23654762Y38327572D02*
X23702381Y38256143D01*
X23702381Y38256143D02*
X23726190Y38160905D01*
X23726190Y38160905D02*
X23726190Y37970429D01*
X23726190Y37970429D02*
X23702381Y37922810D01*
X23702381Y37922810D02*
X23678571Y37899000D01*
X23678571Y37899000D02*
X23630952Y37875191D01*
X23630952Y37875191D02*
X23535714Y37875191D01*
X23535714Y37875191D02*
X23488095Y37899000D01*
X23488095Y37899000D02*
X23464286Y37922810D01*
X23464286Y37922810D02*
X23440476Y37970429D01*
X23440476Y37970429D02*
X23440476Y38089477D01*
X23440476Y38089477D02*
X23464286Y38137096D01*
X23464286Y38137096D02*
X23488095Y38160905D01*
X23488095Y38160905D02*
X23535714Y38184715D01*
X23535714Y38184715D02*
X23630952Y38184715D01*
X23630952Y38184715D02*
X23678571Y38160905D01*
X23678571Y38160905D02*
X23702381Y38137096D01*
X23702381Y38137096D02*
X23726190Y38089477D01*
X30924809Y53757142D02*
X30924809Y53471428D01*
X31424809Y53614285D02*
X30924809Y53614285D01*
X31424809Y53304762D02*
X30924809Y53304762D01*
X30924809Y53304762D02*
X30924809Y53114286D01*
X30924809Y53114286D02*
X30948619Y53066667D01*
X30948619Y53066667D02*
X30972428Y53042857D01*
X30972428Y53042857D02*
X31020047Y53019048D01*
X31020047Y53019048D02*
X31091476Y53019048D01*
X31091476Y53019048D02*
X31139095Y53042857D01*
X31139095Y53042857D02*
X31162904Y53066667D01*
X31162904Y53066667D02*
X31186714Y53114286D01*
X31186714Y53114286D02*
X31186714Y53304762D01*
X31424809Y52542857D02*
X31424809Y52828571D01*
X31424809Y52685714D02*
X30924809Y52685714D01*
X30924809Y52685714D02*
X30996238Y52733333D01*
X30996238Y52733333D02*
X31043857Y52780952D01*
X31043857Y52780952D02*
X31067666Y52828571D01*
X30924809Y52376191D02*
X30924809Y52066667D01*
X30924809Y52066667D02*
X31115285Y52233334D01*
X31115285Y52233334D02*
X31115285Y52161905D01*
X31115285Y52161905D02*
X31139095Y52114286D01*
X31139095Y52114286D02*
X31162904Y52090477D01*
X31162904Y52090477D02*
X31210523Y52066667D01*
X31210523Y52066667D02*
X31329571Y52066667D01*
X31329571Y52066667D02*
X31377190Y52090477D01*
X31377190Y52090477D02*
X31401000Y52114286D01*
X31401000Y52114286D02*
X31424809Y52161905D01*
X31424809Y52161905D02*
X31424809Y52304762D01*
X31424809Y52304762D02*
X31401000Y52352381D01*
X31401000Y52352381D02*
X31377190Y52376191D01*
X30924809Y51638096D02*
X30924809Y51733334D01*
X30924809Y51733334D02*
X30948619Y51780953D01*
X30948619Y51780953D02*
X30972428Y51804763D01*
X30972428Y51804763D02*
X31043857Y51852382D01*
X31043857Y51852382D02*
X31139095Y51876191D01*
X31139095Y51876191D02*
X31329571Y51876191D01*
X31329571Y51876191D02*
X31377190Y51852382D01*
X31377190Y51852382D02*
X31401000Y51828572D01*
X31401000Y51828572D02*
X31424809Y51780953D01*
X31424809Y51780953D02*
X31424809Y51685715D01*
X31424809Y51685715D02*
X31401000Y51638096D01*
X31401000Y51638096D02*
X31377190Y51614287D01*
X31377190Y51614287D02*
X31329571Y51590477D01*
X31329571Y51590477D02*
X31210523Y51590477D01*
X31210523Y51590477D02*
X31162904Y51614287D01*
X31162904Y51614287D02*
X31139095Y51638096D01*
X31139095Y51638096D02*
X31115285Y51685715D01*
X31115285Y51685715D02*
X31115285Y51780953D01*
X31115285Y51780953D02*
X31139095Y51828572D01*
X31139095Y51828572D02*
X31162904Y51852382D01*
X31162904Y51852382D02*
X31210523Y51876191D01*
X22344046Y55075191D02*
X22058332Y55075191D01*
X22201189Y54575191D02*
X22201189Y55075191D01*
X21891666Y54575191D02*
X21891666Y55075191D01*
X21891666Y55075191D02*
X21701190Y55075191D01*
X21701190Y55075191D02*
X21653571Y55051381D01*
X21653571Y55051381D02*
X21629761Y55027572D01*
X21629761Y55027572D02*
X21605952Y54979953D01*
X21605952Y54979953D02*
X21605952Y54908524D01*
X21605952Y54908524D02*
X21629761Y54860905D01*
X21629761Y54860905D02*
X21653571Y54837096D01*
X21653571Y54837096D02*
X21701190Y54813286D01*
X21701190Y54813286D02*
X21891666Y54813286D01*
X21367856Y54575191D02*
X21272618Y54575191D01*
X21272618Y54575191D02*
X21224999Y54599000D01*
X21224999Y54599000D02*
X21201190Y54622810D01*
X21201190Y54622810D02*
X21153571Y54694239D01*
X21153571Y54694239D02*
X21129761Y54789477D01*
X21129761Y54789477D02*
X21129761Y54979953D01*
X21129761Y54979953D02*
X21153571Y55027572D01*
X21153571Y55027572D02*
X21177380Y55051381D01*
X21177380Y55051381D02*
X21224999Y55075191D01*
X21224999Y55075191D02*
X21320237Y55075191D01*
X21320237Y55075191D02*
X21367856Y55051381D01*
X21367856Y55051381D02*
X21391666Y55027572D01*
X21391666Y55027572D02*
X21415475Y54979953D01*
X21415475Y54979953D02*
X21415475Y54860905D01*
X21415475Y54860905D02*
X21391666Y54813286D01*
X21391666Y54813286D02*
X21367856Y54789477D01*
X21367856Y54789477D02*
X21320237Y54765667D01*
X21320237Y54765667D02*
X21224999Y54765667D01*
X21224999Y54765667D02*
X21177380Y54789477D01*
X21177380Y54789477D02*
X21153571Y54813286D01*
X21153571Y54813286D02*
X21129761Y54860905D01*
X20939285Y55027572D02*
X20915476Y55051381D01*
X20915476Y55051381D02*
X20867857Y55075191D01*
X20867857Y55075191D02*
X20748809Y55075191D01*
X20748809Y55075191D02*
X20701190Y55051381D01*
X20701190Y55051381D02*
X20677381Y55027572D01*
X20677381Y55027572D02*
X20653571Y54979953D01*
X20653571Y54979953D02*
X20653571Y54932334D01*
X20653571Y54932334D02*
X20677381Y54860905D01*
X20677381Y54860905D02*
X20963095Y54575191D01*
X20963095Y54575191D02*
X20653571Y54575191D01*
X36469046Y39425191D02*
X36183332Y39425191D01*
X36326189Y38925191D02*
X36326189Y39425191D01*
X36016666Y38925191D02*
X36016666Y39425191D01*
X36016666Y39425191D02*
X35826190Y39425191D01*
X35826190Y39425191D02*
X35778571Y39401381D01*
X35778571Y39401381D02*
X35754761Y39377572D01*
X35754761Y39377572D02*
X35730952Y39329953D01*
X35730952Y39329953D02*
X35730952Y39258524D01*
X35730952Y39258524D02*
X35754761Y39210905D01*
X35754761Y39210905D02*
X35778571Y39187096D01*
X35778571Y39187096D02*
X35826190Y39163286D01*
X35826190Y39163286D02*
X36016666Y39163286D01*
X35564285Y39425191D02*
X35254761Y39425191D01*
X35254761Y39425191D02*
X35421428Y39234715D01*
X35421428Y39234715D02*
X35349999Y39234715D01*
X35349999Y39234715D02*
X35302380Y39210905D01*
X35302380Y39210905D02*
X35278571Y39187096D01*
X35278571Y39187096D02*
X35254761Y39139477D01*
X35254761Y39139477D02*
X35254761Y39020429D01*
X35254761Y39020429D02*
X35278571Y38972810D01*
X35278571Y38972810D02*
X35302380Y38949000D01*
X35302380Y38949000D02*
X35349999Y38925191D01*
X35349999Y38925191D02*
X35492856Y38925191D01*
X35492856Y38925191D02*
X35540475Y38949000D01*
X35540475Y38949000D02*
X35564285Y38972810D01*
X35016666Y38925191D02*
X34921428Y38925191D01*
X34921428Y38925191D02*
X34873809Y38949000D01*
X34873809Y38949000D02*
X34850000Y38972810D01*
X34850000Y38972810D02*
X34802381Y39044239D01*
X34802381Y39044239D02*
X34778571Y39139477D01*
X34778571Y39139477D02*
X34778571Y39329953D01*
X34778571Y39329953D02*
X34802381Y39377572D01*
X34802381Y39377572D02*
X34826190Y39401381D01*
X34826190Y39401381D02*
X34873809Y39425191D01*
X34873809Y39425191D02*
X34969047Y39425191D01*
X34969047Y39425191D02*
X35016666Y39401381D01*
X35016666Y39401381D02*
X35040476Y39377572D01*
X35040476Y39377572D02*
X35064285Y39329953D01*
X35064285Y39329953D02*
X35064285Y39210905D01*
X35064285Y39210905D02*
X35040476Y39163286D01*
X35040476Y39163286D02*
X35016666Y39139477D01*
X35016666Y39139477D02*
X34969047Y39115667D01*
X34969047Y39115667D02*
X34873809Y39115667D01*
X34873809Y39115667D02*
X34826190Y39139477D01*
X34826190Y39139477D02*
X34802381Y39163286D01*
X34802381Y39163286D02*
X34778571Y39210905D01*
X21874809Y44119047D02*
X21874809Y43833333D01*
X22374809Y43976190D02*
X21874809Y43976190D01*
X22374809Y43666667D02*
X21874809Y43666667D01*
X21874809Y43666667D02*
X21874809Y43476191D01*
X21874809Y43476191D02*
X21898619Y43428572D01*
X21898619Y43428572D02*
X21922428Y43404762D01*
X21922428Y43404762D02*
X21970047Y43380953D01*
X21970047Y43380953D02*
X22041476Y43380953D01*
X22041476Y43380953D02*
X22089095Y43404762D01*
X22089095Y43404762D02*
X22112904Y43428572D01*
X22112904Y43428572D02*
X22136714Y43476191D01*
X22136714Y43476191D02*
X22136714Y43666667D01*
X21874809Y42952381D02*
X21874809Y43047619D01*
X21874809Y43047619D02*
X21898619Y43095238D01*
X21898619Y43095238D02*
X21922428Y43119048D01*
X21922428Y43119048D02*
X21993857Y43166667D01*
X21993857Y43166667D02*
X22089095Y43190476D01*
X22089095Y43190476D02*
X22279571Y43190476D01*
X22279571Y43190476D02*
X22327190Y43166667D01*
X22327190Y43166667D02*
X22351000Y43142857D01*
X22351000Y43142857D02*
X22374809Y43095238D01*
X22374809Y43095238D02*
X22374809Y43000000D01*
X22374809Y43000000D02*
X22351000Y42952381D01*
X22351000Y42952381D02*
X22327190Y42928572D01*
X22327190Y42928572D02*
X22279571Y42904762D01*
X22279571Y42904762D02*
X22160523Y42904762D01*
X22160523Y42904762D02*
X22112904Y42928572D01*
X22112904Y42928572D02*
X22089095Y42952381D01*
X22089095Y42952381D02*
X22065285Y43000000D01*
X22065285Y43000000D02*
X22065285Y43095238D01*
X22065285Y43095238D02*
X22089095Y43142857D01*
X22089095Y43142857D02*
X22112904Y43166667D01*
X22112904Y43166667D02*
X22160523Y43190476D01*
X22041476Y42476191D02*
X22374809Y42476191D01*
X21851000Y42595239D02*
X22208142Y42714286D01*
X22208142Y42714286D02*
X22208142Y42404763D01*
X41069046Y43775191D02*
X40783332Y43775191D01*
X40926189Y43275191D02*
X40926189Y43775191D01*
X40616666Y43275191D02*
X40616666Y43775191D01*
X40616666Y43775191D02*
X40426190Y43775191D01*
X40426190Y43775191D02*
X40378571Y43751381D01*
X40378571Y43751381D02*
X40354761Y43727572D01*
X40354761Y43727572D02*
X40330952Y43679953D01*
X40330952Y43679953D02*
X40330952Y43608524D01*
X40330952Y43608524D02*
X40354761Y43560905D01*
X40354761Y43560905D02*
X40378571Y43537096D01*
X40378571Y43537096D02*
X40426190Y43513286D01*
X40426190Y43513286D02*
X40616666Y43513286D01*
X40092856Y43275191D02*
X39997618Y43275191D01*
X39997618Y43275191D02*
X39949999Y43299000D01*
X39949999Y43299000D02*
X39926190Y43322810D01*
X39926190Y43322810D02*
X39878571Y43394239D01*
X39878571Y43394239D02*
X39854761Y43489477D01*
X39854761Y43489477D02*
X39854761Y43679953D01*
X39854761Y43679953D02*
X39878571Y43727572D01*
X39878571Y43727572D02*
X39902380Y43751381D01*
X39902380Y43751381D02*
X39949999Y43775191D01*
X39949999Y43775191D02*
X40045237Y43775191D01*
X40045237Y43775191D02*
X40092856Y43751381D01*
X40092856Y43751381D02*
X40116666Y43727572D01*
X40116666Y43727572D02*
X40140475Y43679953D01*
X40140475Y43679953D02*
X40140475Y43560905D01*
X40140475Y43560905D02*
X40116666Y43513286D01*
X40116666Y43513286D02*
X40092856Y43489477D01*
X40092856Y43489477D02*
X40045237Y43465667D01*
X40045237Y43465667D02*
X39949999Y43465667D01*
X39949999Y43465667D02*
X39902380Y43489477D01*
X39902380Y43489477D02*
X39878571Y43513286D01*
X39878571Y43513286D02*
X39854761Y43560905D01*
X39616666Y43275191D02*
X39521428Y43275191D01*
X39521428Y43275191D02*
X39473809Y43299000D01*
X39473809Y43299000D02*
X39450000Y43322810D01*
X39450000Y43322810D02*
X39402381Y43394239D01*
X39402381Y43394239D02*
X39378571Y43489477D01*
X39378571Y43489477D02*
X39378571Y43679953D01*
X39378571Y43679953D02*
X39402381Y43727572D01*
X39402381Y43727572D02*
X39426190Y43751381D01*
X39426190Y43751381D02*
X39473809Y43775191D01*
X39473809Y43775191D02*
X39569047Y43775191D01*
X39569047Y43775191D02*
X39616666Y43751381D01*
X39616666Y43751381D02*
X39640476Y43727572D01*
X39640476Y43727572D02*
X39664285Y43679953D01*
X39664285Y43679953D02*
X39664285Y43560905D01*
X39664285Y43560905D02*
X39640476Y43513286D01*
X39640476Y43513286D02*
X39616666Y43489477D01*
X39616666Y43489477D02*
X39569047Y43465667D01*
X39569047Y43465667D02*
X39473809Y43465667D01*
X39473809Y43465667D02*
X39426190Y43489477D01*
X39426190Y43489477D02*
X39402381Y43513286D01*
X39402381Y43513286D02*
X39378571Y43560905D01*
X24624809Y43207142D02*
X24624809Y42921428D01*
X25124809Y43064285D02*
X24624809Y43064285D01*
X25124809Y42754762D02*
X24624809Y42754762D01*
X24624809Y42754762D02*
X24624809Y42564286D01*
X24624809Y42564286D02*
X24648619Y42516667D01*
X24648619Y42516667D02*
X24672428Y42492857D01*
X24672428Y42492857D02*
X24720047Y42469048D01*
X24720047Y42469048D02*
X24791476Y42469048D01*
X24791476Y42469048D02*
X24839095Y42492857D01*
X24839095Y42492857D02*
X24862904Y42516667D01*
X24862904Y42516667D02*
X24886714Y42564286D01*
X24886714Y42564286D02*
X24886714Y42754762D01*
X25124809Y41992857D02*
X25124809Y42278571D01*
X25124809Y42135714D02*
X24624809Y42135714D01*
X24624809Y42135714D02*
X24696238Y42183333D01*
X24696238Y42183333D02*
X24743857Y42230952D01*
X24743857Y42230952D02*
X24767666Y42278571D01*
X24624809Y41564286D02*
X24624809Y41659524D01*
X24624809Y41659524D02*
X24648619Y41707143D01*
X24648619Y41707143D02*
X24672428Y41730953D01*
X24672428Y41730953D02*
X24743857Y41778572D01*
X24743857Y41778572D02*
X24839095Y41802381D01*
X24839095Y41802381D02*
X25029571Y41802381D01*
X25029571Y41802381D02*
X25077190Y41778572D01*
X25077190Y41778572D02*
X25101000Y41754762D01*
X25101000Y41754762D02*
X25124809Y41707143D01*
X25124809Y41707143D02*
X25124809Y41611905D01*
X25124809Y41611905D02*
X25101000Y41564286D01*
X25101000Y41564286D02*
X25077190Y41540477D01*
X25077190Y41540477D02*
X25029571Y41516667D01*
X25029571Y41516667D02*
X24910523Y41516667D01*
X24910523Y41516667D02*
X24862904Y41540477D01*
X24862904Y41540477D02*
X24839095Y41564286D01*
X24839095Y41564286D02*
X24815285Y41611905D01*
X24815285Y41611905D02*
X24815285Y41707143D01*
X24815285Y41707143D02*
X24839095Y41754762D01*
X24839095Y41754762D02*
X24862904Y41778572D01*
X24862904Y41778572D02*
X24910523Y41802381D01*
X24672428Y41326191D02*
X24648619Y41302382D01*
X24648619Y41302382D02*
X24624809Y41254763D01*
X24624809Y41254763D02*
X24624809Y41135715D01*
X24624809Y41135715D02*
X24648619Y41088096D01*
X24648619Y41088096D02*
X24672428Y41064287D01*
X24672428Y41064287D02*
X24720047Y41040477D01*
X24720047Y41040477D02*
X24767666Y41040477D01*
X24767666Y41040477D02*
X24839095Y41064287D01*
X24839095Y41064287D02*
X25124809Y41350001D01*
X25124809Y41350001D02*
X25124809Y41040477D01*
X33807141Y46175191D02*
X33521427Y46175191D01*
X33664284Y45675191D02*
X33664284Y46175191D01*
X33354761Y45675191D02*
X33354761Y46175191D01*
X33354761Y46175191D02*
X33164285Y46175191D01*
X33164285Y46175191D02*
X33116666Y46151381D01*
X33116666Y46151381D02*
X33092856Y46127572D01*
X33092856Y46127572D02*
X33069047Y46079953D01*
X33069047Y46079953D02*
X33069047Y46008524D01*
X33069047Y46008524D02*
X33092856Y45960905D01*
X33092856Y45960905D02*
X33116666Y45937096D01*
X33116666Y45937096D02*
X33164285Y45913286D01*
X33164285Y45913286D02*
X33354761Y45913286D01*
X32592856Y45675191D02*
X32878570Y45675191D01*
X32735713Y45675191D02*
X32735713Y46175191D01*
X32735713Y46175191D02*
X32783332Y46103762D01*
X32783332Y46103762D02*
X32830951Y46056143D01*
X32830951Y46056143D02*
X32878570Y46032334D01*
X32426190Y46175191D02*
X32116666Y46175191D01*
X32116666Y46175191D02*
X32283333Y45984715D01*
X32283333Y45984715D02*
X32211904Y45984715D01*
X32211904Y45984715D02*
X32164285Y45960905D01*
X32164285Y45960905D02*
X32140476Y45937096D01*
X32140476Y45937096D02*
X32116666Y45889477D01*
X32116666Y45889477D02*
X32116666Y45770429D01*
X32116666Y45770429D02*
X32140476Y45722810D01*
X32140476Y45722810D02*
X32164285Y45699000D01*
X32164285Y45699000D02*
X32211904Y45675191D01*
X32211904Y45675191D02*
X32354761Y45675191D01*
X32354761Y45675191D02*
X32402380Y45699000D01*
X32402380Y45699000D02*
X32426190Y45722810D01*
X31830952Y45960905D02*
X31878571Y45984715D01*
X31878571Y45984715D02*
X31902381Y46008524D01*
X31902381Y46008524D02*
X31926190Y46056143D01*
X31926190Y46056143D02*
X31926190Y46079953D01*
X31926190Y46079953D02*
X31902381Y46127572D01*
X31902381Y46127572D02*
X31878571Y46151381D01*
X31878571Y46151381D02*
X31830952Y46175191D01*
X31830952Y46175191D02*
X31735714Y46175191D01*
X31735714Y46175191D02*
X31688095Y46151381D01*
X31688095Y46151381D02*
X31664286Y46127572D01*
X31664286Y46127572D02*
X31640476Y46079953D01*
X31640476Y46079953D02*
X31640476Y46056143D01*
X31640476Y46056143D02*
X31664286Y46008524D01*
X31664286Y46008524D02*
X31688095Y45984715D01*
X31688095Y45984715D02*
X31735714Y45960905D01*
X31735714Y45960905D02*
X31830952Y45960905D01*
X31830952Y45960905D02*
X31878571Y45937096D01*
X31878571Y45937096D02*
X31902381Y45913286D01*
X31902381Y45913286D02*
X31926190Y45865667D01*
X31926190Y45865667D02*
X31926190Y45770429D01*
X31926190Y45770429D02*
X31902381Y45722810D01*
X31902381Y45722810D02*
X31878571Y45699000D01*
X31878571Y45699000D02*
X31830952Y45675191D01*
X31830952Y45675191D02*
X31735714Y45675191D01*
X31735714Y45675191D02*
X31688095Y45699000D01*
X31688095Y45699000D02*
X31664286Y45722810D01*
X31664286Y45722810D02*
X31640476Y45770429D01*
X31640476Y45770429D02*
X31640476Y45865667D01*
X31640476Y45865667D02*
X31664286Y45913286D01*
X31664286Y45913286D02*
X31688095Y45937096D01*
X31688095Y45937096D02*
X31735714Y45960905D01*
%TO.C,TP170*%
D10*
X23800000Y37100000D02*
G75*
G02*
X22600000Y37100000I-600000J0D01*
G01*
X22600000Y37100000D02*
G75*
G02*
X23800000Y37100000I600000J0D01*
G01*
%TO.C,TP91*%
X19300000Y54300000D02*
G75*
G02*
X18100000Y54300000I-600000J0D01*
G01*
X18100000Y54300000D02*
G75*
G02*
X19300000Y54300000I600000J0D01*
G01*
%TO.C,TP124*%
X25100000Y37100000D02*
G75*
G02*
X23900000Y37100000I-600000J0D01*
G01*
X23900000Y37100000D02*
G75*
G02*
X25100000Y37100000I600000J0D01*
G01*
%TO.C,TP33*%
X19500000Y56040000D02*
G75*
G02*
X18300000Y56040000I-600000J0D01*
G01*
X18300000Y56040000D02*
G75*
G02*
X19500000Y56040000I600000J0D01*
G01*
%TO.C,TP77*%
X28200000Y41000000D02*
G75*
G02*
X27000000Y41000000I-600000J0D01*
G01*
X27000000Y41000000D02*
G75*
G02*
X28200000Y41000000I600000J0D01*
G01*
%TO.C,TP143*%
X65900000Y86650000D02*
G75*
G02*
X64700000Y86650000I-600000J0D01*
G01*
X64700000Y86650000D02*
G75*
G02*
X65900000Y86650000I600000J0D01*
G01*
%TO.C,TP121*%
X38400000Y50500000D02*
G75*
G02*
X37200000Y50500000I-600000J0D01*
G01*
X37200000Y50500000D02*
G75*
G02*
X38400000Y50500000I600000J0D01*
G01*
%TO.C,TP98*%
X37800000Y43500000D02*
G75*
G02*
X36600000Y43500000I-600000J0D01*
G01*
X36600000Y43500000D02*
G75*
G02*
X37800000Y43500000I600000J0D01*
G01*
%TO.C,TP142*%
X65900000Y92000000D02*
G75*
G02*
X64700000Y92000000I-600000J0D01*
G01*
X64700000Y92000000D02*
G75*
G02*
X65900000Y92000000I600000J0D01*
G01*
%TO.C,TP69*%
X27000000Y53000000D02*
G75*
G02*
X25800000Y53000000I-600000J0D01*
G01*
X25800000Y53000000D02*
G75*
G02*
X27000000Y53000000I600000J0D01*
G01*
%TO.C,TP125*%
X20600000Y50500000D02*
G75*
G02*
X19400000Y50500000I-600000J0D01*
G01*
X19400000Y50500000D02*
G75*
G02*
X20600000Y50500000I600000J0D01*
G01*
%TO.C,TP30*%
X60800000Y86650000D02*
G75*
G02*
X59600000Y86650000I-600000J0D01*
G01*
X59600000Y86650000D02*
G75*
G02*
X60800000Y86650000I600000J0D01*
G01*
%TO.C,TP131*%
X23800000Y43400000D02*
G75*
G02*
X22600000Y43400000I-600000J0D01*
G01*
X22600000Y43400000D02*
G75*
G02*
X23800000Y43400000I600000J0D01*
G01*
%TO.C,TP118*%
X37100000Y53000000D02*
G75*
G02*
X35900000Y53000000I-600000J0D01*
G01*
X35900000Y53000000D02*
G75*
G02*
X37100000Y53000000I600000J0D01*
G01*
%TO.C,TP29*%
X60750000Y92000000D02*
G75*
G02*
X59550000Y92000000I-600000J0D01*
G01*
X59550000Y92000000D02*
G75*
G02*
X60750000Y92000000I600000J0D01*
G01*
%TO.C,TP128*%
X32700000Y37200000D02*
G75*
G02*
X31500000Y37200000I-600000J0D01*
G01*
X31500000Y37200000D02*
G75*
G02*
X32700000Y37200000I600000J0D01*
G01*
%TO.C,TP134*%
X34600000Y53000000D02*
G75*
G02*
X33400000Y53000000I-600000J0D01*
G01*
X33400000Y53000000D02*
G75*
G02*
X34600000Y53000000I600000J0D01*
G01*
%TO.C,TP123*%
X19300000Y50500000D02*
G75*
G02*
X18100000Y50500000I-600000J0D01*
G01*
X18100000Y50500000D02*
G75*
G02*
X19300000Y50500000I600000J0D01*
G01*
%TO.C,TP153*%
X53150000Y86400000D02*
G75*
G02*
X51950000Y86400000I-600000J0D01*
G01*
X51950000Y86400000D02*
G75*
G02*
X53150000Y86400000I600000J0D01*
G01*
%TO.C,TP46*%
X28200000Y39700000D02*
G75*
G02*
X27000000Y39700000I-600000J0D01*
G01*
X27000000Y39700000D02*
G75*
G02*
X28200000Y39700000I600000J0D01*
G01*
%TO.C,TP144*%
X64600000Y92000000D02*
G75*
G02*
X63400000Y92000000I-600000J0D01*
G01*
X63400000Y92000000D02*
G75*
G02*
X64600000Y92000000I600000J0D01*
G01*
%TO.C,TP76*%
X26900000Y41600000D02*
G75*
G02*
X25700000Y41600000I-600000J0D01*
G01*
X25700000Y41600000D02*
G75*
G02*
X26900000Y41600000I600000J0D01*
G01*
%TO.C,TP132*%
X23800000Y52400000D02*
G75*
G02*
X22600000Y52400000I-600000J0D01*
G01*
X22600000Y52400000D02*
G75*
G02*
X23800000Y52400000I600000J0D01*
G01*
%TO.C,TP120*%
X37200000Y51800000D02*
G75*
G02*
X36000000Y51800000I-600000J0D01*
G01*
X36000000Y51800000D02*
G75*
G02*
X37200000Y51800000I600000J0D01*
G01*
%TO.C,TP119*%
X35900000Y53000000D02*
G75*
G02*
X34700000Y53000000I-600000J0D01*
G01*
X34700000Y53000000D02*
G75*
G02*
X35900000Y53000000I600000J0D01*
G01*
%TO.C,TP20*%
X23200000Y49200000D02*
G75*
G02*
X22000000Y49200000I-600000J0D01*
G01*
X22000000Y49200000D02*
G75*
G02*
X23200000Y49200000I600000J0D01*
G01*
%TO.C,TP89*%
X26900000Y40300000D02*
G75*
G02*
X25700000Y40300000I-600000J0D01*
G01*
X25700000Y40300000D02*
G75*
G02*
X26900000Y40300000I600000J0D01*
G01*
%TO.C,TP65*%
X21800000Y41600000D02*
G75*
G02*
X20600000Y41600000I-600000J0D01*
G01*
X20600000Y41600000D02*
G75*
G02*
X21800000Y41600000I600000J0D01*
G01*
%TO.C,TP35*%
X25370000Y56430000D02*
G75*
G02*
X24170000Y56430000I-600000J0D01*
G01*
X24170000Y56430000D02*
G75*
G02*
X25370000Y56430000I600000J0D01*
G01*
%TO.C,TP59*%
X30300000Y61600000D02*
G75*
G02*
X28900000Y61600000I-700000J0D01*
G01*
X28900000Y61600000D02*
G75*
G02*
X30300000Y61600000I700000J0D01*
G01*
%TO.C,TP137*%
X36500000Y44800000D02*
G75*
G02*
X35300000Y44800000I-600000J0D01*
G01*
X35300000Y44800000D02*
G75*
G02*
X36500000Y44800000I600000J0D01*
G01*
%TO.C,TP38*%
X33300000Y39700000D02*
G75*
G02*
X32100000Y39700000I-600000J0D01*
G01*
X32100000Y39700000D02*
G75*
G02*
X33300000Y39700000I600000J0D01*
G01*
%TO.C,TP114*%
X37100000Y50500000D02*
G75*
G02*
X35900000Y50500000I-600000J0D01*
G01*
X35900000Y50500000D02*
G75*
G02*
X37100000Y50500000I600000J0D01*
G01*
%TO.C,TP133*%
X38975000Y32850000D02*
G75*
G02*
X37775000Y32850000I-600000J0D01*
G01*
X37775000Y32850000D02*
G75*
G02*
X38975000Y32850000I600000J0D01*
G01*
%TO.C,TP67*%
X29600000Y54300000D02*
G75*
G02*
X28400000Y54300000I-600000J0D01*
G01*
X28400000Y54300000D02*
G75*
G02*
X29600000Y54300000I600000J0D01*
G01*
%TO.C,TP19*%
X23200000Y50500000D02*
G75*
G02*
X22000000Y50500000I-600000J0D01*
G01*
X22000000Y50500000D02*
G75*
G02*
X23200000Y50500000I600000J0D01*
G01*
%TO.C,TP68*%
X27000000Y37800000D02*
G75*
G02*
X25800000Y37800000I-600000J0D01*
G01*
X25800000Y37800000D02*
G75*
G02*
X27000000Y37800000I600000J0D01*
G01*
%TO.C,TP34*%
X25290000Y58230000D02*
G75*
G02*
X24090000Y58230000I-600000J0D01*
G01*
X24090000Y58230000D02*
G75*
G02*
X25290000Y58230000I600000J0D01*
G01*
%TO.C,TP113*%
X35850000Y50450000D02*
G75*
G02*
X34650000Y50450000I-600000J0D01*
G01*
X34650000Y50450000D02*
G75*
G02*
X35850000Y50450000I600000J0D01*
G01*
%TO.C,TP66*%
X20400000Y41100000D02*
G75*
G02*
X19200000Y41100000I-600000J0D01*
G01*
X19200000Y41100000D02*
G75*
G02*
X20400000Y41100000I600000J0D01*
G01*
%TO.C,TP139*%
X38400000Y46700000D02*
G75*
G02*
X37200000Y46700000I-600000J0D01*
G01*
X37200000Y46700000D02*
G75*
G02*
X38400000Y46700000I600000J0D01*
G01*
%TO.C,TP127*%
X35200000Y43500000D02*
G75*
G02*
X34000000Y43500000I-600000J0D01*
G01*
X34000000Y43500000D02*
G75*
G02*
X35200000Y43500000I600000J0D01*
G01*
%TO.C,TP116*%
X35900000Y51800000D02*
G75*
G02*
X34700000Y51800000I-600000J0D01*
G01*
X34700000Y51800000D02*
G75*
G02*
X35900000Y51800000I600000J0D01*
G01*
%TO.C,TP94*%
X20600000Y53000000D02*
G75*
G02*
X19400000Y53000000I-600000J0D01*
G01*
X19400000Y53000000D02*
G75*
G02*
X20600000Y53000000I600000J0D01*
G01*
%TO.C,TP130*%
X24400000Y41600000D02*
G75*
G02*
X23200000Y41600000I-600000J0D01*
G01*
X23200000Y41600000D02*
G75*
G02*
X24400000Y41600000I600000J0D01*
G01*
%TO.C,TP21*%
X34600000Y50500000D02*
G75*
G02*
X33400000Y50500000I-600000J0D01*
G01*
X33400000Y50500000D02*
G75*
G02*
X34600000Y50500000I600000J0D01*
G01*
%TO.C,TP100*%
X37800000Y42300000D02*
G75*
G02*
X36600000Y42300000I-600000J0D01*
G01*
X36600000Y42300000D02*
G75*
G02*
X37800000Y42300000I600000J0D01*
G01*
%TO.C,TP41*%
X30570000Y58540000D02*
G75*
G02*
X29370000Y58540000I-600000J0D01*
G01*
X29370000Y58540000D02*
G75*
G02*
X30570000Y58540000I600000J0D01*
G01*
%TO.C,TP27*%
X20900000Y57150000D02*
G75*
G02*
X19700000Y57150000I-600000J0D01*
G01*
X19700000Y57150000D02*
G75*
G02*
X20900000Y57150000I600000J0D01*
G01*
%TO.C,TP117*%
X38400000Y52400000D02*
G75*
G02*
X37200000Y52400000I-600000J0D01*
G01*
X37200000Y52400000D02*
G75*
G02*
X38400000Y52400000I600000J0D01*
G01*
%TO.C,TP145*%
X64600000Y86650000D02*
G75*
G02*
X63400000Y86650000I-600000J0D01*
G01*
X63400000Y86650000D02*
G75*
G02*
X64600000Y86650000I600000J0D01*
G01*
%TO.C,TP48*%
X27000000Y39050000D02*
G75*
G02*
X25800000Y39050000I-600000J0D01*
G01*
X25800000Y39050000D02*
G75*
G02*
X27000000Y39050000I600000J0D01*
G01*
%TO.C,TP71*%
X35200000Y44750000D02*
G75*
G02*
X34000000Y44750000I-600000J0D01*
G01*
X34000000Y44750000D02*
G75*
G02*
X35200000Y44750000I600000J0D01*
G01*
%TO.C,TP152*%
X53200000Y92100000D02*
G75*
G02*
X52000000Y92100000I-600000J0D01*
G01*
X52000000Y92100000D02*
G75*
G02*
X53200000Y92100000I600000J0D01*
G01*
%TO.C,TP36*%
X31950000Y58150000D02*
G75*
G02*
X30750000Y58150000I-600000J0D01*
G01*
X30750000Y58150000D02*
G75*
G02*
X31950000Y58150000I600000J0D01*
G01*
%TO.C,TP90*%
X37100000Y49200000D02*
G75*
G02*
X35900000Y49200000I-600000J0D01*
G01*
X35900000Y49200000D02*
G75*
G02*
X37100000Y49200000I600000J0D01*
G01*
%TO.C,TP146*%
X63300000Y92000000D02*
G75*
G02*
X62100000Y92000000I-600000J0D01*
G01*
X62100000Y92000000D02*
G75*
G02*
X63300000Y92000000I600000J0D01*
G01*
%TO.C,TP42*%
X27010000Y36540000D02*
G75*
G02*
X25810000Y36540000I-600000J0D01*
G01*
X25810000Y36540000D02*
G75*
G02*
X27010000Y36540000I600000J0D01*
G01*
%TO.C,TP22*%
X35800000Y49200000D02*
G75*
G02*
X34600000Y49200000I-600000J0D01*
G01*
X34600000Y49200000D02*
G75*
G02*
X35800000Y49200000I600000J0D01*
G01*
%TO.C,TP93*%
X19300000Y53000000D02*
G75*
G02*
X18100000Y53000000I-600000J0D01*
G01*
X18100000Y53000000D02*
G75*
G02*
X19300000Y53000000I600000J0D01*
G01*
%TO.C,TP70*%
X35200000Y42200000D02*
G75*
G02*
X34000000Y42200000I-600000J0D01*
G01*
X34000000Y42200000D02*
G75*
G02*
X35200000Y42200000I600000J0D01*
G01*
%TO.C,TP97*%
X36500000Y43500000D02*
G75*
G02*
X35300000Y43500000I-600000J0D01*
G01*
X35300000Y43500000D02*
G75*
G02*
X36500000Y43500000I600000J0D01*
G01*
%TO.C,TP129*%
X30800000Y41600000D02*
G75*
G02*
X29600000Y41600000I-600000J0D01*
G01*
X29600000Y41600000D02*
G75*
G02*
X30800000Y41600000I600000J0D01*
G01*
%TO.C,TP47*%
X23100000Y40300000D02*
G75*
G02*
X21900000Y40300000I-600000J0D01*
G01*
X21900000Y40300000D02*
G75*
G02*
X23100000Y40300000I600000J0D01*
G01*
%TO.C,TP72*%
X36500000Y42200000D02*
G75*
G02*
X35300000Y42200000I-600000J0D01*
G01*
X35300000Y42200000D02*
G75*
G02*
X36500000Y42200000I600000J0D01*
G01*
%TO.C,TP147*%
X63350000Y86650000D02*
G75*
G02*
X62150000Y86650000I-600000J0D01*
G01*
X62150000Y86650000D02*
G75*
G02*
X63350000Y86650000I600000J0D01*
G01*
%TO.C,TP126*%
X25600000Y39100000D02*
G75*
G02*
X24400000Y39100000I-600000J0D01*
G01*
X24400000Y39100000D02*
G75*
G02*
X25600000Y39100000I600000J0D01*
G01*
%TO.C,TP136*%
X34600000Y51800000D02*
G75*
G02*
X33400000Y51800000I-600000J0D01*
G01*
X33400000Y51800000D02*
G75*
G02*
X34600000Y51800000I600000J0D01*
G01*
%TO.C,TP92*%
X20600000Y54300000D02*
G75*
G02*
X19400000Y54300000I-600000J0D01*
G01*
X19400000Y54300000D02*
G75*
G02*
X20600000Y54300000I600000J0D01*
G01*
%TO.C,TP39*%
X34800000Y40000000D02*
G75*
G02*
X33600000Y40000000I-600000J0D01*
G01*
X33600000Y40000000D02*
G75*
G02*
X34800000Y40000000I600000J0D01*
G01*
%TO.C,TP64*%
X23100000Y41600000D02*
G75*
G02*
X21900000Y41600000I-600000J0D01*
G01*
X21900000Y41600000D02*
G75*
G02*
X23100000Y41600000I600000J0D01*
G01*
%TO.C,TP99*%
X39000000Y43500000D02*
G75*
G02*
X37800000Y43500000I-600000J0D01*
G01*
X37800000Y43500000D02*
G75*
G02*
X39000000Y43500000I600000J0D01*
G01*
%TO.C,TP162*%
X25600000Y40300000D02*
G75*
G02*
X24400000Y40300000I-600000J0D01*
G01*
X24400000Y40300000D02*
G75*
G02*
X25600000Y40300000I600000J0D01*
G01*
%TO.C,TP138*%
X35200000Y46000000D02*
G75*
G02*
X34000000Y46000000I-600000J0D01*
G01*
X34000000Y46000000D02*
G75*
G02*
X35200000Y46000000I600000J0D01*
G01*
%TD*%
M02*
