%TF.GenerationSoftware,KiCad,Pcbnew,10.0.4*%
%TF.CreationDate,2026-07-16T14:59:28-06:00*%
%TF.ProjectId,esi-c3-hardware,6573692d-6333-42d6-9861-726477617265,7.0*%
%TF.SameCoordinates,PX42c1d80PY876bf80*%
%TF.FileFunction,Soldermask,Top*%
%TF.FilePolarity,Negative*%
%FSLAX46Y46*%
G04 Gerber Fmt 4.6, Leading zero omitted, Abs format (unit mm)*
G04 Created by KiCad (PCBNEW 10.0.4) date 2026-07-16 14:59:28*
%MOMM*%
%LPD*%
G01*
G04 APERTURE LIST*
G04 Aperture macros list*
%AMRoundRect*
0 Rectangle with rounded corners*
0 $1 Rounding radius*
0 $2 $3 $4 $5 $6 $7 $8 $9 X,Y pos of 4 corners*
0 Add a 4 corners polygon primitive as box body*
4,1,4,$2,$3,$4,$5,$6,$7,$8,$9,$2,$3,0*
0 Add four circle primitives for the rounded corners*
1,1,$1+$1,$2,$3*
1,1,$1+$1,$4,$5*
1,1,$1+$1,$6,$7*
1,1,$1+$1,$8,$9*
0 Add four rect primitives between the rounded corners*
20,1,$1+$1,$2,$3,$4,$5,0*
20,1,$1+$1,$4,$5,$6,$7,0*
20,1,$1+$1,$6,$7,$8,$9,0*
20,1,$1+$1,$8,$9,$2,$3,0*%
%AMRotRect*
0 Rectangle, with rotation*
0 The origin of the aperture is its center*
0 $1 length*
0 $2 width*
0 $3 Rotation angle, in degrees counterclockwise*
0 Add horizontal line*
21,1,$1,$2,0,0,$3*%
%AMFreePoly0*
4,1,7,0.203200,0.889000,0.762000,0.889000,0.762000,-1.016000,-0.889000,-1.016000,-0.889000,5.080000,0.203200,5.080000,0.203200,0.889000,0.203200,0.889000,$1*%
%AMFreePoly1*
4,1,7,0.889000,-1.016000,-0.762000,-1.016000,-0.762000,0.889000,-0.203200,0.889000,-0.203200,5.080000,0.889000,5.080000,0.889000,-1.016000,0.889000,-1.016000,$1*%
G04 Aperture macros list end*
%ADD10C,0.100000*%
%ADD11C,0.203500*%
%ADD12C,0.000000*%
%ADD13RoundRect,0.063500X0.355600X-0.635000X0.355600X0.635000X-0.355600X0.635000X-0.355600X-0.635000X0*%
%ADD14RoundRect,0.063500X-0.355600X0.635000X-0.355600X-0.635000X0.355600X-0.635000X0.355600X0.635000X0*%
%ADD15RoundRect,0.218750X0.256250X-0.218750X0.256250X0.218750X-0.256250X0.218750X-0.256250X-0.218750X0*%
%ADD16RoundRect,0.150000X0.300000X-0.150000X0.300000X0.150000X-0.300000X0.150000X-0.300000X-0.150000X0*%
%ADD17RoundRect,0.051000X-0.249000X-0.299000X0.249000X-0.299000X0.249000X0.299000X-0.249000X0.299000X0*%
%ADD18RoundRect,0.070000X0.080000X0.080000X-0.080000X0.080000X-0.080000X-0.080000X0.080000X-0.080000X0*%
%ADD19RoundRect,0.070000X0.280000X0.080000X-0.280000X0.080000X-0.280000X-0.080000X0.280000X-0.080000X0*%
%ADD20RoundRect,0.150000X0.150000X0.300000X-0.150000X0.300000X-0.150000X-0.300000X0.150000X-0.300000X0*%
%ADD21RoundRect,0.087500X-0.087500X0.425000X-0.087500X-0.425000X0.087500X-0.425000X0.087500X0.425000X0*%
%ADD22R,0.900000X0.420000*%
%ADD23R,1.700000X1.700000*%
%ADD24C,1.700000*%
%ADD25RotRect,0.127000X0.127000X135.000000*%
%ADD26RoundRect,0.250000X1.100000X-0.325000X1.100000X0.325000X-1.100000X0.325000X-1.100000X-0.325000X0*%
%ADD27RoundRect,0.218750X0.218750X0.256250X-0.218750X0.256250X-0.218750X-0.256250X0.218750X-0.256250X0*%
%ADD28R,0.380000X1.800000*%
%ADD29FreePoly0,0.000000*%
%ADD30FreePoly1,0.000000*%
%ADD31RoundRect,0.218750X-0.256250X0.218750X-0.256250X-0.218750X0.256250X-0.218750X0.256250X0.218750X0*%
%ADD32R,0.127000X0.127000*%
%ADD33RoundRect,0.200000X0.200000X0.275000X-0.200000X0.275000X-0.200000X-0.275000X0.200000X-0.275000X0*%
%ADD34C,1.000000*%
%ADD35RoundRect,0.150000X-0.300000X0.150000X-0.300000X-0.150000X0.300000X-0.150000X0.300000X0.150000X0*%
%ADD36RoundRect,0.218750X0.218750X0.381250X-0.218750X0.381250X-0.218750X-0.381250X0.218750X-0.381250X0*%
%ADD37RoundRect,0.199500X0.275500X0.475500X-0.275500X0.475500X-0.275500X-0.475500X0.275500X-0.475500X0*%
%ADD38R,0.400000X0.600000*%
%ADD39R,0.400000X1.700000*%
%ADD40RoundRect,0.150000X-0.150000X-0.300000X0.150000X-0.300000X0.150000X0.300000X-0.150000X0.300000X0*%
%ADD41RoundRect,0.125000X0.125000X-0.537500X0.125000X0.537500X-0.125000X0.537500X-0.125000X-0.537500X0*%
%ADD42R,2.400000X3.100000*%
%ADD43RoundRect,0.150000X0.737500X0.150000X-0.737500X0.150000X-0.737500X-0.150000X0.737500X-0.150000X0*%
%ADD44R,1.000000X1.000000*%
%ADD45RoundRect,0.051000X0.299000X-0.249000X0.299000X0.249000X-0.299000X0.249000X-0.299000X-0.249000X0*%
%ADD46RoundRect,0.062500X0.362500X0.062500X-0.362500X0.062500X-0.362500X-0.062500X0.362500X-0.062500X0*%
%ADD47C,0.457200*%
%ADD48R,1.650000X2.380000*%
%ADD49RoundRect,0.150000X-0.150000X0.587500X-0.150000X-0.587500X0.150000X-0.587500X0.150000X0.587500X0*%
%ADD50R,0.360000X1.000000*%
%ADD51RoundRect,0.162500X0.162500X-0.312500X0.162500X0.312500X-0.162500X0.312500X-0.162500X-0.312500X0*%
%ADD52RoundRect,0.147500X-0.172500X0.147500X-0.172500X-0.147500X0.172500X-0.147500X0.172500X0.147500X0*%
%ADD53R,0.800000X1.200000*%
%ADD54R,1.200000X0.800000*%
%ADD55R,1.700000X0.800000*%
%ADD56C,1.100000*%
%ADD57RoundRect,0.200000X-0.275000X0.200000X-0.275000X-0.200000X0.275000X-0.200000X0.275000X0.200000X0*%
%ADD58R,1.190000X0.810000*%
%ADD59R,0.810000X1.190000*%
%ADD60R,0.810000X1.700000*%
%ADD61RoundRect,0.063500X-0.635000X-0.355600X0.635000X-0.355600X0.635000X0.355600X-0.635000X0.355600X0*%
%ADD62RoundRect,0.063500X0.635000X0.355600X-0.635000X0.355600X-0.635000X-0.355600X0.635000X-0.355600X0*%
%ADD63R,4.550000X1.000000*%
%ADD64R,3.800000X1.000000*%
%ADD65R,1.000000X3.980000*%
%ADD66R,1.000000X3.800000*%
%ADD67R,0.540000X0.700000*%
%ADD68RoundRect,0.250000X-0.262500X-0.450000X0.262500X-0.450000X0.262500X0.450000X-0.262500X0.450000X0*%
%ADD69R,0.890000X2.160000*%
%ADD70RoundRect,0.250000X0.325000X1.100000X-0.325000X1.100000X-0.325000X-1.100000X0.325000X-1.100000X0*%
%ADD71RoundRect,0.250000X-0.325000X-1.100000X0.325000X-1.100000X0.325000X1.100000X-0.325000X1.100000X0*%
%ADD72RoundRect,0.150000X0.150000X-0.512500X0.150000X0.512500X-0.150000X0.512500X-0.150000X-0.512500X0*%
%ADD73RoundRect,0.112500X-0.187500X-0.112500X0.187500X-0.112500X0.187500X0.112500X-0.187500X0.112500X0*%
%ADD74RoundRect,0.250000X-1.045000X0.785000X-1.045000X-0.785000X1.045000X-0.785000X1.045000X0.785000X0*%
%ADD75O,1.092200X2.057400*%
%ADD76RoundRect,0.112500X0.112500X-0.187500X0.112500X0.187500X-0.112500X0.187500X-0.112500X-0.187500X0*%
%ADD77R,0.250000X0.250000*%
%ADD78R,1.200000X1.100000*%
%ADD79R,0.670000X0.300000*%
%ADD80R,0.700000X1.600000*%
%ADD81RoundRect,0.102000X0.900000X-0.450000X0.900000X0.450000X-0.900000X0.450000X-0.900000X-0.450000X0*%
%ADD82RoundRect,0.100000X0.100000X-0.637500X0.100000X0.637500X-0.100000X0.637500X-0.100000X-0.637500X0*%
%ADD83RoundRect,0.147500X0.147500X0.172500X-0.147500X0.172500X-0.147500X-0.172500X0.147500X-0.172500X0*%
%ADD84RoundRect,0.300000X0.850000X-0.525000X0.850000X0.525000X-0.850000X0.525000X-0.850000X-0.525000X0*%
%ADD85RoundRect,0.070000X-0.080000X-0.080000X0.080000X-0.080000X0.080000X0.080000X-0.080000X0.080000X0*%
%ADD86RoundRect,0.070000X-0.280000X-0.080000X0.280000X-0.080000X0.280000X0.080000X-0.280000X0.080000X0*%
%ADD87R,0.300000X0.670000*%
%ADD88R,1.600000X0.700000*%
%ADD89RoundRect,0.300000X-0.850000X0.525000X-0.850000X-0.525000X0.850000X-0.525000X0.850000X0.525000X0*%
%ADD90RoundRect,0.062500X0.375000X0.062500X-0.375000X0.062500X-0.375000X-0.062500X0.375000X-0.062500X0*%
%ADD91RoundRect,0.062500X0.062500X0.375000X-0.062500X0.375000X-0.062500X-0.375000X0.062500X-0.375000X0*%
%ADD92R,5.600000X5.600000*%
%ADD93R,0.700000X0.540000*%
%ADD94RoundRect,0.125000X-0.537500X-0.125000X0.537500X-0.125000X0.537500X0.125000X-0.537500X0.125000X0*%
%ADD95RoundRect,0.300000X0.525000X0.850000X-0.525000X0.850000X-0.525000X-0.850000X0.525000X-0.850000X0*%
%ADD96RoundRect,0.199500X-0.275500X-0.475500X0.275500X-0.475500X0.275500X0.475500X-0.275500X0.475500X0*%
%ADD97RoundRect,0.250000X-1.100000X0.325000X-1.100000X-0.325000X1.100000X-0.325000X1.100000X0.325000X0*%
%ADD98C,2.000000*%
%ADD99RoundRect,0.051000X-0.299000X0.249000X-0.299000X-0.249000X0.299000X-0.249000X0.299000X0.249000X0*%
%ADD100R,1.250000X1.600000*%
%ADD101RoundRect,0.087500X0.087500X-0.425000X0.087500X0.425000X-0.087500X0.425000X-0.087500X-0.425000X0*%
%ADD102RoundRect,0.218750X-0.218750X-0.256250X0.218750X-0.256250X0.218750X0.256250X-0.218750X0.256250X0*%
%ADD103R,0.600000X0.400000*%
%ADD104R,1.700000X0.400000*%
%ADD105RoundRect,0.199500X0.475500X-0.275500X0.475500X0.275500X-0.475500X0.275500X-0.475500X-0.275500X0*%
%ADD106RoundRect,0.051000X0.249000X0.299000X-0.249000X0.299000X-0.249000X-0.299000X0.249000X-0.299000X0*%
%ADD107RoundRect,0.150000X-0.587500X-0.150000X0.587500X-0.150000X0.587500X0.150000X-0.587500X0.150000X0*%
%ADD108R,0.800000X0.900000*%
%ADD109RoundRect,0.150000X-0.512500X-0.150000X0.512500X-0.150000X0.512500X0.150000X-0.512500X0.150000X0*%
%ADD110R,0.700000X1.400000*%
%ADD111R,0.700000X1.200000*%
%ADD112R,0.500000X0.500000*%
%ADD113R,1.500000X1.900000*%
%ADD114RoundRect,0.063500X0.000000X-0.148492X0.148492X0.000000X0.000000X0.148492X-0.148492X0.000000X0*%
%ADD115R,1.000000X1.400000*%
%ADD116R,1.200000X1.200000*%
%ADD117R,1.200000X3.200000*%
%ADD118R,0.420000X0.900000*%
%ADD119RoundRect,0.112500X-0.112500X0.187500X-0.112500X-0.187500X0.112500X-0.187500X0.112500X0.187500X0*%
%ADD120RoundRect,0.062500X0.062500X-0.337500X0.062500X0.337500X-0.062500X0.337500X-0.062500X-0.337500X0*%
%ADD121RoundRect,0.062500X0.337500X-0.062500X0.337500X0.062500X-0.337500X0.062500X-0.337500X-0.062500X0*%
%ADD122R,3.350000X3.350000*%
%ADD123RoundRect,0.100000X-0.350000X-0.100000X0.350000X-0.100000X0.350000X0.100000X-0.350000X0.100000X0*%
%ADD124RoundRect,0.150000X-0.825000X-0.150000X0.825000X-0.150000X0.825000X0.150000X-0.825000X0.150000X0*%
%ADD125RoundRect,0.300000X-0.525000X-0.850000X0.525000X-0.850000X0.525000X0.850000X-0.525000X0.850000X0*%
%ADD126RoundRect,0.062500X-0.062500X0.362500X-0.062500X-0.362500X0.062500X-0.362500X0.062500X0.362500X0*%
%ADD127R,2.380000X1.650000*%
%ADD128RoundRect,0.147500X0.172500X-0.147500X0.172500X0.147500X-0.172500X0.147500X-0.172500X-0.147500X0*%
%ADD129C,3.000000*%
%ADD130RoundRect,0.200000X0.275000X0.650000X-0.275000X0.650000X-0.275000X-0.650000X0.275000X-0.650000X0*%
%ADD131RoundRect,0.087500X-0.425000X-0.087500X0.425000X-0.087500X0.425000X0.087500X-0.425000X0.087500X0*%
%ADD132R,0.600000X1.250000*%
%ADD133R,0.900000X1.700000*%
%ADD134RoundRect,0.250000X-0.000010X0.000010X-0.000010X-0.000010X0.000010X-0.000010X0.000010X0.000010X0*%
%ADD135R,1.270000X0.860000*%
%ADD136R,2.650000X0.860000*%
%ADD137R,4.500000X3.860000*%
%ADD138RoundRect,0.087500X0.425000X0.087500X-0.425000X0.087500X-0.425000X-0.087500X0.425000X-0.087500X0*%
%ADD139RoundRect,0.063500X-0.550000X-0.950000X0.550000X-0.950000X0.550000X0.950000X-0.550000X0.950000X0*%
%ADD140R,3.100000X2.400000*%
%ADD141RoundRect,0.150000X-0.150000X0.737500X-0.150000X-0.737500X0.150000X-0.737500X0.150000X0.737500X0*%
%ADD142RoundRect,0.150000X0.150000X-0.587500X0.150000X0.587500X-0.150000X0.587500X-0.150000X-0.587500X0*%
%ADD143R,1.070000X0.610000*%
%ADD144RoundRect,0.150000X-0.150000X0.512500X-0.150000X-0.512500X0.150000X-0.512500X0.150000X0.512500X0*%
%ADD145C,1.180000*%
%ADD146C,1.100000*%
G04 APERTURE END LIST*
D10*
X61601848Y79708488D02*
X62039118Y79933488D01*
X62039118Y78708488D01*
X60989118Y79161144D01*
X61601848Y79708488D01*
G36*
X62039118Y78708488D02*
G01*
X60989118Y79161144D01*
X61601848Y79708488D01*
X62039118Y79933488D01*
X62039118Y78708488D01*
G37*
X77600000Y80050000D02*
X80200000Y82550000D01*
X80750000Y81600000D01*
X78300000Y79150000D01*
X77600000Y80050000D01*
G36*
X80750000Y81600000D02*
G01*
X78300000Y79150000D01*
X77600000Y80050000D01*
X80200000Y82550000D01*
X80750000Y81600000D01*
G37*
X80250000Y82600000D02*
X80737270Y82775000D01*
X80750000Y81600000D01*
X80150000Y82500000D01*
X80250000Y82600000D01*
G36*
X80750000Y81600000D02*
G01*
X80150000Y82500000D01*
X80250000Y82600000D01*
X80737270Y82775000D01*
X80750000Y81600000D01*
G37*
X93450000Y90550000D02*
X94137270Y90625000D01*
X94137270Y89400000D01*
X93450000Y89450000D01*
X93450000Y90550000D01*
G36*
X94137270Y89400000D02*
G01*
X93450000Y89450000D01*
X93450000Y90550000D01*
X94137270Y90625000D01*
X94137270Y89400000D01*
G37*
X61379833Y77958488D02*
X61379833Y77708488D01*
X60329833Y77708488D01*
X60379833Y78438488D01*
X60639118Y78758488D01*
X61379833Y77958488D01*
G36*
X61379833Y77958488D02*
G01*
X61379833Y77708488D01*
X60329833Y77708488D01*
X60379833Y78438488D01*
X60639118Y78758488D01*
X61379833Y77958488D01*
G37*
X66075000Y56850000D02*
X65650000Y56850000D01*
X65675000Y57575000D01*
X66525000Y57500000D01*
X66400000Y57250000D01*
X66075000Y56850000D01*
G36*
X66525000Y57500000D02*
G01*
X66400000Y57250000D01*
X66075000Y56850000D01*
X65650000Y56850000D01*
X65675000Y57575000D01*
X66525000Y57500000D01*
G37*
X85700000Y83100000D02*
X86287270Y83400000D01*
X86287270Y82175000D01*
X85925000Y81800000D01*
X85150000Y82525000D01*
X85700000Y83100000D01*
G36*
X86287270Y82175000D02*
G01*
X85925000Y81800000D01*
X85150000Y82525000D01*
X85700000Y83100000D01*
X86287270Y83400000D01*
X86287270Y82175000D01*
G37*
X91800000Y88950000D02*
X92000000Y89500000D01*
X92250000Y89900000D01*
X93050000Y89200000D01*
X92900000Y88950000D01*
X91800000Y88950000D01*
G36*
X93050000Y89200000D02*
G01*
X92900000Y88950000D01*
X91800000Y88950000D01*
X92000000Y89500000D01*
X92250000Y89900000D01*
X93050000Y89200000D01*
G37*
X92933712Y84350325D02*
X92900000Y83700000D01*
X92550000Y83100000D01*
X91750000Y83800000D01*
X91833712Y84350325D01*
X92933712Y84350325D01*
G36*
X92900000Y83700000D02*
G01*
X92550000Y83100000D01*
X91750000Y83800000D01*
X91833712Y84350325D01*
X92933712Y84350325D01*
X92900000Y83700000D01*
G37*
X96099675Y90533712D02*
X96750000Y90500000D01*
X97300000Y90150000D01*
X96650000Y89450000D01*
X96099675Y89433712D01*
X96099675Y90533712D01*
G36*
X96750000Y90500000D02*
G01*
X97300000Y90150000D01*
X96650000Y89450000D01*
X96099675Y89433712D01*
X96099675Y90533712D01*
X96750000Y90500000D01*
G37*
X97200000Y88700000D02*
X97100000Y89000000D01*
X97900000Y89500000D01*
X98200000Y89150000D01*
X98300000Y88700000D01*
X97200000Y88700000D01*
G36*
X98200000Y89150000D02*
G01*
X98300000Y88700000D01*
X97200000Y88700000D01*
X97100000Y89000000D01*
X97900000Y89500000D01*
X98200000Y89150000D01*
G37*
X98150000Y36550000D02*
X98800000Y36600000D01*
X99150000Y35650000D01*
X98700325Y35400000D01*
X98150000Y35400000D01*
X98150000Y36550000D01*
G36*
X99150000Y35650000D02*
G01*
X98700325Y35400000D01*
X98150000Y35400000D01*
X98150000Y36550000D01*
X98800000Y36600000D01*
X99150000Y35650000D01*
G37*
X63764118Y70508488D02*
X63139118Y69883488D01*
X62839118Y69233488D01*
X63591930Y68683488D01*
X64439118Y69558488D01*
X64439118Y70808488D01*
X63764118Y70508488D01*
G36*
X64439118Y69558488D02*
G01*
X63591930Y68683488D01*
X62839118Y69233488D01*
X63139118Y69883488D01*
X63764118Y70508488D01*
X64439118Y70808488D01*
X64439118Y69558488D01*
G37*
X74389118Y69508488D02*
X74389118Y69258488D01*
X73239118Y69258488D01*
X73239118Y69658488D01*
X73689118Y70508488D01*
X74250000Y69900000D01*
X74389118Y69508488D01*
G36*
X74250000Y69900000D02*
G01*
X74389118Y69508488D01*
X74389118Y69258488D01*
X73239118Y69258488D01*
X73239118Y69658488D01*
X73689118Y70508488D01*
X74250000Y69900000D01*
G37*
X64850000Y49475000D02*
X64400000Y49250000D01*
X64075000Y49488085D01*
X63875000Y49975000D01*
X63915382Y50800000D01*
X64950000Y50800000D01*
X64950000Y49900000D01*
X64850000Y49800000D01*
X64850000Y49475000D01*
G36*
X64950000Y49900000D02*
G01*
X64850000Y49800000D01*
X64850000Y49475000D01*
X64400000Y49250000D01*
X64075000Y49488085D01*
X63875000Y49975000D01*
X63915382Y50800000D01*
X64950000Y50800000D01*
X64950000Y49900000D01*
G37*
X60139118Y73058488D02*
X61539118Y73058488D01*
X61539118Y72108488D01*
X60139118Y72108488D01*
X60139118Y73058488D01*
G36*
X60139118Y73058488D02*
G01*
X61539118Y73058488D01*
X61539118Y72108488D01*
X60139118Y72108488D01*
X60139118Y73058488D01*
G37*
X60139118Y71658488D02*
X61539118Y71658488D01*
X61539118Y70158488D01*
X60139118Y70158488D01*
X60139118Y71658488D01*
G36*
X60139118Y71658488D02*
G01*
X61539118Y71658488D01*
X61539118Y70158488D01*
X60139118Y70158488D01*
X60139118Y71658488D01*
G37*
X60139118Y66658488D02*
X61339118Y66658488D01*
X61339118Y66058488D01*
X60139118Y66058488D01*
X60139118Y66658488D01*
G36*
X60139118Y66658488D02*
G01*
X61339118Y66658488D01*
X61339118Y66058488D01*
X60139118Y66058488D01*
X60139118Y66658488D01*
G37*
X60239118Y77383488D02*
X61389118Y77383488D01*
X61389118Y76433488D01*
X60239118Y76433488D01*
X60239118Y77383488D01*
G36*
X60239118Y77383488D02*
G01*
X61389118Y77383488D01*
X61389118Y76433488D01*
X60239118Y76433488D01*
X60239118Y77383488D01*
G37*
X60339118Y69158488D02*
X61339118Y69158488D01*
X61339118Y67058488D01*
X60339118Y67058488D01*
X60339118Y69158488D01*
G36*
X60339118Y69158488D02*
G01*
X61339118Y69158488D01*
X61339118Y67058488D01*
X60339118Y67058488D01*
X60339118Y69158488D01*
G37*
X62239118Y79958488D02*
X63739118Y79958488D01*
X63739118Y78558488D01*
X62239118Y78558488D01*
X62239118Y79958488D01*
G36*
X62239118Y79958488D02*
G01*
X63739118Y79958488D01*
X63739118Y78558488D01*
X62239118Y78558488D01*
X62239118Y79958488D01*
G37*
X62814118Y69233488D02*
X63964118Y69233488D01*
X63964118Y65208488D01*
X62814118Y65208488D01*
X62814118Y69233488D01*
G36*
X62814118Y69233488D02*
G01*
X63964118Y69233488D01*
X63964118Y65208488D01*
X62814118Y65208488D01*
X62814118Y69233488D01*
G37*
X63895748Y54418829D02*
X65145748Y54418829D01*
X65145748Y52918829D01*
X63895748Y52918829D01*
X63895748Y54418829D01*
G36*
X63895748Y54418829D02*
G01*
X65145748Y54418829D01*
X65145748Y52918829D01*
X63895748Y52918829D01*
X63895748Y54418829D01*
G37*
X63925000Y52512500D02*
X65075000Y52512500D01*
X65075000Y51037500D01*
X63925000Y51037500D01*
X63925000Y52512500D01*
G36*
X63925000Y52512500D02*
G01*
X65075000Y52512500D01*
X65075000Y51037500D01*
X63925000Y51037500D01*
X63925000Y52512500D01*
G37*
X63950000Y55612500D02*
X65025000Y55612500D01*
X65025000Y54637500D01*
X63950000Y54637500D01*
X63950000Y55612500D01*
G36*
X63950000Y55612500D02*
G01*
X65025000Y55612500D01*
X65025000Y54637500D01*
X63950000Y54637500D01*
X63950000Y55612500D01*
G37*
X64689118Y79758488D02*
X66789118Y79758488D01*
X66789118Y78758488D01*
X64689118Y78758488D01*
X64689118Y79758488D01*
G36*
X64689118Y79758488D02*
G01*
X66789118Y79758488D01*
X66789118Y78758488D01*
X64689118Y78758488D01*
X64689118Y79758488D01*
G37*
X64689118Y70908488D02*
X66189118Y70908488D01*
X66189118Y69508488D01*
X64689118Y69508488D01*
X64689118Y70908488D01*
G36*
X64689118Y70908488D02*
G01*
X66189118Y70908488D01*
X66189118Y69508488D01*
X64689118Y69508488D01*
X64689118Y70908488D01*
G37*
X66589118Y70908488D02*
X67189118Y70908488D01*
X67189118Y69708488D01*
X66589118Y69708488D01*
X66589118Y70908488D01*
G36*
X66589118Y70908488D02*
G01*
X67189118Y70908488D01*
X67189118Y69708488D01*
X66589118Y69708488D01*
X66589118Y70908488D01*
G37*
X67739118Y79958488D02*
X69239118Y79958488D01*
X69239118Y78558488D01*
X67739118Y78558488D01*
X67739118Y79958488D01*
G36*
X67739118Y79958488D02*
G01*
X69239118Y79958488D01*
X69239118Y78558488D01*
X67739118Y78558488D01*
X67739118Y79958488D01*
G37*
X69489118Y79958488D02*
X70889118Y79958488D01*
X70889118Y78558488D01*
X69489118Y78558488D01*
X69489118Y79958488D01*
G36*
X69489118Y79958488D02*
G01*
X70889118Y79958488D01*
X70889118Y78558488D01*
X69489118Y78558488D01*
X69489118Y79958488D01*
G37*
X73239118Y69008488D02*
X74539118Y69008488D01*
X74539118Y67483488D01*
X73239118Y67483488D01*
X73239118Y69008488D01*
G36*
X73239118Y69008488D02*
G01*
X74539118Y69008488D01*
X74539118Y67483488D01*
X73239118Y67483488D01*
X73239118Y69008488D01*
G37*
X73364118Y67283488D02*
X74414118Y67283488D01*
X74414118Y59883488D01*
X73364118Y59883488D01*
X73364118Y67283488D01*
G36*
X73364118Y67283488D02*
G01*
X74414118Y67283488D01*
X74414118Y59883488D01*
X73364118Y59883488D01*
X73364118Y67283488D01*
G37*
X74239118Y79958488D02*
X75739118Y79958488D01*
X75739118Y78558488D01*
X74239118Y78558488D01*
X74239118Y79958488D01*
G36*
X74239118Y79958488D02*
G01*
X75739118Y79958488D01*
X75739118Y78558488D01*
X74239118Y78558488D01*
X74239118Y79958488D01*
G37*
X76014118Y79808488D02*
X77114118Y79808488D01*
X77114118Y78708488D01*
X76014118Y78708488D01*
X76014118Y79808488D01*
G36*
X76014118Y79808488D02*
G01*
X77114118Y79808488D01*
X77114118Y78708488D01*
X76014118Y78708488D01*
X76014118Y79808488D01*
G37*
X79850000Y42212500D02*
X80850000Y42212500D01*
X80850000Y40887500D01*
X79850000Y40887500D01*
X79850000Y42212500D01*
G36*
X79850000Y42212500D02*
G01*
X80850000Y42212500D01*
X80850000Y40887500D01*
X79850000Y40887500D01*
X79850000Y42212500D01*
G37*
X80650000Y85050000D02*
X81750000Y85050000D01*
X81750000Y84350000D01*
X80650000Y84350000D01*
X80650000Y85050000D01*
G36*
X80650000Y85050000D02*
G01*
X81750000Y85050000D01*
X81750000Y84350000D01*
X80650000Y84350000D01*
X80650000Y85050000D01*
G37*
X80948437Y84115214D02*
X81698437Y84115214D01*
X81698437Y81615214D01*
X80948437Y81615214D01*
X80948437Y84115214D01*
G36*
X80948437Y84115214D02*
G01*
X81698437Y84115214D01*
X81698437Y81615214D01*
X80948437Y81615214D01*
X80948437Y84115214D01*
G37*
X81950000Y49100000D02*
X83100000Y49100000D01*
X83100000Y43700000D01*
X81950000Y43700000D01*
X81950000Y49100000D01*
G36*
X81950000Y49100000D02*
G01*
X83100000Y49100000D01*
X83100000Y43700000D01*
X81950000Y43700000D01*
X81950000Y49100000D01*
G37*
X84650000Y73275000D02*
X85725000Y73275000D01*
X85725000Y72850000D01*
X84650000Y72850000D01*
X84650000Y73275000D01*
G36*
X84650000Y73275000D02*
G01*
X85725000Y73275000D01*
X85725000Y72850000D01*
X84650000Y72850000D01*
X84650000Y73275000D01*
G37*
X86475000Y61350000D02*
X88000000Y61350000D01*
X88000000Y60250000D01*
X86475000Y60250000D01*
X86475000Y61350000D01*
G36*
X86475000Y61350000D02*
G01*
X88000000Y61350000D01*
X88000000Y60250000D01*
X86475000Y60250000D01*
X86475000Y61350000D01*
G37*
X86500000Y46725000D02*
X87725000Y46725000D01*
X87725000Y46125000D01*
X86500000Y46125000D01*
X86500000Y46725000D01*
G36*
X86500000Y46725000D02*
G01*
X87725000Y46725000D01*
X87725000Y46125000D01*
X86500000Y46125000D01*
X86500000Y46725000D01*
G37*
X86500000Y43875000D02*
X87725000Y43875000D01*
X87725000Y43275000D01*
X86500000Y43275000D01*
X86500000Y43875000D01*
G36*
X86500000Y43875000D02*
G01*
X87725000Y43875000D01*
X87725000Y43275000D01*
X86500000Y43275000D01*
X86500000Y43875000D01*
G37*
X86512500Y53050000D02*
X87737500Y53050000D01*
X87737500Y52450000D01*
X86512500Y52450000D01*
X86512500Y53050000D01*
G36*
X86512500Y53050000D02*
G01*
X87737500Y53050000D01*
X87737500Y52450000D01*
X86512500Y52450000D01*
X86512500Y53050000D01*
G37*
X86512500Y49575000D02*
X87737500Y49575000D01*
X87737500Y48975000D01*
X86512500Y48975000D01*
X86512500Y49575000D01*
G36*
X86512500Y49575000D02*
G01*
X87737500Y49575000D01*
X87737500Y48975000D01*
X86512500Y48975000D01*
X86512500Y49575000D01*
G37*
X86525000Y65900000D02*
X87875000Y65900000D01*
X87875000Y65100000D01*
X86525000Y65100000D01*
X86525000Y65900000D01*
G36*
X86525000Y65900000D02*
G01*
X87875000Y65900000D01*
X87875000Y65100000D01*
X86525000Y65100000D01*
X86525000Y65900000D01*
G37*
X86525000Y52050000D02*
X87900000Y52050000D01*
X87900000Y50550000D01*
X86525000Y50550000D01*
X86525000Y52050000D01*
G36*
X86525000Y52050000D02*
G01*
X87900000Y52050000D01*
X87900000Y50550000D01*
X86525000Y50550000D01*
X86525000Y52050000D01*
G37*
X86550000Y54925000D02*
X87850000Y54925000D01*
X87850000Y53425000D01*
X86550000Y53425000D01*
X86550000Y54925000D01*
G36*
X86550000Y54925000D02*
G01*
X87850000Y54925000D01*
X87850000Y53425000D01*
X86550000Y53425000D01*
X86550000Y54925000D01*
G37*
X86550000Y48575000D02*
X87850000Y48575000D01*
X87850000Y47125000D01*
X86550000Y47125000D01*
X86550000Y48575000D01*
G36*
X86550000Y48575000D02*
G01*
X87850000Y48575000D01*
X87850000Y47125000D01*
X86550000Y47125000D01*
X86550000Y48575000D01*
G37*
X86550000Y45725000D02*
X87850000Y45725000D01*
X87850000Y44275000D01*
X86550000Y44275000D01*
X86550000Y45725000D01*
G36*
X86550000Y45725000D02*
G01*
X87850000Y45725000D01*
X87850000Y44275000D01*
X86550000Y44275000D01*
X86550000Y45725000D01*
G37*
X86575000Y64375000D02*
X87825000Y64375000D01*
X87825000Y62025000D01*
X86575000Y62025000D01*
X86575000Y64375000D01*
G36*
X86575000Y64375000D02*
G01*
X87825000Y64375000D01*
X87825000Y62025000D01*
X86575000Y62025000D01*
X86575000Y64375000D01*
G37*
X86600000Y68750000D02*
X87800000Y68750000D01*
X87800000Y66850000D01*
X86600000Y66850000D01*
X86600000Y68750000D01*
G36*
X86600000Y68750000D02*
G01*
X87800000Y68750000D01*
X87800000Y66850000D01*
X86600000Y66850000D01*
X86600000Y68750000D01*
G37*
X86600000Y66600000D02*
X87800000Y66600000D01*
X87800000Y66125000D01*
X86600000Y66125000D01*
X86600000Y66600000D01*
G36*
X86600000Y66600000D02*
G01*
X87800000Y66600000D01*
X87800000Y66125000D01*
X86600000Y66125000D01*
X86600000Y66600000D01*
G37*
X86600000Y59912500D02*
X87800000Y59912500D01*
X87800000Y59437500D01*
X86600000Y59437500D01*
X86600000Y59912500D01*
G36*
X86600000Y59912500D02*
G01*
X87800000Y59912500D01*
X87800000Y59437500D01*
X86600000Y59437500D01*
X86600000Y59912500D01*
G37*
X86625000Y85600000D02*
X87750000Y85600000D01*
X87750000Y83750000D01*
X86625000Y83750000D01*
X86625000Y85600000D01*
G36*
X86625000Y85600000D02*
G01*
X87750000Y85600000D01*
X87750000Y83750000D01*
X86625000Y83750000D01*
X86625000Y85600000D01*
G37*
X86675000Y43025000D02*
X87725000Y43025000D01*
X87725000Y41875000D01*
X86675000Y41875000D01*
X86675000Y43025000D01*
G36*
X86675000Y43025000D02*
G01*
X87725000Y43025000D01*
X87725000Y41875000D01*
X86675000Y41875000D01*
X86675000Y43025000D01*
G37*
X88125000Y83325000D02*
X91050000Y83325000D01*
X91050000Y82275000D01*
X88125000Y82275000D01*
X88125000Y83325000D01*
G36*
X88125000Y83325000D02*
G01*
X91050000Y83325000D01*
X91050000Y82275000D01*
X88125000Y82275000D01*
X88125000Y83325000D01*
G37*
X92962500Y25937500D02*
X95162500Y25937500D01*
X95162500Y24612500D01*
X92962500Y24612500D01*
X92962500Y25937500D01*
G36*
X92962500Y25937500D02*
G01*
X95162500Y25937500D01*
X95162500Y24612500D01*
X92962500Y24612500D01*
X92962500Y25937500D01*
G37*
X93187500Y24612900D02*
X95162500Y24612900D01*
X95162500Y24437500D01*
X93187500Y24437500D01*
X93187500Y24612900D01*
G36*
X93187500Y24612900D02*
G01*
X95162500Y24612900D01*
X95162500Y24437500D01*
X93187500Y24437500D01*
X93187500Y24612900D01*
G37*
X94350000Y90700000D02*
X95850000Y90700000D01*
X95850000Y89300000D01*
X94350000Y89300000D01*
X94350000Y90700000D01*
G36*
X94350000Y90700000D02*
G01*
X95850000Y90700000D01*
X95850000Y89300000D01*
X94350000Y89300000D01*
X94350000Y90700000D01*
G37*
X95125000Y36500000D02*
X96250000Y36500000D01*
X96250000Y35425000D01*
X95125000Y35425000D01*
X95125000Y36500000D01*
G36*
X95125000Y36500000D02*
G01*
X96250000Y36500000D01*
X96250000Y35425000D01*
X95125000Y35425000D01*
X95125000Y36500000D01*
G37*
X96512500Y32800000D02*
X97950000Y32800000D01*
X97950000Y31300000D01*
X96512500Y31300000D01*
X96512500Y32800000D01*
G36*
X96512500Y32800000D02*
G01*
X97950000Y32800000D01*
X97950000Y31300000D01*
X96512500Y31300000D01*
X96512500Y32800000D01*
G37*
X96675000Y34950000D02*
X97750000Y34950000D01*
X97750000Y33050000D01*
X96675000Y33050000D01*
X96675000Y34950000D01*
G36*
X96675000Y34950000D02*
G01*
X97750000Y34950000D01*
X97750000Y33050000D01*
X96675000Y33050000D01*
X96675000Y34950000D01*
G37*
X96675000Y31025000D02*
X97750000Y31025000D01*
X97750000Y27375000D01*
X96675000Y27375000D01*
X96675000Y31025000D01*
G36*
X96675000Y31025000D02*
G01*
X97750000Y31025000D01*
X97750000Y27375000D01*
X96675000Y27375000D01*
X96675000Y31025000D01*
G37*
X96950000Y84900000D02*
X98500000Y84900000D01*
X98500000Y84000000D01*
X96950000Y84000000D01*
X96950000Y84900000D01*
G36*
X96950000Y84900000D02*
G01*
X98500000Y84900000D01*
X98500000Y84000000D01*
X96950000Y84000000D01*
X96950000Y84900000D01*
G37*
X97100000Y82925000D02*
X98475000Y82925000D01*
X98475000Y81375000D01*
X97100000Y81375000D01*
X97100000Y82925000D01*
G36*
X97100000Y82925000D02*
G01*
X98475000Y82925000D01*
X98475000Y81375000D01*
X97100000Y81375000D01*
X97100000Y82925000D01*
G37*
X97200000Y83700000D02*
X98375000Y83700000D01*
X98375000Y83150000D01*
X97200000Y83150000D01*
X97200000Y83700000D01*
G36*
X97200000Y83700000D02*
G01*
X98375000Y83700000D01*
X98375000Y83150000D01*
X97200000Y83150000D01*
X97200000Y83700000D01*
G37*
X97225000Y81150000D02*
X98350000Y81150000D01*
X98350000Y79750000D01*
X97225000Y79750000D01*
X97225000Y81150000D01*
G36*
X97225000Y81150000D02*
G01*
X98350000Y81150000D01*
X98350000Y79750000D01*
X97225000Y79750000D01*
X97225000Y81150000D01*
G37*
X97275000Y75200000D02*
X98350000Y75200000D01*
X98350000Y74100000D01*
X97275000Y74100000D01*
X97275000Y75200000D01*
G36*
X97275000Y75200000D02*
G01*
X98350000Y75200000D01*
X98350000Y74100000D01*
X97275000Y74100000D01*
X97275000Y75200000D01*
G37*
X97450000Y85850000D02*
X98350000Y85850000D01*
X98350000Y85150000D01*
X97450000Y85150000D01*
X97450000Y85850000D01*
G36*
X97450000Y85850000D02*
G01*
X98350000Y85850000D01*
X98350000Y85150000D01*
X97450000Y85150000D01*
X97450000Y85850000D01*
G37*
%TO.C,TP803*%
X79992462Y79803984D02*
X80346016Y80157538D01*
X78507538Y81996016D01*
X78153984Y81642462D01*
X79992462Y79803984D01*
G36*
X80346016Y80157538D02*
G01*
X79992462Y79803984D01*
X78153984Y81642462D01*
X78507538Y81996016D01*
X80346016Y80157538D01*
G37*
%TO.C,J3*%
X80200000Y87650000D02*
X82200000Y87650000D01*
X82200000Y85950000D01*
X80200000Y85950000D01*
X80200000Y87650000D01*
G36*
X80200000Y87650000D02*
G01*
X82200000Y87650000D01*
X82200000Y85950000D01*
X80200000Y85950000D01*
X80200000Y87650000D01*
G37*
%TO.C,TP808*%
X67439118Y71529238D02*
X67939118Y71529238D01*
X67939118Y68929238D01*
X67439118Y68929238D01*
X67439118Y71529238D01*
G36*
X67439118Y71529238D02*
G01*
X67939118Y71529238D01*
X67939118Y68929238D01*
X67439118Y68929238D01*
X67439118Y71529238D01*
G37*
%TO.C,U9*%
D11*
X24251750Y21550000D02*
G75*
G02*
X24048250Y21550000I-101750J0D01*
G01*
X24048250Y21550000D02*
G75*
G02*
X24251750Y21550000I101750J0D01*
G01*
X24251750Y21050000D02*
G75*
G02*
X24048250Y21050000I-101750J0D01*
G01*
X24048250Y21050000D02*
G75*
G02*
X24251750Y21050000I101750J0D01*
G01*
X24251750Y20550000D02*
G75*
G02*
X24048250Y20550000I-101750J0D01*
G01*
X24048250Y20550000D02*
G75*
G02*
X24251750Y20550000I101750J0D01*
G01*
X24251750Y20050000D02*
G75*
G02*
X24048250Y20050000I-101750J0D01*
G01*
X24048250Y20050000D02*
G75*
G02*
X24251750Y20050000I101750J0D01*
G01*
X24251750Y19550000D02*
G75*
G02*
X24048250Y19550000I-101750J0D01*
G01*
X24048250Y19550000D02*
G75*
G02*
X24251750Y19550000I101750J0D01*
G01*
X24251750Y19050000D02*
G75*
G02*
X24048250Y19050000I-101750J0D01*
G01*
X24048250Y19050000D02*
G75*
G02*
X24251750Y19050000I101750J0D01*
G01*
X24251750Y18550000D02*
G75*
G02*
X24048250Y18550000I-101750J0D01*
G01*
X24048250Y18550000D02*
G75*
G02*
X24251750Y18550000I101750J0D01*
G01*
X24251750Y18050000D02*
G75*
G02*
X24048250Y18050000I-101750J0D01*
G01*
X24048250Y18050000D02*
G75*
G02*
X24251750Y18050000I101750J0D01*
G01*
X24251750Y17550000D02*
G75*
G02*
X24048250Y17550000I-101750J0D01*
G01*
X24048250Y17550000D02*
G75*
G02*
X24251750Y17550000I101750J0D01*
G01*
X24251750Y17050000D02*
G75*
G02*
X24048250Y17050000I-101750J0D01*
G01*
X24048250Y17050000D02*
G75*
G02*
X24251750Y17050000I101750J0D01*
G01*
X24251750Y16550000D02*
G75*
G02*
X24048250Y16550000I-101750J0D01*
G01*
X24048250Y16550000D02*
G75*
G02*
X24251750Y16550000I101750J0D01*
G01*
X24251750Y16050000D02*
G75*
G02*
X24048250Y16050000I-101750J0D01*
G01*
X24048250Y16050000D02*
G75*
G02*
X24251750Y16050000I101750J0D01*
G01*
X24251750Y15550000D02*
G75*
G02*
X24048250Y15550000I-101750J0D01*
G01*
X24048250Y15550000D02*
G75*
G02*
X24251750Y15550000I101750J0D01*
G01*
X24251750Y15050000D02*
G75*
G02*
X24048250Y15050000I-101750J0D01*
G01*
X24048250Y15050000D02*
G75*
G02*
X24251750Y15050000I101750J0D01*
G01*
X24751750Y21550000D02*
G75*
G02*
X24548250Y21550000I-101750J0D01*
G01*
X24548250Y21550000D02*
G75*
G02*
X24751750Y21550000I101750J0D01*
G01*
X24751750Y21050000D02*
G75*
G02*
X24548250Y21050000I-101750J0D01*
G01*
X24548250Y21050000D02*
G75*
G02*
X24751750Y21050000I101750J0D01*
G01*
X24751750Y20550000D02*
G75*
G02*
X24548250Y20550000I-101750J0D01*
G01*
X24548250Y20550000D02*
G75*
G02*
X24751750Y20550000I101750J0D01*
G01*
X24751750Y20050000D02*
G75*
G02*
X24548250Y20050000I-101750J0D01*
G01*
X24548250Y20050000D02*
G75*
G02*
X24751750Y20050000I101750J0D01*
G01*
X24751750Y19550000D02*
G75*
G02*
X24548250Y19550000I-101750J0D01*
G01*
X24548250Y19550000D02*
G75*
G02*
X24751750Y19550000I101750J0D01*
G01*
X24751750Y19050000D02*
G75*
G02*
X24548250Y19050000I-101750J0D01*
G01*
X24548250Y19050000D02*
G75*
G02*
X24751750Y19050000I101750J0D01*
G01*
X24751750Y18550000D02*
G75*
G02*
X24548250Y18550000I-101750J0D01*
G01*
X24548250Y18550000D02*
G75*
G02*
X24751750Y18550000I101750J0D01*
G01*
X24751750Y18050000D02*
G75*
G02*
X24548250Y18050000I-101750J0D01*
G01*
X24548250Y18050000D02*
G75*
G02*
X24751750Y18050000I101750J0D01*
G01*
X24751750Y17550000D02*
G75*
G02*
X24548250Y17550000I-101750J0D01*
G01*
X24548250Y17550000D02*
G75*
G02*
X24751750Y17550000I101750J0D01*
G01*
X24751750Y17050000D02*
G75*
G02*
X24548250Y17050000I-101750J0D01*
G01*
X24548250Y17050000D02*
G75*
G02*
X24751750Y17050000I101750J0D01*
G01*
X24751750Y16550000D02*
G75*
G02*
X24548250Y16550000I-101750J0D01*
G01*
X24548250Y16550000D02*
G75*
G02*
X24751750Y16550000I101750J0D01*
G01*
X24751750Y16050000D02*
G75*
G02*
X24548250Y16050000I-101750J0D01*
G01*
X24548250Y16050000D02*
G75*
G02*
X24751750Y16050000I101750J0D01*
G01*
X24751750Y15550000D02*
G75*
G02*
X24548250Y15550000I-101750J0D01*
G01*
X24548250Y15550000D02*
G75*
G02*
X24751750Y15550000I101750J0D01*
G01*
X24751750Y15050000D02*
G75*
G02*
X24548250Y15050000I-101750J0D01*
G01*
X24548250Y15050000D02*
G75*
G02*
X24751750Y15050000I101750J0D01*
G01*
X25251750Y21550000D02*
G75*
G02*
X25048250Y21550000I-101750J0D01*
G01*
X25048250Y21550000D02*
G75*
G02*
X25251750Y21550000I101750J0D01*
G01*
X25251750Y21050000D02*
G75*
G02*
X25048250Y21050000I-101750J0D01*
G01*
X25048250Y21050000D02*
G75*
G02*
X25251750Y21050000I101750J0D01*
G01*
X25251750Y20550000D02*
G75*
G02*
X25048250Y20550000I-101750J0D01*
G01*
X25048250Y20550000D02*
G75*
G02*
X25251750Y20550000I101750J0D01*
G01*
X25251750Y20050000D02*
G75*
G02*
X25048250Y20050000I-101750J0D01*
G01*
X25048250Y20050000D02*
G75*
G02*
X25251750Y20050000I101750J0D01*
G01*
X25251750Y19550000D02*
G75*
G02*
X25048250Y19550000I-101750J0D01*
G01*
X25048250Y19550000D02*
G75*
G02*
X25251750Y19550000I101750J0D01*
G01*
X25251750Y19050000D02*
G75*
G02*
X25048250Y19050000I-101750J0D01*
G01*
X25048250Y19050000D02*
G75*
G02*
X25251750Y19050000I101750J0D01*
G01*
X25251750Y18550000D02*
G75*
G02*
X25048250Y18550000I-101750J0D01*
G01*
X25048250Y18550000D02*
G75*
G02*
X25251750Y18550000I101750J0D01*
G01*
X25251750Y18050000D02*
G75*
G02*
X25048250Y18050000I-101750J0D01*
G01*
X25048250Y18050000D02*
G75*
G02*
X25251750Y18050000I101750J0D01*
G01*
X25251750Y17550000D02*
G75*
G02*
X25048250Y17550000I-101750J0D01*
G01*
X25048250Y17550000D02*
G75*
G02*
X25251750Y17550000I101750J0D01*
G01*
X25251750Y17050000D02*
G75*
G02*
X25048250Y17050000I-101750J0D01*
G01*
X25048250Y17050000D02*
G75*
G02*
X25251750Y17050000I101750J0D01*
G01*
X25251750Y16550000D02*
G75*
G02*
X25048250Y16550000I-101750J0D01*
G01*
X25048250Y16550000D02*
G75*
G02*
X25251750Y16550000I101750J0D01*
G01*
X25251750Y16050000D02*
G75*
G02*
X25048250Y16050000I-101750J0D01*
G01*
X25048250Y16050000D02*
G75*
G02*
X25251750Y16050000I101750J0D01*
G01*
X25251750Y15550000D02*
G75*
G02*
X25048250Y15550000I-101750J0D01*
G01*
X25048250Y15550000D02*
G75*
G02*
X25251750Y15550000I101750J0D01*
G01*
X25251750Y15050000D02*
G75*
G02*
X25048250Y15050000I-101750J0D01*
G01*
X25048250Y15050000D02*
G75*
G02*
X25251750Y15050000I101750J0D01*
G01*
X25751750Y21550000D02*
G75*
G02*
X25548250Y21550000I-101750J0D01*
G01*
X25548250Y21550000D02*
G75*
G02*
X25751750Y21550000I101750J0D01*
G01*
X25751750Y21050000D02*
G75*
G02*
X25548250Y21050000I-101750J0D01*
G01*
X25548250Y21050000D02*
G75*
G02*
X25751750Y21050000I101750J0D01*
G01*
X25751750Y20550000D02*
G75*
G02*
X25548250Y20550000I-101750J0D01*
G01*
X25548250Y20550000D02*
G75*
G02*
X25751750Y20550000I101750J0D01*
G01*
X25751750Y20050000D02*
G75*
G02*
X25548250Y20050000I-101750J0D01*
G01*
X25548250Y20050000D02*
G75*
G02*
X25751750Y20050000I101750J0D01*
G01*
X25751750Y16050000D02*
G75*
G02*
X25548250Y16050000I-101750J0D01*
G01*
X25548250Y16050000D02*
G75*
G02*
X25751750Y16050000I101750J0D01*
G01*
X25751750Y15550000D02*
G75*
G02*
X25548250Y15550000I-101750J0D01*
G01*
X25548250Y15550000D02*
G75*
G02*
X25751750Y15550000I101750J0D01*
G01*
X25751750Y15050000D02*
G75*
G02*
X25548250Y15050000I-101750J0D01*
G01*
X25548250Y15050000D02*
G75*
G02*
X25751750Y15050000I101750J0D01*
G01*
X26251750Y21550000D02*
G75*
G02*
X26048250Y21550000I-101750J0D01*
G01*
X26048250Y21550000D02*
G75*
G02*
X26251750Y21550000I101750J0D01*
G01*
X26251750Y21050000D02*
G75*
G02*
X26048250Y21050000I-101750J0D01*
G01*
X26048250Y21050000D02*
G75*
G02*
X26251750Y21050000I101750J0D01*
G01*
X26251750Y20550000D02*
G75*
G02*
X26048250Y20550000I-101750J0D01*
G01*
X26048250Y20550000D02*
G75*
G02*
X26251750Y20550000I101750J0D01*
G01*
X26251750Y19550000D02*
G75*
G02*
X26048250Y19550000I-101750J0D01*
G01*
X26048250Y19550000D02*
G75*
G02*
X26251750Y19550000I101750J0D01*
G01*
X26251750Y19050000D02*
G75*
G02*
X26048250Y19050000I-101750J0D01*
G01*
X26048250Y19050000D02*
G75*
G02*
X26251750Y19050000I101750J0D01*
G01*
X26251750Y18550000D02*
G75*
G02*
X26048250Y18550000I-101750J0D01*
G01*
X26048250Y18550000D02*
G75*
G02*
X26251750Y18550000I101750J0D01*
G01*
X26251750Y18050000D02*
G75*
G02*
X26048250Y18050000I-101750J0D01*
G01*
X26048250Y18050000D02*
G75*
G02*
X26251750Y18050000I101750J0D01*
G01*
X26251750Y17550000D02*
G75*
G02*
X26048250Y17550000I-101750J0D01*
G01*
X26048250Y17550000D02*
G75*
G02*
X26251750Y17550000I101750J0D01*
G01*
X26251750Y17050000D02*
G75*
G02*
X26048250Y17050000I-101750J0D01*
G01*
X26048250Y17050000D02*
G75*
G02*
X26251750Y17050000I101750J0D01*
G01*
X26251750Y16050000D02*
G75*
G02*
X26048250Y16050000I-101750J0D01*
G01*
X26048250Y16050000D02*
G75*
G02*
X26251750Y16050000I101750J0D01*
G01*
X26251750Y15550000D02*
G75*
G02*
X26048250Y15550000I-101750J0D01*
G01*
X26048250Y15550000D02*
G75*
G02*
X26251750Y15550000I101750J0D01*
G01*
X26251750Y15050000D02*
G75*
G02*
X26048250Y15050000I-101750J0D01*
G01*
X26048250Y15050000D02*
G75*
G02*
X26251750Y15050000I101750J0D01*
G01*
X26751750Y21550000D02*
G75*
G02*
X26548250Y21550000I-101750J0D01*
G01*
X26548250Y21550000D02*
G75*
G02*
X26751750Y21550000I101750J0D01*
G01*
X26751750Y21050000D02*
G75*
G02*
X26548250Y21050000I-101750J0D01*
G01*
X26548250Y21050000D02*
G75*
G02*
X26751750Y21050000I101750J0D01*
G01*
X26751750Y20550000D02*
G75*
G02*
X26548250Y20550000I-101750J0D01*
G01*
X26548250Y20550000D02*
G75*
G02*
X26751750Y20550000I101750J0D01*
G01*
X26751750Y19550000D02*
G75*
G02*
X26548250Y19550000I-101750J0D01*
G01*
X26548250Y19550000D02*
G75*
G02*
X26751750Y19550000I101750J0D01*
G01*
X26751750Y17050000D02*
G75*
G02*
X26548250Y17050000I-101750J0D01*
G01*
X26548250Y17050000D02*
G75*
G02*
X26751750Y17050000I101750J0D01*
G01*
X26751750Y16050000D02*
G75*
G02*
X26548250Y16050000I-101750J0D01*
G01*
X26548250Y16050000D02*
G75*
G02*
X26751750Y16050000I101750J0D01*
G01*
X26751750Y15550000D02*
G75*
G02*
X26548250Y15550000I-101750J0D01*
G01*
X26548250Y15550000D02*
G75*
G02*
X26751750Y15550000I101750J0D01*
G01*
X26751750Y15050000D02*
G75*
G02*
X26548250Y15050000I-101750J0D01*
G01*
X26548250Y15050000D02*
G75*
G02*
X26751750Y15050000I101750J0D01*
G01*
X27251750Y21550000D02*
G75*
G02*
X27048250Y21550000I-101750J0D01*
G01*
X27048250Y21550000D02*
G75*
G02*
X27251750Y21550000I101750J0D01*
G01*
X27251750Y21050000D02*
G75*
G02*
X27048250Y21050000I-101750J0D01*
G01*
X27048250Y21050000D02*
G75*
G02*
X27251750Y21050000I101750J0D01*
G01*
X27251750Y20550000D02*
G75*
G02*
X27048250Y20550000I-101750J0D01*
G01*
X27048250Y20550000D02*
G75*
G02*
X27251750Y20550000I101750J0D01*
G01*
X27251750Y19550000D02*
G75*
G02*
X27048250Y19550000I-101750J0D01*
G01*
X27048250Y19550000D02*
G75*
G02*
X27251750Y19550000I101750J0D01*
G01*
X27251750Y17050000D02*
G75*
G02*
X27048250Y17050000I-101750J0D01*
G01*
X27048250Y17050000D02*
G75*
G02*
X27251750Y17050000I101750J0D01*
G01*
X27251750Y16050000D02*
G75*
G02*
X27048250Y16050000I-101750J0D01*
G01*
X27048250Y16050000D02*
G75*
G02*
X27251750Y16050000I101750J0D01*
G01*
X27251750Y15550000D02*
G75*
G02*
X27048250Y15550000I-101750J0D01*
G01*
X27048250Y15550000D02*
G75*
G02*
X27251750Y15550000I101750J0D01*
G01*
X27251750Y15050000D02*
G75*
G02*
X27048250Y15050000I-101750J0D01*
G01*
X27048250Y15050000D02*
G75*
G02*
X27251750Y15050000I101750J0D01*
G01*
X27751750Y21550000D02*
G75*
G02*
X27548250Y21550000I-101750J0D01*
G01*
X27548250Y21550000D02*
G75*
G02*
X27751750Y21550000I101750J0D01*
G01*
X27751750Y21050000D02*
G75*
G02*
X27548250Y21050000I-101750J0D01*
G01*
X27548250Y21050000D02*
G75*
G02*
X27751750Y21050000I101750J0D01*
G01*
X27751750Y20550000D02*
G75*
G02*
X27548250Y20550000I-101750J0D01*
G01*
X27548250Y20550000D02*
G75*
G02*
X27751750Y20550000I101750J0D01*
G01*
X27751750Y19550000D02*
G75*
G02*
X27548250Y19550000I-101750J0D01*
G01*
X27548250Y19550000D02*
G75*
G02*
X27751750Y19550000I101750J0D01*
G01*
X27751750Y17050000D02*
G75*
G02*
X27548250Y17050000I-101750J0D01*
G01*
X27548250Y17050000D02*
G75*
G02*
X27751750Y17050000I101750J0D01*
G01*
X27751750Y16050000D02*
G75*
G02*
X27548250Y16050000I-101750J0D01*
G01*
X27548250Y16050000D02*
G75*
G02*
X27751750Y16050000I101750J0D01*
G01*
X27751750Y15550000D02*
G75*
G02*
X27548250Y15550000I-101750J0D01*
G01*
X27548250Y15550000D02*
G75*
G02*
X27751750Y15550000I101750J0D01*
G01*
X27751750Y15050000D02*
G75*
G02*
X27548250Y15050000I-101750J0D01*
G01*
X27548250Y15050000D02*
G75*
G02*
X27751750Y15050000I101750J0D01*
G01*
X28251750Y21550000D02*
G75*
G02*
X28048250Y21550000I-101750J0D01*
G01*
X28048250Y21550000D02*
G75*
G02*
X28251750Y21550000I101750J0D01*
G01*
X28251750Y21050000D02*
G75*
G02*
X28048250Y21050000I-101750J0D01*
G01*
X28048250Y21050000D02*
G75*
G02*
X28251750Y21050000I101750J0D01*
G01*
X28251750Y20550000D02*
G75*
G02*
X28048250Y20550000I-101750J0D01*
G01*
X28048250Y20550000D02*
G75*
G02*
X28251750Y20550000I101750J0D01*
G01*
X28251750Y19550000D02*
G75*
G02*
X28048250Y19550000I-101750J0D01*
G01*
X28048250Y19550000D02*
G75*
G02*
X28251750Y19550000I101750J0D01*
G01*
X28251750Y17050000D02*
G75*
G02*
X28048250Y17050000I-101750J0D01*
G01*
X28048250Y17050000D02*
G75*
G02*
X28251750Y17050000I101750J0D01*
G01*
X28251750Y16050000D02*
G75*
G02*
X28048250Y16050000I-101750J0D01*
G01*
X28048250Y16050000D02*
G75*
G02*
X28251750Y16050000I101750J0D01*
G01*
X28251750Y15550000D02*
G75*
G02*
X28048250Y15550000I-101750J0D01*
G01*
X28048250Y15550000D02*
G75*
G02*
X28251750Y15550000I101750J0D01*
G01*
X28251750Y15050000D02*
G75*
G02*
X28048250Y15050000I-101750J0D01*
G01*
X28048250Y15050000D02*
G75*
G02*
X28251750Y15050000I101750J0D01*
G01*
X28751750Y21550000D02*
G75*
G02*
X28548250Y21550000I-101750J0D01*
G01*
X28548250Y21550000D02*
G75*
G02*
X28751750Y21550000I101750J0D01*
G01*
X28751750Y21050000D02*
G75*
G02*
X28548250Y21050000I-101750J0D01*
G01*
X28548250Y21050000D02*
G75*
G02*
X28751750Y21050000I101750J0D01*
G01*
X28751750Y20550000D02*
G75*
G02*
X28548250Y20550000I-101750J0D01*
G01*
X28548250Y20550000D02*
G75*
G02*
X28751750Y20550000I101750J0D01*
G01*
X28751750Y19550000D02*
G75*
G02*
X28548250Y19550000I-101750J0D01*
G01*
X28548250Y19550000D02*
G75*
G02*
X28751750Y19550000I101750J0D01*
G01*
X28751750Y19050000D02*
G75*
G02*
X28548250Y19050000I-101750J0D01*
G01*
X28548250Y19050000D02*
G75*
G02*
X28751750Y19050000I101750J0D01*
G01*
X28751750Y18550000D02*
G75*
G02*
X28548250Y18550000I-101750J0D01*
G01*
X28548250Y18550000D02*
G75*
G02*
X28751750Y18550000I101750J0D01*
G01*
X28751750Y18050000D02*
G75*
G02*
X28548250Y18050000I-101750J0D01*
G01*
X28548250Y18050000D02*
G75*
G02*
X28751750Y18050000I101750J0D01*
G01*
X28751750Y17550000D02*
G75*
G02*
X28548250Y17550000I-101750J0D01*
G01*
X28548250Y17550000D02*
G75*
G02*
X28751750Y17550000I101750J0D01*
G01*
X28751750Y17050000D02*
G75*
G02*
X28548250Y17050000I-101750J0D01*
G01*
X28548250Y17050000D02*
G75*
G02*
X28751750Y17050000I101750J0D01*
G01*
X28751750Y16050000D02*
G75*
G02*
X28548250Y16050000I-101750J0D01*
G01*
X28548250Y16050000D02*
G75*
G02*
X28751750Y16050000I101750J0D01*
G01*
X28751750Y15550000D02*
G75*
G02*
X28548250Y15550000I-101750J0D01*
G01*
X28548250Y15550000D02*
G75*
G02*
X28751750Y15550000I101750J0D01*
G01*
X28751750Y15050000D02*
G75*
G02*
X28548250Y15050000I-101750J0D01*
G01*
X28548250Y15050000D02*
G75*
G02*
X28751750Y15050000I101750J0D01*
G01*
X29251750Y21550000D02*
G75*
G02*
X29048250Y21550000I-101750J0D01*
G01*
X29048250Y21550000D02*
G75*
G02*
X29251750Y21550000I101750J0D01*
G01*
X29251750Y21050000D02*
G75*
G02*
X29048250Y21050000I-101750J0D01*
G01*
X29048250Y21050000D02*
G75*
G02*
X29251750Y21050000I101750J0D01*
G01*
X29251750Y20550000D02*
G75*
G02*
X29048250Y20550000I-101750J0D01*
G01*
X29048250Y20550000D02*
G75*
G02*
X29251750Y20550000I101750J0D01*
G01*
X29251750Y16050000D02*
G75*
G02*
X29048250Y16050000I-101750J0D01*
G01*
X29048250Y16050000D02*
G75*
G02*
X29251750Y16050000I101750J0D01*
G01*
X29251750Y15550000D02*
G75*
G02*
X29048250Y15550000I-101750J0D01*
G01*
X29048250Y15550000D02*
G75*
G02*
X29251750Y15550000I101750J0D01*
G01*
X29251750Y15050000D02*
G75*
G02*
X29048250Y15050000I-101750J0D01*
G01*
X29048250Y15050000D02*
G75*
G02*
X29251750Y15050000I101750J0D01*
G01*
X29751750Y21550000D02*
G75*
G02*
X29548250Y21550000I-101750J0D01*
G01*
X29548250Y21550000D02*
G75*
G02*
X29751750Y21550000I101750J0D01*
G01*
X29751750Y21050000D02*
G75*
G02*
X29548250Y21050000I-101750J0D01*
G01*
X29548250Y21050000D02*
G75*
G02*
X29751750Y21050000I101750J0D01*
G01*
X29751750Y20550000D02*
G75*
G02*
X29548250Y20550000I-101750J0D01*
G01*
X29548250Y20550000D02*
G75*
G02*
X29751750Y20550000I101750J0D01*
G01*
X29751750Y20050000D02*
G75*
G02*
X29548250Y20050000I-101750J0D01*
G01*
X29548250Y20050000D02*
G75*
G02*
X29751750Y20050000I101750J0D01*
G01*
X29751750Y19550000D02*
G75*
G02*
X29548250Y19550000I-101750J0D01*
G01*
X29548250Y19550000D02*
G75*
G02*
X29751750Y19550000I101750J0D01*
G01*
X29751750Y19050000D02*
G75*
G02*
X29548250Y19050000I-101750J0D01*
G01*
X29548250Y19050000D02*
G75*
G02*
X29751750Y19050000I101750J0D01*
G01*
X29751750Y18550000D02*
G75*
G02*
X29548250Y18550000I-101750J0D01*
G01*
X29548250Y18550000D02*
G75*
G02*
X29751750Y18550000I101750J0D01*
G01*
X29751750Y18050000D02*
G75*
G02*
X29548250Y18050000I-101750J0D01*
G01*
X29548250Y18050000D02*
G75*
G02*
X29751750Y18050000I101750J0D01*
G01*
X29751750Y17550000D02*
G75*
G02*
X29548250Y17550000I-101750J0D01*
G01*
X29548250Y17550000D02*
G75*
G02*
X29751750Y17550000I101750J0D01*
G01*
X29751750Y17050000D02*
G75*
G02*
X29548250Y17050000I-101750J0D01*
G01*
X29548250Y17050000D02*
G75*
G02*
X29751750Y17050000I101750J0D01*
G01*
X29751750Y16550000D02*
G75*
G02*
X29548250Y16550000I-101750J0D01*
G01*
X29548250Y16550000D02*
G75*
G02*
X29751750Y16550000I101750J0D01*
G01*
X29751750Y16050000D02*
G75*
G02*
X29548250Y16050000I-101750J0D01*
G01*
X29548250Y16050000D02*
G75*
G02*
X29751750Y16050000I101750J0D01*
G01*
X29751750Y15550000D02*
G75*
G02*
X29548250Y15550000I-101750J0D01*
G01*
X29548250Y15550000D02*
G75*
G02*
X29751750Y15550000I101750J0D01*
G01*
X29751750Y15050000D02*
G75*
G02*
X29548250Y15050000I-101750J0D01*
G01*
X29548250Y15050000D02*
G75*
G02*
X29751750Y15050000I101750J0D01*
G01*
X30251750Y21550000D02*
G75*
G02*
X30048250Y21550000I-101750J0D01*
G01*
X30048250Y21550000D02*
G75*
G02*
X30251750Y21550000I101750J0D01*
G01*
X30251750Y21050000D02*
G75*
G02*
X30048250Y21050000I-101750J0D01*
G01*
X30048250Y21050000D02*
G75*
G02*
X30251750Y21050000I101750J0D01*
G01*
X30251750Y20550000D02*
G75*
G02*
X30048250Y20550000I-101750J0D01*
G01*
X30048250Y20550000D02*
G75*
G02*
X30251750Y20550000I101750J0D01*
G01*
X30251750Y20050000D02*
G75*
G02*
X30048250Y20050000I-101750J0D01*
G01*
X30048250Y20050000D02*
G75*
G02*
X30251750Y20050000I101750J0D01*
G01*
X30251750Y19550000D02*
G75*
G02*
X30048250Y19550000I-101750J0D01*
G01*
X30048250Y19550000D02*
G75*
G02*
X30251750Y19550000I101750J0D01*
G01*
X30251750Y19050000D02*
G75*
G02*
X30048250Y19050000I-101750J0D01*
G01*
X30048250Y19050000D02*
G75*
G02*
X30251750Y19050000I101750J0D01*
G01*
X30251750Y18550000D02*
G75*
G02*
X30048250Y18550000I-101750J0D01*
G01*
X30048250Y18550000D02*
G75*
G02*
X30251750Y18550000I101750J0D01*
G01*
X30251750Y18050000D02*
G75*
G02*
X30048250Y18050000I-101750J0D01*
G01*
X30048250Y18050000D02*
G75*
G02*
X30251750Y18050000I101750J0D01*
G01*
X30251750Y17550000D02*
G75*
G02*
X30048250Y17550000I-101750J0D01*
G01*
X30048250Y17550000D02*
G75*
G02*
X30251750Y17550000I101750J0D01*
G01*
X30251750Y17050000D02*
G75*
G02*
X30048250Y17050000I-101750J0D01*
G01*
X30048250Y17050000D02*
G75*
G02*
X30251750Y17050000I101750J0D01*
G01*
X30251750Y16550000D02*
G75*
G02*
X30048250Y16550000I-101750J0D01*
G01*
X30048250Y16550000D02*
G75*
G02*
X30251750Y16550000I101750J0D01*
G01*
X30251750Y16050000D02*
G75*
G02*
X30048250Y16050000I-101750J0D01*
G01*
X30048250Y16050000D02*
G75*
G02*
X30251750Y16050000I101750J0D01*
G01*
X30251750Y15550000D02*
G75*
G02*
X30048250Y15550000I-101750J0D01*
G01*
X30048250Y15550000D02*
G75*
G02*
X30251750Y15550000I101750J0D01*
G01*
X30251750Y15050000D02*
G75*
G02*
X30048250Y15050000I-101750J0D01*
G01*
X30048250Y15050000D02*
G75*
G02*
X30251750Y15050000I101750J0D01*
G01*
X30751750Y21550000D02*
G75*
G02*
X30548250Y21550000I-101750J0D01*
G01*
X30548250Y21550000D02*
G75*
G02*
X30751750Y21550000I101750J0D01*
G01*
X30751750Y21050000D02*
G75*
G02*
X30548250Y21050000I-101750J0D01*
G01*
X30548250Y21050000D02*
G75*
G02*
X30751750Y21050000I101750J0D01*
G01*
X30751750Y20550000D02*
G75*
G02*
X30548250Y20550000I-101750J0D01*
G01*
X30548250Y20550000D02*
G75*
G02*
X30751750Y20550000I101750J0D01*
G01*
X30751750Y20050000D02*
G75*
G02*
X30548250Y20050000I-101750J0D01*
G01*
X30548250Y20050000D02*
G75*
G02*
X30751750Y20050000I101750J0D01*
G01*
X30751750Y19550000D02*
G75*
G02*
X30548250Y19550000I-101750J0D01*
G01*
X30548250Y19550000D02*
G75*
G02*
X30751750Y19550000I101750J0D01*
G01*
X30751750Y19050000D02*
G75*
G02*
X30548250Y19050000I-101750J0D01*
G01*
X30548250Y19050000D02*
G75*
G02*
X30751750Y19050000I101750J0D01*
G01*
X30751750Y18550000D02*
G75*
G02*
X30548250Y18550000I-101750J0D01*
G01*
X30548250Y18550000D02*
G75*
G02*
X30751750Y18550000I101750J0D01*
G01*
X30751750Y18050000D02*
G75*
G02*
X30548250Y18050000I-101750J0D01*
G01*
X30548250Y18050000D02*
G75*
G02*
X30751750Y18050000I101750J0D01*
G01*
X30751750Y17550000D02*
G75*
G02*
X30548250Y17550000I-101750J0D01*
G01*
X30548250Y17550000D02*
G75*
G02*
X30751750Y17550000I101750J0D01*
G01*
X30751750Y17050000D02*
G75*
G02*
X30548250Y17050000I-101750J0D01*
G01*
X30548250Y17050000D02*
G75*
G02*
X30751750Y17050000I101750J0D01*
G01*
X30751750Y16550000D02*
G75*
G02*
X30548250Y16550000I-101750J0D01*
G01*
X30548250Y16550000D02*
G75*
G02*
X30751750Y16550000I101750J0D01*
G01*
X30751750Y16050000D02*
G75*
G02*
X30548250Y16050000I-101750J0D01*
G01*
X30548250Y16050000D02*
G75*
G02*
X30751750Y16050000I101750J0D01*
G01*
X30751750Y15550000D02*
G75*
G02*
X30548250Y15550000I-101750J0D01*
G01*
X30548250Y15550000D02*
G75*
G02*
X30751750Y15550000I101750J0D01*
G01*
X30751750Y15050000D02*
G75*
G02*
X30548250Y15050000I-101750J0D01*
G01*
X30548250Y15050000D02*
G75*
G02*
X30751750Y15050000I101750J0D01*
G01*
%TO.C,TP905*%
D10*
X83900000Y73650000D02*
X86500000Y73650000D01*
X86500000Y73150000D01*
X83900000Y73150000D01*
X83900000Y73650000D01*
G36*
X83900000Y73650000D02*
G01*
X86500000Y73650000D01*
X86500000Y73150000D01*
X83900000Y73150000D01*
X83900000Y73650000D01*
G37*
%TO.C,TP907*%
X96500000Y80675000D02*
X99100000Y80675000D01*
X99100000Y80175000D01*
X96500000Y80175000D01*
X96500000Y80675000D01*
G36*
X96500000Y80675000D02*
G01*
X99100000Y80675000D01*
X99100000Y80175000D01*
X96500000Y80175000D01*
X96500000Y80675000D01*
G37*
%TO.C,TP909*%
X85900000Y50350000D02*
X88500000Y50350000D01*
X88500000Y49850000D01*
X85900000Y49850000D01*
X85900000Y50350000D01*
G36*
X85900000Y50350000D02*
G01*
X88500000Y50350000D01*
X88500000Y49850000D01*
X85900000Y49850000D01*
X85900000Y50350000D01*
G37*
%TO.C,TP903*%
X85900000Y85350000D02*
X88500000Y85350000D01*
X88500000Y84850000D01*
X85900000Y84850000D01*
X85900000Y85350000D01*
G36*
X85900000Y85350000D02*
G01*
X88500000Y85350000D01*
X88500000Y84850000D01*
X85900000Y84850000D01*
X85900000Y85350000D01*
G37*
%TO.C,TP901*%
X85900000Y42850000D02*
X88500000Y42850000D01*
X88500000Y42350000D01*
X85900000Y42350000D01*
X85900000Y42850000D01*
G36*
X85900000Y42850000D02*
G01*
X88500000Y42850000D01*
X88500000Y42350000D01*
X85900000Y42350000D01*
X85900000Y42850000D01*
G37*
%TO.C,TP809*%
X72339118Y71529238D02*
X72839118Y71529238D01*
X72839118Y68929238D01*
X72339118Y68929238D01*
X72339118Y71529238D01*
G36*
X72339118Y71529238D02*
G01*
X72839118Y71529238D01*
X72839118Y68929238D01*
X72339118Y68929238D01*
X72339118Y71529238D01*
G37*
%TO.C,TP171*%
X85850000Y30950000D02*
X86350000Y30950000D01*
X86350000Y28350000D01*
X85850000Y28350000D01*
X85850000Y30950000D01*
G36*
X85850000Y30950000D02*
G01*
X86350000Y30950000D01*
X86350000Y28350000D01*
X85850000Y28350000D01*
X85850000Y30950000D01*
G37*
%TO.C,TP906*%
X93400000Y91300000D02*
X93900000Y91300000D01*
X93900000Y88700000D01*
X93400000Y88700000D01*
X93400000Y91300000D01*
G36*
X93400000Y91300000D02*
G01*
X93900000Y91300000D01*
X93900000Y88700000D01*
X93400000Y88700000D01*
X93400000Y91300000D01*
G37*
%TO.C,J4*%
X86200000Y87650000D02*
X88200000Y87650000D01*
X88200000Y85950000D01*
X86200000Y85950000D01*
X86200000Y87650000D01*
G36*
X86200000Y87650000D02*
G01*
X88200000Y87650000D01*
X88200000Y85950000D01*
X86200000Y85950000D01*
X86200000Y87650000D01*
G37*
%TO.C,TP802*%
X79900000Y85550000D02*
X82500000Y85550000D01*
X82500000Y85050000D01*
X79900000Y85050000D01*
X79900000Y85550000D01*
G36*
X79900000Y85550000D02*
G01*
X82500000Y85550000D01*
X82500000Y85050000D01*
X79900000Y85050000D01*
X79900000Y85550000D01*
G37*
%TO.C,TP904*%
X90000000Y84100000D02*
X90500000Y84100000D01*
X90500000Y81500000D01*
X90000000Y81500000D01*
X90000000Y84100000D01*
G36*
X90000000Y84100000D02*
G01*
X90500000Y84100000D01*
X90500000Y81500000D01*
X90000000Y81500000D01*
X90000000Y84100000D01*
G37*
%TO.C,TP807*%
X59539118Y65858488D02*
X62139118Y65858488D01*
X62139118Y65358488D01*
X59539118Y65358488D01*
X59539118Y65858488D01*
G36*
X59539118Y65858488D02*
G01*
X62139118Y65858488D01*
X62139118Y65358488D01*
X59539118Y65358488D01*
X59539118Y65858488D01*
G37*
%TO.C,TP805*%
X63939118Y80558488D02*
X64439118Y80558488D01*
X64439118Y77958488D01*
X63939118Y77958488D01*
X63939118Y80558488D01*
G36*
X63939118Y80558488D02*
G01*
X64439118Y80558488D01*
X64439118Y77958488D01*
X63939118Y77958488D01*
X63939118Y80558488D01*
G37*
D12*
%TO.C,PCB1*%
G36*
X6050000Y9850000D02*
G01*
X3796723Y9850000D01*
X3657537Y9868324D01*
X3524784Y9923312D01*
X3410787Y10010787D01*
X3321265Y10127452D01*
X3250000Y10393417D01*
X3250000Y90120711D01*
X6050000Y92920711D01*
X6050000Y9850000D01*
G37*
G36*
X103150000Y90121846D02*
G01*
X103150000Y10396723D01*
X103131676Y10257537D01*
X103076688Y10124784D01*
X102989213Y10010787D01*
X102875216Y9923312D01*
X102742463Y9868324D01*
X102603277Y9850000D01*
X100350000Y9850000D01*
X100350000Y92714438D01*
X103150000Y90121846D01*
G37*
G36*
X87650000Y1796723D02*
G01*
X87631676Y1657537D01*
X87576688Y1524784D01*
X87489213Y1410787D01*
X87375216Y1323312D01*
X87242463Y1268324D01*
X87103277Y1250000D01*
X19296723Y1250000D01*
X19157537Y1268324D01*
X19024784Y1323312D01*
X18910787Y1410787D01*
X18821265Y1527452D01*
X18750000Y1793417D01*
X18750000Y3950000D01*
X87650000Y3950000D01*
X87650000Y1796723D01*
G37*
%TO.C,TP902*%
D10*
X96500000Y74600000D02*
X99100000Y74600000D01*
X99100000Y74100000D01*
X96500000Y74100000D01*
X96500000Y74600000D01*
G36*
X96500000Y74600000D02*
G01*
X99100000Y74600000D01*
X99100000Y74100000D01*
X96500000Y74100000D01*
X96500000Y74600000D01*
G37*
%TO.C,TP174*%
X95920000Y34420000D02*
X98520000Y34420000D01*
X98520000Y33920000D01*
X95920000Y33920000D01*
X95920000Y34420000D01*
G36*
X95920000Y34420000D02*
G01*
X98520000Y34420000D01*
X98520000Y33920000D01*
X95920000Y33920000D01*
X95920000Y34420000D01*
G37*
%TO.C,TP801*%
X64629118Y58000000D02*
X67229118Y58000000D01*
X67229118Y57500000D01*
X64629118Y57500000D01*
X64629118Y58000000D01*
G36*
X64629118Y58000000D02*
G01*
X67229118Y58000000D01*
X67229118Y57500000D01*
X64629118Y57500000D01*
X64629118Y58000000D01*
G37*
%TO.C,TP804*%
X67039118Y80558488D02*
X67539118Y80558488D01*
X67539118Y77958488D01*
X67039118Y77958488D01*
X67039118Y80558488D01*
G36*
X67039118Y80558488D02*
G01*
X67539118Y80558488D01*
X67539118Y77958488D01*
X67039118Y77958488D01*
X67039118Y80558488D01*
G37*
%TO.C,TP811*%
X72400000Y51700000D02*
X72900000Y51700000D01*
X72900000Y49100000D01*
X72400000Y49100000D01*
X72400000Y51700000D01*
G36*
X72400000Y51700000D02*
G01*
X72900000Y51700000D01*
X72900000Y49100000D01*
X72400000Y49100000D01*
X72400000Y51700000D01*
G37*
%TO.C,TP806*%
X59539118Y69908488D02*
X62139118Y69908488D01*
X62139118Y69408488D01*
X59539118Y69408488D01*
X59539118Y69908488D01*
G36*
X59539118Y69908488D02*
G01*
X62139118Y69908488D01*
X62139118Y69408488D01*
X59539118Y69408488D01*
X59539118Y69908488D01*
G37*
D12*
%TO.C,U21*%
G36*
X84000000Y56100000D02*
G01*
X83500000Y56100000D01*
X83500000Y58300000D01*
X84000000Y58300000D01*
X84000000Y56100000D01*
G37*
%TO.C,TP908*%
D10*
X85900000Y69725000D02*
X88500000Y69725000D01*
X88500000Y69225000D01*
X85900000Y69225000D01*
X85900000Y69725000D01*
G36*
X85900000Y69725000D02*
G01*
X88500000Y69725000D01*
X88500000Y69225000D01*
X85900000Y69225000D01*
X85900000Y69725000D01*
G37*
%TD*%
D13*
%TO.C,R71*%
X24360000Y30725200D03*
X25630000Y30725200D03*
X26900000Y30725200D03*
X28170000Y30725200D03*
X29440000Y30725200D03*
D14*
X29440000Y33874800D03*
X28170000Y33874800D03*
X26900000Y33874800D03*
X25630000Y33874800D03*
X24360000Y33874800D03*
%TD*%
D15*
%TO.C,D7*%
X32700000Y5712500D03*
X32700000Y7287500D03*
%TD*%
D16*
%TO.C,R47*%
X40750000Y40250000D03*
X40750000Y41650000D03*
%TD*%
D17*
%TO.C,C85*%
X87180000Y49275000D03*
X88180000Y49275000D03*
%TD*%
D18*
%TO.C,U47*%
X96820000Y35560000D03*
X97220000Y35560000D03*
X97620000Y35560000D03*
X97820000Y35960000D03*
X97620000Y36360000D03*
X97220000Y36360000D03*
X96820000Y36360000D03*
X96620000Y35960000D03*
D19*
X97220000Y35960000D03*
%TD*%
D20*
%TO.C,C24*%
X19900000Y13200000D03*
X18500000Y13200000D03*
%TD*%
D21*
%TO.C,U22*%
X81300000Y77451016D03*
X80650000Y77451016D03*
X80000000Y77451016D03*
X80000000Y75776016D03*
X80650000Y75776016D03*
X81300000Y75776016D03*
%TD*%
D16*
%TO.C,C147*%
X84050000Y20750000D03*
X84050000Y22150000D03*
%TD*%
D22*
%TO.C,U13*%
X25200000Y93775000D03*
X25200000Y93125000D03*
X25200000Y92475000D03*
X25200000Y91825000D03*
X29300000Y91825000D03*
X29300000Y92475000D03*
X29300000Y93125000D03*
X29300000Y93775000D03*
%TD*%
D23*
%TO.C,J6*%
X9500000Y58900000D03*
D24*
X9500000Y61440000D03*
%TD*%
D25*
%TO.C,TP803*%
X79250000Y80900000D03*
%TD*%
D26*
%TO.C,C115*%
X21750000Y69675000D03*
X21750000Y72625000D03*
%TD*%
D27*
%TO.C,L2*%
X62394118Y72609465D03*
X60819118Y72609465D03*
%TD*%
D16*
%TO.C,R79*%
X22350000Y66300000D03*
X22350000Y67700000D03*
%TD*%
D28*
%TO.C,J3*%
X81200000Y86800000D03*
D29*
X79422000Y86820000D03*
D30*
X82978000Y86820000D03*
%TD*%
D31*
%TO.C,L22*%
X70204118Y80822959D03*
X70204118Y79247959D03*
%TD*%
D32*
%TO.C,TP808*%
X67689118Y70229238D03*
%TD*%
D33*
%TO.C,R46*%
X25925000Y59000000D03*
X24275000Y59000000D03*
%TD*%
D34*
%TO.C,TP105*%
X96850000Y44550000D03*
%TD*%
D35*
%TO.C,R35*%
X7650000Y87450000D03*
X7650000Y86050000D03*
%TD*%
D36*
%TO.C,L20*%
X87212500Y60800000D03*
X85087500Y60800000D03*
%TD*%
D37*
%TO.C,C25*%
X20050000Y11450000D03*
X18450000Y11450000D03*
%TD*%
D38*
%TO.C,AT2*%
X83550000Y75550000D03*
X83550000Y74450000D03*
D39*
X82850000Y75000000D03*
%TD*%
D35*
%TO.C,R4*%
X78700000Y72700000D03*
X78700000Y71300000D03*
%TD*%
D40*
%TO.C,R77*%
X12800000Y53300000D03*
X14200000Y53300000D03*
%TD*%
D41*
%TO.C,U8*%
X38525000Y72462500D03*
X39175000Y72462500D03*
X39825000Y72462500D03*
X40475000Y72462500D03*
X40475000Y74737500D03*
X39825000Y74737500D03*
X39175000Y74737500D03*
X38525000Y74737500D03*
%TD*%
D42*
%TO.C,U34*%
X42300000Y82400000D03*
D43*
X44862500Y80495000D03*
X44862500Y81765000D03*
X44862500Y83035000D03*
X44862500Y84305000D03*
X39737500Y84305000D03*
X39737500Y83035000D03*
X39737500Y81765000D03*
X39737500Y80495000D03*
%TD*%
D35*
%TO.C,C141*%
X97300000Y52100000D03*
X97300000Y50700000D03*
%TD*%
D34*
%TO.C,TP148*%
X24000000Y68650000D03*
%TD*%
D35*
%TO.C,R56*%
X46050000Y31300000D03*
X46050000Y29900000D03*
%TD*%
D40*
%TO.C,C27*%
X40900000Y44450000D03*
X42300000Y44450000D03*
%TD*%
D16*
%TO.C,C138*%
X68400000Y42710000D03*
X68400000Y44110000D03*
%TD*%
D40*
%TO.C,R23*%
X92925000Y79700000D03*
X94325000Y79700000D03*
%TD*%
D34*
%TO.C,TP164*%
X36900000Y92300000D03*
%TD*%
D35*
%TO.C,R91*%
X52630628Y81593635D03*
X52630628Y80193635D03*
%TD*%
D34*
%TO.C,TP10*%
X39000000Y77600000D03*
%TD*%
D44*
%TO.C,J7*%
X13100000Y58295000D03*
D34*
X13100000Y59565000D03*
X13100000Y60835000D03*
X13100000Y62105000D03*
%TD*%
D16*
%TO.C,C51*%
X62850000Y49250000D03*
X62850000Y50650000D03*
%TD*%
D40*
%TO.C,R13*%
X88300000Y77300000D03*
X89700000Y77300000D03*
%TD*%
D45*
%TO.C,C84*%
X87200000Y50800000D03*
X87200000Y51800000D03*
%TD*%
D46*
%TO.C,U6*%
X35650000Y76050000D03*
X35650000Y76550000D03*
X35650000Y77050000D03*
X35650000Y77550000D03*
X32750000Y77550000D03*
X32750000Y77050000D03*
X32750000Y76550000D03*
X32750000Y76050000D03*
D47*
X34680000Y75960000D03*
X34680000Y76800000D03*
X34680000Y77640000D03*
D48*
X34200000Y76800000D03*
D47*
X33720000Y75960000D03*
X33720000Y76800000D03*
X33720000Y77640000D03*
%TD*%
D14*
%TO.C,R69*%
X51940000Y27874800D03*
X50670000Y27874800D03*
X49400000Y27874800D03*
X48130000Y27874800D03*
X46860000Y27874800D03*
D13*
X46860000Y24725200D03*
X48130000Y24725200D03*
X49400000Y24725200D03*
X50670000Y24725200D03*
X51940000Y24725200D03*
%TD*%
D40*
%TO.C,R65*%
X83500000Y68100000D03*
X84900000Y68100000D03*
%TD*%
D49*
%TO.C,U14*%
X44712500Y31856250D03*
X42812500Y31856250D03*
X43762500Y29981250D03*
%TD*%
D16*
%TO.C,R51*%
X27850000Y89100000D03*
X27850000Y90500000D03*
%TD*%
D40*
%TO.C,R16*%
X89000000Y74950000D03*
X90400000Y74950000D03*
%TD*%
D50*
%TO.C,U45*%
X95913553Y24920000D03*
X96573553Y24920000D03*
X97233553Y24920000D03*
X97233553Y26720000D03*
X96573553Y26720000D03*
X95913553Y26720000D03*
%TD*%
D35*
%TO.C,R83*%
X48300000Y84400000D03*
X48300000Y83000000D03*
%TD*%
D51*
%TO.C,U24*%
X17950000Y66525000D03*
X18850000Y66525000D03*
X19750000Y66525000D03*
X20650000Y66525000D03*
X20650000Y67825000D03*
X19750000Y67825000D03*
X18850000Y67825000D03*
X17950000Y67825000D03*
%TD*%
D52*
%TO.C,L4*%
X66874118Y70214238D03*
X66874118Y69244238D03*
%TD*%
D53*
%TO.C,FL1*%
X99057500Y78882500D03*
X97787500Y78882500D03*
X96517500Y78882500D03*
D54*
X96387500Y77482500D03*
D53*
X96517500Y76082500D03*
X97787500Y76082500D03*
X99057500Y76082500D03*
D55*
X98937500Y77482500D03*
%TD*%
D56*
%TO.C,TP81*%
X16500000Y60250000D03*
%TD*%
%TO.C,TP18*%
X56050000Y62050000D03*
%TD*%
D40*
%TO.C,R111*%
X95800000Y57850000D03*
X97200000Y57850000D03*
%TD*%
D16*
%TO.C,R61*%
X14850000Y91700000D03*
X14850000Y93100000D03*
%TD*%
D57*
%TO.C,R110*%
X90750000Y63825000D03*
X90750000Y62175000D03*
%TD*%
D35*
%TO.C,C121*%
X94850000Y83050000D03*
X94850000Y81650000D03*
%TD*%
D32*
%TO.C,TP905*%
X85200000Y73400000D03*
%TD*%
D20*
%TO.C,C23*%
X19900000Y14700000D03*
X18500000Y14700000D03*
%TD*%
%TO.C,C142*%
X68689118Y82008488D03*
X67289118Y82008488D03*
%TD*%
D17*
%TO.C,C58*%
X95000000Y70900000D03*
X96000000Y70900000D03*
%TD*%
D20*
%TO.C,R115*%
X95000000Y48000000D03*
X93600000Y48000000D03*
%TD*%
D58*
%TO.C,FL3*%
X68729118Y71499238D03*
X68729118Y70229238D03*
X68729118Y68959238D03*
D59*
X70139118Y68819238D03*
D58*
X71549118Y68959238D03*
X71549118Y70229238D03*
X71549118Y71499238D03*
D60*
X70139118Y71384238D03*
%TD*%
D16*
%TO.C,C161*%
X96300000Y39850000D03*
X96300000Y41250000D03*
%TD*%
D35*
%TO.C,R36*%
X7650000Y85200000D03*
X7650000Y83800000D03*
%TD*%
D40*
%TO.C,C31*%
X31000000Y60450000D03*
X29600000Y60450000D03*
%TD*%
D17*
%TO.C,C87*%
X87180000Y43575000D03*
X88180000Y43575000D03*
%TD*%
D45*
%TO.C,C54*%
X64496766Y53170278D03*
X64496766Y54170278D03*
%TD*%
D20*
%TO.C,R106*%
X94325000Y78500000D03*
X92925000Y78500000D03*
%TD*%
%TO.C,C19*%
X19900000Y21000000D03*
X18500000Y21000000D03*
%TD*%
D32*
%TO.C,TP907*%
X97800000Y80425000D03*
%TD*%
D61*
%TO.C,R74*%
X7625200Y55140000D03*
X7625200Y53870000D03*
X7625200Y52600000D03*
X7625200Y51330000D03*
X7625200Y50060000D03*
D62*
X10774800Y50060000D03*
X10774800Y51330000D03*
X10774800Y52600000D03*
X10774800Y53870000D03*
X10774800Y55140000D03*
%TD*%
D34*
%TO.C,TP160*%
X10250000Y72250000D03*
%TD*%
D44*
%TO.C,SH1*%
X58439118Y55378488D03*
D63*
X61214118Y55378488D03*
D64*
X67589118Y55378488D03*
D63*
X73964118Y55378488D03*
D44*
X76739118Y55378488D03*
D65*
X58439118Y57868488D03*
X76739118Y57868488D03*
D66*
X58439118Y63958488D03*
X76739118Y63958488D03*
X58439118Y69958488D03*
X76739118Y69958488D03*
X58439118Y75958488D03*
X76739118Y75958488D03*
D65*
X58439118Y82048488D03*
X76739118Y82048488D03*
D44*
X58439118Y84538488D03*
D63*
X61214118Y84538488D03*
D64*
X67589118Y84538488D03*
D63*
X73964118Y84538488D03*
D44*
X76739118Y84538488D03*
%TD*%
D56*
%TO.C,TP150*%
X11600000Y79575000D03*
%TD*%
D16*
%TO.C,C48*%
X55353182Y77221409D03*
X55353182Y78621409D03*
%TD*%
D17*
%TO.C,C86*%
X87180000Y46425000D03*
X88180000Y46425000D03*
%TD*%
D20*
%TO.C,C15*%
X31000000Y68600000D03*
X29600000Y68600000D03*
%TD*%
D67*
%TO.C,FL6*%
X60839118Y68883488D03*
X60839118Y67333488D03*
X62039118Y67333488D03*
X62039118Y68883488D03*
%TD*%
D15*
%TO.C,D6*%
X30700000Y5712500D03*
X30700000Y7287500D03*
%TD*%
D16*
%TO.C,C128*%
X54950000Y63700000D03*
X54950000Y65100000D03*
%TD*%
D68*
%TO.C,FB3*%
X59387500Y32200000D03*
X61212500Y32200000D03*
%TD*%
D35*
%TO.C,C125*%
X45250000Y61100000D03*
X45250000Y59700000D03*
%TD*%
D69*
%TO.C,U7*%
X65929118Y63958488D03*
X64659118Y63958488D03*
X63389118Y63958488D03*
X62119118Y63958488D03*
X60849118Y63958488D03*
X60849118Y59258488D03*
X62119118Y59258488D03*
X63389118Y59258488D03*
X64659118Y59258488D03*
X65929118Y59258488D03*
%TD*%
D70*
%TO.C,C13*%
X31175000Y71000000D03*
X28225000Y71000000D03*
%TD*%
D40*
%TO.C,C153*%
X93050000Y20050000D03*
X94450000Y20050000D03*
%TD*%
D71*
%TO.C,C139*%
X63875000Y43447500D03*
X66825000Y43447500D03*
%TD*%
D40*
%TO.C,C49*%
X68450000Y53050000D03*
X69850000Y53050000D03*
%TD*%
%TO.C,R95*%
X43308789Y22081070D03*
X44708789Y22081070D03*
%TD*%
%TO.C,R109*%
X92500000Y59300000D03*
X93900000Y59300000D03*
%TD*%
D20*
%TO.C,C116*%
X10925000Y70705000D03*
X9525000Y70705000D03*
%TD*%
D35*
%TO.C,R7*%
X56450000Y51500000D03*
X56450000Y50100000D03*
%TD*%
D34*
%TO.C,TP54*%
X90100000Y47200000D03*
%TD*%
D16*
%TO.C,R6*%
X73363275Y45700951D03*
X73363275Y47100951D03*
%TD*%
D34*
%TO.C,TP15*%
X52550000Y69300000D03*
%TD*%
D40*
%TO.C,C33*%
X37500000Y29450000D03*
X38900000Y29450000D03*
%TD*%
D16*
%TO.C,C130*%
X91125000Y10200000D03*
X91125000Y11600000D03*
%TD*%
D72*
%TO.C,U38*%
X64050000Y38562500D03*
X65000000Y38562500D03*
X65950000Y38562500D03*
X65950000Y40837500D03*
X64050000Y40837500D03*
%TD*%
D56*
%TO.C,TP83*%
X44200000Y24750000D03*
%TD*%
D16*
%TO.C,C103*%
X92950000Y29525000D03*
X92950000Y30925000D03*
%TD*%
D34*
%TO.C,TP60*%
X89500000Y43400000D03*
%TD*%
D52*
%TO.C,L18*%
X87200000Y45485000D03*
X87200000Y44515000D03*
%TD*%
D17*
%TO.C,C144*%
X70289118Y82308488D03*
X71289118Y82308488D03*
%TD*%
D40*
%TO.C,C65*%
X32550000Y32975000D03*
X33950000Y32975000D03*
%TD*%
D73*
%TO.C,D3*%
X20837500Y89975000D03*
X22937500Y89975000D03*
%TD*%
D74*
%TO.C,C107*%
X14900000Y81420000D03*
X14900000Y75180000D03*
%TD*%
D75*
%TO.C,J1*%
X65265000Y90311600D03*
X65265000Y88076400D03*
X63995000Y90311600D03*
X63995000Y88076400D03*
X62725000Y90311600D03*
X62725000Y88076400D03*
X61455000Y90311600D03*
X61455000Y88076400D03*
X60185000Y90311600D03*
X60185000Y88076400D03*
X58915000Y90311600D03*
X58915000Y88076400D03*
X57645000Y90311600D03*
X57645000Y88076400D03*
X56375000Y90311600D03*
X56375000Y88076400D03*
X55105000Y90311600D03*
X55105000Y88076400D03*
X53835000Y90311600D03*
X53835000Y88076400D03*
X52565000Y90311600D03*
X52565000Y88076400D03*
X51295000Y90311600D03*
X51295000Y88076400D03*
X50025000Y90311600D03*
X50025000Y88076400D03*
X48755000Y90311600D03*
X48755000Y88076400D03*
X47485000Y90311600D03*
X47485000Y88076400D03*
X46215000Y90311600D03*
X46215000Y88076400D03*
X44945000Y90311600D03*
X44945000Y88076400D03*
X43675000Y90311600D03*
X43675000Y88076400D03*
X42405000Y90311600D03*
X42405000Y88076400D03*
X41135000Y90311600D03*
X41135000Y88076400D03*
%TD*%
D20*
%TO.C,R40*%
X10200000Y76950000D03*
X8800000Y76950000D03*
%TD*%
D13*
%TO.C,R70*%
X16360000Y30725200D03*
X17630000Y30725200D03*
X18900000Y30725200D03*
X20170000Y30725200D03*
X21440000Y30725200D03*
D14*
X21440000Y33874800D03*
X20170000Y33874800D03*
X18900000Y33874800D03*
X17630000Y33874800D03*
X16360000Y33874800D03*
%TD*%
D20*
%TO.C,C100*%
X44600000Y85900000D03*
X43200000Y85900000D03*
%TD*%
D76*
%TO.C,D10*%
X19200000Y70800000D03*
X19200000Y72900000D03*
%TD*%
D56*
%TO.C,TP85*%
X40600000Y48400000D03*
%TD*%
D35*
%TO.C,R64*%
X22950000Y88200000D03*
X22950000Y86800000D03*
%TD*%
D34*
%TO.C,TP96*%
X15600000Y54800000D03*
%TD*%
D16*
%TO.C,R33*%
X24450000Y8825000D03*
X24450000Y10225000D03*
%TD*%
D35*
%TO.C,R9*%
X59550000Y51500000D03*
X59550000Y50100000D03*
%TD*%
D71*
%TO.C,C34*%
X32525000Y30600000D03*
X35475000Y30600000D03*
%TD*%
D34*
%TO.C,TP53*%
X96500000Y47300000D03*
%TD*%
%TO.C,TP56*%
X92400000Y66150000D03*
%TD*%
D35*
%TO.C,C135*%
X95950000Y12450000D03*
X95950000Y11050000D03*
%TD*%
D45*
%TO.C,C71*%
X97233553Y31537820D03*
X97233553Y32537820D03*
%TD*%
D20*
%TO.C,R32*%
X10187500Y91875000D03*
X8787500Y91875000D03*
%TD*%
D73*
%TO.C,D1*%
X26350000Y84000000D03*
X28450000Y84000000D03*
%TD*%
D34*
%TO.C,TP37*%
X90950000Y6500000D03*
%TD*%
D35*
%TO.C,R84*%
X48300000Y82150000D03*
X48300000Y80750000D03*
%TD*%
D56*
%TO.C,TP151*%
X92600000Y17400000D03*
%TD*%
D77*
%TO.C,U4*%
X61814118Y75958488D03*
X61314118Y75958488D03*
X60814118Y75958488D03*
X60814118Y74258488D03*
X61314118Y74258488D03*
X61814118Y74258488D03*
D78*
X61314118Y75108488D03*
%TD*%
D35*
%TO.C,R58*%
X15912500Y85900000D03*
X15912500Y84500000D03*
%TD*%
D74*
%TO.C,C108*%
X24500000Y81420000D03*
X24500000Y75180000D03*
%TD*%
D35*
%TO.C,C88*%
X77801531Y35205241D03*
X77801531Y33805241D03*
%TD*%
D17*
%TO.C,C67*%
X79750000Y74150000D03*
X80750000Y74150000D03*
%TD*%
D74*
%TO.C,C109*%
X19700000Y81420000D03*
X19700000Y75180000D03*
%TD*%
D79*
%TO.C,U41*%
X73384118Y78777738D03*
X73384118Y79277738D03*
X73384118Y79777738D03*
X73384118Y80277738D03*
X71614118Y80277738D03*
X71614118Y79777738D03*
X71614118Y79277738D03*
X71614118Y78777738D03*
D47*
X72499118Y78977738D03*
D80*
X72499118Y79527738D03*
D47*
X72499118Y80077738D03*
%TD*%
D67*
%TO.C,FL4*%
X81198437Y83790214D03*
X81198437Y82240214D03*
X82398437Y82240214D03*
X82398437Y83790214D03*
%TD*%
D20*
%TO.C,C20*%
X19900000Y19500000D03*
X18500000Y19500000D03*
%TD*%
D81*
%TO.C,BZ1*%
X49824105Y14868870D03*
X49824105Y18368870D03*
%TD*%
D72*
%TO.C,U31*%
X92650000Y10162500D03*
X93600000Y10162500D03*
X94550000Y10162500D03*
X94550000Y12437500D03*
X92650000Y12437500D03*
%TD*%
D32*
%TO.C,TP909*%
X87200000Y50100000D03*
%TD*%
D40*
%TO.C,C68*%
X79700000Y73100000D03*
X81100000Y73100000D03*
%TD*%
D82*
%TO.C,U28*%
X10462500Y84112500D03*
X11112500Y84112500D03*
X11762500Y84112500D03*
X12412500Y84112500D03*
X13062500Y84112500D03*
X13712500Y84112500D03*
X14362500Y84112500D03*
X14362500Y89837500D03*
X13712500Y89837500D03*
X13062500Y89837500D03*
X12412500Y89837500D03*
X11762500Y89837500D03*
X11112500Y89837500D03*
X10462500Y89837500D03*
%TD*%
D35*
%TO.C,R125*%
X78400000Y9850000D03*
X78400000Y8450000D03*
%TD*%
D70*
%TO.C,C14*%
X31175000Y74200000D03*
X28225000Y74200000D03*
%TD*%
D83*
%TO.C,L10*%
X67585000Y52900000D03*
X66615000Y52900000D03*
%TD*%
D16*
%TO.C,R93*%
X38400000Y88600000D03*
X38400000Y90000000D03*
%TD*%
D56*
%TO.C,TP8*%
X16987500Y90575000D03*
%TD*%
D17*
%TO.C,C69*%
X82500000Y76450000D03*
X83500000Y76450000D03*
%TD*%
D40*
%TO.C,C60*%
X89100000Y80700000D03*
X90500000Y80700000D03*
%TD*%
%TO.C,R2*%
X63489118Y72608488D03*
X64889118Y72608488D03*
%TD*%
D35*
%TO.C,R45*%
X32700000Y10225000D03*
X32700000Y8825000D03*
%TD*%
D56*
%TO.C,TP135*%
X37500000Y26350000D03*
%TD*%
D32*
%TO.C,TP903*%
X87200000Y85100000D03*
%TD*%
%TO.C,TP901*%
X87200000Y42600000D03*
%TD*%
D20*
%TO.C,R26*%
X89550000Y31750000D03*
X88150000Y31750000D03*
%TD*%
D15*
%TO.C,D9*%
X15950000Y5712500D03*
X15950000Y7287500D03*
%TD*%
D34*
%TO.C,TP104*%
X15700000Y56300000D03*
%TD*%
D16*
%TO.C,C28*%
X27600000Y59450000D03*
X27600000Y60850000D03*
%TD*%
%TO.C,R27*%
X88850000Y29300000D03*
X88850000Y30700000D03*
%TD*%
%TO.C,C106*%
X87575000Y28975000D03*
X87575000Y30375000D03*
%TD*%
D84*
%TO.C,L24*%
X60440000Y35060000D03*
X60440000Y38360000D03*
%TD*%
D85*
%TO.C,U20*%
X87600000Y83200000D03*
X87200000Y83200000D03*
X86800000Y83200000D03*
X86600000Y82800000D03*
X86800000Y82400000D03*
X87200000Y82400000D03*
X87600000Y82400000D03*
X87800000Y82800000D03*
D86*
X87200000Y82800000D03*
%TD*%
D16*
%TO.C,C40*%
X79775000Y45825000D03*
X79775000Y47225000D03*
%TD*%
D87*
%TO.C,U29*%
X98250000Y88135000D03*
X97750000Y88135000D03*
X97250000Y88135000D03*
X96750000Y88135000D03*
X96750000Y86365000D03*
X97250000Y86365000D03*
X97750000Y86365000D03*
X98250000Y86365000D03*
D47*
X98050000Y87250000D03*
D88*
X97500000Y87250000D03*
D47*
X96950000Y87250000D03*
%TD*%
D35*
%TO.C,R37*%
X8787500Y83800000D03*
X8787500Y82400000D03*
%TD*%
%TO.C,C79*%
X23700000Y93500000D03*
X23700000Y92100000D03*
%TD*%
D40*
%TO.C,C26*%
X42700000Y37350000D03*
X44100000Y37350000D03*
%TD*%
D34*
%TO.C,TP158*%
X58400000Y47300000D03*
%TD*%
D16*
%TO.C,R78*%
X32300000Y92300000D03*
X32300000Y93700000D03*
%TD*%
D89*
%TO.C,L21*%
X51400000Y66500000D03*
X51400000Y63200000D03*
%TD*%
D56*
%TO.C,TP9*%
X8950000Y89800000D03*
%TD*%
D90*
%TO.C,U44*%
X92287500Y21430000D03*
X92287500Y21930000D03*
X92287500Y22430000D03*
X92287500Y22930000D03*
X92287500Y23430000D03*
X92287500Y23930000D03*
X92287500Y24430000D03*
X92287500Y24930000D03*
X92287500Y25430000D03*
X92287500Y25930000D03*
X92287500Y26430000D03*
X92287500Y26930000D03*
D91*
X91600000Y27617500D03*
X91100000Y27617500D03*
X90600000Y27617500D03*
X90100000Y27617500D03*
X89600000Y27617500D03*
X89100000Y27617500D03*
X88600000Y27617500D03*
X88100000Y27617500D03*
X87600000Y27617500D03*
X87100000Y27617500D03*
X86600000Y27617500D03*
X86100000Y27617500D03*
D90*
X85412500Y26930000D03*
X85412500Y26430000D03*
X85412500Y25930000D03*
X85412500Y25430000D03*
X85412500Y24930000D03*
X85412500Y24430000D03*
X85412500Y23930000D03*
X85412500Y23430000D03*
X85412500Y22930000D03*
X85412500Y22430000D03*
X85412500Y21930000D03*
X85412500Y21430000D03*
D91*
X86100000Y20742500D03*
X86600000Y20742500D03*
X87100000Y20742500D03*
X87600000Y20742500D03*
X88100000Y20742500D03*
X88600000Y20742500D03*
X89100000Y20742500D03*
X89600000Y20742500D03*
X90100000Y20742500D03*
X90600000Y20742500D03*
X91100000Y20742500D03*
X91600000Y20742500D03*
D92*
X88850000Y24180000D03*
%TD*%
D20*
%TO.C,C117*%
X17600000Y69250000D03*
X16200000Y69250000D03*
%TD*%
D93*
%TO.C,FL5*%
X66514118Y79258488D03*
X64964118Y79258488D03*
X64964118Y78058488D03*
X66514118Y78058488D03*
%TD*%
D35*
%TO.C,C99*%
X46800000Y81750000D03*
X46800000Y80350000D03*
%TD*%
D15*
%TO.C,D12*%
X32300000Y89212500D03*
X32300000Y90787500D03*
%TD*%
D52*
%TO.C,L17*%
X87200000Y48335000D03*
X87200000Y47365000D03*
%TD*%
D35*
%TO.C,R62*%
X8787500Y88200000D03*
X8787500Y86800000D03*
%TD*%
D20*
%TO.C,R75*%
X14200000Y56300000D03*
X12800000Y56300000D03*
%TD*%
D34*
%TO.C,TP61*%
X28900000Y86700000D03*
%TD*%
D70*
%TO.C,C123*%
X44250000Y65100000D03*
X41300000Y65100000D03*
%TD*%
D16*
%TO.C,R48*%
X45050000Y13750000D03*
X45050000Y15150000D03*
%TD*%
D40*
%TO.C,C78*%
X37450000Y31600000D03*
X38850000Y31600000D03*
%TD*%
D94*
%TO.C,U39*%
X52707500Y55755000D03*
X52707500Y55105000D03*
X52707500Y54455000D03*
X52707500Y53805000D03*
X54982500Y53805000D03*
X54982500Y54455000D03*
X54982500Y55105000D03*
X54982500Y55755000D03*
%TD*%
D22*
%TO.C,U37*%
X32650000Y87575000D03*
X32650000Y86925000D03*
X32650000Y86275000D03*
X32650000Y85625000D03*
X36750000Y85625000D03*
X36750000Y86275000D03*
X36750000Y86925000D03*
X36750000Y87575000D03*
%TD*%
D20*
%TO.C,R113*%
X95000000Y54750000D03*
X93600000Y54750000D03*
%TD*%
D37*
%TO.C,C61*%
X94100000Y56200000D03*
X92500000Y56200000D03*
%TD*%
D16*
%TO.C,R123*%
X97400000Y39850000D03*
X97400000Y41250000D03*
%TD*%
D34*
%TO.C,TP106*%
X43450000Y15050000D03*
%TD*%
D27*
%TO.C,L3*%
X62389118Y76908488D03*
X60814118Y76908488D03*
%TD*%
D95*
%TO.C,L1*%
X36550000Y72300000D03*
X33250000Y72300000D03*
%TD*%
D45*
%TO.C,C41*%
X73889118Y67754238D03*
X73889118Y68754238D03*
%TD*%
D32*
%TO.C,TP809*%
X72589118Y70229238D03*
%TD*%
D20*
%TO.C,C7*%
X35900000Y79300000D03*
X34500000Y79300000D03*
%TD*%
D96*
%TO.C,C53*%
X63950000Y34800000D03*
X65550000Y34800000D03*
%TD*%
D40*
%TO.C,R5*%
X79747401Y44869545D03*
X81147401Y44869545D03*
%TD*%
D32*
%TO.C,TP171*%
X86100000Y29650000D03*
%TD*%
D97*
%TO.C,C36*%
X15400000Y42275000D03*
X15400000Y39325000D03*
%TD*%
D50*
%TO.C,U23*%
X81215000Y41225000D03*
X81875000Y41225000D03*
X82535000Y41225000D03*
X82535000Y43025000D03*
X81875000Y43025000D03*
X81215000Y43025000D03*
%TD*%
D16*
%TO.C,C44*%
X78580074Y45291502D03*
X78580074Y46691502D03*
%TD*%
D40*
%TO.C,C32*%
X29600000Y59100000D03*
X31000000Y59100000D03*
%TD*%
D16*
%TO.C,R41*%
X20462500Y83700000D03*
X20462500Y85100000D03*
%TD*%
D40*
%TO.C,C152*%
X91100000Y18950000D03*
X92500000Y18950000D03*
%TD*%
%TO.C,R103*%
X92950000Y28550000D03*
X94350000Y28550000D03*
%TD*%
D98*
%TO.C,FID3*%
X94000000Y93000000D03*
%TD*%
D20*
%TO.C,R108*%
X93900000Y60450000D03*
X92500000Y60450000D03*
%TD*%
D16*
%TO.C,R25*%
X75615222Y45506739D03*
X75615222Y46906739D03*
%TD*%
D56*
%TO.C,TP84*%
X39800000Y26000000D03*
%TD*%
D32*
%TO.C,TP906*%
X93650000Y90000000D03*
%TD*%
D34*
%TO.C,TP5*%
X57950000Y48700000D03*
%TD*%
D40*
%TO.C,R14*%
X92925000Y77300000D03*
X94325000Y77300000D03*
%TD*%
D20*
%TO.C,C10*%
X31200000Y78950000D03*
X29800000Y78950000D03*
%TD*%
D61*
%TO.C,R73*%
X7625200Y47640000D03*
X7625200Y46370000D03*
X7625200Y45100000D03*
X7625200Y43830000D03*
X7625200Y42560000D03*
D62*
X10774800Y42560000D03*
X10774800Y43830000D03*
X10774800Y45100000D03*
X10774800Y46370000D03*
X10774800Y47640000D03*
%TD*%
D16*
%TO.C,R11*%
X93825000Y66150000D03*
X93825000Y67550000D03*
%TD*%
D20*
%TO.C,C46*%
X92155000Y40877500D03*
X90755000Y40877500D03*
%TD*%
D56*
%TO.C,TP78*%
X36550000Y19470000D03*
%TD*%
D40*
%TO.C,C8*%
X63439118Y74258488D03*
X64839118Y74258488D03*
%TD*%
D99*
%TO.C,C120*%
X95950000Y82950000D03*
X95950000Y81950000D03*
%TD*%
D20*
%TO.C,C18*%
X40250000Y70600000D03*
X38850000Y70600000D03*
%TD*%
D100*
%TO.C,Y1*%
X44500000Y39150000D03*
X44500000Y42850000D03*
X42300000Y42850000D03*
X42300000Y39150000D03*
%TD*%
D40*
%TO.C,C70*%
X87200000Y65500000D03*
X88600000Y65500000D03*
%TD*%
D101*
%TO.C,U11*%
X39037500Y14762500D03*
X39687500Y14762500D03*
X40337500Y14762500D03*
X40337500Y16437500D03*
X39687500Y16437500D03*
X39037500Y16437500D03*
%TD*%
D53*
%TO.C,FL2*%
X91130000Y85240000D03*
X92400000Y85240000D03*
X93670000Y85240000D03*
D54*
X93800000Y86640000D03*
D53*
X93670000Y88040000D03*
X92400000Y88040000D03*
X91130000Y88040000D03*
D55*
X91250000Y86640000D03*
%TD*%
D16*
%TO.C,C56*%
X50650000Y54050000D03*
X50650000Y55450000D03*
%TD*%
D56*
%TO.C,TP6*%
X10462500Y75037500D03*
%TD*%
D35*
%TO.C,R20*%
X94100000Y41250000D03*
X94100000Y39850000D03*
%TD*%
D38*
%TO.C,AT3*%
X83550000Y73550000D03*
X83550000Y72450000D03*
D39*
X82850000Y73000000D03*
%TD*%
D16*
%TO.C,R67*%
X17450000Y71500000D03*
X17450000Y72900000D03*
%TD*%
D98*
%TO.C,FID1*%
X94000000Y7000000D03*
%TD*%
D35*
%TO.C,R8*%
X57950000Y51500000D03*
X57950000Y50100000D03*
%TD*%
D76*
%TO.C,D13*%
X46594932Y16268235D03*
X46594932Y18368235D03*
%TD*%
D98*
%TO.C,FID2*%
X12000000Y7000000D03*
%TD*%
D16*
%TO.C,C89*%
X95700000Y62400000D03*
X95700000Y63800000D03*
%TD*%
D40*
%TO.C,C3*%
X63539118Y76908488D03*
X64939118Y76908488D03*
%TD*%
D102*
%TO.C,L26*%
X96162500Y84450000D03*
X97737500Y84450000D03*
%TD*%
D71*
%TO.C,C132*%
X92550000Y15000000D03*
X95500000Y15000000D03*
%TD*%
D15*
%TO.C,D5*%
X28700000Y5712500D03*
X28700000Y7287500D03*
%TD*%
D16*
%TO.C,C164*%
X95200000Y37650000D03*
X95200000Y39050000D03*
%TD*%
D35*
%TO.C,C131*%
X30525000Y87550000D03*
X30525000Y86150000D03*
%TD*%
D40*
%TO.C,R50*%
X37500000Y28250000D03*
X38900000Y28250000D03*
%TD*%
D101*
%TO.C,U42*%
X52900000Y77137500D03*
X53550000Y77137500D03*
X54200000Y77137500D03*
X54200000Y78812500D03*
X53550000Y78812500D03*
X52900000Y78812500D03*
%TD*%
D103*
%TO.C,AT1*%
X89550000Y72400000D03*
X88450000Y72400000D03*
D104*
X89000000Y73100000D03*
%TD*%
D16*
%TO.C,R59*%
X15912500Y87600000D03*
X15912500Y89000000D03*
%TD*%
D17*
%TO.C,C9*%
X60839118Y66358488D03*
X61839118Y66358488D03*
%TD*%
D56*
%TO.C,TP82*%
X40600000Y49800000D03*
%TD*%
D20*
%TO.C,C90*%
X94950000Y45750000D03*
X93550000Y45750000D03*
%TD*%
D105*
%TO.C,C113*%
X17250000Y86650000D03*
X17250000Y88250000D03*
%TD*%
D28*
%TO.C,J4*%
X87200000Y86800000D03*
D29*
X85422000Y86820000D03*
D30*
X88978000Y86820000D03*
%TD*%
D35*
%TO.C,C101*%
X43200000Y75700000D03*
X43200000Y74300000D03*
%TD*%
D34*
%TO.C,TP55*%
X80550000Y71550000D03*
%TD*%
D16*
%TO.C,C151*%
X91775000Y29150000D03*
X91775000Y30550000D03*
%TD*%
D106*
%TO.C,C96*%
X81450000Y64250000D03*
X80450000Y64250000D03*
%TD*%
D32*
%TO.C,TP802*%
X81200000Y85300000D03*
%TD*%
D40*
%TO.C,R107*%
X80200000Y60800000D03*
X81600000Y60800000D03*
%TD*%
D32*
%TO.C,TP904*%
X90250000Y82800000D03*
%TD*%
D35*
%TO.C,R54*%
X21550000Y10200000D03*
X21550000Y8800000D03*
%TD*%
D107*
%TO.C,Q6*%
X43162500Y28200000D03*
X43162500Y26300000D03*
X45037500Y27250000D03*
%TD*%
D16*
%TO.C,R39*%
X8800000Y79675000D03*
X8800000Y81075000D03*
%TD*%
D34*
%TO.C,TP167*%
X26000000Y86700000D03*
%TD*%
D108*
%TO.C,X3*%
X90210000Y34385000D03*
X88160000Y34385000D03*
X88160000Y32935000D03*
X90210000Y32935000D03*
%TD*%
D56*
%TO.C,TP163*%
X34400000Y93600000D03*
%TD*%
D40*
%TO.C,C62*%
X89200000Y79200000D03*
X90600000Y79200000D03*
%TD*%
D106*
%TO.C,C145*%
X75499118Y79258488D03*
X74499118Y79258488D03*
%TD*%
D35*
%TO.C,R80*%
X14650000Y67950000D03*
X14650000Y66550000D03*
%TD*%
%TO.C,R42*%
X26700000Y10225000D03*
X26700000Y8825000D03*
%TD*%
D56*
%TO.C,TP109*%
X19400000Y92100000D03*
%TD*%
D35*
%TO.C,R85*%
X52550000Y71750000D03*
X52550000Y70350000D03*
%TD*%
%TO.C,R52*%
X30800000Y90800000D03*
X30800000Y89400000D03*
%TD*%
D20*
%TO.C,C137*%
X62300000Y40297500D03*
X60900000Y40297500D03*
%TD*%
D72*
%TO.C,Q4*%
X79650000Y67662500D03*
X81550000Y67662500D03*
X80600000Y69937500D03*
%TD*%
D62*
%TO.C,R72*%
X10774800Y35060000D03*
X10774800Y36330000D03*
X10774800Y37600000D03*
X10774800Y38870000D03*
X10774800Y40140000D03*
D61*
X7625200Y40140000D03*
X7625200Y38870000D03*
X7625200Y37600000D03*
X7625200Y36330000D03*
X7625200Y35060000D03*
%TD*%
D71*
%TO.C,C74*%
X51500000Y85050000D03*
X54450000Y85050000D03*
%TD*%
D109*
%TO.C,Q2*%
X43305991Y20753353D03*
X43305991Y18853353D03*
X45580991Y19803353D03*
%TD*%
D110*
%TO.C,J5*%
X57125000Y24136500D03*
X58225000Y24136500D03*
X59325000Y24136500D03*
X60425000Y24136500D03*
X61525000Y24136500D03*
X62625000Y24136500D03*
X63725000Y24136500D03*
X64825000Y24136500D03*
D111*
X65875000Y24236500D03*
D112*
X54325000Y8436500D03*
D113*
X53325000Y9136500D03*
D114*
X54075000Y8686500D03*
D115*
X55225000Y24136500D03*
D116*
X66625000Y19936500D03*
D117*
X66625000Y10136500D03*
D54*
X66625000Y13736500D03*
%TD*%
D35*
%TO.C,R21*%
X94100000Y39050000D03*
X94100000Y37650000D03*
%TD*%
D56*
%TO.C,TP7*%
X17387500Y84475000D03*
%TD*%
D37*
%TO.C,C140*%
X94100000Y57850000D03*
X92500000Y57850000D03*
%TD*%
D99*
%TO.C,C119*%
X97800000Y82650000D03*
X97800000Y81650000D03*
%TD*%
D35*
%TO.C,R94*%
X54562157Y81598405D03*
X54562157Y80198405D03*
%TD*%
D97*
%TO.C,C127*%
X53600000Y61050000D03*
X53600000Y58100000D03*
%TD*%
D16*
%TO.C,R18*%
X78700000Y73550000D03*
X78700000Y74950000D03*
%TD*%
D35*
%TO.C,C39*%
X78426933Y50921359D03*
X78426933Y49521359D03*
%TD*%
D37*
%TO.C,C110*%
X10350000Y78350000D03*
X8750000Y78350000D03*
%TD*%
D34*
%TO.C,TP4*%
X56450000Y48700000D03*
%TD*%
D71*
%TO.C,C93*%
X32525000Y27400000D03*
X35475000Y27400000D03*
%TD*%
D40*
%TO.C,C122*%
X47165000Y77962500D03*
X48565000Y77962500D03*
%TD*%
D118*
%TO.C,U40*%
X95575000Y53450000D03*
X94925000Y53450000D03*
X94275000Y53450000D03*
X93625000Y53450000D03*
X93625000Y49350000D03*
X94275000Y49350000D03*
X94925000Y49350000D03*
X95575000Y49350000D03*
%TD*%
D119*
%TO.C,D16*%
X91700000Y49250000D03*
X91700000Y47150000D03*
%TD*%
D35*
%TO.C,R24*%
X91800000Y44250000D03*
X91800000Y42850000D03*
%TD*%
D34*
%TO.C,TP40*%
X65950000Y36700000D03*
%TD*%
D35*
%TO.C,C134*%
X84070000Y24930000D03*
X84070000Y23530000D03*
%TD*%
D106*
%TO.C,C11*%
X65939118Y70229238D03*
X64939118Y70229238D03*
%TD*%
D20*
%TO.C,R29*%
X31200000Y76600000D03*
X29800000Y76600000D03*
%TD*%
D99*
%TO.C,C1*%
X60839118Y71408488D03*
X60839118Y70408488D03*
%TD*%
D56*
%TO.C,TP12*%
X39700000Y85900000D03*
%TD*%
D35*
%TO.C,C30*%
X39690000Y19640000D03*
X39690000Y18240000D03*
%TD*%
D56*
%TO.C,TP110*%
X35500000Y68800000D03*
%TD*%
D35*
%TO.C,C102*%
X91250000Y34350000D03*
X91250000Y32950000D03*
%TD*%
D20*
%TO.C,R15*%
X90400000Y76114003D03*
X89000000Y76114003D03*
%TD*%
D35*
%TO.C,R122*%
X95200000Y41250000D03*
X95200000Y39850000D03*
%TD*%
D15*
%TO.C,D17*%
X78400000Y5712500D03*
X78400000Y7287500D03*
%TD*%
D34*
%TO.C,TP166*%
X27400000Y86700000D03*
%TD*%
D16*
%TO.C,R55*%
X41550000Y26600000D03*
X41550000Y28000000D03*
%TD*%
D56*
%TO.C,TP80*%
X15400000Y43830000D03*
%TD*%
D16*
%TO.C,C43*%
X71000000Y37150000D03*
X71000000Y38550000D03*
%TD*%
D20*
%TO.C,C17*%
X59400000Y26200000D03*
X58000000Y26200000D03*
%TD*%
D32*
%TO.C,TP807*%
X60839118Y65608488D03*
%TD*%
D20*
%TO.C,C124*%
X44175000Y67500000D03*
X42775000Y67500000D03*
%TD*%
D35*
%TO.C,R38*%
X7550000Y78300000D03*
X7550000Y76900000D03*
%TD*%
%TO.C,C92*%
X71015000Y41227500D03*
X71015000Y39827500D03*
%TD*%
D16*
%TO.C,R49*%
X26650000Y89100000D03*
X26650000Y90500000D03*
%TD*%
D105*
%TO.C,C112*%
X21050000Y86750000D03*
X21050000Y88350000D03*
%TD*%
D70*
%TO.C,C35*%
X30775000Y27000000D03*
X27825000Y27000000D03*
%TD*%
D17*
%TO.C,C42*%
X73405000Y48187500D03*
X74405000Y48187500D03*
%TD*%
D105*
%TO.C,C52*%
X85850000Y13400000D03*
X85850000Y15000000D03*
%TD*%
D35*
%TO.C,R86*%
X51350000Y71750000D03*
X51350000Y70350000D03*
%TD*%
D34*
%TO.C,TP165*%
X38400000Y91200000D03*
%TD*%
D120*
%TO.C,U17*%
X66350000Y46200000D03*
X66850000Y46200000D03*
X67350000Y46200000D03*
X67850000Y46200000D03*
X68350000Y46200000D03*
X68850000Y46200000D03*
X69350000Y46200000D03*
D121*
X70300000Y47150000D03*
X70300000Y47650000D03*
X70300000Y48150000D03*
X70300000Y48650000D03*
X70300000Y49150000D03*
X70300000Y49650000D03*
X70300000Y50150000D03*
D120*
X69350000Y51100000D03*
X68850000Y51100000D03*
X68350000Y51100000D03*
X67850000Y51100000D03*
X67350000Y51100000D03*
X66850000Y51100000D03*
X66350000Y51100000D03*
D121*
X65400000Y50150000D03*
X65400000Y49650000D03*
X65400000Y49150000D03*
X65400000Y48650000D03*
X65400000Y48150000D03*
X65400000Y47650000D03*
X65400000Y47150000D03*
D122*
X67850000Y48650000D03*
%TD*%
D32*
%TO.C,TP805*%
X64189118Y79258488D03*
%TD*%
D20*
%TO.C,C91*%
X73379506Y35465987D03*
X71979506Y35465987D03*
%TD*%
D35*
%TO.C,R112*%
X95800000Y60200000D03*
X95800000Y58800000D03*
%TD*%
D105*
%TO.C,C111*%
X19050000Y83450000D03*
X19050000Y85050000D03*
%TD*%
D20*
%TO.C,C97*%
X81600000Y63000000D03*
X80200000Y63000000D03*
%TD*%
D99*
%TO.C,R12*%
X90600000Y72350000D03*
X90600000Y71350000D03*
%TD*%
D106*
%TO.C,C2*%
X63489118Y79258488D03*
X62489118Y79258488D03*
%TD*%
%TO.C,C143*%
X68989118Y79258488D03*
X67989118Y79258488D03*
%TD*%
D16*
%TO.C,C133*%
X90600000Y29350000D03*
X90600000Y30750000D03*
%TD*%
D106*
%TO.C,C59*%
X92550000Y72325000D03*
X91550000Y72325000D03*
%TD*%
D34*
%TO.C,TP169*%
X16150000Y64400000D03*
%TD*%
D123*
%TO.C,U25*%
X93100000Y44200000D03*
X93100000Y43550000D03*
X93100000Y42900000D03*
X95300000Y42900000D03*
X95300000Y43550000D03*
X95300000Y44200000D03*
%TD*%
D105*
%TO.C,C5*%
X89150000Y13400000D03*
X89150000Y15000000D03*
%TD*%
D35*
%TO.C,R3*%
X49950000Y78700000D03*
X49950000Y77300000D03*
%TD*%
D124*
%TO.C,U30*%
X7650000Y69110000D03*
X7650000Y67840000D03*
X7650000Y66570000D03*
X7650000Y65300000D03*
X12600000Y65300000D03*
X12600000Y66570000D03*
X12600000Y67840000D03*
X12600000Y69110000D03*
%TD*%
D35*
%TO.C,R88*%
X46350000Y61100000D03*
X46350000Y59700000D03*
%TD*%
D34*
%TO.C,TP52*%
X90325000Y44450000D03*
%TD*%
%TO.C,TP11*%
X39000000Y78900000D03*
%TD*%
D35*
%TO.C,C64*%
X87200000Y68500000D03*
X87200000Y67100000D03*
%TD*%
D125*
%TO.C,L23*%
X85850000Y10100000D03*
X89150000Y10100000D03*
%TD*%
D105*
%TO.C,C114*%
X19400000Y86750000D03*
X19400000Y88350000D03*
%TD*%
D106*
%TO.C,R19*%
X83500000Y77450000D03*
X82500000Y77450000D03*
%TD*%
D20*
%TO.C,R53*%
X42350000Y46800000D03*
X40950000Y46800000D03*
%TD*%
D34*
%TO.C,TP141*%
X24000000Y67300000D03*
%TD*%
D31*
%TO.C,L12*%
X87200000Y63987500D03*
X87200000Y62412500D03*
%TD*%
D17*
%TO.C,C4*%
X63564118Y75808488D03*
X64564118Y75808488D03*
%TD*%
D35*
%TO.C,R44*%
X30700000Y10225000D03*
X30700000Y8825000D03*
%TD*%
D17*
%TO.C,C83*%
X87180000Y52750000D03*
X88180000Y52750000D03*
%TD*%
D34*
%TO.C,TP95*%
X15600000Y53300000D03*
%TD*%
D97*
%TO.C,C126*%
X50300000Y61050000D03*
X50300000Y58100000D03*
%TD*%
D108*
%TO.C,X1*%
X77332508Y50967492D03*
X75282508Y50967492D03*
X75282508Y49517492D03*
X77332508Y49517492D03*
%TD*%
D126*
%TO.C,U36*%
X47655000Y65575000D03*
X47155000Y65575000D03*
X46655000Y65575000D03*
X46155000Y65575000D03*
X46155000Y62675000D03*
X46655000Y62675000D03*
X47155000Y62675000D03*
X47655000Y62675000D03*
D47*
X47745000Y64605000D03*
X46905000Y64605000D03*
X46065000Y64605000D03*
D127*
X46905000Y64125000D03*
D47*
X47745000Y63645000D03*
X46905000Y63645000D03*
X46065000Y63645000D03*
%TD*%
D35*
%TO.C,R68*%
X16150000Y67250000D03*
X16150000Y65850000D03*
%TD*%
D16*
%TO.C,C82*%
X74480961Y45505000D03*
X74480961Y46905000D03*
%TD*%
D56*
%TO.C,TP13*%
X46800000Y84700000D03*
%TD*%
D128*
%TO.C,L11*%
X64496766Y51285278D03*
X64496766Y52255278D03*
%TD*%
D35*
%TO.C,R10*%
X61100000Y51500000D03*
X61100000Y50100000D03*
%TD*%
%TO.C,R43*%
X28700000Y10225000D03*
X28700000Y8825000D03*
%TD*%
D16*
%TO.C,R87*%
X50100000Y70400000D03*
X50100000Y71800000D03*
%TD*%
D40*
%TO.C,R82*%
X40400000Y78900000D03*
X41800000Y78900000D03*
%TD*%
D129*
%TO.C,PCB1*%
X8600000Y6800000D03*
D34*
X79610000Y87700000D03*
X82790000Y87700000D03*
X85610000Y87700000D03*
X88790000Y87700000D03*
D129*
X97800000Y6800000D03*
%TD*%
D101*
%TO.C,U12*%
X34050000Y89362500D03*
X34700000Y89362500D03*
X35350000Y89362500D03*
X35350000Y91037500D03*
X34700000Y91037500D03*
X34050000Y91037500D03*
%TD*%
D40*
%TO.C,C57*%
X93800000Y72600000D03*
X95200000Y72600000D03*
%TD*%
D35*
%TO.C,C45*%
X78892723Y35546115D03*
X78892723Y34146115D03*
%TD*%
D130*
%TO.C,R31*%
X24900000Y84000000D03*
X22100000Y84000000D03*
%TD*%
D35*
%TO.C,R63*%
X24100000Y88200000D03*
X24100000Y86800000D03*
%TD*%
D16*
%TO.C,R30*%
X54225000Y73600000D03*
X54225000Y75000000D03*
%TD*%
D38*
%TO.C,AT4*%
X83550000Y71540000D03*
X83550000Y70440000D03*
D39*
X82850000Y70990000D03*
%TD*%
D20*
%TO.C,C136*%
X87100000Y19200000D03*
X85700000Y19200000D03*
%TD*%
D15*
%TO.C,D8*%
X21550000Y5712500D03*
X21550000Y7287500D03*
%TD*%
D34*
%TO.C,TP149*%
X24000000Y65950000D03*
%TD*%
%TO.C,TP1*%
X94600000Y29850000D03*
%TD*%
D32*
%TO.C,TP902*%
X97800000Y74350000D03*
%TD*%
D34*
%TO.C,TP14*%
X45765000Y78700000D03*
%TD*%
D16*
%TO.C,R66*%
X12500000Y71000000D03*
X12500000Y72400000D03*
%TD*%
D32*
%TO.C,TP174*%
X97220000Y34170000D03*
%TD*%
D40*
%TO.C,R76*%
X12800000Y54800000D03*
X14200000Y54800000D03*
%TD*%
D20*
%TO.C,R28*%
X31200000Y77750000D03*
X29800000Y77750000D03*
%TD*%
D131*
%TO.C,U27*%
X90437500Y39677500D03*
X90437500Y39027500D03*
X90437500Y38377500D03*
X92112500Y38377500D03*
X92112500Y39677500D03*
%TD*%
D56*
%TO.C,TP2*%
X61150000Y43447500D03*
%TD*%
D132*
%TO.C,J8*%
X36040000Y11900000D03*
X37040000Y11900000D03*
X38040000Y11900000D03*
X39040000Y11900000D03*
X40040000Y11900000D03*
X41040000Y11900000D03*
X42040000Y11900000D03*
X43040000Y11900000D03*
X44040000Y11900000D03*
X45040000Y11900000D03*
X46040000Y11900000D03*
X47040000Y11900000D03*
X48040000Y11900000D03*
X49040000Y11900000D03*
D133*
X34590000Y8776000D03*
X50490000Y8776000D03*
%TD*%
D70*
%TO.C,C6*%
X35875000Y81700000D03*
X32925000Y81700000D03*
%TD*%
D16*
%TO.C,C66*%
X78700000Y75750000D03*
X78700000Y77150000D03*
%TD*%
D20*
%TO.C,R22*%
X76700000Y48350000D03*
X75300000Y48350000D03*
%TD*%
D16*
%TO.C,R90*%
X52900000Y73600000D03*
X52900000Y75000000D03*
%TD*%
D35*
%TO.C,R114*%
X91900000Y53800000D03*
X91900000Y52400000D03*
%TD*%
D16*
%TO.C,C81*%
X77480074Y45750000D03*
X77480074Y47150000D03*
%TD*%
D32*
%TO.C,TP801*%
X65929118Y57750000D03*
%TD*%
%TO.C,TP804*%
X67289118Y79258488D03*
%TD*%
D34*
%TO.C,TP168*%
X14750000Y64400000D03*
%TD*%
D134*
%TO.C,U1*%
X19375000Y56825000D03*
X20645000Y56825000D03*
X21915000Y56825000D03*
X23185000Y56825000D03*
X24455000Y56825000D03*
X25725000Y56825000D03*
X26995000Y56825000D03*
X28265000Y56825000D03*
X29535000Y56825000D03*
X30805000Y56825000D03*
X32075000Y56825000D03*
X33345000Y56825000D03*
X34615000Y56825000D03*
X35885000Y56825000D03*
X37155000Y56825000D03*
X38425000Y56825000D03*
X19375000Y55555000D03*
X20645000Y55555000D03*
X21915000Y55555000D03*
X23185000Y55555000D03*
X24455000Y55555000D03*
X25725000Y55555000D03*
X26995000Y55555000D03*
X28265000Y55555000D03*
X29535000Y55555000D03*
X30805000Y55555000D03*
X32075000Y55555000D03*
X33345000Y55555000D03*
X34615000Y55555000D03*
X35885000Y55555000D03*
X37155000Y55555000D03*
X38425000Y55555000D03*
X19375000Y54285000D03*
X20645000Y54285000D03*
X21915000Y54285000D03*
X23185000Y54285000D03*
X24455000Y54285000D03*
X25725000Y54285000D03*
X26995000Y54285000D03*
X28265000Y54285000D03*
X29535000Y54285000D03*
X30805000Y54285000D03*
X32075000Y54285000D03*
X33345000Y54285000D03*
X34615000Y54285000D03*
X35885000Y54285000D03*
X37155000Y54285000D03*
X38425000Y54285000D03*
X19375000Y53015000D03*
X20645000Y53015000D03*
X21915000Y53015000D03*
X23185000Y53015000D03*
X24455000Y53015000D03*
X25725000Y53015000D03*
X26995000Y53015000D03*
X28265000Y53015000D03*
X29535000Y53015000D03*
X30805000Y53015000D03*
X32075000Y53015000D03*
X33345000Y53015000D03*
X34615000Y53015000D03*
X35885000Y53015000D03*
X37155000Y53015000D03*
X38425000Y53015000D03*
X19375000Y51745000D03*
X20645000Y51745000D03*
X21915000Y51745000D03*
X23185000Y51745000D03*
X24455000Y51745000D03*
X25725000Y51745000D03*
X26995000Y51745000D03*
X28265000Y51745000D03*
X29535000Y51745000D03*
X30805000Y51745000D03*
X32075000Y51745000D03*
X33345000Y51745000D03*
X34615000Y51745000D03*
X35885000Y51745000D03*
X37155000Y51745000D03*
X38425000Y51745000D03*
X19375000Y50475000D03*
X20645000Y50475000D03*
X21915000Y50475000D03*
X23185000Y50475000D03*
X24455000Y50475000D03*
X25725000Y50475000D03*
X26995000Y50475000D03*
X28265000Y50475000D03*
X29535000Y50475000D03*
X30805000Y50475000D03*
X32075000Y50475000D03*
X33345000Y50475000D03*
X34615000Y50475000D03*
X35885000Y50475000D03*
X37155000Y50475000D03*
X38425000Y50475000D03*
X19375000Y49205000D03*
X20645000Y49205000D03*
X21915000Y49205000D03*
X23185000Y49205000D03*
X24455000Y49205000D03*
X25725000Y49205000D03*
X26995000Y49205000D03*
X28265000Y49205000D03*
X29535000Y49205000D03*
X30805000Y49205000D03*
X32075000Y49205000D03*
X33345000Y49205000D03*
X34615000Y49205000D03*
X35885000Y49205000D03*
X37155000Y49205000D03*
X38425000Y49205000D03*
X19375000Y47935000D03*
X20645000Y47935000D03*
X21915000Y47935000D03*
X23185000Y47935000D03*
X24455000Y47935000D03*
X25725000Y47935000D03*
X26995000Y47935000D03*
X28265000Y47935000D03*
X29535000Y47935000D03*
X30805000Y47935000D03*
X32075000Y47935000D03*
X33345000Y47935000D03*
X34615000Y47935000D03*
X35885000Y47935000D03*
X37155000Y47935000D03*
X38425000Y47935000D03*
X19375000Y46665000D03*
X20645000Y46665000D03*
X21915000Y46665000D03*
X23185000Y46665000D03*
X24455000Y46665000D03*
X25725000Y46665000D03*
X26995000Y46665000D03*
X28265000Y46665000D03*
X29535000Y46665000D03*
X30805000Y46665000D03*
X32075000Y46665000D03*
X33345000Y46665000D03*
X34615000Y46665000D03*
X35885000Y46665000D03*
X37155000Y46665000D03*
X38425000Y46665000D03*
X19375000Y45395000D03*
X20645000Y45395000D03*
X21915000Y45395000D03*
X23185000Y45395000D03*
X24455000Y45395000D03*
X25725000Y45395000D03*
X26995000Y45395000D03*
X28265000Y45395000D03*
X29535000Y45395000D03*
X30805000Y45395000D03*
X32075000Y45395000D03*
X33345000Y45395000D03*
X34615000Y45395000D03*
X35885000Y45395000D03*
X37155000Y45395000D03*
X38425000Y45395000D03*
X19375000Y44125000D03*
X20645000Y44125000D03*
X21915000Y44125000D03*
X23185000Y44125000D03*
X24455000Y44125000D03*
X25725000Y44125000D03*
X26995000Y44125000D03*
X28265000Y44125000D03*
X29535000Y44125000D03*
X30805000Y44125000D03*
X32075000Y44125000D03*
X33345000Y44125000D03*
X34615000Y44125000D03*
X35885000Y44125000D03*
X37155000Y44125000D03*
X38425000Y44125000D03*
X19375000Y42855000D03*
X20645000Y42855000D03*
X21915000Y42855000D03*
X23185000Y42855000D03*
X24455000Y42855000D03*
X25725000Y42855000D03*
X26995000Y42855000D03*
X28265000Y42855000D03*
X29535000Y42855000D03*
X30805000Y42855000D03*
X32075000Y42855000D03*
X33345000Y42855000D03*
X34615000Y42855000D03*
X35885000Y42855000D03*
X37155000Y42855000D03*
X38425000Y42855000D03*
X19375000Y41585000D03*
X20645000Y41585000D03*
X21915000Y41585000D03*
X23185000Y41585000D03*
X24455000Y41585000D03*
X25725000Y41585000D03*
X26995000Y41585000D03*
X28265000Y41585000D03*
X29535000Y41585000D03*
X30805000Y41585000D03*
X32075000Y41585000D03*
X33345000Y41585000D03*
X34615000Y41585000D03*
X35885000Y41585000D03*
X37155000Y41585000D03*
X38425000Y41585000D03*
X19375000Y40315000D03*
X20645000Y40315000D03*
X21915000Y40315000D03*
X23185000Y40315000D03*
X24455000Y40315000D03*
X25725000Y40315000D03*
X26995000Y40315000D03*
X28265000Y40315000D03*
X29535000Y40315000D03*
X30805000Y40315000D03*
X32075000Y40315000D03*
X33345000Y40315000D03*
X34615000Y40315000D03*
X35885000Y40315000D03*
X37155000Y40315000D03*
X38425000Y40315000D03*
X19375000Y39045000D03*
X20645000Y39045000D03*
X21915000Y39045000D03*
X23185000Y39045000D03*
X24455000Y39045000D03*
X25725000Y39045000D03*
X26995000Y39045000D03*
X28265000Y39045000D03*
X29535000Y39045000D03*
X30805000Y39045000D03*
X32075000Y39045000D03*
X33345000Y39045000D03*
X34615000Y39045000D03*
X35885000Y39045000D03*
X37155000Y39045000D03*
X38425000Y39045000D03*
X19375000Y37775000D03*
X20645000Y37775000D03*
X21915000Y37775000D03*
X23185000Y37775000D03*
X24455000Y37775000D03*
X25725000Y37775000D03*
X26995000Y37775000D03*
X28265000Y37775000D03*
X29535000Y37775000D03*
X30805000Y37775000D03*
X32075000Y37775000D03*
X33345000Y37775000D03*
X34615000Y37775000D03*
X35885000Y37775000D03*
X37155000Y37775000D03*
X38425000Y37775000D03*
%TD*%
D68*
%TO.C,FB2*%
X82037500Y10100000D03*
X83862500Y10100000D03*
%TD*%
D20*
%TO.C,C21*%
X19900000Y17700000D03*
X18500000Y17700000D03*
%TD*%
D15*
%TO.C,D11*%
X71750000Y5712500D03*
X71750000Y7287500D03*
%TD*%
D32*
%TO.C,TP811*%
X72650000Y50400000D03*
%TD*%
D17*
%TO.C,C55*%
X95000000Y69050000D03*
X96000000Y69050000D03*
%TD*%
D32*
%TO.C,TP806*%
X60839118Y69658488D03*
%TD*%
D20*
%TO.C,R60*%
X13800000Y91700000D03*
X12400000Y91700000D03*
%TD*%
D15*
%TO.C,D15*%
X75100000Y5712500D03*
X75100000Y7287500D03*
%TD*%
D16*
%TO.C,R1*%
X71750000Y8700000D03*
X71750000Y10100000D03*
%TD*%
D96*
%TO.C,C47*%
X62650000Y32200000D03*
X64250000Y32200000D03*
%TD*%
D101*
%TO.C,U18*%
X92525000Y69187500D03*
X93175000Y69187500D03*
X93825000Y69187500D03*
X93825000Y70862500D03*
X93175000Y70862500D03*
X92525000Y70862500D03*
%TD*%
D35*
%TO.C,C129*%
X30800000Y93700000D03*
X30800000Y92300000D03*
%TD*%
D16*
%TO.C,R92*%
X36900000Y89300000D03*
X36900000Y90700000D03*
%TD*%
D135*
%TO.C,U21*%
X87190000Y55700000D03*
D136*
X87300000Y57200000D03*
D135*
X87190000Y58700000D03*
D47*
X81950000Y55700000D03*
X83800000Y55700000D03*
X85500000Y55700000D03*
X82800000Y56400000D03*
X84700000Y56400000D03*
X81950000Y57200000D03*
D137*
X83725000Y57200000D03*
D47*
X83800000Y57200000D03*
X85500000Y57200000D03*
X82800000Y58000000D03*
X84700000Y58000000D03*
X81950000Y58700000D03*
X83800000Y58700000D03*
X85500000Y58700000D03*
%TD*%
D90*
%TO.C,U16*%
X79162500Y37725000D03*
X79162500Y38225000D03*
X79162500Y38725000D03*
X79162500Y39225000D03*
X79162500Y39725000D03*
X79162500Y40225000D03*
X79162500Y40725000D03*
X79162500Y41225000D03*
X79162500Y41725000D03*
X79162500Y42225000D03*
X79162500Y42725000D03*
X79162500Y43225000D03*
D91*
X78475000Y43912500D03*
X77975000Y43912500D03*
X77475000Y43912500D03*
X76975000Y43912500D03*
X76475000Y43912500D03*
X75975000Y43912500D03*
X75475000Y43912500D03*
X74975000Y43912500D03*
X74475000Y43912500D03*
X73975000Y43912500D03*
X73475000Y43912500D03*
X72975000Y43912500D03*
D90*
X72287500Y43225000D03*
X72287500Y42725000D03*
X72287500Y42225000D03*
X72287500Y41725000D03*
X72287500Y41225000D03*
X72287500Y40725000D03*
X72287500Y40225000D03*
X72287500Y39725000D03*
X72287500Y39225000D03*
X72287500Y38725000D03*
X72287500Y38225000D03*
X72287500Y37725000D03*
D91*
X72975000Y37037500D03*
X73475000Y37037500D03*
X73975000Y37037500D03*
X74475000Y37037500D03*
X74975000Y37037500D03*
X75475000Y37037500D03*
X75975000Y37037500D03*
X76475000Y37037500D03*
X76975000Y37037500D03*
X77475000Y37037500D03*
X77975000Y37037500D03*
X78475000Y37037500D03*
D92*
X75725000Y40475000D03*
%TD*%
D20*
%TO.C,C22*%
X19900000Y16200000D03*
X18500000Y16200000D03*
%TD*%
D138*
%TO.C,U10*%
X39312500Y32950000D03*
X39312500Y33600000D03*
X39312500Y34250000D03*
X37637500Y34250000D03*
X37637500Y32950000D03*
%TD*%
D139*
%TO.C,Y2*%
X23850000Y60900000D03*
X26350000Y60900000D03*
%TD*%
D140*
%TO.C,U35*%
X46665000Y73462500D03*
D141*
X48570000Y76025000D03*
X47300000Y76025000D03*
X46030000Y76025000D03*
X44760000Y76025000D03*
X44760000Y70900000D03*
X46030000Y70900000D03*
X47300000Y70900000D03*
X48570000Y70900000D03*
%TD*%
D34*
%TO.C,TP157*%
X59550000Y48700000D03*
%TD*%
D142*
%TO.C,Q1*%
X14000000Y70975000D03*
X15900000Y70975000D03*
X14950000Y72850000D03*
%TD*%
D143*
%TO.C,U19*%
X87225000Y70410000D03*
X87225000Y71400000D03*
X87225000Y72390000D03*
X85175000Y72390000D03*
X85175000Y71400000D03*
X85175000Y70410000D03*
%TD*%
D15*
%TO.C,D4*%
X26700000Y5712500D03*
X26700000Y7287500D03*
%TD*%
D16*
%TO.C,R17*%
X94950000Y66150000D03*
X94950000Y67550000D03*
%TD*%
D96*
%TO.C,C16*%
X61550000Y26300000D03*
X63150000Y26300000D03*
%TD*%
D49*
%TO.C,Q3*%
X84850000Y65337500D03*
X82950000Y65337500D03*
X83900000Y63462500D03*
%TD*%
D34*
%TO.C,TP16*%
X50100000Y69100000D03*
%TD*%
D35*
%TO.C,R34*%
X7650000Y89700000D03*
X7650000Y88300000D03*
%TD*%
D32*
%TO.C,TP908*%
X87200000Y69475000D03*
%TD*%
D16*
%TO.C,R57*%
X41300000Y30200000D03*
X41300000Y31600000D03*
%TD*%
D40*
%TO.C,R81*%
X79650000Y66150000D03*
X81050000Y66150000D03*
%TD*%
D56*
%TO.C,TP17*%
X44200000Y69000000D03*
%TD*%
D35*
%TO.C,R89*%
X47450000Y61100000D03*
X47450000Y59700000D03*
%TD*%
%TO.C,C50*%
X72000000Y48650000D03*
X72000000Y47250000D03*
%TD*%
D15*
%TO.C,D2*%
X24450000Y5712500D03*
X24450000Y7287500D03*
%TD*%
D52*
%TO.C,L13*%
X87200000Y54660000D03*
X87200000Y53690000D03*
%TD*%
D16*
%TO.C,C29*%
X22650000Y59500000D03*
X22650000Y60900000D03*
%TD*%
D144*
%TO.C,U26*%
X94150000Y64300000D03*
X93200000Y64300000D03*
X92250000Y64300000D03*
X92250000Y62025000D03*
X94150000Y62025000D03*
%TD*%
D17*
%TO.C,C118*%
X94600000Y90000000D03*
X95600000Y90000000D03*
%TD*%
D56*
%TO.C,TP59*%
X29600000Y61600000D03*
%TD*%
D145*
X99007107Y72242893D02*
X98092893Y73157107D01*
X98866447Y36106447D02*
X99153554Y36393554D01*
X99300000Y71535786D02*
X99300000Y36747107D01*
X97800000Y73864214D02*
X97800000Y74350000D01*
X99153554Y36393554D02*
G75*
G03*
X99299995Y36747107I-353554J353546D01*
G01*
X98092893Y73157107D02*
G75*
G02*
X97800010Y73864214I707107J707093D01*
G01*
X99300000Y71535786D02*
G75*
G03*
X99007114Y72242900I-1000000J14D01*
G01*
X87200000Y38114214D02*
X87200000Y41925000D01*
X88647107Y36252893D02*
X87492893Y37407107D01*
X95650000Y35960000D02*
X89354214Y35960000D01*
X89354214Y35960000D02*
G75*
G02*
X88647100Y36252886I-14J1000000D01*
G01*
X87492893Y37407107D02*
G75*
G02*
X87200010Y38114214I707107J707093D01*
G01*
X77901381Y79551381D02*
G75*
G02*
X77194274Y79258510I-707081J707119D01*
G01*
X85200000Y81410786D02*
X85200000Y73400000D01*
X85492893Y82117893D02*
G75*
G03*
X85200010Y81410786I707107J-707093D01*
G01*
X73561261Y69936345D02*
X73576225Y69921381D01*
X73561261Y69936345D02*
G75*
G03*
X72854154Y70229195I-707061J-707145D01*
G01*
X65782671Y57302041D02*
X64789659Y56309029D01*
X64789659Y56309029D02*
G75*
G03*
X64496760Y55601922I707141J-707129D01*
G01*
X61546225Y78965595D02*
X61107011Y78526381D01*
X91792893Y83092893D02*
X92102107Y83402107D01*
X91085786Y82800000D02*
G75*
G03*
X91792900Y83092886I14J1000000D01*
G01*
D146*
X97457107Y89317893D02*
X97067893Y89707107D01*
D145*
X72157107Y52992893D02*
X70867893Y54282107D01*
X82242107Y49357893D02*
X79192893Y52407107D01*
X70867893Y56487263D02*
X73489118Y59108488D01*
X78485786Y52700000D02*
X72864214Y52700000D01*
X70575000Y54989214D02*
X70575000Y55780156D01*
X70867893Y54282107D02*
G75*
G02*
X70575010Y54989214I707107J707093D01*
G01*
X79192893Y52407107D02*
G75*
G03*
X78485786Y52699990I-707093J-707107D01*
G01*
X82535000Y48650786D02*
G75*
G03*
X82242114Y49357900I-1000000J14D01*
G01*
X72864214Y52700000D02*
G75*
G02*
X72157100Y52992886I-14J1000000D01*
G01*
X73596225Y59215595D02*
G75*
G03*
X73889112Y59922702I-707125J707105D01*
G01*
X70867893Y56487263D02*
G75*
G03*
X70575031Y55780156I707107J-707063D01*
G01*
X92687893Y89612893D02*
X92782107Y89707107D01*
X92782107Y89707107D02*
G75*
G02*
X93489214Y89999990I707093J-707107D01*
G01*
M02*
