%TF.GenerationSoftware,KiCad,Pcbnew,10.0.4*%
%TF.CreationDate,2026-07-16T14:59:28-06:00*%
%TF.ProjectId,esi-c3-hardware,6573692d-6333-42d6-9861-726477617265,7.0*%
%TF.SameCoordinates,PX42c1d80PY876bf80*%
%TF.FileFunction,Profile,NP*%
%FSLAX46Y46*%
G04 Gerber Fmt 4.6, Leading zero omitted, Abs format (unit mm)*
G04 Created by KiCad (PCBNEW 10.0.4) date 2026-07-16 14:59:28*
%MOMM*%
%LPD*%
G01*
G04 APERTURE LIST*
%TA.AperFunction,Profile*%
%ADD10C,0.001000*%
%TD*%
G04 APERTURE END LIST*
%TO.C,PCB1*%
D10*
X3300000Y90100000D02*
X3300000Y10400000D01*
X3800000Y9900000D02*
X5550000Y9900000D01*
X6050000Y9400000D02*
X6050000Y4700000D01*
X6550000Y4200000D02*
X18300000Y4200000D01*
X9100000Y95900000D02*
X3300000Y90100000D01*
X11967950Y95900000D02*
X9100000Y95900000D01*
X18800000Y3700000D02*
X18800000Y1800000D01*
X19300000Y1300000D02*
X87100000Y1300000D01*
X34967950Y95900000D02*
X15432050Y95900000D01*
X67967950Y95900000D02*
X38432050Y95900000D01*
X76861025Y95900000D02*
X71432050Y95900000D01*
X77361025Y95400000D02*
X77361025Y92400000D01*
X77861025Y91900000D02*
X79610000Y91900000D01*
X79610000Y88200000D02*
X79610000Y91900000D01*
X80110000Y87700000D02*
X82290000Y87700000D01*
X82790000Y88200000D02*
X82790000Y91900000D01*
X85610000Y91900000D02*
X82790000Y91900000D01*
X85610000Y88200000D02*
X85610000Y91900000D01*
X86110000Y87700000D02*
X88290000Y87700000D01*
X87600000Y1800000D02*
X87600000Y3700000D01*
X88100000Y4200000D02*
X99850000Y4200000D01*
X88790000Y88200000D02*
X88790000Y91900000D01*
X90467950Y91900000D02*
X88790000Y91900000D01*
X90967950Y94400000D02*
X90967950Y92400000D01*
X92700000Y94900000D02*
X91467950Y94900000D01*
X97300000Y95900000D02*
X94432050Y95900000D01*
X100350000Y4700000D02*
X100350000Y9400000D01*
X100850000Y9900000D02*
X102600000Y9900000D01*
X103100000Y90100000D02*
X97300000Y95900000D01*
X103100000Y10400000D02*
X103100000Y90100000D01*
X3800000Y9900000D02*
G75*
G02*
X3300000Y10400000I1J500001D01*
G01*
X5550000Y9900000D02*
G75*
G02*
X6050000Y9400000I-1J-500001D01*
G01*
X6550000Y4200000D02*
G75*
G02*
X6050000Y4700000I1J500001D01*
G01*
X15432049Y95899999D02*
G75*
G02*
X11967950Y95900000I-1732049J1000001D01*
G01*
X18300000Y4200000D02*
G75*
G02*
X18800000Y3700000I-1J-500001D01*
G01*
X19300000Y1300000D02*
G75*
G02*
X18800000Y1800000I1J500001D01*
G01*
X38432049Y95899999D02*
G75*
G02*
X34967950Y95900000I-1732049J1000001D01*
G01*
X71432050Y95900000D02*
G75*
G02*
X67967952Y95900000I-1732049J1000002D01*
G01*
X76861025Y95900000D02*
G75*
G02*
X77361000Y95400000I-25J-500000D01*
G01*
X77861025Y91900000D02*
G75*
G02*
X77361000Y92400000I-25J500000D01*
G01*
X80110000Y87700000D02*
G75*
G02*
X79610000Y88200000I0J500000D01*
G01*
X82790000Y88200000D02*
G75*
G02*
X82290000Y87700000I-500000J0D01*
G01*
X86110000Y87700000D02*
G75*
G02*
X85610000Y88200000I0J500000D01*
G01*
X87600000Y3700000D02*
G75*
G02*
X88100000Y4200000I500000J0D01*
G01*
X87600000Y1800000D02*
G75*
G02*
X87100000Y1300000I-500000J0D01*
G01*
X88790000Y88200000D02*
G75*
G02*
X88290000Y87700000I-500000J0D01*
G01*
X90967950Y94400000D02*
G75*
G02*
X91467950Y94899950I499950J0D01*
G01*
X90967950Y92400000D02*
G75*
G02*
X90467950Y91900050I-499950J0D01*
G01*
X94432049Y95900000D02*
G75*
G02*
X92700000Y94900002I-1732049J1000000D01*
G01*
X100350000Y9400000D02*
G75*
G02*
X100850000Y9900000I500000J0D01*
G01*
X100350000Y4700000D02*
G75*
G02*
X99850000Y4200000I-500000J0D01*
G01*
X103100000Y10400000D02*
G75*
G02*
X102600000Y9900000I-500000J0D01*
G01*
%TD*%
M02*
