%TF.GenerationSoftware,KiCad,Pcbnew,10.0.4*%
%TF.CreationDate,2026-07-16T14:59:28-06:00*%
%TF.ProjectId,esi-c3-hardware,6573692d-6333-42d6-9861-726477617265,7.0*%
%TF.SameCoordinates,PX42c1d80PY876bf80*%
%TF.FileFunction,Paste,Top*%
%TF.FilePolarity,Positive*%
%FSLAX46Y46*%
G04 Gerber Fmt 4.6, Leading zero omitted, Abs format (unit mm)*
G04 Created by KiCad (PCBNEW 10.0.4) date 2026-07-16 14:59:28*
%MOMM*%
%LPD*%
G01*
G04 APERTURE LIST*
G04 Aperture macros list*
%AMRoundRect*
0 Rectangle with rounded corners*
0 $1 Rounding radius*
0 $2 $3 $4 $5 $6 $7 $8 $9 X,Y pos of 4 corners*
0 Add a 4 corners polygon primitive as box body*
4,1,4,$2,$3,$4,$5,$6,$7,$8,$9,$2,$3,0*
0 Add four circle primitives for the rounded corners*
1,1,$1+$1,$2,$3*
1,1,$1+$1,$4,$5*
1,1,$1+$1,$6,$7*
1,1,$1+$1,$8,$9*
0 Add four rect primitives between the rounded corners*
20,1,$1+$1,$2,$3,$4,$5,0*
20,1,$1+$1,$4,$5,$6,$7,0*
20,1,$1+$1,$6,$7,$8,$9,0*
20,1,$1+$1,$8,$9,$2,$3,0*%
%AMRotRect*
0 Rectangle, with rotation*
0 The origin of the aperture is its center*
0 $1 length*
0 $2 width*
0 $3 Rotation angle, in degrees counterclockwise*
0 Add horizontal line*
21,1,$1,$2,0,0,$3*%
G04 Aperture macros list end*
%ADD10C,0.000000*%
%ADD11C,0.100000*%
%ADD12C,0.125000*%
%ADD13R,0.711200X1.270000*%
%ADD14RoundRect,0.218750X0.256250X-0.218750X0.256250X0.218750X-0.256250X0.218750X-0.256250X-0.218750X0*%
%ADD15RoundRect,0.150000X0.300000X-0.150000X0.300000X0.150000X-0.300000X0.150000X-0.300000X-0.150000X0*%
%ADD16RoundRect,0.051000X-0.249000X-0.299000X0.249000X-0.299000X0.249000X0.299000X-0.249000X0.299000X0*%
%ADD17RoundRect,0.045000X0.080000X0.080000X-0.080000X0.080000X-0.080000X-0.080000X0.080000X-0.080000X0*%
%ADD18RoundRect,0.045000X0.280000X0.080000X-0.280000X0.080000X-0.280000X-0.080000X0.280000X-0.080000X0*%
%ADD19RoundRect,0.150000X0.150000X0.300000X-0.150000X0.300000X-0.150000X-0.300000X0.150000X-0.300000X0*%
%ADD20RoundRect,0.087500X-0.087500X0.425000X-0.087500X-0.425000X0.087500X-0.425000X0.087500X0.425000X0*%
%ADD21R,0.900000X0.420000*%
%ADD22RoundRect,0.250000X1.100000X-0.325000X1.100000X0.325000X-1.100000X0.325000X-1.100000X-0.325000X0*%
%ADD23RoundRect,0.218750X0.218750X0.256250X-0.218750X0.256250X-0.218750X-0.256250X0.218750X-0.256250X0*%
%ADD24RoundRect,0.218750X-0.256250X0.218750X-0.256250X-0.218750X0.256250X-0.218750X0.256250X0.218750X0*%
%ADD25RoundRect,0.200000X0.200000X0.275000X-0.200000X0.275000X-0.200000X-0.275000X0.200000X-0.275000X0*%
%ADD26RoundRect,0.150000X-0.300000X0.150000X-0.300000X-0.150000X0.300000X-0.150000X0.300000X0.150000X0*%
%ADD27RoundRect,0.218750X0.218750X0.381250X-0.218750X0.381250X-0.218750X-0.381250X0.218750X-0.381250X0*%
%ADD28RoundRect,0.199500X0.275500X0.475500X-0.275500X0.475500X-0.275500X-0.475500X0.275500X-0.475500X0*%
%ADD29RoundRect,0.150000X-0.150000X-0.300000X0.150000X-0.300000X0.150000X0.300000X-0.150000X0.300000X0*%
%ADD30RoundRect,0.125000X0.125000X-0.537500X0.125000X0.537500X-0.125000X0.537500X-0.125000X-0.537500X0*%
%ADD31RoundRect,0.222500X0.297500X0.222500X-0.297500X0.222500X-0.297500X-0.222500X0.297500X-0.222500X0*%
%ADD32RoundRect,0.150000X0.737500X0.150000X-0.737500X0.150000X-0.737500X-0.150000X0.737500X-0.150000X0*%
%ADD33RoundRect,0.051000X0.299000X-0.249000X0.299000X0.249000X-0.299000X0.249000X-0.299000X-0.249000X0*%
%ADD34RoundRect,0.167500X0.167500X0.312500X-0.167500X0.312500X-0.167500X-0.312500X0.167500X-0.312500X0*%
%ADD35RoundRect,0.062500X0.362500X0.062500X-0.362500X0.062500X-0.362500X-0.062500X0.362500X-0.062500X0*%
%ADD36RoundRect,0.150000X-0.150000X0.587500X-0.150000X-0.587500X0.150000X-0.587500X0.150000X0.587500X0*%
%ADD37RoundRect,0.140000X-0.000010X-0.000010X0.000010X-0.000010X0.000010X0.000010X-0.000010X0.000010X0*%
%ADD38R,0.360000X1.000000*%
%ADD39RoundRect,0.162500X0.162500X-0.312500X0.162500X0.312500X-0.162500X0.312500X-0.162500X-0.312500X0*%
%ADD40RoundRect,0.147500X-0.172500X0.147500X-0.172500X-0.147500X0.172500X-0.147500X0.172500X0.147500X0*%
%ADD41R,0.800000X1.200000*%
%ADD42R,1.200000X0.800000*%
%ADD43R,1.700000X0.800000*%
%ADD44RoundRect,0.200000X-0.275000X0.200000X-0.275000X-0.200000X0.275000X-0.200000X0.275000X0.200000X0*%
%ADD45R,1.270000X0.711200*%
%ADD46R,1.000000X1.000000*%
%ADD47R,4.550000X1.000000*%
%ADD48R,3.800000X1.000000*%
%ADD49R,1.000000X3.980000*%
%ADD50R,1.000000X3.800000*%
%ADD51RoundRect,0.250000X-0.262500X-0.450000X0.262500X-0.450000X0.262500X0.450000X-0.262500X0.450000X0*%
%ADD52RoundRect,0.250000X0.325000X1.100000X-0.325000X1.100000X-0.325000X-1.100000X0.325000X-1.100000X0*%
%ADD53RoundRect,0.250000X-0.325000X-1.100000X0.325000X-1.100000X0.325000X1.100000X-0.325000X1.100000X0*%
%ADD54RoundRect,0.150000X0.150000X-0.512500X0.150000X0.512500X-0.150000X0.512500X-0.150000X-0.512500X0*%
%ADD55RoundRect,0.112500X-0.187500X-0.112500X0.187500X-0.112500X0.187500X0.112500X-0.187500X0.112500X0*%
%ADD56RoundRect,0.250000X-1.045000X0.785000X-1.045000X-0.785000X1.045000X-0.785000X1.045000X0.785000X0*%
%ADD57RoundRect,0.112500X0.112500X-0.187500X0.112500X0.187500X-0.112500X0.187500X-0.112500X-0.187500X0*%
%ADD58R,0.670000X0.300000*%
%ADD59R,0.700000X1.600000*%
%ADD60R,1.800000X0.900000*%
%ADD61RoundRect,0.100000X0.100000X-0.637500X0.100000X0.637500X-0.100000X0.637500X-0.100000X-0.637500X0*%
%ADD62RoundRect,0.147500X0.147500X0.172500X-0.147500X0.172500X-0.147500X-0.172500X0.147500X-0.172500X0*%
%ADD63RoundRect,0.300000X0.850000X-0.525000X0.850000X0.525000X-0.850000X0.525000X-0.850000X-0.525000X0*%
%ADD64RoundRect,0.045000X-0.080000X-0.080000X0.080000X-0.080000X0.080000X0.080000X-0.080000X0.080000X0*%
%ADD65RoundRect,0.045000X-0.280000X-0.080000X0.280000X-0.080000X0.280000X0.080000X-0.280000X0.080000X0*%
%ADD66R,0.300000X0.670000*%
%ADD67R,1.600000X0.700000*%
%ADD68RoundRect,0.300000X-0.850000X0.525000X-0.850000X-0.525000X0.850000X-0.525000X0.850000X0.525000X0*%
%ADD69RoundRect,0.250000X0.315000X0.315000X-0.315000X0.315000X-0.315000X-0.315000X0.315000X-0.315000X0*%
%ADD70RoundRect,0.062500X0.375000X0.062500X-0.375000X0.062500X-0.375000X-0.062500X0.375000X-0.062500X0*%
%ADD71RoundRect,0.062500X0.062500X0.375000X-0.062500X0.375000X-0.062500X-0.375000X0.062500X-0.375000X0*%
%ADD72RoundRect,0.125000X-0.537500X-0.125000X0.537500X-0.125000X0.537500X0.125000X-0.537500X0.125000X0*%
%ADD73RoundRect,0.300000X0.525000X0.850000X-0.525000X0.850000X-0.525000X-0.850000X0.525000X-0.850000X0*%
%ADD74RoundRect,0.199500X-0.275500X-0.475500X0.275500X-0.475500X0.275500X0.475500X-0.275500X0.475500X0*%
%ADD75RoundRect,0.250000X-1.100000X0.325000X-1.100000X-0.325000X1.100000X-0.325000X1.100000X0.325000X0*%
%ADD76RoundRect,0.051000X-0.299000X0.249000X-0.299000X-0.249000X0.299000X-0.249000X0.299000X0.249000X0*%
%ADD77R,1.250000X1.600000*%
%ADD78RoundRect,0.087500X0.087500X-0.425000X0.087500X0.425000X-0.087500X0.425000X-0.087500X-0.425000X0*%
%ADD79RoundRect,0.218750X-0.218750X-0.256250X0.218750X-0.256250X0.218750X0.256250X-0.218750X0.256250X0*%
%ADD80RoundRect,0.199500X0.475500X-0.275500X0.475500X0.275500X-0.475500X0.275500X-0.475500X-0.275500X0*%
%ADD81RoundRect,0.051000X0.249000X0.299000X-0.249000X0.299000X-0.249000X-0.299000X0.249000X-0.299000X0*%
%ADD82RoundRect,0.150000X-0.587500X-0.150000X0.587500X-0.150000X0.587500X0.150000X-0.587500X0.150000X0*%
%ADD83R,0.800000X0.900000*%
%ADD84RoundRect,0.150000X-0.512500X-0.150000X0.512500X-0.150000X0.512500X0.150000X-0.512500X0.150000X0*%
%ADD85R,0.700000X1.400000*%
%ADD86R,0.700000X1.200000*%
%ADD87R,0.500000X0.500000*%
%ADD88R,1.500000X1.900000*%
%ADD89RotRect,0.210000X0.210000X45.000000*%
%ADD90R,1.000000X1.400000*%
%ADD91R,1.200000X1.200000*%
%ADD92R,1.200000X3.200000*%
%ADD93R,0.420000X0.900000*%
%ADD94RoundRect,0.112500X-0.112500X0.187500X-0.112500X-0.187500X0.112500X-0.187500X0.112500X0.187500X0*%
%ADD95RoundRect,0.225000X0.225000X-0.225000X0.225000X0.225000X-0.225000X0.225000X-0.225000X-0.225000X0*%
%ADD96RoundRect,0.062500X0.062500X-0.337500X0.062500X0.337500X-0.062500X0.337500X-0.062500X-0.337500X0*%
%ADD97RoundRect,0.062500X0.337500X-0.062500X0.337500X0.062500X-0.337500X0.062500X-0.337500X-0.062500X0*%
%ADD98RoundRect,0.100000X-0.350000X-0.100000X0.350000X-0.100000X0.350000X0.100000X-0.350000X0.100000X0*%
%ADD99RoundRect,0.150000X-0.825000X-0.150000X0.825000X-0.150000X0.825000X0.150000X-0.825000X0.150000X0*%
%ADD100RoundRect,0.300000X-0.525000X-0.850000X0.525000X-0.850000X0.525000X0.850000X-0.525000X0.850000X0*%
%ADD101RoundRect,0.167500X-0.312500X0.167500X-0.312500X-0.167500X0.312500X-0.167500X0.312500X0.167500X0*%
%ADD102RoundRect,0.062500X-0.062500X0.362500X-0.062500X-0.362500X0.062500X-0.362500X0.062500X0.362500X0*%
%ADD103RoundRect,0.147500X0.172500X-0.147500X0.172500X0.147500X-0.172500X0.147500X-0.172500X-0.147500X0*%
%ADD104RoundRect,0.200000X0.275000X0.650000X-0.275000X0.650000X-0.275000X-0.650000X0.275000X-0.650000X0*%
%ADD105RoundRect,0.087500X-0.425000X-0.087500X0.425000X-0.087500X0.425000X0.087500X-0.425000X0.087500X0*%
%ADD106R,0.600000X1.250000*%
%ADD107R,0.900000X1.700000*%
%ADD108RoundRect,0.250000X-0.000010X0.000010X-0.000010X-0.000010X0.000010X-0.000010X0.000010X0.000010X0*%
%ADD109R,1.270000X0.860000*%
%ADD110R,2.650000X0.860000*%
%ADD111RoundRect,0.087500X0.425000X0.087500X-0.425000X0.087500X-0.425000X-0.087500X0.425000X-0.087500X0*%
%ADD112R,1.100000X1.900000*%
%ADD113RoundRect,0.222500X-0.222500X0.297500X-0.222500X-0.297500X0.222500X-0.297500X0.222500X0.297500X0*%
%ADD114RoundRect,0.150000X-0.150000X0.737500X-0.150000X-0.737500X0.150000X-0.737500X0.150000X0.737500X0*%
%ADD115RoundRect,0.150000X0.150000X-0.587500X0.150000X0.587500X-0.150000X0.587500X-0.150000X-0.587500X0*%
%ADD116R,1.070000X0.610000*%
%ADD117RoundRect,0.150000X-0.150000X0.512500X-0.150000X-0.512500X0.150000X-0.512500X0.150000X0.512500X0*%
G04 APERTURE END LIST*
D10*
%TO.C,AT2*%
G36*
X83000000Y75400000D02*
G01*
X82700000Y75400000D01*
X82700000Y75800000D01*
X83000000Y75800000D01*
X83000000Y75400000D01*
G37*
G36*
X83000000Y74700000D02*
G01*
X82700000Y74700000D01*
X82700000Y75300000D01*
X83000000Y75300000D01*
X83000000Y74700000D01*
G37*
G36*
X83000000Y74200000D02*
G01*
X82700000Y74200000D01*
X82700000Y74600000D01*
X83000000Y74600000D01*
X83000000Y74200000D01*
G37*
G36*
X83700000Y75300000D02*
G01*
X83400000Y75300000D01*
X83400000Y75800000D01*
X83700000Y75800000D01*
X83700000Y75300000D01*
G37*
G36*
X83700000Y74200000D02*
G01*
X83400000Y74200000D01*
X83400000Y74700000D01*
X83700000Y74700000D01*
X83700000Y74200000D01*
G37*
%TO.C,FL3*%
G36*
X69239118Y71229238D02*
G01*
X68239118Y71229238D01*
X68239118Y71729238D01*
X69239118Y71729238D01*
X69239118Y71229238D01*
G37*
G36*
X69239118Y69979238D02*
G01*
X68239118Y69979238D01*
X68239118Y70479238D01*
X69239118Y70479238D01*
X69239118Y69979238D01*
G37*
G36*
X69239118Y68729238D02*
G01*
X68239118Y68729238D01*
X68239118Y69229238D01*
X69239118Y69229238D01*
X69239118Y68729238D01*
G37*
G36*
X70389118Y70629238D02*
G01*
X69889118Y70629238D01*
X69889118Y72129238D01*
X70389118Y72129238D01*
X70389118Y70629238D01*
G37*
G36*
X70389118Y68329238D02*
G01*
X69889118Y68329238D01*
X69889118Y69329238D01*
X70389118Y69329238D01*
X70389118Y68329238D01*
G37*
G36*
X72039118Y71229238D02*
G01*
X71039118Y71229238D01*
X71039118Y71729238D01*
X72039118Y71729238D01*
X72039118Y71229238D01*
G37*
G36*
X72039118Y69979238D02*
G01*
X71039118Y69979238D01*
X71039118Y70479238D01*
X72039118Y70479238D01*
X72039118Y69979238D01*
G37*
G36*
X72039118Y68729238D02*
G01*
X71039118Y68729238D01*
X71039118Y69229238D01*
X72039118Y69229238D01*
X72039118Y68729238D01*
G37*
%TO.C,FL6*%
G36*
X61019118Y68628488D02*
G01*
X60619118Y68628488D01*
X60619118Y69128488D01*
X61019118Y69128488D01*
X61019118Y68628488D01*
G37*
G36*
X61019118Y67088488D02*
G01*
X60619118Y67088488D01*
X60619118Y67588488D01*
X61019118Y67588488D01*
X61019118Y67088488D01*
G37*
G36*
X62259118Y68628488D02*
G01*
X61859118Y68628488D01*
X61859118Y69128488D01*
X62259118Y69128488D01*
X62259118Y68628488D01*
G37*
G36*
X62259118Y67088488D02*
G01*
X61859118Y67088488D01*
X61859118Y67588488D01*
X62259118Y67588488D01*
X62259118Y67088488D01*
G37*
%TO.C,U7*%
G36*
X61189118Y63008488D02*
G01*
X60539118Y63008488D01*
X60539118Y64958488D01*
X61189118Y64958488D01*
X61189118Y63008488D01*
G37*
G36*
X61159118Y58258488D02*
G01*
X60509118Y58258488D01*
X60509118Y60208488D01*
X61159118Y60208488D01*
X61159118Y58258488D01*
G37*
G36*
X62459118Y63008488D02*
G01*
X61809118Y63008488D01*
X61809118Y64958488D01*
X62459118Y64958488D01*
X62459118Y63008488D01*
G37*
G36*
X62429118Y58258488D02*
G01*
X61779118Y58258488D01*
X61779118Y60208488D01*
X62429118Y60208488D01*
X62429118Y58258488D01*
G37*
G36*
X63729118Y63008488D02*
G01*
X63079118Y63008488D01*
X63079118Y64958488D01*
X63729118Y64958488D01*
X63729118Y63008488D01*
G37*
G36*
X63699118Y58258488D02*
G01*
X63049118Y58258488D01*
X63049118Y60208488D01*
X63699118Y60208488D01*
X63699118Y58258488D01*
G37*
G36*
X64999118Y63008488D02*
G01*
X64349118Y63008488D01*
X64349118Y64958488D01*
X64999118Y64958488D01*
X64999118Y63008488D01*
G37*
G36*
X64969118Y58258488D02*
G01*
X64319118Y58258488D01*
X64319118Y60208488D01*
X64969118Y60208488D01*
X64969118Y58258488D01*
G37*
G36*
X66269118Y63008488D02*
G01*
X65619118Y63008488D01*
X65619118Y64958488D01*
X66269118Y64958488D01*
X66269118Y63008488D01*
G37*
G36*
X66239118Y58258488D02*
G01*
X65589118Y58258488D01*
X65589118Y60208488D01*
X66239118Y60208488D01*
X66239118Y58258488D01*
G37*
%TO.C,U4*%
D11*
X60814118Y75258488D02*
X60964118Y75258488D01*
X60964118Y74958488D01*
X60814118Y74958488D01*
X60814118Y75258488D01*
G36*
X60814118Y75258488D02*
G01*
X60964118Y75258488D01*
X60964118Y74958488D01*
X60814118Y74958488D01*
X60814118Y75258488D01*
G37*
X61164118Y75558488D02*
X61464118Y75558488D01*
X61464118Y75408488D01*
X61164118Y75408488D01*
X61164118Y75558488D01*
G36*
X61164118Y75558488D02*
G01*
X61464118Y75558488D01*
X61464118Y75408488D01*
X61164118Y75408488D01*
X61164118Y75558488D01*
G37*
X61164118Y75208488D02*
X61464118Y75208488D01*
X61464118Y75008488D01*
X61164118Y75008488D01*
X61164118Y75208488D01*
G36*
X61164118Y75208488D02*
G01*
X61464118Y75208488D01*
X61464118Y75008488D01*
X61164118Y75008488D01*
X61164118Y75208488D01*
G37*
X61164118Y74808488D02*
X61464118Y74808488D01*
X61464118Y74658488D01*
X61164118Y74658488D01*
X61164118Y74808488D01*
G36*
X61164118Y74808488D02*
G01*
X61464118Y74808488D01*
X61464118Y74658488D01*
X61164118Y74658488D01*
X61164118Y74808488D01*
G37*
X61664118Y75258488D02*
X61814118Y75258488D01*
X61814118Y74958488D01*
X61664118Y74958488D01*
X61664118Y75258488D01*
G36*
X61664118Y75258488D02*
G01*
X61814118Y75258488D01*
X61814118Y74958488D01*
X61664118Y74958488D01*
X61664118Y75258488D01*
G37*
D12*
X60876618Y75958488D02*
G75*
G02*
X60751618Y75958488I-62500J0D01*
G01*
X60751618Y75958488D02*
G75*
G02*
X60876618Y75958488I62500J0D01*
G01*
X60876618Y74258488D02*
G75*
G02*
X60751618Y74258488I-62500J0D01*
G01*
X60751618Y74258488D02*
G75*
G02*
X60876618Y74258488I62500J0D01*
G01*
X60926618Y75508488D02*
G75*
G02*
X60801618Y75508488I-62500J0D01*
G01*
X60801618Y75508488D02*
G75*
G02*
X60926618Y75508488I62500J0D01*
G01*
X60926618Y74708488D02*
G75*
G02*
X60801618Y74708488I-62500J0D01*
G01*
X60801618Y74708488D02*
G75*
G02*
X60926618Y74708488I62500J0D01*
G01*
X61376618Y75958488D02*
G75*
G02*
X61251618Y75958488I-62500J0D01*
G01*
X61251618Y75958488D02*
G75*
G02*
X61376618Y75958488I62500J0D01*
G01*
X61376618Y74258488D02*
G75*
G02*
X61251618Y74258488I-62500J0D01*
G01*
X61251618Y74258488D02*
G75*
G02*
X61376618Y74258488I62500J0D01*
G01*
X61826618Y75508488D02*
G75*
G02*
X61701618Y75508488I-62500J0D01*
G01*
X61701618Y75508488D02*
G75*
G02*
X61826618Y75508488I62500J0D01*
G01*
X61826618Y74708488D02*
G75*
G02*
X61701618Y74708488I-62500J0D01*
G01*
X61701618Y74708488D02*
G75*
G02*
X61826618Y74708488I62500J0D01*
G01*
X61876618Y75958488D02*
G75*
G02*
X61751618Y75958488I-62500J0D01*
G01*
X61751618Y75958488D02*
G75*
G02*
X61876618Y75958488I62500J0D01*
G01*
X61876618Y74258488D02*
G75*
G02*
X61751618Y74258488I-62500J0D01*
G01*
X61751618Y74258488D02*
G75*
G02*
X61876618Y74258488I62500J0D01*
G01*
D10*
%TO.C,FL4*%
G36*
X81378437Y83535214D02*
G01*
X80978437Y83535214D01*
X80978437Y84035214D01*
X81378437Y84035214D01*
X81378437Y83535214D01*
G37*
G36*
X81378437Y81995214D02*
G01*
X80978437Y81995214D01*
X80978437Y82495214D01*
X81378437Y82495214D01*
X81378437Y81995214D01*
G37*
G36*
X82618437Y83535214D02*
G01*
X82218437Y83535214D01*
X82218437Y84035214D01*
X82618437Y84035214D01*
X82618437Y83535214D01*
G37*
G36*
X82618437Y81995214D02*
G01*
X82218437Y81995214D01*
X82218437Y82495214D01*
X82618437Y82495214D01*
X82618437Y81995214D01*
G37*
%TO.C,FL5*%
G36*
X65219118Y79078488D02*
G01*
X64719118Y79078488D01*
X64719118Y79478488D01*
X65219118Y79478488D01*
X65219118Y79078488D01*
G37*
G36*
X65219118Y77838488D02*
G01*
X64719118Y77838488D01*
X64719118Y78238488D01*
X65219118Y78238488D01*
X65219118Y77838488D01*
G37*
G36*
X66759118Y79078488D02*
G01*
X66259118Y79078488D01*
X66259118Y79478488D01*
X66759118Y79478488D01*
X66759118Y79078488D01*
G37*
G36*
X66759118Y77838488D02*
G01*
X66259118Y77838488D01*
X66259118Y78238488D01*
X66759118Y78238488D01*
X66759118Y77838488D01*
G37*
%TO.C,AT3*%
G36*
X83000000Y73400000D02*
G01*
X82700000Y73400000D01*
X82700000Y73800000D01*
X83000000Y73800000D01*
X83000000Y73400000D01*
G37*
G36*
X83000000Y72700000D02*
G01*
X82700000Y72700000D01*
X82700000Y73300000D01*
X83000000Y73300000D01*
X83000000Y72700000D01*
G37*
G36*
X83000000Y72200000D02*
G01*
X82700000Y72200000D01*
X82700000Y72600000D01*
X83000000Y72600000D01*
X83000000Y72200000D01*
G37*
G36*
X83700000Y73300000D02*
G01*
X83400000Y73300000D01*
X83400000Y73800000D01*
X83700000Y73800000D01*
X83700000Y73300000D01*
G37*
G36*
X83700000Y72200000D02*
G01*
X83400000Y72200000D01*
X83400000Y72700000D01*
X83700000Y72700000D01*
X83700000Y72200000D01*
G37*
%TO.C,AT1*%
G36*
X88600000Y72950000D02*
G01*
X88200000Y72950000D01*
X88200000Y73250000D01*
X88600000Y73250000D01*
X88600000Y72950000D01*
G37*
G36*
X88700000Y72250000D02*
G01*
X88200000Y72250000D01*
X88200000Y72550000D01*
X88700000Y72550000D01*
X88700000Y72250000D01*
G37*
G36*
X89300000Y72950000D02*
G01*
X88700000Y72950000D01*
X88700000Y73250000D01*
X89300000Y73250000D01*
X89300000Y72950000D01*
G37*
G36*
X89800000Y72950000D02*
G01*
X89400000Y72950000D01*
X89400000Y73250000D01*
X89800000Y73250000D01*
X89800000Y72950000D01*
G37*
G36*
X89800000Y72250000D02*
G01*
X89300000Y72250000D01*
X89300000Y72550000D01*
X89800000Y72550000D01*
X89800000Y72250000D01*
G37*
%TO.C,AT4*%
G36*
X83000000Y71390000D02*
G01*
X82700000Y71390000D01*
X82700000Y71790000D01*
X83000000Y71790000D01*
X83000000Y71390000D01*
G37*
G36*
X83000000Y70690000D02*
G01*
X82700000Y70690000D01*
X82700000Y71290000D01*
X83000000Y71290000D01*
X83000000Y70690000D01*
G37*
G36*
X83000000Y70190000D02*
G01*
X82700000Y70190000D01*
X82700000Y70590000D01*
X83000000Y70590000D01*
X83000000Y70190000D01*
G37*
G36*
X83700000Y71290000D02*
G01*
X83400000Y71290000D01*
X83400000Y71790000D01*
X83700000Y71790000D01*
X83700000Y71290000D01*
G37*
G36*
X83700000Y70190000D02*
G01*
X83400000Y70190000D01*
X83400000Y70690000D01*
X83700000Y70690000D01*
X83700000Y70190000D01*
G37*
%TO.C,U21*%
G36*
X85950000Y56400000D02*
G01*
X83550000Y56400000D01*
X83550000Y58000000D01*
X85950000Y58000000D01*
X85950000Y56400000D01*
G37*
G36*
X87820000Y56770000D02*
G01*
X85930000Y56770000D01*
X85930000Y57630000D01*
X87820000Y57630000D01*
X87820000Y56770000D01*
G37*
%TO.C,U19*%
G36*
X85650000Y72150000D02*
G01*
X85050000Y72150000D01*
X85050000Y72650000D01*
X85650000Y72650000D01*
X85650000Y72150000D01*
G37*
G36*
X85650000Y71150000D02*
G01*
X85050000Y71150000D01*
X85050000Y71650000D01*
X85650000Y71650000D01*
X85650000Y71150000D01*
G37*
G36*
X85650000Y70150000D02*
G01*
X85050000Y70150000D01*
X85050000Y70650000D01*
X85650000Y70650000D01*
X85650000Y70150000D01*
G37*
G36*
X87350000Y72150000D02*
G01*
X86750000Y72150000D01*
X86750000Y72650000D01*
X87350000Y72650000D01*
X87350000Y72150000D01*
G37*
G36*
X87350000Y71150000D02*
G01*
X86750000Y71150000D01*
X86750000Y71650000D01*
X87350000Y71650000D01*
X87350000Y71150000D01*
G37*
G36*
X87350000Y70150000D02*
G01*
X86750000Y70150000D01*
X86750000Y70650000D01*
X87350000Y70650000D01*
X87350000Y70150000D01*
G37*
%TD*%
D13*
%TO.C,R71*%
X24360000Y30725200D03*
X25630000Y30725200D03*
X26900000Y30725200D03*
X28170000Y30725200D03*
X29440000Y30725200D03*
X29440000Y33874800D03*
X28170000Y33874800D03*
X26900000Y33874800D03*
X25630000Y33874800D03*
X24360000Y33874800D03*
%TD*%
D14*
%TO.C,D7*%
X32700000Y5712500D03*
X32700000Y7287500D03*
%TD*%
D15*
%TO.C,R47*%
X40750000Y40250000D03*
X40750000Y41650000D03*
%TD*%
D16*
%TO.C,C85*%
X87180000Y49275000D03*
X88180000Y49275000D03*
%TD*%
D17*
%TO.C,U47*%
X96820000Y35560000D03*
X97220000Y35560000D03*
X97620000Y35560000D03*
X97820000Y35960000D03*
X97620000Y36360000D03*
X97220000Y36360000D03*
X96820000Y36360000D03*
X96620000Y35960000D03*
D18*
X97220000Y35960000D03*
%TD*%
D19*
%TO.C,C24*%
X19900000Y13200000D03*
X18500000Y13200000D03*
%TD*%
D20*
%TO.C,U22*%
X81300000Y77451016D03*
X80650000Y77451016D03*
X80000000Y77451016D03*
X80000000Y75776016D03*
X80650000Y75776016D03*
X81300000Y75776016D03*
%TD*%
D15*
%TO.C,C147*%
X84050000Y20750000D03*
X84050000Y22150000D03*
%TD*%
D21*
%TO.C,U13*%
X25200000Y93775000D03*
X25200000Y93125000D03*
X25200000Y92475000D03*
X25200000Y91825000D03*
X29300000Y91825000D03*
X29300000Y92475000D03*
X29300000Y93125000D03*
X29300000Y93775000D03*
%TD*%
D22*
%TO.C,C115*%
X21750000Y69675000D03*
X21750000Y72625000D03*
%TD*%
D23*
%TO.C,L2*%
X62394118Y72609465D03*
X60819118Y72609465D03*
%TD*%
D15*
%TO.C,R79*%
X22350000Y66300000D03*
X22350000Y67700000D03*
%TD*%
D24*
%TO.C,L22*%
X70204118Y80822959D03*
X70204118Y79247959D03*
%TD*%
D25*
%TO.C,R46*%
X25925000Y59000000D03*
X24275000Y59000000D03*
%TD*%
D26*
%TO.C,R35*%
X7650000Y87450000D03*
X7650000Y86050000D03*
%TD*%
D27*
%TO.C,L20*%
X87212500Y60800000D03*
X85087500Y60800000D03*
%TD*%
D28*
%TO.C,C25*%
X20050000Y11450000D03*
X18450000Y11450000D03*
%TD*%
D26*
%TO.C,R4*%
X78700000Y72700000D03*
X78700000Y71300000D03*
%TD*%
D29*
%TO.C,R77*%
X12800000Y53300000D03*
X14200000Y53300000D03*
%TD*%
D30*
%TO.C,U8*%
X38525000Y72462500D03*
X39175000Y72462500D03*
X39825000Y72462500D03*
X40475000Y72462500D03*
X40475000Y74737500D03*
X39825000Y74737500D03*
X39175000Y74737500D03*
X38525000Y74737500D03*
%TD*%
D31*
%TO.C,U34*%
X42900000Y81370000D03*
X42900000Y82400000D03*
X42900000Y83430000D03*
X41700000Y81370000D03*
X41700000Y82400000D03*
X41700000Y83430000D03*
D32*
X44862500Y80495000D03*
X44862500Y81765000D03*
X44862500Y83035000D03*
X44862500Y84305000D03*
X39737500Y84305000D03*
X39737500Y83035000D03*
X39737500Y81765000D03*
X39737500Y80495000D03*
%TD*%
D26*
%TO.C,C141*%
X97300000Y52100000D03*
X97300000Y50700000D03*
%TD*%
%TO.C,R56*%
X46050000Y31300000D03*
X46050000Y29900000D03*
%TD*%
D29*
%TO.C,C27*%
X40900000Y44450000D03*
X42300000Y44450000D03*
%TD*%
D15*
%TO.C,C138*%
X68400000Y42710000D03*
X68400000Y44110000D03*
%TD*%
D29*
%TO.C,R23*%
X92925000Y79700000D03*
X94325000Y79700000D03*
%TD*%
D26*
%TO.C,R91*%
X52630628Y81593635D03*
X52630628Y80193635D03*
%TD*%
D15*
%TO.C,C51*%
X62850000Y49250000D03*
X62850000Y50650000D03*
%TD*%
D29*
%TO.C,R13*%
X88300000Y77300000D03*
X89700000Y77300000D03*
%TD*%
D33*
%TO.C,C84*%
X87200000Y50800000D03*
X87200000Y51800000D03*
%TD*%
D34*
%TO.C,U6*%
X34610000Y76205000D03*
X34610000Y77395000D03*
X33790000Y76205000D03*
X33790000Y77395000D03*
D35*
X35650000Y76050000D03*
X35650000Y76550000D03*
X35650000Y77050000D03*
X35650000Y77550000D03*
X32750000Y77550000D03*
X32750000Y77050000D03*
X32750000Y76550000D03*
X32750000Y76050000D03*
%TD*%
D13*
%TO.C,R69*%
X51940000Y27874800D03*
X50670000Y27874800D03*
X49400000Y27874800D03*
X48130000Y27874800D03*
X46860000Y27874800D03*
X46860000Y24725200D03*
X48130000Y24725200D03*
X49400000Y24725200D03*
X50670000Y24725200D03*
X51940000Y24725200D03*
%TD*%
D29*
%TO.C,R65*%
X83500000Y68100000D03*
X84900000Y68100000D03*
%TD*%
D36*
%TO.C,U14*%
X44712500Y31856250D03*
X42812500Y31856250D03*
X43762500Y29981250D03*
%TD*%
D15*
%TO.C,R51*%
X27850000Y89100000D03*
X27850000Y90500000D03*
%TD*%
D29*
%TO.C,R16*%
X89000000Y74950000D03*
X90400000Y74950000D03*
%TD*%
D37*
%TO.C,U9*%
X24150000Y21550000D03*
X24650000Y21550000D03*
X25150000Y21550000D03*
X25650000Y21550000D03*
X26150000Y21550000D03*
X26650000Y21550000D03*
X27150000Y21550000D03*
X27650000Y21550000D03*
X28150000Y21550000D03*
X28650000Y21550000D03*
X29150000Y21550000D03*
X29650000Y21550000D03*
X30150000Y21550000D03*
X30650000Y21550000D03*
X24150000Y21050000D03*
X24650000Y21050000D03*
X25150000Y21050000D03*
X25650000Y21050000D03*
X26150000Y21050000D03*
X26650000Y21050000D03*
X27150000Y21050000D03*
X27650000Y21050000D03*
X28150000Y21050000D03*
X28650000Y21050000D03*
X29150000Y21050000D03*
X29650000Y21050000D03*
X30150000Y21050000D03*
X30650000Y21050000D03*
X24150000Y20550000D03*
X24650000Y20550000D03*
X25150000Y20550000D03*
X25650000Y20550000D03*
X26150000Y20550000D03*
X26650000Y20550000D03*
X27150000Y20550000D03*
X27650000Y20550000D03*
X28150000Y20550000D03*
X28650000Y20550000D03*
X29150000Y20550000D03*
X29650000Y20550000D03*
X30150000Y20550000D03*
X30650000Y20550000D03*
X24150000Y20050000D03*
X24650000Y20050000D03*
X25150000Y20050000D03*
X25650000Y20050000D03*
X29650000Y20050000D03*
X30150000Y20050000D03*
X30650000Y20050000D03*
X24150000Y19550000D03*
X24650000Y19550000D03*
X25150000Y19550000D03*
X26150000Y19550000D03*
X26650000Y19550000D03*
X27150000Y19550000D03*
X27650000Y19550000D03*
X28150000Y19550000D03*
X28650000Y19550000D03*
X29650000Y19550000D03*
X30150000Y19550000D03*
X30650000Y19550000D03*
X24150000Y19050000D03*
X24650000Y19050000D03*
X25150000Y19050000D03*
X26150000Y19050000D03*
X28650000Y19050000D03*
X29650000Y19050000D03*
X30150000Y19050000D03*
X30650000Y19050000D03*
X24150000Y18550000D03*
X24650000Y18550000D03*
X25150000Y18550000D03*
X26150000Y18550000D03*
X28650000Y18550000D03*
X29650000Y18550000D03*
X30150000Y18550000D03*
X30650000Y18550000D03*
X24150000Y18050000D03*
X24650000Y18050000D03*
X25150000Y18050000D03*
X26150000Y18050000D03*
X28650000Y18050000D03*
X29650000Y18050000D03*
X30150000Y18050000D03*
X30650000Y18050000D03*
X24150000Y17550000D03*
X24650000Y17550000D03*
X25150000Y17550000D03*
X26150000Y17550000D03*
X28650000Y17550000D03*
X29650000Y17550000D03*
X30150000Y17550000D03*
X30650000Y17550000D03*
X24150000Y17050000D03*
X24650000Y17050000D03*
X25150000Y17050000D03*
X26150000Y17050000D03*
X26650000Y17050000D03*
X27150000Y17050000D03*
X27650000Y17050000D03*
X28150000Y17050000D03*
X28650000Y17050000D03*
X29650000Y17050000D03*
X30150000Y17050000D03*
X30650000Y17050000D03*
X24150000Y16550000D03*
X24650000Y16550000D03*
X25150000Y16550000D03*
X29650000Y16550000D03*
X30150000Y16550000D03*
X30650000Y16550000D03*
X24150000Y16050000D03*
X24650000Y16050000D03*
X25150000Y16050000D03*
X25650000Y16050000D03*
X26150000Y16050000D03*
X26650000Y16050000D03*
X27150000Y16050000D03*
X27650000Y16050000D03*
X28150000Y16050000D03*
X28650000Y16050000D03*
X29150000Y16050000D03*
X29650000Y16050000D03*
X30150000Y16050000D03*
X30650000Y16050000D03*
X24150000Y15550000D03*
X24650000Y15550000D03*
X25150000Y15550000D03*
X25650000Y15550000D03*
X26150000Y15550000D03*
X26650000Y15550000D03*
X27150000Y15550000D03*
X27650000Y15550000D03*
X28150000Y15550000D03*
X28650000Y15550000D03*
X29150000Y15550000D03*
X29650000Y15550000D03*
X30150000Y15550000D03*
X30650000Y15550000D03*
X24150000Y15050000D03*
X24650000Y15050000D03*
X25150000Y15050000D03*
X25650000Y15050000D03*
X26150000Y15050000D03*
X26650000Y15050000D03*
X27150000Y15050000D03*
X27650000Y15050000D03*
X28150000Y15050000D03*
X28650000Y15050000D03*
X29150000Y15050000D03*
X29650000Y15050000D03*
X30150000Y15050000D03*
X30650000Y15050000D03*
%TD*%
D38*
%TO.C,U45*%
X95913553Y24920000D03*
X96573553Y24920000D03*
X97233553Y24920000D03*
X97233553Y26720000D03*
X96573553Y26720000D03*
X95913553Y26720000D03*
%TD*%
D26*
%TO.C,R83*%
X48300000Y84400000D03*
X48300000Y83000000D03*
%TD*%
D39*
%TO.C,U24*%
X17950000Y66525000D03*
X18850000Y66525000D03*
X19750000Y66525000D03*
X20650000Y66525000D03*
X20650000Y67825000D03*
X19750000Y67825000D03*
X18850000Y67825000D03*
X17950000Y67825000D03*
%TD*%
D40*
%TO.C,L4*%
X66874118Y70214238D03*
X66874118Y69244238D03*
%TD*%
D41*
%TO.C,FL1*%
X99057500Y78882500D03*
X97787500Y78882500D03*
X96517500Y78882500D03*
D42*
X96387500Y77482500D03*
D41*
X96517500Y76082500D03*
X97787500Y76082500D03*
X99057500Y76082500D03*
D43*
X98937500Y77482500D03*
%TD*%
D29*
%TO.C,R111*%
X95800000Y57850000D03*
X97200000Y57850000D03*
%TD*%
D15*
%TO.C,R61*%
X14850000Y91700000D03*
X14850000Y93100000D03*
%TD*%
D44*
%TO.C,R110*%
X90750000Y63825000D03*
X90750000Y62175000D03*
%TD*%
D26*
%TO.C,C121*%
X94850000Y83050000D03*
X94850000Y81650000D03*
%TD*%
D19*
%TO.C,C23*%
X19900000Y14700000D03*
X18500000Y14700000D03*
%TD*%
%TO.C,C142*%
X68689118Y82008488D03*
X67289118Y82008488D03*
%TD*%
D16*
%TO.C,C58*%
X95000000Y70900000D03*
X96000000Y70900000D03*
%TD*%
D19*
%TO.C,R115*%
X95000000Y48000000D03*
X93600000Y48000000D03*
%TD*%
D15*
%TO.C,C161*%
X96300000Y39850000D03*
X96300000Y41250000D03*
%TD*%
D26*
%TO.C,R36*%
X7650000Y85200000D03*
X7650000Y83800000D03*
%TD*%
D29*
%TO.C,C31*%
X31000000Y60450000D03*
X29600000Y60450000D03*
%TD*%
D16*
%TO.C,C87*%
X87180000Y43575000D03*
X88180000Y43575000D03*
%TD*%
D33*
%TO.C,C54*%
X64496766Y53170278D03*
X64496766Y54170278D03*
%TD*%
D19*
%TO.C,R106*%
X94325000Y78500000D03*
X92925000Y78500000D03*
%TD*%
%TO.C,C19*%
X19900000Y21000000D03*
X18500000Y21000000D03*
%TD*%
D45*
%TO.C,R74*%
X7625200Y55140000D03*
X7625200Y53870000D03*
X7625200Y52600000D03*
X7625200Y51330000D03*
X7625200Y50060000D03*
X10774800Y50060000D03*
X10774800Y51330000D03*
X10774800Y52600000D03*
X10774800Y53870000D03*
X10774800Y55140000D03*
%TD*%
D46*
%TO.C,SH1*%
X58439118Y55378488D03*
D47*
X61214118Y55378488D03*
D48*
X67589118Y55378488D03*
D47*
X73964118Y55378488D03*
D46*
X76739118Y55378488D03*
D49*
X58439118Y57868488D03*
X76739118Y57868488D03*
D50*
X58439118Y63958488D03*
X76739118Y63958488D03*
X58439118Y69958488D03*
X76739118Y69958488D03*
X58439118Y75958488D03*
X76739118Y75958488D03*
D49*
X58439118Y82048488D03*
X76739118Y82048488D03*
D46*
X58439118Y84538488D03*
D47*
X61214118Y84538488D03*
D48*
X67589118Y84538488D03*
D47*
X73964118Y84538488D03*
D46*
X76739118Y84538488D03*
%TD*%
D15*
%TO.C,C48*%
X55353182Y77221409D03*
X55353182Y78621409D03*
%TD*%
D16*
%TO.C,C86*%
X87180000Y46425000D03*
X88180000Y46425000D03*
%TD*%
D19*
%TO.C,C15*%
X31000000Y68600000D03*
X29600000Y68600000D03*
%TD*%
D14*
%TO.C,D6*%
X30700000Y5712500D03*
X30700000Y7287500D03*
%TD*%
D15*
%TO.C,C128*%
X54950000Y63700000D03*
X54950000Y65100000D03*
%TD*%
D51*
%TO.C,FB3*%
X59387500Y32200000D03*
X61212500Y32200000D03*
%TD*%
D26*
%TO.C,C125*%
X45250000Y61100000D03*
X45250000Y59700000D03*
%TD*%
D52*
%TO.C,C13*%
X31175000Y71000000D03*
X28225000Y71000000D03*
%TD*%
D29*
%TO.C,C153*%
X93050000Y20050000D03*
X94450000Y20050000D03*
%TD*%
D53*
%TO.C,C139*%
X63875000Y43447500D03*
X66825000Y43447500D03*
%TD*%
D29*
%TO.C,C49*%
X68450000Y53050000D03*
X69850000Y53050000D03*
%TD*%
%TO.C,R95*%
X43308789Y22081070D03*
X44708789Y22081070D03*
%TD*%
%TO.C,R109*%
X92500000Y59300000D03*
X93900000Y59300000D03*
%TD*%
D19*
%TO.C,C116*%
X10925000Y70705000D03*
X9525000Y70705000D03*
%TD*%
D26*
%TO.C,R7*%
X56450000Y51500000D03*
X56450000Y50100000D03*
%TD*%
D15*
%TO.C,R6*%
X73363275Y45700951D03*
X73363275Y47100951D03*
%TD*%
D29*
%TO.C,C33*%
X37500000Y29450000D03*
X38900000Y29450000D03*
%TD*%
D15*
%TO.C,C130*%
X91125000Y10200000D03*
X91125000Y11600000D03*
%TD*%
D54*
%TO.C,U38*%
X64050000Y38562500D03*
X65000000Y38562500D03*
X65950000Y38562500D03*
X65950000Y40837500D03*
X64050000Y40837500D03*
%TD*%
D15*
%TO.C,C103*%
X92950000Y29525000D03*
X92950000Y30925000D03*
%TD*%
D40*
%TO.C,L18*%
X87200000Y45485000D03*
X87200000Y44515000D03*
%TD*%
D16*
%TO.C,C144*%
X70289118Y82308488D03*
X71289118Y82308488D03*
%TD*%
D29*
%TO.C,C65*%
X32550000Y32975000D03*
X33950000Y32975000D03*
%TD*%
D55*
%TO.C,D3*%
X20837500Y89975000D03*
X22937500Y89975000D03*
%TD*%
D56*
%TO.C,C107*%
X14900000Y81420000D03*
X14900000Y75180000D03*
%TD*%
D19*
%TO.C,R40*%
X10200000Y76950000D03*
X8800000Y76950000D03*
%TD*%
D13*
%TO.C,R70*%
X16360000Y30725200D03*
X17630000Y30725200D03*
X18900000Y30725200D03*
X20170000Y30725200D03*
X21440000Y30725200D03*
X21440000Y33874800D03*
X20170000Y33874800D03*
X18900000Y33874800D03*
X17630000Y33874800D03*
X16360000Y33874800D03*
%TD*%
D19*
%TO.C,C100*%
X44600000Y85900000D03*
X43200000Y85900000D03*
%TD*%
D57*
%TO.C,D10*%
X19200000Y70800000D03*
X19200000Y72900000D03*
%TD*%
D26*
%TO.C,R64*%
X22950000Y88200000D03*
X22950000Y86800000D03*
%TD*%
D15*
%TO.C,R33*%
X24450000Y8825000D03*
X24450000Y10225000D03*
%TD*%
D26*
%TO.C,R9*%
X59550000Y51500000D03*
X59550000Y50100000D03*
%TD*%
D53*
%TO.C,C34*%
X32525000Y30600000D03*
X35475000Y30600000D03*
%TD*%
D26*
%TO.C,C135*%
X95950000Y12450000D03*
X95950000Y11050000D03*
%TD*%
D33*
%TO.C,C71*%
X97233553Y31537820D03*
X97233553Y32537820D03*
%TD*%
D19*
%TO.C,R32*%
X10187500Y91875000D03*
X8787500Y91875000D03*
%TD*%
D55*
%TO.C,D1*%
X26350000Y84000000D03*
X28450000Y84000000D03*
%TD*%
D26*
%TO.C,R84*%
X48300000Y82150000D03*
X48300000Y80750000D03*
%TD*%
%TO.C,R58*%
X15912500Y85900000D03*
X15912500Y84500000D03*
%TD*%
D56*
%TO.C,C108*%
X24500000Y81420000D03*
X24500000Y75180000D03*
%TD*%
D26*
%TO.C,C88*%
X77801531Y35205241D03*
X77801531Y33805241D03*
%TD*%
D16*
%TO.C,C67*%
X79750000Y74150000D03*
X80750000Y74150000D03*
%TD*%
D56*
%TO.C,C109*%
X19700000Y81420000D03*
X19700000Y75180000D03*
%TD*%
D58*
%TO.C,U41*%
X73384118Y78777738D03*
X73384118Y79277738D03*
X73384118Y79777738D03*
X73384118Y80277738D03*
X71614118Y80277738D03*
X71614118Y79777738D03*
X71614118Y79277738D03*
X71614118Y78777738D03*
D59*
X72499118Y79527738D03*
%TD*%
D19*
%TO.C,C20*%
X19900000Y19500000D03*
X18500000Y19500000D03*
%TD*%
D60*
%TO.C,BZ1*%
X49824105Y14868870D03*
X49824105Y18368870D03*
%TD*%
D54*
%TO.C,U31*%
X92650000Y10162500D03*
X93600000Y10162500D03*
X94550000Y10162500D03*
X94550000Y12437500D03*
X92650000Y12437500D03*
%TD*%
D29*
%TO.C,C68*%
X79700000Y73100000D03*
X81100000Y73100000D03*
%TD*%
D61*
%TO.C,U28*%
X10462500Y84112500D03*
X11112500Y84112500D03*
X11762500Y84112500D03*
X12412500Y84112500D03*
X13062500Y84112500D03*
X13712500Y84112500D03*
X14362500Y84112500D03*
X14362500Y89837500D03*
X13712500Y89837500D03*
X13062500Y89837500D03*
X12412500Y89837500D03*
X11762500Y89837500D03*
X11112500Y89837500D03*
X10462500Y89837500D03*
%TD*%
D26*
%TO.C,R125*%
X78400000Y9850000D03*
X78400000Y8450000D03*
%TD*%
D52*
%TO.C,C14*%
X31175000Y74200000D03*
X28225000Y74200000D03*
%TD*%
D62*
%TO.C,L10*%
X67585000Y52900000D03*
X66615000Y52900000D03*
%TD*%
D15*
%TO.C,R93*%
X38400000Y88600000D03*
X38400000Y90000000D03*
%TD*%
D16*
%TO.C,C69*%
X82500000Y76450000D03*
X83500000Y76450000D03*
%TD*%
D29*
%TO.C,C60*%
X89100000Y80700000D03*
X90500000Y80700000D03*
%TD*%
%TO.C,R2*%
X63489118Y72608488D03*
X64889118Y72608488D03*
%TD*%
D26*
%TO.C,R45*%
X32700000Y10225000D03*
X32700000Y8825000D03*
%TD*%
D19*
%TO.C,R26*%
X89550000Y31750000D03*
X88150000Y31750000D03*
%TD*%
D14*
%TO.C,D9*%
X15950000Y5712500D03*
X15950000Y7287500D03*
%TD*%
D15*
%TO.C,C28*%
X27600000Y59450000D03*
X27600000Y60850000D03*
%TD*%
%TO.C,R27*%
X88850000Y29300000D03*
X88850000Y30700000D03*
%TD*%
%TO.C,C106*%
X87575000Y28975000D03*
X87575000Y30375000D03*
%TD*%
D63*
%TO.C,L24*%
X60440000Y35060000D03*
X60440000Y38360000D03*
%TD*%
D64*
%TO.C,U20*%
X87600000Y83200000D03*
X87200000Y83200000D03*
X86800000Y83200000D03*
X86600000Y82800000D03*
X86800000Y82400000D03*
X87200000Y82400000D03*
X87600000Y82400000D03*
X87800000Y82800000D03*
D65*
X87200000Y82800000D03*
%TD*%
D15*
%TO.C,C40*%
X79775000Y45825000D03*
X79775000Y47225000D03*
%TD*%
D66*
%TO.C,U29*%
X98250000Y88135000D03*
X97750000Y88135000D03*
X97250000Y88135000D03*
X96750000Y88135000D03*
X96750000Y86365000D03*
X97250000Y86365000D03*
X97750000Y86365000D03*
X98250000Y86365000D03*
D67*
X97500000Y87250000D03*
%TD*%
D26*
%TO.C,R37*%
X8787500Y83800000D03*
X8787500Y82400000D03*
%TD*%
%TO.C,C79*%
X23700000Y93500000D03*
X23700000Y92100000D03*
%TD*%
D29*
%TO.C,C26*%
X42700000Y37350000D03*
X44100000Y37350000D03*
%TD*%
D15*
%TO.C,R78*%
X32300000Y92300000D03*
X32300000Y93700000D03*
%TD*%
D68*
%TO.C,L21*%
X51400000Y66500000D03*
X51400000Y63200000D03*
%TD*%
D69*
%TO.C,U44*%
X90950000Y22080000D03*
X90950000Y23480000D03*
X90950000Y24880000D03*
X90950000Y26280000D03*
X89550000Y22080000D03*
X89550000Y23480000D03*
X89550000Y24880000D03*
X89550000Y26280000D03*
X88150000Y22080000D03*
X88150000Y23480000D03*
X88150000Y24880000D03*
X88150000Y26280000D03*
X86750000Y22080000D03*
X86750000Y23480000D03*
X86750000Y24880000D03*
X86750000Y26280000D03*
D70*
X92287500Y21430000D03*
X92287500Y21930000D03*
X92287500Y22430000D03*
X92287500Y22930000D03*
X92287500Y23430000D03*
X92287500Y23930000D03*
X92287500Y24430000D03*
X92287500Y24930000D03*
X92287500Y25430000D03*
X92287500Y25930000D03*
X92287500Y26430000D03*
X92287500Y26930000D03*
D71*
X91600000Y27617500D03*
X91100000Y27617500D03*
X90600000Y27617500D03*
X90100000Y27617500D03*
X89600000Y27617500D03*
X89100000Y27617500D03*
X88600000Y27617500D03*
X88100000Y27617500D03*
X87600000Y27617500D03*
X87100000Y27617500D03*
X86600000Y27617500D03*
X86100000Y27617500D03*
D70*
X85412500Y26930000D03*
X85412500Y26430000D03*
X85412500Y25930000D03*
X85412500Y25430000D03*
X85412500Y24930000D03*
X85412500Y24430000D03*
X85412500Y23930000D03*
X85412500Y23430000D03*
X85412500Y22930000D03*
X85412500Y22430000D03*
X85412500Y21930000D03*
X85412500Y21430000D03*
D71*
X86100000Y20742500D03*
X86600000Y20742500D03*
X87100000Y20742500D03*
X87600000Y20742500D03*
X88100000Y20742500D03*
X88600000Y20742500D03*
X89100000Y20742500D03*
X89600000Y20742500D03*
X90100000Y20742500D03*
X90600000Y20742500D03*
X91100000Y20742500D03*
X91600000Y20742500D03*
%TD*%
D19*
%TO.C,C117*%
X17600000Y69250000D03*
X16200000Y69250000D03*
%TD*%
D26*
%TO.C,C99*%
X46800000Y81750000D03*
X46800000Y80350000D03*
%TD*%
D14*
%TO.C,D12*%
X32300000Y89212500D03*
X32300000Y90787500D03*
%TD*%
D40*
%TO.C,L17*%
X87200000Y48335000D03*
X87200000Y47365000D03*
%TD*%
D26*
%TO.C,R62*%
X8787500Y88200000D03*
X8787500Y86800000D03*
%TD*%
D19*
%TO.C,R75*%
X14200000Y56300000D03*
X12800000Y56300000D03*
%TD*%
D52*
%TO.C,C123*%
X44250000Y65100000D03*
X41300000Y65100000D03*
%TD*%
D15*
%TO.C,R48*%
X45050000Y13750000D03*
X45050000Y15150000D03*
%TD*%
D29*
%TO.C,C78*%
X37450000Y31600000D03*
X38850000Y31600000D03*
%TD*%
D72*
%TO.C,U39*%
X52707500Y55755000D03*
X52707500Y55105000D03*
X52707500Y54455000D03*
X52707500Y53805000D03*
X54982500Y53805000D03*
X54982500Y54455000D03*
X54982500Y55105000D03*
X54982500Y55755000D03*
%TD*%
D21*
%TO.C,U37*%
X32650000Y87575000D03*
X32650000Y86925000D03*
X32650000Y86275000D03*
X32650000Y85625000D03*
X36750000Y85625000D03*
X36750000Y86275000D03*
X36750000Y86925000D03*
X36750000Y87575000D03*
%TD*%
D19*
%TO.C,R113*%
X95000000Y54750000D03*
X93600000Y54750000D03*
%TD*%
D28*
%TO.C,C61*%
X94100000Y56200000D03*
X92500000Y56200000D03*
%TD*%
D15*
%TO.C,R123*%
X97400000Y39850000D03*
X97400000Y41250000D03*
%TD*%
D23*
%TO.C,L3*%
X62389118Y76908488D03*
X60814118Y76908488D03*
%TD*%
D73*
%TO.C,L1*%
X36550000Y72300000D03*
X33250000Y72300000D03*
%TD*%
D33*
%TO.C,C41*%
X73889118Y67754238D03*
X73889118Y68754238D03*
%TD*%
D19*
%TO.C,C7*%
X35900000Y79300000D03*
X34500000Y79300000D03*
%TD*%
D74*
%TO.C,C53*%
X63950000Y34800000D03*
X65550000Y34800000D03*
%TD*%
D29*
%TO.C,R5*%
X79747401Y44869545D03*
X81147401Y44869545D03*
%TD*%
D75*
%TO.C,C36*%
X15400000Y42275000D03*
X15400000Y39325000D03*
%TD*%
D38*
%TO.C,U23*%
X81215000Y41225000D03*
X81875000Y41225000D03*
X82535000Y41225000D03*
X82535000Y43025000D03*
X81875000Y43025000D03*
X81215000Y43025000D03*
%TD*%
D15*
%TO.C,C44*%
X78580074Y45291502D03*
X78580074Y46691502D03*
%TD*%
D29*
%TO.C,C32*%
X29600000Y59100000D03*
X31000000Y59100000D03*
%TD*%
D15*
%TO.C,R41*%
X20462500Y83700000D03*
X20462500Y85100000D03*
%TD*%
D29*
%TO.C,C152*%
X91100000Y18950000D03*
X92500000Y18950000D03*
%TD*%
%TO.C,R103*%
X92950000Y28550000D03*
X94350000Y28550000D03*
%TD*%
D19*
%TO.C,R108*%
X93900000Y60450000D03*
X92500000Y60450000D03*
%TD*%
D15*
%TO.C,R25*%
X75615222Y45506739D03*
X75615222Y46906739D03*
%TD*%
D29*
%TO.C,R14*%
X92925000Y77300000D03*
X94325000Y77300000D03*
%TD*%
D19*
%TO.C,C10*%
X31200000Y78950000D03*
X29800000Y78950000D03*
%TD*%
D45*
%TO.C,R73*%
X7625200Y47640000D03*
X7625200Y46370000D03*
X7625200Y45100000D03*
X7625200Y43830000D03*
X7625200Y42560000D03*
X10774800Y42560000D03*
X10774800Y43830000D03*
X10774800Y45100000D03*
X10774800Y46370000D03*
X10774800Y47640000D03*
%TD*%
D15*
%TO.C,R11*%
X93825000Y66150000D03*
X93825000Y67550000D03*
%TD*%
D19*
%TO.C,C46*%
X92155000Y40877500D03*
X90755000Y40877500D03*
%TD*%
D29*
%TO.C,C8*%
X63439118Y74258488D03*
X64839118Y74258488D03*
%TD*%
D76*
%TO.C,C120*%
X95950000Y82950000D03*
X95950000Y81950000D03*
%TD*%
D19*
%TO.C,C18*%
X40250000Y70600000D03*
X38850000Y70600000D03*
%TD*%
D77*
%TO.C,Y1*%
X44500000Y39150000D03*
X44500000Y42850000D03*
X42300000Y42850000D03*
X42300000Y39150000D03*
%TD*%
D29*
%TO.C,C70*%
X87200000Y65500000D03*
X88600000Y65500000D03*
%TD*%
D78*
%TO.C,U11*%
X39037500Y14762500D03*
X39687500Y14762500D03*
X40337500Y14762500D03*
X40337500Y16437500D03*
X39687500Y16437500D03*
X39037500Y16437500D03*
%TD*%
D41*
%TO.C,FL2*%
X91130000Y85240000D03*
X92400000Y85240000D03*
X93670000Y85240000D03*
D42*
X93800000Y86640000D03*
D41*
X93670000Y88040000D03*
X92400000Y88040000D03*
X91130000Y88040000D03*
D43*
X91250000Y86640000D03*
%TD*%
D15*
%TO.C,C56*%
X50650000Y54050000D03*
X50650000Y55450000D03*
%TD*%
D26*
%TO.C,R20*%
X94100000Y41250000D03*
X94100000Y39850000D03*
%TD*%
D15*
%TO.C,R67*%
X17450000Y71500000D03*
X17450000Y72900000D03*
%TD*%
D26*
%TO.C,R8*%
X57950000Y51500000D03*
X57950000Y50100000D03*
%TD*%
D57*
%TO.C,D13*%
X46594932Y16268235D03*
X46594932Y18368235D03*
%TD*%
D15*
%TO.C,C89*%
X95700000Y62400000D03*
X95700000Y63800000D03*
%TD*%
D29*
%TO.C,C3*%
X63539118Y76908488D03*
X64939118Y76908488D03*
%TD*%
D79*
%TO.C,L26*%
X96162500Y84450000D03*
X97737500Y84450000D03*
%TD*%
D53*
%TO.C,C132*%
X92550000Y15000000D03*
X95500000Y15000000D03*
%TD*%
D14*
%TO.C,D5*%
X28700000Y5712500D03*
X28700000Y7287500D03*
%TD*%
D15*
%TO.C,C164*%
X95200000Y37650000D03*
X95200000Y39050000D03*
%TD*%
D26*
%TO.C,C131*%
X30525000Y87550000D03*
X30525000Y86150000D03*
%TD*%
D29*
%TO.C,R50*%
X37500000Y28250000D03*
X38900000Y28250000D03*
%TD*%
D78*
%TO.C,U42*%
X52900000Y77137500D03*
X53550000Y77137500D03*
X54200000Y77137500D03*
X54200000Y78812500D03*
X53550000Y78812500D03*
X52900000Y78812500D03*
%TD*%
D15*
%TO.C,R59*%
X15912500Y87600000D03*
X15912500Y89000000D03*
%TD*%
D16*
%TO.C,C9*%
X60839118Y66358488D03*
X61839118Y66358488D03*
%TD*%
D19*
%TO.C,C90*%
X94950000Y45750000D03*
X93550000Y45750000D03*
%TD*%
D80*
%TO.C,C113*%
X17250000Y86650000D03*
X17250000Y88250000D03*
%TD*%
D26*
%TO.C,C101*%
X43200000Y75700000D03*
X43200000Y74300000D03*
%TD*%
D15*
%TO.C,C151*%
X91775000Y29150000D03*
X91775000Y30550000D03*
%TD*%
D81*
%TO.C,C96*%
X81450000Y64250000D03*
X80450000Y64250000D03*
%TD*%
D29*
%TO.C,R107*%
X80200000Y60800000D03*
X81600000Y60800000D03*
%TD*%
D26*
%TO.C,R54*%
X21550000Y10200000D03*
X21550000Y8800000D03*
%TD*%
D82*
%TO.C,Q6*%
X43162500Y28200000D03*
X43162500Y26300000D03*
X45037500Y27250000D03*
%TD*%
D15*
%TO.C,R39*%
X8800000Y79675000D03*
X8800000Y81075000D03*
%TD*%
D83*
%TO.C,X3*%
X90210000Y34385000D03*
X88160000Y34385000D03*
X88160000Y32935000D03*
X90210000Y32935000D03*
%TD*%
D29*
%TO.C,C62*%
X89200000Y79200000D03*
X90600000Y79200000D03*
%TD*%
D81*
%TO.C,C145*%
X75499118Y79258488D03*
X74499118Y79258488D03*
%TD*%
D26*
%TO.C,R80*%
X14650000Y67950000D03*
X14650000Y66550000D03*
%TD*%
%TO.C,R42*%
X26700000Y10225000D03*
X26700000Y8825000D03*
%TD*%
%TO.C,R85*%
X52550000Y71750000D03*
X52550000Y70350000D03*
%TD*%
%TO.C,R52*%
X30800000Y90800000D03*
X30800000Y89400000D03*
%TD*%
D19*
%TO.C,C137*%
X62300000Y40297500D03*
X60900000Y40297500D03*
%TD*%
D54*
%TO.C,Q4*%
X79650000Y67662500D03*
X81550000Y67662500D03*
X80600000Y69937500D03*
%TD*%
D45*
%TO.C,R72*%
X10774800Y35060000D03*
X10774800Y36330000D03*
X10774800Y37600000D03*
X10774800Y38870000D03*
X10774800Y40140000D03*
X7625200Y40140000D03*
X7625200Y38870000D03*
X7625200Y37600000D03*
X7625200Y36330000D03*
X7625200Y35060000D03*
%TD*%
D53*
%TO.C,C74*%
X51500000Y85050000D03*
X54450000Y85050000D03*
%TD*%
D84*
%TO.C,Q2*%
X43305991Y20753353D03*
X43305991Y18853353D03*
X45580991Y19803353D03*
%TD*%
D85*
%TO.C,J5*%
X57125000Y24136500D03*
X58225000Y24136500D03*
X59325000Y24136500D03*
X60425000Y24136500D03*
X61525000Y24136500D03*
X62625000Y24136500D03*
X63725000Y24136500D03*
X64825000Y24136500D03*
D86*
X65875000Y24236500D03*
D87*
X54325000Y8436500D03*
D88*
X53325000Y9136500D03*
D89*
X54075000Y8686500D03*
D90*
X55225000Y24136500D03*
D91*
X66625000Y19936500D03*
D92*
X66625000Y10136500D03*
D42*
X66625000Y13736500D03*
%TD*%
D26*
%TO.C,R21*%
X94100000Y39050000D03*
X94100000Y37650000D03*
%TD*%
D28*
%TO.C,C140*%
X94100000Y57850000D03*
X92500000Y57850000D03*
%TD*%
D76*
%TO.C,C119*%
X97800000Y82650000D03*
X97800000Y81650000D03*
%TD*%
D26*
%TO.C,R94*%
X54562157Y81598405D03*
X54562157Y80198405D03*
%TD*%
D75*
%TO.C,C127*%
X53600000Y61050000D03*
X53600000Y58100000D03*
%TD*%
D15*
%TO.C,R18*%
X78700000Y73550000D03*
X78700000Y74950000D03*
%TD*%
D26*
%TO.C,C39*%
X78426933Y50921359D03*
X78426933Y49521359D03*
%TD*%
D28*
%TO.C,C110*%
X10350000Y78350000D03*
X8750000Y78350000D03*
%TD*%
D53*
%TO.C,C93*%
X32525000Y27400000D03*
X35475000Y27400000D03*
%TD*%
D29*
%TO.C,C122*%
X47165000Y77962500D03*
X48565000Y77962500D03*
%TD*%
D93*
%TO.C,U40*%
X95575000Y53450000D03*
X94925000Y53450000D03*
X94275000Y53450000D03*
X93625000Y53450000D03*
X93625000Y49350000D03*
X94275000Y49350000D03*
X94925000Y49350000D03*
X95575000Y49350000D03*
%TD*%
D94*
%TO.C,D16*%
X91700000Y49250000D03*
X91700000Y47150000D03*
%TD*%
D26*
%TO.C,R24*%
X91800000Y44250000D03*
X91800000Y42850000D03*
%TD*%
%TO.C,C134*%
X84070000Y24930000D03*
X84070000Y23530000D03*
%TD*%
D81*
%TO.C,C11*%
X65939118Y70229238D03*
X64939118Y70229238D03*
%TD*%
D19*
%TO.C,R29*%
X31200000Y76600000D03*
X29800000Y76600000D03*
%TD*%
D76*
%TO.C,C1*%
X60839118Y71408488D03*
X60839118Y70408488D03*
%TD*%
D26*
%TO.C,C30*%
X39690000Y19640000D03*
X39690000Y18240000D03*
%TD*%
%TO.C,C102*%
X91250000Y34350000D03*
X91250000Y32950000D03*
%TD*%
D19*
%TO.C,R15*%
X90400000Y76114003D03*
X89000000Y76114003D03*
%TD*%
D26*
%TO.C,R122*%
X95200000Y41250000D03*
X95200000Y39850000D03*
%TD*%
D14*
%TO.C,D17*%
X78400000Y5712500D03*
X78400000Y7287500D03*
%TD*%
D15*
%TO.C,R55*%
X41550000Y26600000D03*
X41550000Y28000000D03*
%TD*%
%TO.C,C43*%
X71000000Y37150000D03*
X71000000Y38550000D03*
%TD*%
D19*
%TO.C,C17*%
X59400000Y26200000D03*
X58000000Y26200000D03*
%TD*%
%TO.C,C124*%
X44175000Y67500000D03*
X42775000Y67500000D03*
%TD*%
D26*
%TO.C,R38*%
X7550000Y78300000D03*
X7550000Y76900000D03*
%TD*%
%TO.C,C92*%
X71015000Y41227500D03*
X71015000Y39827500D03*
%TD*%
D15*
%TO.C,R49*%
X26650000Y89100000D03*
X26650000Y90500000D03*
%TD*%
D80*
%TO.C,C112*%
X21050000Y86750000D03*
X21050000Y88350000D03*
%TD*%
D52*
%TO.C,C35*%
X30775000Y27000000D03*
X27825000Y27000000D03*
%TD*%
D16*
%TO.C,C42*%
X73405000Y48187500D03*
X74405000Y48187500D03*
%TD*%
D80*
%TO.C,C52*%
X85850000Y13400000D03*
X85850000Y15000000D03*
%TD*%
D26*
%TO.C,R86*%
X51350000Y71750000D03*
X51350000Y70350000D03*
%TD*%
D95*
%TO.C,U17*%
X66730000Y47530000D03*
X67850000Y47530000D03*
X68970000Y47530000D03*
X66730000Y48650000D03*
X67850000Y48650000D03*
X68970000Y48650000D03*
X66730000Y49770000D03*
X67850000Y49770000D03*
X68970000Y49770000D03*
D96*
X66350000Y46200000D03*
X66850000Y46200000D03*
X67350000Y46200000D03*
X67850000Y46200000D03*
X68350000Y46200000D03*
X68850000Y46200000D03*
X69350000Y46200000D03*
D97*
X70300000Y47150000D03*
X70300000Y47650000D03*
X70300000Y48150000D03*
X70300000Y48650000D03*
X70300000Y49150000D03*
X70300000Y49650000D03*
X70300000Y50150000D03*
D96*
X69350000Y51100000D03*
X68850000Y51100000D03*
X68350000Y51100000D03*
X67850000Y51100000D03*
X67350000Y51100000D03*
X66850000Y51100000D03*
X66350000Y51100000D03*
D97*
X65400000Y50150000D03*
X65400000Y49650000D03*
X65400000Y49150000D03*
X65400000Y48650000D03*
X65400000Y48150000D03*
X65400000Y47650000D03*
X65400000Y47150000D03*
%TD*%
D19*
%TO.C,C91*%
X73379506Y35465987D03*
X71979506Y35465987D03*
%TD*%
D26*
%TO.C,R112*%
X95800000Y60200000D03*
X95800000Y58800000D03*
%TD*%
D80*
%TO.C,C111*%
X19050000Y83450000D03*
X19050000Y85050000D03*
%TD*%
D19*
%TO.C,C97*%
X81600000Y63000000D03*
X80200000Y63000000D03*
%TD*%
D76*
%TO.C,R12*%
X90600000Y72350000D03*
X90600000Y71350000D03*
%TD*%
D81*
%TO.C,C2*%
X63489118Y79258488D03*
X62489118Y79258488D03*
%TD*%
%TO.C,C143*%
X68989118Y79258488D03*
X67989118Y79258488D03*
%TD*%
D15*
%TO.C,C133*%
X90600000Y29350000D03*
X90600000Y30750000D03*
%TD*%
D81*
%TO.C,C59*%
X92550000Y72325000D03*
X91550000Y72325000D03*
%TD*%
D98*
%TO.C,U25*%
X93100000Y44200000D03*
X93100000Y43550000D03*
X93100000Y42900000D03*
X95300000Y42900000D03*
X95300000Y43550000D03*
X95300000Y44200000D03*
%TD*%
D80*
%TO.C,C5*%
X89150000Y13400000D03*
X89150000Y15000000D03*
%TD*%
D26*
%TO.C,R3*%
X49950000Y78700000D03*
X49950000Y77300000D03*
%TD*%
D99*
%TO.C,U30*%
X7650000Y69110000D03*
X7650000Y67840000D03*
X7650000Y66570000D03*
X7650000Y65300000D03*
X12600000Y65300000D03*
X12600000Y66570000D03*
X12600000Y67840000D03*
X12600000Y69110000D03*
%TD*%
D26*
%TO.C,R88*%
X46350000Y61100000D03*
X46350000Y59700000D03*
%TD*%
%TO.C,C64*%
X87200000Y68500000D03*
X87200000Y67100000D03*
%TD*%
D100*
%TO.C,L23*%
X85850000Y10100000D03*
X89150000Y10100000D03*
%TD*%
D80*
%TO.C,C114*%
X19400000Y86750000D03*
X19400000Y88350000D03*
%TD*%
D81*
%TO.C,R19*%
X83500000Y77450000D03*
X82500000Y77450000D03*
%TD*%
D19*
%TO.C,R53*%
X42350000Y46800000D03*
X40950000Y46800000D03*
%TD*%
D24*
%TO.C,L12*%
X87200000Y63987500D03*
X87200000Y62412500D03*
%TD*%
D16*
%TO.C,C4*%
X63564118Y75808488D03*
X64564118Y75808488D03*
%TD*%
D26*
%TO.C,R44*%
X30700000Y10225000D03*
X30700000Y8825000D03*
%TD*%
D16*
%TO.C,C83*%
X87180000Y52750000D03*
X88180000Y52750000D03*
%TD*%
D75*
%TO.C,C126*%
X50300000Y61050000D03*
X50300000Y58100000D03*
%TD*%
D83*
%TO.C,X1*%
X77332508Y50967492D03*
X75282508Y50967492D03*
X75282508Y49517492D03*
X77332508Y49517492D03*
%TD*%
D101*
%TO.C,U36*%
X47500000Y64535000D03*
X46310000Y64535000D03*
X47500000Y63715000D03*
X46310000Y63715000D03*
D102*
X47655000Y65575000D03*
X47155000Y65575000D03*
X46655000Y65575000D03*
X46155000Y65575000D03*
X46155000Y62675000D03*
X46655000Y62675000D03*
X47155000Y62675000D03*
X47655000Y62675000D03*
%TD*%
D26*
%TO.C,R68*%
X16150000Y67250000D03*
X16150000Y65850000D03*
%TD*%
D15*
%TO.C,C82*%
X74480961Y45505000D03*
X74480961Y46905000D03*
%TD*%
D103*
%TO.C,L11*%
X64496766Y51285278D03*
X64496766Y52255278D03*
%TD*%
D26*
%TO.C,R10*%
X61100000Y51500000D03*
X61100000Y50100000D03*
%TD*%
%TO.C,R43*%
X28700000Y10225000D03*
X28700000Y8825000D03*
%TD*%
D15*
%TO.C,R87*%
X50100000Y70400000D03*
X50100000Y71800000D03*
%TD*%
D29*
%TO.C,R82*%
X40400000Y78900000D03*
X41800000Y78900000D03*
%TD*%
D78*
%TO.C,U12*%
X34050000Y89362500D03*
X34700000Y89362500D03*
X35350000Y89362500D03*
X35350000Y91037500D03*
X34700000Y91037500D03*
X34050000Y91037500D03*
%TD*%
D29*
%TO.C,C57*%
X93800000Y72600000D03*
X95200000Y72600000D03*
%TD*%
D26*
%TO.C,C45*%
X78892723Y35546115D03*
X78892723Y34146115D03*
%TD*%
D104*
%TO.C,R31*%
X24900000Y84000000D03*
X22100000Y84000000D03*
%TD*%
D26*
%TO.C,R63*%
X24100000Y88200000D03*
X24100000Y86800000D03*
%TD*%
D15*
%TO.C,R30*%
X54225000Y73600000D03*
X54225000Y75000000D03*
%TD*%
D19*
%TO.C,C136*%
X87100000Y19200000D03*
X85700000Y19200000D03*
%TD*%
D14*
%TO.C,D8*%
X21550000Y5712500D03*
X21550000Y7287500D03*
%TD*%
D15*
%TO.C,R66*%
X12500000Y71000000D03*
X12500000Y72400000D03*
%TD*%
D29*
%TO.C,R76*%
X12800000Y54800000D03*
X14200000Y54800000D03*
%TD*%
D19*
%TO.C,R28*%
X31200000Y77750000D03*
X29800000Y77750000D03*
%TD*%
D105*
%TO.C,U27*%
X90437500Y39677500D03*
X90437500Y39027500D03*
X90437500Y38377500D03*
X92112500Y38377500D03*
X92112500Y39677500D03*
%TD*%
D106*
%TO.C,J8*%
X36040000Y11900000D03*
X37040000Y11900000D03*
X38040000Y11900000D03*
X39040000Y11900000D03*
X40040000Y11900000D03*
X41040000Y11900000D03*
X42040000Y11900000D03*
X43040000Y11900000D03*
X44040000Y11900000D03*
X45040000Y11900000D03*
X46040000Y11900000D03*
X47040000Y11900000D03*
X48040000Y11900000D03*
X49040000Y11900000D03*
D107*
X34590000Y8776000D03*
X50490000Y8776000D03*
%TD*%
D52*
%TO.C,C6*%
X35875000Y81700000D03*
X32925000Y81700000D03*
%TD*%
D15*
%TO.C,C66*%
X78700000Y75750000D03*
X78700000Y77150000D03*
%TD*%
D19*
%TO.C,R22*%
X76700000Y48350000D03*
X75300000Y48350000D03*
%TD*%
D15*
%TO.C,R90*%
X52900000Y73600000D03*
X52900000Y75000000D03*
%TD*%
D26*
%TO.C,R114*%
X91900000Y53800000D03*
X91900000Y52400000D03*
%TD*%
D15*
%TO.C,C81*%
X77480074Y45750000D03*
X77480074Y47150000D03*
%TD*%
D108*
%TO.C,U1*%
X19375000Y56825000D03*
X20645000Y56825000D03*
X21915000Y56825000D03*
X23185000Y56825000D03*
X24455000Y56825000D03*
X25725000Y56825000D03*
X26995000Y56825000D03*
X28265000Y56825000D03*
X29535000Y56825000D03*
X30805000Y56825000D03*
X32075000Y56825000D03*
X33345000Y56825000D03*
X34615000Y56825000D03*
X35885000Y56825000D03*
X37155000Y56825000D03*
X38425000Y56825000D03*
X19375000Y55555000D03*
X20645000Y55555000D03*
X21915000Y55555000D03*
X23185000Y55555000D03*
X24455000Y55555000D03*
X25725000Y55555000D03*
X26995000Y55555000D03*
X28265000Y55555000D03*
X29535000Y55555000D03*
X30805000Y55555000D03*
X32075000Y55555000D03*
X33345000Y55555000D03*
X34615000Y55555000D03*
X35885000Y55555000D03*
X37155000Y55555000D03*
X38425000Y55555000D03*
X19375000Y54285000D03*
X20645000Y54285000D03*
X21915000Y54285000D03*
X23185000Y54285000D03*
X24455000Y54285000D03*
X25725000Y54285000D03*
X26995000Y54285000D03*
X28265000Y54285000D03*
X29535000Y54285000D03*
X30805000Y54285000D03*
X32075000Y54285000D03*
X33345000Y54285000D03*
X34615000Y54285000D03*
X35885000Y54285000D03*
X37155000Y54285000D03*
X38425000Y54285000D03*
X19375000Y53015000D03*
X20645000Y53015000D03*
X21915000Y53015000D03*
X23185000Y53015000D03*
X24455000Y53015000D03*
X25725000Y53015000D03*
X26995000Y53015000D03*
X28265000Y53015000D03*
X29535000Y53015000D03*
X30805000Y53015000D03*
X32075000Y53015000D03*
X33345000Y53015000D03*
X34615000Y53015000D03*
X35885000Y53015000D03*
X37155000Y53015000D03*
X38425000Y53015000D03*
X19375000Y51745000D03*
X20645000Y51745000D03*
X21915000Y51745000D03*
X23185000Y51745000D03*
X24455000Y51745000D03*
X25725000Y51745000D03*
X26995000Y51745000D03*
X28265000Y51745000D03*
X29535000Y51745000D03*
X30805000Y51745000D03*
X32075000Y51745000D03*
X33345000Y51745000D03*
X34615000Y51745000D03*
X35885000Y51745000D03*
X37155000Y51745000D03*
X38425000Y51745000D03*
X19375000Y50475000D03*
X20645000Y50475000D03*
X21915000Y50475000D03*
X23185000Y50475000D03*
X24455000Y50475000D03*
X25725000Y50475000D03*
X26995000Y50475000D03*
X28265000Y50475000D03*
X29535000Y50475000D03*
X30805000Y50475000D03*
X32075000Y50475000D03*
X33345000Y50475000D03*
X34615000Y50475000D03*
X35885000Y50475000D03*
X37155000Y50475000D03*
X38425000Y50475000D03*
X19375000Y49205000D03*
X20645000Y49205000D03*
X21915000Y49205000D03*
X23185000Y49205000D03*
X24455000Y49205000D03*
X25725000Y49205000D03*
X26995000Y49205000D03*
X28265000Y49205000D03*
X29535000Y49205000D03*
X30805000Y49205000D03*
X32075000Y49205000D03*
X33345000Y49205000D03*
X34615000Y49205000D03*
X35885000Y49205000D03*
X37155000Y49205000D03*
X38425000Y49205000D03*
X19375000Y47935000D03*
X20645000Y47935000D03*
X21915000Y47935000D03*
X23185000Y47935000D03*
X24455000Y47935000D03*
X25725000Y47935000D03*
X26995000Y47935000D03*
X28265000Y47935000D03*
X29535000Y47935000D03*
X30805000Y47935000D03*
X32075000Y47935000D03*
X33345000Y47935000D03*
X34615000Y47935000D03*
X35885000Y47935000D03*
X37155000Y47935000D03*
X38425000Y47935000D03*
X19375000Y46665000D03*
X20645000Y46665000D03*
X21915000Y46665000D03*
X23185000Y46665000D03*
X24455000Y46665000D03*
X25725000Y46665000D03*
X26995000Y46665000D03*
X28265000Y46665000D03*
X29535000Y46665000D03*
X30805000Y46665000D03*
X32075000Y46665000D03*
X33345000Y46665000D03*
X34615000Y46665000D03*
X35885000Y46665000D03*
X37155000Y46665000D03*
X38425000Y46665000D03*
X19375000Y45395000D03*
X20645000Y45395000D03*
X21915000Y45395000D03*
X23185000Y45395000D03*
X24455000Y45395000D03*
X25725000Y45395000D03*
X26995000Y45395000D03*
X28265000Y45395000D03*
X29535000Y45395000D03*
X30805000Y45395000D03*
X32075000Y45395000D03*
X33345000Y45395000D03*
X34615000Y45395000D03*
X35885000Y45395000D03*
X37155000Y45395000D03*
X38425000Y45395000D03*
X19375000Y44125000D03*
X20645000Y44125000D03*
X21915000Y44125000D03*
X23185000Y44125000D03*
X24455000Y44125000D03*
X25725000Y44125000D03*
X26995000Y44125000D03*
X28265000Y44125000D03*
X29535000Y44125000D03*
X30805000Y44125000D03*
X32075000Y44125000D03*
X33345000Y44125000D03*
X34615000Y44125000D03*
X35885000Y44125000D03*
X37155000Y44125000D03*
X38425000Y44125000D03*
X19375000Y42855000D03*
X20645000Y42855000D03*
X21915000Y42855000D03*
X23185000Y42855000D03*
X24455000Y42855000D03*
X25725000Y42855000D03*
X26995000Y42855000D03*
X28265000Y42855000D03*
X29535000Y42855000D03*
X30805000Y42855000D03*
X32075000Y42855000D03*
X33345000Y42855000D03*
X34615000Y42855000D03*
X35885000Y42855000D03*
X37155000Y42855000D03*
X38425000Y42855000D03*
X19375000Y41585000D03*
X20645000Y41585000D03*
X21915000Y41585000D03*
X23185000Y41585000D03*
X24455000Y41585000D03*
X25725000Y41585000D03*
X26995000Y41585000D03*
X28265000Y41585000D03*
X29535000Y41585000D03*
X30805000Y41585000D03*
X32075000Y41585000D03*
X33345000Y41585000D03*
X34615000Y41585000D03*
X35885000Y41585000D03*
X37155000Y41585000D03*
X38425000Y41585000D03*
X19375000Y40315000D03*
X20645000Y40315000D03*
X21915000Y40315000D03*
X23185000Y40315000D03*
X24455000Y40315000D03*
X25725000Y40315000D03*
X26995000Y40315000D03*
X28265000Y40315000D03*
X29535000Y40315000D03*
X30805000Y40315000D03*
X32075000Y40315000D03*
X33345000Y40315000D03*
X34615000Y40315000D03*
X35885000Y40315000D03*
X37155000Y40315000D03*
X38425000Y40315000D03*
X19375000Y39045000D03*
X20645000Y39045000D03*
X21915000Y39045000D03*
X23185000Y39045000D03*
X24455000Y39045000D03*
X25725000Y39045000D03*
X26995000Y39045000D03*
X28265000Y39045000D03*
X29535000Y39045000D03*
X30805000Y39045000D03*
X32075000Y39045000D03*
X33345000Y39045000D03*
X34615000Y39045000D03*
X35885000Y39045000D03*
X37155000Y39045000D03*
X38425000Y39045000D03*
X19375000Y37775000D03*
X20645000Y37775000D03*
X21915000Y37775000D03*
X23185000Y37775000D03*
X24455000Y37775000D03*
X25725000Y37775000D03*
X26995000Y37775000D03*
X28265000Y37775000D03*
X29535000Y37775000D03*
X30805000Y37775000D03*
X32075000Y37775000D03*
X33345000Y37775000D03*
X34615000Y37775000D03*
X35885000Y37775000D03*
X37155000Y37775000D03*
X38425000Y37775000D03*
%TD*%
D51*
%TO.C,FB2*%
X82037500Y10100000D03*
X83862500Y10100000D03*
%TD*%
D19*
%TO.C,C21*%
X19900000Y17700000D03*
X18500000Y17700000D03*
%TD*%
D14*
%TO.C,D11*%
X71750000Y5712500D03*
X71750000Y7287500D03*
%TD*%
D16*
%TO.C,C55*%
X95000000Y69050000D03*
X96000000Y69050000D03*
%TD*%
D19*
%TO.C,R60*%
X13800000Y91700000D03*
X12400000Y91700000D03*
%TD*%
D14*
%TO.C,D15*%
X75100000Y5712500D03*
X75100000Y7287500D03*
%TD*%
D15*
%TO.C,R1*%
X71750000Y8700000D03*
X71750000Y10100000D03*
%TD*%
D74*
%TO.C,C47*%
X62650000Y32200000D03*
X64250000Y32200000D03*
%TD*%
D78*
%TO.C,U18*%
X92525000Y69187500D03*
X93175000Y69187500D03*
X93825000Y69187500D03*
X93825000Y70862500D03*
X93175000Y70862500D03*
X92525000Y70862500D03*
%TD*%
D26*
%TO.C,C129*%
X30800000Y93700000D03*
X30800000Y92300000D03*
%TD*%
D15*
%TO.C,R92*%
X36900000Y89300000D03*
X36900000Y90700000D03*
%TD*%
D109*
%TO.C,U21*%
X87190000Y55700000D03*
D110*
X87300000Y57200000D03*
D109*
X87190000Y58700000D03*
%TD*%
D69*
%TO.C,U16*%
X77825000Y38375000D03*
X77825000Y39775000D03*
X77825000Y41175000D03*
X77825000Y42575000D03*
X76425000Y38375000D03*
X76425000Y39775000D03*
X76425000Y41175000D03*
X76425000Y42575000D03*
X75025000Y38375000D03*
X75025000Y39775000D03*
X75025000Y41175000D03*
X75025000Y42575000D03*
X73625000Y38375000D03*
X73625000Y39775000D03*
X73625000Y41175000D03*
X73625000Y42575000D03*
D70*
X79162500Y37725000D03*
X79162500Y38225000D03*
X79162500Y38725000D03*
X79162500Y39225000D03*
X79162500Y39725000D03*
X79162500Y40225000D03*
X79162500Y40725000D03*
X79162500Y41225000D03*
X79162500Y41725000D03*
X79162500Y42225000D03*
X79162500Y42725000D03*
X79162500Y43225000D03*
D71*
X78475000Y43912500D03*
X77975000Y43912500D03*
X77475000Y43912500D03*
X76975000Y43912500D03*
X76475000Y43912500D03*
X75975000Y43912500D03*
X75475000Y43912500D03*
X74975000Y43912500D03*
X74475000Y43912500D03*
X73975000Y43912500D03*
X73475000Y43912500D03*
X72975000Y43912500D03*
D70*
X72287500Y43225000D03*
X72287500Y42725000D03*
X72287500Y42225000D03*
X72287500Y41725000D03*
X72287500Y41225000D03*
X72287500Y40725000D03*
X72287500Y40225000D03*
X72287500Y39725000D03*
X72287500Y39225000D03*
X72287500Y38725000D03*
X72287500Y38225000D03*
X72287500Y37725000D03*
D71*
X72975000Y37037500D03*
X73475000Y37037500D03*
X73975000Y37037500D03*
X74475000Y37037500D03*
X74975000Y37037500D03*
X75475000Y37037500D03*
X75975000Y37037500D03*
X76475000Y37037500D03*
X76975000Y37037500D03*
X77475000Y37037500D03*
X77975000Y37037500D03*
X78475000Y37037500D03*
%TD*%
D19*
%TO.C,C22*%
X19900000Y16200000D03*
X18500000Y16200000D03*
%TD*%
D111*
%TO.C,U10*%
X39312500Y32950000D03*
X39312500Y33600000D03*
X39312500Y34250000D03*
X37637500Y34250000D03*
X37637500Y32950000D03*
%TD*%
D112*
%TO.C,Y2*%
X23850000Y60900000D03*
X26350000Y60900000D03*
%TD*%
D113*
%TO.C,U35*%
X47695000Y74062500D03*
X46665000Y74062500D03*
X45635000Y74062500D03*
X47695000Y72862500D03*
X46665000Y72862500D03*
X45635000Y72862500D03*
D114*
X48570000Y76025000D03*
X47300000Y76025000D03*
X46030000Y76025000D03*
X44760000Y76025000D03*
X44760000Y70900000D03*
X46030000Y70900000D03*
X47300000Y70900000D03*
X48570000Y70900000D03*
%TD*%
D115*
%TO.C,Q1*%
X14000000Y70975000D03*
X15900000Y70975000D03*
X14950000Y72850000D03*
%TD*%
D116*
%TO.C,U19*%
X87225000Y70410000D03*
X87225000Y71400000D03*
X87225000Y72390000D03*
X85175000Y72390000D03*
X85175000Y71400000D03*
X85175000Y70410000D03*
%TD*%
D14*
%TO.C,D4*%
X26700000Y5712500D03*
X26700000Y7287500D03*
%TD*%
D15*
%TO.C,R17*%
X94950000Y66150000D03*
X94950000Y67550000D03*
%TD*%
D74*
%TO.C,C16*%
X61550000Y26300000D03*
X63150000Y26300000D03*
%TD*%
D36*
%TO.C,Q3*%
X84850000Y65337500D03*
X82950000Y65337500D03*
X83900000Y63462500D03*
%TD*%
D26*
%TO.C,R34*%
X7650000Y89700000D03*
X7650000Y88300000D03*
%TD*%
D15*
%TO.C,R57*%
X41300000Y30200000D03*
X41300000Y31600000D03*
%TD*%
D29*
%TO.C,R81*%
X79650000Y66150000D03*
X81050000Y66150000D03*
%TD*%
D26*
%TO.C,R89*%
X47450000Y61100000D03*
X47450000Y59700000D03*
%TD*%
%TO.C,C50*%
X72000000Y48650000D03*
X72000000Y47250000D03*
%TD*%
D14*
%TO.C,D2*%
X24450000Y5712500D03*
X24450000Y7287500D03*
%TD*%
D40*
%TO.C,L13*%
X87200000Y54660000D03*
X87200000Y53690000D03*
%TD*%
D15*
%TO.C,C29*%
X22650000Y59500000D03*
X22650000Y60900000D03*
%TD*%
D117*
%TO.C,U26*%
X94150000Y64300000D03*
X93200000Y64300000D03*
X92250000Y64300000D03*
X92250000Y62025000D03*
X94150000Y62025000D03*
%TD*%
D16*
%TO.C,C118*%
X94600000Y90000000D03*
X95600000Y90000000D03*
%TD*%
M02*
